M48
; DRILL file {KiCad 6.0.2+dfsg-1} date Mon 14 Nov 2022 09:07:37 PM WET
; FORMAT={-:-/ absolute / metric / decimal}
; #@! TF.CreationDate,2022-11-14T21:07:37+00:00
; #@! TF.GenerationSoftware,Kicad,Pcbnew,6.0.2+dfsg-1
; #@! TF.FileFunction,Plated,1,2,PTH
FMAT,2
METRIC
; #@! TA.AperFunction,Plated,PTH,ViaDrill
T1C0.300
; #@! TA.AperFunction,Plated,PTH,ComponentDrill
T2C0.400
; #@! TA.AperFunction,Plated,PTH,ComponentDrill
T3C0.813
; #@! TA.AperFunction,Plated,PTH,ComponentDrill
T4C0.991
; #@! TA.AperFunction,Plated,PTH,ComponentDrill
T5C1.000
; #@! TA.AperFunction,Plated,PTH,ComponentDrill
T6C1.100
; #@! TA.AperFunction,Plated,PTH,ComponentDrill
T7C1.300
; #@! TA.AperFunction,Plated,PTH,ComponentDrill
T8C1.500
%
G90
G05
T1
X85.55Y-46.9
X86.825Y-99.45
X89.2Y-93.425
X89.2Y-94.05
X89.95Y-86.8
X90.0Y-101.7
X92.475Y-90.85
X92.7Y-134.47
X93.163Y-126.531
X94.375Y-124.475
X97.275Y-90.875
X98.4Y-77.35
X98.425Y-82.3
X98.425Y-83.075
X98.425Y-84.475
X99.8Y-90.875
X100.525Y-126.325
X100.572Y-123.075
X100.681Y-133.01
X101.175Y-90.875
X101.925Y-76.425
X105.25Y-82.275
X105.975Y-92.65
X106.45Y-79.575
X106.475Y-113.025
X108.425Y-117.95
X108.475Y-75.75
X108.75Y-131.525
X108.775Y-46.6
X108.825Y-55.05
X109.025Y-70.65
X109.025Y-111.3
X109.025Y-112.025
X109.075Y-63.825
X109.075Y-115.1
X109.6Y-68.35
X109.6Y-93.35
X109.9Y-40.325
X110.275Y-60.375
X110.275Y-76.425
X110.275Y-96.35
X110.975Y-50.4
X110.975Y-63.45
X110.975Y-81.45
X110.975Y-99.45
X111.116Y-126.297
X111.125Y-117.2
X111.475Y-45.75
X111.925Y-46.3
X112.375Y-46.775
X112.7Y-49.55
X112.7Y-67.529
X112.7Y-76.05
X112.7Y-85.529
X112.7Y-103.529
X112.95Y-118.558
X112.975Y-112.025
X113.95Y-94.625
X114.025Y-73.2
X114.075Y-55.1
X114.075Y-91.2
X114.2Y-58.725
X114.2Y-116.825
X114.5Y-76.775
X115.025Y-122.6
X116.475Y-42.55
X116.475Y-60.529
X116.475Y-78.529
X116.475Y-96.529
X116.8Y-82.7
X116.875Y-64.9
X116.875Y-100.725
X117.75Y-41.275
X117.75Y-59.15
X117.75Y-77.15
X117.75Y-95.15
X119.229Y-126.245
X120.251Y-119.63
X120.55Y-51.6
X120.55Y-69.579
X120.55Y-87.579
X120.55Y-105.579
X120.847Y-116.442
X121.475Y-120.45
X122.875Y-116.15
X123.25Y-45.475
X123.25Y-63.454
X123.25Y-81.454
X123.25Y-99.454
X124.65Y-42.549
X124.65Y-60.529
X124.65Y-78.529
X124.65Y-96.529
X127.05Y-120.85
X128.125Y-75.325
X128.375Y-92.875
X129.175Y-113.4
X130.6Y-120.0
X130.647Y-121.503
X131.05Y-112.425
X131.125Y-37.775
X131.7Y-47.279
X131.7Y-65.279
X131.7Y-83.279
X131.7Y-101.279
X132.45Y-107.75
X132.775Y-77.9
X132.8Y-71.275
X132.825Y-53.075
X133.798Y-114.201
X135.1Y-112.725
X135.3Y-117.95
X135.475Y-40.279
X135.475Y-58.279
X135.475Y-76.279
X135.475Y-94.279
X135.575Y-62.2
X135.575Y-80.275
X135.6Y-98.325
X136.75Y-38.925
X136.75Y-56.9
X136.75Y-74.9
X136.75Y-92.9
X137.025Y-111.55
X138.646Y-122.861
X139.55Y-49.329
X139.55Y-67.329
X139.55Y-85.329
X139.55Y-103.329
X140.802Y-116.524
X141.941Y-113.488
X142.25Y-43.204
X142.25Y-61.204
X142.25Y-79.204
X142.25Y-97.204
X143.65Y-40.279
X143.65Y-58.279
X143.65Y-76.279
X143.65Y-94.279
X144.25Y-33.75
X146.4Y-54.9
X146.975Y-36.05
X148.325Y-127.175
X149.5Y-109.875
X150.1Y-119.954
X150.7Y-41.48
X150.7Y-59.454
X150.7Y-77.454
X150.7Y-95.454
X151.625Y-90.35
X152.05Y-83.925
X152.075Y-101.725
X152.125Y-65.875
X152.25Y-108.175
X152.275Y-47.475
X152.925Y-51.225
X153.875Y-112.954
X154.475Y-34.48
X154.475Y-52.454
X154.475Y-70.454
X154.475Y-88.454
X154.875Y-38.5
X154.9Y-92.65
X154.975Y-74.6
X154.975Y-117.25
X155.0Y-56.65
X155.15Y-111.6
X155.75Y-33.1
X155.75Y-51.1
X155.75Y-69.075
X155.75Y-87.075
X157.95Y-122.004
X158.475Y-106.05
X158.55Y-43.529
X158.55Y-61.505
X158.55Y-79.504
X158.55Y-97.504
X160.65Y-115.879
X160.65Y-117.075
X161.15Y-118.875
X161.25Y-37.404
X161.25Y-55.38
X161.25Y-73.379
X161.25Y-91.379
X162.05Y-110.8
X162.05Y-112.954
X162.65Y-34.479
X162.65Y-52.454
X162.65Y-70.454
X162.65Y-88.454
X165.5Y-108.425
X166.9Y-102.575
X167.8Y-115.0
X168.525Y-56.825
X169.1Y-119.98
X169.3Y-34.9
X169.7Y-47.979
X169.7Y-65.98
X169.7Y-83.98
X169.7Y-101.98
X169.7Y-113.1
X170.675Y-53.725
X170.725Y-107.65
X170.825Y-71.875
X170.825Y-89.725
X172.875Y-112.98
X173.425Y-117.075
X173.475Y-40.98
X173.475Y-58.979
X173.475Y-76.98
X173.475Y-94.98
X173.575Y-62.9
X173.575Y-81.05
X173.625Y-99.125
X174.15Y-111.6
X174.75Y-39.625
X174.75Y-57.6
X174.75Y-75.6
X174.75Y-93.6
X176.95Y-122.029
X177.55Y-50.029
X177.55Y-68.029
X177.55Y-86.029
X177.55Y-104.029
X179.65Y-115.904
X180.25Y-43.904
X180.25Y-61.904
X180.25Y-79.904
X180.25Y-97.904
X181.05Y-112.979
X181.65Y-40.979
X181.65Y-58.979
X181.65Y-76.979
X181.65Y-94.979
X184.75Y-116.3
X185.55Y-90.475
X186.05Y-44.15
X186.775Y-124.525
X188.175Y-100.925
X188.7Y-60.729
X188.7Y-78.73
X188.7Y-96.73
X188.7Y-114.704
X188.866Y-43.47
X189.6Y-75.35
X190.3Y-46.9
X190.325Y-105.275
X190.6Y-88.05
X191.45Y-102.4
X192.475Y-53.729
X192.475Y-71.73
X192.475Y-89.73
X192.475Y-107.704
X192.975Y-93.75
X193.75Y-52.375
X193.75Y-70.35
X193.75Y-88.35
X193.75Y-106.35
X196.55Y-62.779
X196.55Y-80.779
X196.55Y-98.779
X196.55Y-116.754
X199.225Y-111.375
X199.25Y-56.654
X199.25Y-74.654
X199.25Y-92.654
X199.25Y-110.629
X200.65Y-53.729
X200.65Y-71.729
X200.65Y-89.729
X200.65Y-107.704
X204.825Y-120.75
X207.675Y-124.425
X207.7Y-51.625
X207.7Y-60.729
X207.7Y-78.73
X207.7Y-96.73
X207.7Y-114.704
X208.425Y-90.925
X208.5Y-72.6
X208.625Y-54.4
X209.05Y-106.35
X209.075Y-52.375
X209.1Y-46.9
X209.15Y-70.375
X209.15Y-88.375
X209.175Y-102.525
X209.75Y-66.175
X209.9Y-84.125
X211.45Y-53.825
X211.475Y-71.73
X211.475Y-89.73
X211.475Y-107.704
X211.55Y-75.675
X211.6Y-93.7
X211.65Y-57.725
X212.75Y-111.4
X215.55Y-62.779
X215.55Y-80.779
X215.55Y-98.779
X215.55Y-116.754
X218.25Y-56.654
X218.25Y-74.654
X218.25Y-92.654
X218.25Y-110.629
X219.65Y-53.729
X219.65Y-71.729
X219.65Y-89.729
X219.65Y-107.704
T2
X97.638Y-46.58
X97.638Y-49.12
X97.638Y-51.66
X97.638Y-54.2
X97.638Y-56.74
X97.638Y-59.28
X97.638Y-61.82
X97.638Y-64.36
X97.638Y-66.9
X97.638Y-69.44
X97.638Y-71.98
X97.638Y-74.52
X99.162Y-46.58
X99.162Y-49.12
X99.162Y-51.66
X99.162Y-54.2
X99.162Y-56.74
X99.162Y-59.28
X99.162Y-61.82
X99.162Y-64.36
X99.162Y-66.9
X99.162Y-69.44
X99.162Y-71.98
X99.162Y-74.52
T3
X93.335Y-78.85
X95.875Y-78.85
X98.415Y-78.85
X100.955Y-78.85
X103.495Y-78.85
T4
X87.315Y-116.45
X87.315Y-118.9
X87.315Y-121.375
X88.0Y-105.64
X88.0Y-113.26
X94.935Y-116.45
X94.935Y-118.9
X94.935Y-121.375
X116.69Y-75.4
X116.69Y-111.3
X116.74Y-57.325
X116.74Y-93.35
X124.31Y-75.4
X124.31Y-111.3
X124.36Y-57.325
X124.36Y-93.35
X135.69Y-55.1
X135.69Y-91.05
X135.69Y-109.1
X135.74Y-73.05
X143.31Y-55.1
X143.31Y-91.05
X143.31Y-109.1
X143.36Y-73.05
X154.64Y-103.3
X154.665Y-106.0
X154.665Y-108.775
X154.74Y-49.25
X154.74Y-67.25
X154.74Y-85.25
X162.26Y-103.3
X162.285Y-106.0
X162.285Y-108.775
X162.36Y-49.25
X162.36Y-67.25
X162.36Y-85.25
X173.69Y-55.8
X173.69Y-73.75
X173.69Y-91.75
X173.69Y-109.8
X181.31Y-55.8
X181.31Y-73.75
X181.31Y-91.75
X181.31Y-109.8
X192.69Y-68.55
X192.69Y-122.525
X192.69Y-125.0
X192.74Y-86.55
X192.79Y-104.5
X200.31Y-68.55
X200.31Y-122.525
X200.31Y-125.0
X200.36Y-86.55
X200.41Y-104.5
X211.69Y-68.55
X211.69Y-86.5
X211.74Y-104.55
X219.31Y-68.55
X219.31Y-86.5
X219.36Y-104.55
T5
X91.05Y-105.55
X91.05Y-108.05
X91.05Y-110.55
X105.55Y-105.55
X105.55Y-110.55
T6
X90.78Y-46.58
X90.78Y-46.58
X90.78Y-49.12
X90.78Y-51.66
X90.78Y-54.2
X90.78Y-56.74
X90.78Y-59.28
X90.78Y-61.82
X90.78Y-64.36
X90.78Y-66.9
X90.78Y-69.44
X90.78Y-71.98
X90.78Y-74.52
X106.02Y-46.58
X106.02Y-46.58
X106.02Y-49.12
X106.02Y-51.66
X106.02Y-54.2
X106.02Y-56.74
X106.02Y-59.28
X106.02Y-61.82
X106.02Y-64.36
X106.02Y-66.9
X106.02Y-69.44
X106.02Y-71.98
X106.02Y-74.52
T7
X193.325Y-45.2
X199.825Y-45.2
T8
X97.9Y-102.45G85X99.2Y-102.45
G05
X97.9Y-113.65G85X99.2Y-113.65
G05
T0
M30
