%FSLAX45Y45*%
G04 Gerber Fmt 4.5, Leading zero omitted, Abs format (unit mm)*
G04 Created by KiCad (PCBNEW 6.0.2+dfsg-1) date 2022-08-27 13:38:32*
%MOMM*%
%LPD*%
G01*
G04 APERTURE LIST*
%TA.AperFunction,Profile*%
%ADD10C,0.100000*%
%TD*%
%ADD11C,0.200000*%
%ADD12C,0.030000*%
%ADD13C,0.040000*%
%ADD14C,0.081280*%
%ADD15C,0.099060*%
%ADD16C,0.100000*%
%ADD17C,0.110000*%
%ADD18C,0.130000*%
%ADD19C,0.150000*%
G04 APERTURE END LIST*
D10*
X9745000Y-14265000D02*
X10385000Y-13960000D01*
X18055000Y-12910000D02*
G75*
G03*
X22269607Y-12343529I-667818J20930457D01*
G01*
X16800000Y-3095000D02*
G75*
G03*
X15410000Y-3055000I-993491J-10352566D01*
G01*
X9150000Y-14065000D02*
G75*
G03*
X9745000Y-14265000I394174J187604D01*
G01*
X22320000Y-4860000D02*
G75*
G03*
X16800000Y-3095000I-7321029J-13382020D01*
G01*
X15410000Y-3055000D02*
G75*
G03*
X8910000Y-4175000I1452346J-27850401D01*
G01*
X8685000Y-13020000D02*
X9150000Y-14065000D01*
X14845000Y-12935000D02*
X18055000Y-12910000D01*
X22269607Y-12343529D02*
G75*
G03*
X22575000Y-11960000I-66506J366309D01*
G01*
X22573223Y-5265000D02*
G75*
G03*
X22320000Y-4860000I-455442J-3099D01*
G01*
X8495000Y-4750000D02*
X8495000Y-12055000D01*
X8910000Y-4175000D02*
G75*
G03*
X8495000Y-4750000I216806J-593738D01*
G01*
X8495000Y-12055000D02*
G75*
G03*
X8685000Y-13020000I2649531J20465D01*
G01*
X22573223Y-5265000D02*
X22575000Y-11960000D01*
X14845000Y-12935000D02*
G75*
G03*
X10385000Y-13960000I222671J-11184608D01*
G01*
D11*
D12*
X8562500Y-9585000D02*
X8592500Y-9615000D01*
X8592500Y-9585000D02*
X8562500Y-9615000D01*
X8562500Y-10275000D02*
X8592500Y-10305000D01*
X8592500Y-10275000D02*
X8562500Y-10305000D01*
X8568037Y-4728037D02*
X8598037Y-4758037D01*
X8598037Y-4728037D02*
X8568037Y-4758037D01*
X8572500Y-9925000D02*
X8602500Y-9955000D01*
X8602500Y-9925000D02*
X8572500Y-9955000D01*
X8679854Y-7120000D02*
X8709854Y-7150000D01*
X8709854Y-7120000D02*
X8679854Y-7150000D01*
X8735000Y-7250000D02*
X8765000Y-7280000D01*
X8765000Y-7250000D02*
X8735000Y-7280000D01*
X8762500Y-9925000D02*
X8792500Y-9955000D01*
X8792500Y-9925000D02*
X8762500Y-9955000D01*
X8772500Y-9585000D02*
X8802500Y-9615000D01*
X8802500Y-9585000D02*
X8772500Y-9615000D01*
X8772500Y-10275000D02*
X8802500Y-10305000D01*
X8802500Y-10275000D02*
X8772500Y-10305000D01*
X8852500Y-9925000D02*
X8882500Y-9955000D01*
X8882500Y-9925000D02*
X8852500Y-9955000D01*
X8985000Y-12760000D02*
X9015000Y-12790000D01*
X9015000Y-12760000D02*
X8985000Y-12790000D01*
X9085000Y-7975000D02*
X9115000Y-8005000D01*
X9115000Y-7975000D02*
X9085000Y-8005000D01*
X9256752Y-13433248D02*
X9286752Y-13463248D01*
X9286752Y-13433248D02*
X9256752Y-13463248D01*
X9302542Y-12644119D02*
X9332542Y-12674119D01*
X9332542Y-12644119D02*
X9302542Y-12674119D01*
X9315000Y-12485000D02*
X9345000Y-12515000D01*
X9345000Y-12485000D02*
X9315000Y-12515000D01*
X9465000Y-14045000D02*
X9495000Y-14075000D01*
X9495000Y-14045000D02*
X9465000Y-14075000D01*
X9567997Y-12834798D02*
X9597997Y-12864798D01*
X9597997Y-12834798D02*
X9567997Y-12864798D01*
X9625000Y-7745000D02*
X9655000Y-7775000D01*
X9655000Y-7745000D02*
X9625000Y-7775000D01*
X9820000Y-8235000D02*
X9850000Y-8265000D01*
X9850000Y-8235000D02*
X9820000Y-8265000D01*
X10025428Y-12075428D02*
X10055428Y-12105428D01*
X10055428Y-12075428D02*
X10025428Y-12105428D01*
X10036651Y-12301798D02*
X10066651Y-12331798D01*
X10066651Y-12301798D02*
X10036651Y-12331798D01*
X10050000Y-8335000D02*
X10080000Y-8365000D01*
X10080000Y-8335000D02*
X10050000Y-8365000D01*
X10050000Y-8530000D02*
X10080000Y-8560000D01*
X10080000Y-8530000D02*
X10050000Y-8560000D01*
X10065355Y-13298004D02*
X10095355Y-13328004D01*
X10095355Y-13298004D02*
X10065355Y-13328004D01*
X10070509Y-12208773D02*
X10100509Y-12238773D01*
X10100509Y-12208773D02*
X10070509Y-12238773D01*
X10165000Y-12765000D02*
X10195000Y-12795000D01*
X10195000Y-12765000D02*
X10165000Y-12795000D01*
X10355000Y-8235000D02*
X10385000Y-8265000D01*
X10385000Y-8235000D02*
X10355000Y-8265000D01*
X10550000Y-8140000D02*
X10580000Y-8170000D01*
X10580000Y-8140000D02*
X10550000Y-8170000D01*
X10772275Y-12717275D02*
X10802275Y-12747275D01*
X10802275Y-12717275D02*
X10772275Y-12747275D01*
X10800000Y-5150000D02*
X10830000Y-5180000D01*
X10830000Y-5150000D02*
X10800000Y-5180000D01*
X10800000Y-5525000D02*
X10830000Y-5555000D01*
X10830000Y-5525000D02*
X10800000Y-5555000D01*
X10800000Y-7930000D02*
X10830000Y-7960000D01*
X10830000Y-7930000D02*
X10800000Y-7960000D01*
X10857550Y-7560000D02*
X10887550Y-7590000D01*
X10887550Y-7560000D02*
X10857550Y-7590000D01*
X10860000Y-11150000D02*
X10890000Y-11180000D01*
X10890000Y-11150000D02*
X10860000Y-11180000D01*
X10912648Y-7070000D02*
X10942648Y-7100000D01*
X10942648Y-7070000D02*
X10912648Y-7100000D01*
X10935000Y-5475000D02*
X10965000Y-5505000D01*
X10965000Y-5475000D02*
X10935000Y-5505000D01*
X10935000Y-6375000D02*
X10965000Y-6405000D01*
X10965000Y-6375000D02*
X10935000Y-6405000D01*
X10965000Y-9245000D02*
X10995000Y-9275000D01*
X10995000Y-9245000D02*
X10965000Y-9275000D01*
X10965000Y-11040000D02*
X10995000Y-11070000D01*
X10995000Y-11040000D02*
X10965000Y-11070000D01*
X10965098Y-6805000D02*
X10995098Y-6835000D01*
X10995098Y-6805000D02*
X10965098Y-6835000D01*
X11030000Y-5900000D02*
X11060000Y-5930000D01*
X11060000Y-5900000D02*
X11030000Y-5930000D01*
X11030000Y-7700000D02*
X11060000Y-7730000D01*
X11060000Y-7700000D02*
X11030000Y-7730000D01*
X11030000Y-8335000D02*
X11060000Y-8365000D01*
X11060000Y-8335000D02*
X11030000Y-8365000D01*
X11030000Y-9500000D02*
X11060000Y-9530000D01*
X11060000Y-9500000D02*
X11030000Y-9530000D01*
X11030000Y-11270000D02*
X11060000Y-11300000D01*
X11060000Y-11270000D02*
X11030000Y-11300000D01*
X11030048Y-4640000D02*
X11060048Y-4670000D01*
X11060048Y-4640000D02*
X11030048Y-4670000D01*
X11095575Y-12614425D02*
X11125575Y-12644425D01*
X11125575Y-12614425D02*
X11095575Y-12644425D01*
X11100000Y-4640000D02*
X11130000Y-4670000D01*
X11130000Y-4640000D02*
X11100000Y-4670000D01*
X11100000Y-5025000D02*
X11130000Y-5055000D01*
X11130000Y-5025000D02*
X11100000Y-5055000D01*
X11100000Y-6305000D02*
X11130000Y-6335000D01*
X11130000Y-6305000D02*
X11100000Y-6335000D01*
X11100000Y-8235000D02*
X11130000Y-8265000D01*
X11130000Y-8235000D02*
X11100000Y-8265000D01*
X11100000Y-9900000D02*
X11130000Y-9930000D01*
X11130000Y-9900000D02*
X11100000Y-9930000D01*
X11100000Y-10790000D02*
X11130000Y-10820000D01*
X11130000Y-10790000D02*
X11100000Y-10820000D01*
X11100000Y-11275000D02*
X11130000Y-11305000D01*
X11130000Y-11275000D02*
X11100000Y-11305000D01*
X11100000Y-13275000D02*
X11130000Y-13305000D01*
X11130000Y-13275000D02*
X11100000Y-13305000D01*
X11177035Y-11805348D02*
X11207035Y-11835348D01*
X11207035Y-11805348D02*
X11177035Y-11835348D01*
X11255000Y-6735000D02*
X11285000Y-6765000D01*
X11285000Y-6735000D02*
X11255000Y-6765000D01*
X11255000Y-7310000D02*
X11285000Y-7340000D01*
X11285000Y-7310000D02*
X11255000Y-7340000D01*
X11255000Y-8540000D02*
X11285000Y-8570000D01*
X11285000Y-8540000D02*
X11255000Y-8570000D01*
X11255000Y-10360000D02*
X11285000Y-10390000D01*
X11285000Y-10360000D02*
X11255000Y-10390000D01*
X11277256Y-11850963D02*
X11307256Y-11880963D01*
X11307256Y-11850963D02*
X11277256Y-11880963D01*
X11305000Y-4975000D02*
X11335000Y-5005000D01*
X11335000Y-4975000D02*
X11305000Y-5005000D01*
X11355000Y-7860000D02*
X11385000Y-7890000D01*
X11385000Y-7860000D02*
X11355000Y-7890000D01*
X11355000Y-9645000D02*
X11385000Y-9675000D01*
X11385000Y-9645000D02*
X11355000Y-9675000D01*
X11360000Y-9085000D02*
X11390000Y-9115000D01*
X11390000Y-9085000D02*
X11360000Y-9115000D01*
X11375000Y-5685000D02*
X11405000Y-5715000D01*
X11405000Y-5685000D02*
X11375000Y-5715000D01*
X11415000Y-11240000D02*
X11445000Y-11270000D01*
X11445000Y-11240000D02*
X11415000Y-11270000D01*
X11485000Y-12280000D02*
X11515000Y-12310000D01*
X11515000Y-12280000D02*
X11485000Y-12310000D01*
X11555000Y-5970000D02*
X11585000Y-6000000D01*
X11585000Y-5970000D02*
X11555000Y-6000000D01*
X11560000Y-4175000D02*
X11590000Y-4205000D01*
X11590000Y-4175000D02*
X11560000Y-4205000D01*
X11560000Y-7770000D02*
X11590000Y-7800000D01*
X11590000Y-7770000D02*
X11560000Y-7800000D01*
X11560000Y-9567950D02*
X11590000Y-9597950D01*
X11590000Y-9567950D02*
X11560000Y-9597950D01*
X11620000Y-10025000D02*
X11650000Y-10055000D01*
X11650000Y-10025000D02*
X11620000Y-10055000D01*
X11630000Y-4245000D02*
X11660000Y-4275000D01*
X11660000Y-4245000D02*
X11630000Y-4275000D01*
X11630000Y-6040000D02*
X11660000Y-6070000D01*
X11660000Y-6040000D02*
X11630000Y-6070000D01*
X11630000Y-7840000D02*
X11660000Y-7870000D01*
X11660000Y-7840000D02*
X11630000Y-7870000D01*
X11630000Y-9637950D02*
X11660000Y-9667950D01*
X11660000Y-9637950D02*
X11630000Y-9667950D01*
X11645000Y-8230000D02*
X11675000Y-8260000D01*
X11675000Y-8230000D02*
X11645000Y-8260000D01*
X11665000Y-6450000D02*
X11695000Y-6480000D01*
X11695000Y-6450000D02*
X11665000Y-6480000D01*
X11912346Y-12617716D02*
X11942346Y-12647716D01*
X11942346Y-12617716D02*
X11912346Y-12647716D01*
X12035000Y-6955000D02*
X12065000Y-6985000D01*
X12065000Y-6955000D02*
X12035000Y-6985000D01*
X12035000Y-8760000D02*
X12065000Y-8790000D01*
X12065000Y-8760000D02*
X12035000Y-8790000D01*
X12035000Y-10555000D02*
X12065000Y-10585000D01*
X12065000Y-10555000D02*
X12035000Y-10585000D01*
X12040000Y-3925000D02*
X12070000Y-3955000D01*
X12070000Y-3925000D02*
X12040000Y-3955000D01*
X12040000Y-5155000D02*
X12070000Y-5185000D01*
X12070000Y-5155000D02*
X12040000Y-5185000D01*
X12063191Y-11635196D02*
X12093191Y-11665196D01*
X12093191Y-11635196D02*
X12063191Y-11665196D01*
X12112689Y-11549464D02*
X12142689Y-11579464D01*
X12142689Y-11549464D02*
X12112689Y-11579464D01*
X12120000Y-12115000D02*
X12150000Y-12145000D01*
X12150000Y-12115000D02*
X12120000Y-12145000D01*
X12361336Y-11851853D02*
X12391336Y-11881853D01*
X12391336Y-11851853D02*
X12361336Y-11881853D01*
X12430000Y-11800000D02*
X12460000Y-11830000D01*
X12460000Y-11800000D02*
X12430000Y-11830000D01*
X12440000Y-4035098D02*
X12470000Y-4065098D01*
X12470000Y-4035098D02*
X12440000Y-4065098D01*
X12440000Y-4240000D02*
X12470000Y-4270000D01*
X12470000Y-4240000D02*
X12440000Y-4270000D01*
X12440000Y-7840000D02*
X12470000Y-7870000D01*
X12470000Y-7840000D02*
X12440000Y-7870000D01*
X12440000Y-9637950D02*
X12470000Y-9667950D01*
X12470000Y-9637950D02*
X12440000Y-9667950D01*
X12445000Y-6040000D02*
X12475000Y-6070000D01*
X12475000Y-6040000D02*
X12445000Y-6070000D01*
X12510000Y-7770000D02*
X12540000Y-7800000D01*
X12540000Y-7770000D02*
X12510000Y-7800000D01*
X12510000Y-9567950D02*
X12540000Y-9597950D01*
X12540000Y-9567950D02*
X12510000Y-9597950D01*
X12515000Y-5970000D02*
X12545000Y-6000000D01*
X12545000Y-5970000D02*
X12515000Y-6000000D01*
X12520000Y-4170000D02*
X12550000Y-4200000D01*
X12550000Y-4170000D02*
X12520000Y-4200000D01*
X12895000Y-12582500D02*
X12925000Y-12612500D01*
X12925000Y-12582500D02*
X12895000Y-12612500D01*
X13056689Y-12168988D02*
X13086689Y-12198988D01*
X13086689Y-12168988D02*
X13056689Y-12198988D01*
X13155000Y-3620000D02*
X13185000Y-3650000D01*
X13185000Y-3620000D02*
X13155000Y-3650000D01*
X13155000Y-4710000D02*
X13185000Y-4740000D01*
X13185000Y-4710000D02*
X13155000Y-4740000D01*
X13155000Y-6515000D02*
X13185000Y-6545000D01*
X13185000Y-6515000D02*
X13155000Y-6545000D01*
X13155000Y-8315000D02*
X13185000Y-8345000D01*
X13185000Y-8315000D02*
X13155000Y-8345000D01*
X13155000Y-10110000D02*
X13185000Y-10140000D01*
X13185000Y-10110000D02*
X13155000Y-10140000D01*
X13215000Y-11210000D02*
X13245000Y-11240000D01*
X13245000Y-11210000D02*
X13215000Y-11240000D01*
X13250000Y-9065000D02*
X13280000Y-9095000D01*
X13280000Y-9065000D02*
X13250000Y-9095000D01*
X13255000Y-5550000D02*
X13285000Y-5580000D01*
X13285000Y-5550000D02*
X13255000Y-5580000D01*
X13270000Y-7985000D02*
X13300000Y-8015000D01*
X13300000Y-7985000D02*
X13270000Y-8015000D01*
X13290112Y-11346275D02*
X13320112Y-11376275D01*
X13320112Y-11346275D02*
X13290112Y-11376275D01*
X13300000Y-11020000D02*
X13330000Y-11050000D01*
X13330000Y-11020000D02*
X13300000Y-11050000D01*
X13365946Y-11409908D02*
X13395946Y-11439908D01*
X13395946Y-11409908D02*
X13365946Y-11439908D01*
X13460000Y-3945000D02*
X13490000Y-3975000D01*
X13490000Y-3945000D02*
X13460000Y-3975000D01*
X13460000Y-5750000D02*
X13490000Y-5780000D01*
X13490000Y-5750000D02*
X13460000Y-5780000D01*
X13460000Y-7550000D02*
X13490000Y-7580000D01*
X13490000Y-7550000D02*
X13460000Y-7580000D01*
X13460000Y-9347950D02*
X13490000Y-9377950D01*
X13490000Y-9347950D02*
X13460000Y-9377950D01*
X13500000Y-11840000D02*
X13530000Y-11870000D01*
X13530000Y-11840000D02*
X13500000Y-11870000D01*
X13530000Y-4015000D02*
X13560000Y-4045000D01*
X13560000Y-4015000D02*
X13530000Y-4045000D01*
X13530000Y-5820000D02*
X13560000Y-5850000D01*
X13560000Y-5820000D02*
X13530000Y-5850000D01*
X13530000Y-7620000D02*
X13560000Y-7650000D01*
X13560000Y-7620000D02*
X13530000Y-7650000D01*
X13530000Y-9417950D02*
X13560000Y-9447950D01*
X13560000Y-9417950D02*
X13530000Y-9447950D01*
X13545000Y-9795000D02*
X13575000Y-9825000D01*
X13575000Y-9795000D02*
X13545000Y-9825000D01*
X13565000Y-4395000D02*
X13595000Y-4425000D01*
X13595000Y-4395000D02*
X13565000Y-4425000D01*
X13575000Y-6205000D02*
X13605000Y-6235000D01*
X13605000Y-6205000D02*
X13575000Y-6235000D01*
X13848717Y-12281147D02*
X13878717Y-12311147D01*
X13878717Y-12281147D02*
X13848717Y-12311147D01*
X13930000Y-4925000D02*
X13960000Y-4955000D01*
X13960000Y-4925000D02*
X13930000Y-4955000D01*
X13935000Y-6730000D02*
X13965000Y-6760000D01*
X13965000Y-6730000D02*
X13935000Y-6760000D01*
X13935000Y-10325000D02*
X13965000Y-10355000D01*
X13965000Y-10325000D02*
X13935000Y-10355000D01*
X13940000Y-8525000D02*
X13970000Y-8555000D01*
X13970000Y-8525000D02*
X13940000Y-8555000D01*
X14120000Y-11805000D02*
X14150000Y-11835000D01*
X14150000Y-11805000D02*
X14120000Y-11835000D01*
X14167883Y-11339748D02*
X14197883Y-11369748D01*
X14197883Y-11339748D02*
X14167883Y-11369748D01*
X14231516Y-11263913D02*
X14261516Y-11293913D01*
X14261516Y-11263913D02*
X14231516Y-11293913D01*
X14276385Y-11661465D02*
X14306385Y-11691465D01*
X14306385Y-11661465D02*
X14276385Y-11691465D01*
X14340000Y-4015000D02*
X14370000Y-4045000D01*
X14370000Y-4015000D02*
X14340000Y-4045000D01*
X14340000Y-5815000D02*
X14370000Y-5845000D01*
X14370000Y-5815000D02*
X14340000Y-5845000D01*
X14340000Y-7620000D02*
X14370000Y-7650000D01*
X14370000Y-7620000D02*
X14340000Y-7650000D01*
X14340000Y-9417950D02*
X14370000Y-9447950D01*
X14370000Y-9417950D02*
X14340000Y-9447950D01*
X14370000Y-3665000D02*
X14400000Y-3695000D01*
X14400000Y-3665000D02*
X14370000Y-3695000D01*
X14410000Y-3945000D02*
X14440000Y-3975000D01*
X14440000Y-3945000D02*
X14410000Y-3975000D01*
X14410000Y-5745000D02*
X14440000Y-5775000D01*
X14440000Y-5745000D02*
X14410000Y-5775000D01*
X14410000Y-7540000D02*
X14440000Y-7570000D01*
X14440000Y-7540000D02*
X14410000Y-7570000D01*
X14410000Y-9337950D02*
X14440000Y-9367950D01*
X14440000Y-9337950D02*
X14410000Y-9367950D01*
X14885000Y-4460000D02*
X14915000Y-4490000D01*
X14915000Y-4460000D02*
X14885000Y-4490000D01*
X14885000Y-6165000D02*
X14915000Y-6195000D01*
X14915000Y-6165000D02*
X14885000Y-6195000D01*
X14885000Y-7915000D02*
X14915000Y-7945000D01*
X14915000Y-7915000D02*
X14885000Y-7945000D01*
X14885000Y-9820000D02*
X14915000Y-9850000D01*
X14915000Y-9820000D02*
X14885000Y-9850000D01*
X15030000Y-12010000D02*
X15060000Y-12040000D01*
X15060000Y-12010000D02*
X15030000Y-12040000D01*
X15055000Y-4135000D02*
X15085000Y-4165000D01*
X15085000Y-4135000D02*
X15055000Y-4165000D01*
X15055000Y-5935000D02*
X15085000Y-5965000D01*
X15085000Y-5935000D02*
X15055000Y-5965000D01*
X15055000Y-7735000D02*
X15085000Y-7765000D01*
X15085000Y-7735000D02*
X15055000Y-7765000D01*
X15055000Y-9530000D02*
X15085000Y-9560000D01*
X15085000Y-9530000D02*
X15055000Y-9560000D01*
X15080000Y-3520000D02*
X15110000Y-3550000D01*
X15110000Y-3520000D02*
X15080000Y-3550000D01*
X15155000Y-4875000D02*
X15185000Y-4905000D01*
X15185000Y-4875000D02*
X15155000Y-4905000D01*
X15155000Y-6680000D02*
X15185000Y-6710000D01*
X15185000Y-6680000D02*
X15155000Y-6710000D01*
X15155000Y-8485000D02*
X15185000Y-8515000D01*
X15185000Y-8485000D02*
X15155000Y-8515000D01*
X15305000Y-11215000D02*
X15335000Y-11245000D01*
X15335000Y-11215000D02*
X15305000Y-11245000D01*
X15308012Y-11120230D02*
X15338012Y-11150230D01*
X15338012Y-11120230D02*
X15308012Y-11150230D01*
X15360000Y-3365000D02*
X15390000Y-3395000D01*
X15390000Y-3365000D02*
X15360000Y-3395000D01*
X15360000Y-5165000D02*
X15390000Y-5195000D01*
X15390000Y-5165000D02*
X15360000Y-5195000D01*
X15360000Y-6965000D02*
X15390000Y-6995000D01*
X15390000Y-6965000D02*
X15360000Y-6995000D01*
X15360000Y-8762950D02*
X15390000Y-8792950D01*
X15390000Y-8762950D02*
X15360000Y-8792950D01*
X15375050Y-11285000D02*
X15405050Y-11315000D01*
X15405050Y-11285000D02*
X15375050Y-11315000D01*
X15380000Y-5590000D02*
X15410000Y-5620000D01*
X15410000Y-5590000D02*
X15380000Y-5620000D01*
X15405000Y-7410000D02*
X15435000Y-7440000D01*
X15435000Y-7410000D02*
X15405000Y-7440000D01*
X15430000Y-3435000D02*
X15460000Y-3465000D01*
X15460000Y-3435000D02*
X15430000Y-3465000D01*
X15430000Y-5235000D02*
X15460000Y-5265000D01*
X15460000Y-5235000D02*
X15430000Y-5265000D01*
X15430000Y-7035000D02*
X15460000Y-7065000D01*
X15460000Y-7035000D02*
X15430000Y-7065000D01*
X15430000Y-8832950D02*
X15460000Y-8862950D01*
X15460000Y-8832950D02*
X15430000Y-8862950D01*
X15440000Y-9230000D02*
X15470000Y-9260000D01*
X15470000Y-9230000D02*
X15440000Y-9260000D01*
X15780000Y-12195000D02*
X15810000Y-12225000D01*
X15810000Y-12195000D02*
X15780000Y-12225000D01*
X15830000Y-4350000D02*
X15860000Y-4380000D01*
X15860000Y-4350000D02*
X15830000Y-4380000D01*
X15835000Y-6150000D02*
X15865000Y-6180000D01*
X15865000Y-6150000D02*
X15835000Y-6180000D01*
X15835000Y-7950000D02*
X15865000Y-7980000D01*
X15865000Y-7950000D02*
X15835000Y-7980000D01*
X15835000Y-9750000D02*
X15865000Y-9780000D01*
X15865000Y-9750000D02*
X15835000Y-9780000D01*
X16174950Y-11290000D02*
X16204950Y-11320000D01*
X16204950Y-11290000D02*
X16174950Y-11320000D01*
X16240000Y-3435000D02*
X16270000Y-3465000D01*
X16270000Y-3435000D02*
X16240000Y-3465000D01*
X16240000Y-5235000D02*
X16270000Y-5265000D01*
X16270000Y-5235000D02*
X16240000Y-5265000D01*
X16240000Y-7035000D02*
X16270000Y-7065000D01*
X16270000Y-7035000D02*
X16240000Y-7065000D01*
X16240000Y-8832950D02*
X16270000Y-8862950D01*
X16270000Y-8832950D02*
X16240000Y-8862950D01*
X16245000Y-11220000D02*
X16275000Y-11250000D01*
X16275000Y-11220000D02*
X16245000Y-11250000D01*
X16310000Y-3365000D02*
X16340000Y-3395000D01*
X16340000Y-3365000D02*
X16310000Y-3395000D01*
X16310000Y-5165000D02*
X16340000Y-5195000D01*
X16340000Y-5165000D02*
X16310000Y-5195000D01*
X16310000Y-6960000D02*
X16340000Y-6990000D01*
X16340000Y-6960000D02*
X16310000Y-6990000D01*
X16310000Y-8757950D02*
X16340000Y-8787950D01*
X16340000Y-8757950D02*
X16310000Y-8787950D01*
X16940000Y-12015000D02*
X16970000Y-12045000D01*
X16970000Y-12015000D02*
X16940000Y-12045000D01*
X16955000Y-4785000D02*
X16985000Y-4815000D01*
X16985000Y-4785000D02*
X16955000Y-4815000D01*
X16955000Y-6585000D02*
X16985000Y-6615000D01*
X16985000Y-6585000D02*
X16955000Y-6615000D01*
X16955000Y-8385000D02*
X16985000Y-8415000D01*
X16985000Y-8385000D02*
X16955000Y-8415000D01*
X16955000Y-10180000D02*
X16985000Y-10210000D01*
X16985000Y-10180000D02*
X16955000Y-10210000D01*
X16955000Y-11025000D02*
X16985000Y-11055000D01*
X16985000Y-11025000D02*
X16955000Y-11055000D01*
X17005000Y-3775000D02*
X17035000Y-3805000D01*
X17035000Y-3775000D02*
X17005000Y-3805000D01*
X17080000Y-5525000D02*
X17110000Y-5555000D01*
X17110000Y-5525000D02*
X17080000Y-5555000D01*
X17080000Y-7330000D02*
X17110000Y-7360000D01*
X17110000Y-7330000D02*
X17080000Y-7360000D01*
X17080000Y-9130000D02*
X17110000Y-9160000D01*
X17110000Y-9130000D02*
X17080000Y-9160000D01*
X17105000Y-4360000D02*
X17135000Y-4390000D01*
X17135000Y-4360000D02*
X17105000Y-4390000D01*
X17200000Y-11220000D02*
X17230000Y-11250000D01*
X17230000Y-11220000D02*
X17200000Y-11250000D01*
X17250000Y-3470000D02*
X17280000Y-3500000D01*
X17280000Y-3470000D02*
X17250000Y-3500000D01*
X17260000Y-4020000D02*
X17290000Y-4050000D01*
X17290000Y-4020000D02*
X17260000Y-4050000D01*
X17260000Y-5815000D02*
X17290000Y-5845000D01*
X17290000Y-5815000D02*
X17260000Y-5845000D01*
X17260000Y-7620000D02*
X17290000Y-7650000D01*
X17290000Y-7620000D02*
X17260000Y-7650000D01*
X17260000Y-9417950D02*
X17290000Y-9447950D01*
X17290000Y-9417950D02*
X17260000Y-9447950D01*
X17270000Y-11290000D02*
X17300000Y-11320000D01*
X17300000Y-11290000D02*
X17270000Y-11320000D01*
X17330000Y-4090000D02*
X17360000Y-4120000D01*
X17360000Y-4090000D02*
X17330000Y-4120000D01*
X17330000Y-5885000D02*
X17360000Y-5915000D01*
X17360000Y-5885000D02*
X17330000Y-5915000D01*
X17330000Y-7690000D02*
X17360000Y-7720000D01*
X17360000Y-7690000D02*
X17330000Y-7720000D01*
X17330000Y-9487950D02*
X17360000Y-9517950D01*
X17360000Y-9487950D02*
X17330000Y-9517950D01*
X17335000Y-9885000D02*
X17365000Y-9915000D01*
X17365000Y-9885000D02*
X17335000Y-9915000D01*
X17355000Y-8075000D02*
X17385000Y-8105000D01*
X17385000Y-8075000D02*
X17355000Y-8105000D01*
X17365000Y-6300000D02*
X17395000Y-6330000D01*
X17395000Y-6300000D02*
X17365000Y-6330000D01*
X17680000Y-12200000D02*
X17710000Y-12230000D01*
X17710000Y-12200000D02*
X17680000Y-12230000D01*
X17730000Y-6795000D02*
X17760000Y-6825000D01*
X17760000Y-6795000D02*
X17730000Y-6825000D01*
X17730000Y-10400000D02*
X17760000Y-10430000D01*
X17760000Y-10400000D02*
X17730000Y-10430000D01*
X17735000Y-8600000D02*
X17765000Y-8630000D01*
X17765000Y-8600000D02*
X17735000Y-8630000D01*
X17740000Y-5000000D02*
X17770000Y-5030000D01*
X17770000Y-5000000D02*
X17740000Y-5030000D01*
X18070000Y-4545000D02*
X18100000Y-4575000D01*
X18100000Y-4545000D02*
X18070000Y-4575000D01*
X18080000Y-11285000D02*
X18110000Y-11315000D01*
X18110000Y-11285000D02*
X18080000Y-11315000D01*
X18140000Y-4090000D02*
X18170000Y-4120000D01*
X18170000Y-4090000D02*
X18140000Y-4120000D01*
X18140000Y-5885000D02*
X18170000Y-5915000D01*
X18170000Y-5885000D02*
X18140000Y-5915000D01*
X18140000Y-7690000D02*
X18170000Y-7720000D01*
X18170000Y-7690000D02*
X18140000Y-7720000D01*
X18140000Y-9487950D02*
X18170000Y-9517950D01*
X18170000Y-9487950D02*
X18140000Y-9517950D01*
X18150000Y-11215000D02*
X18180000Y-11245000D01*
X18180000Y-11215000D02*
X18150000Y-11245000D01*
X18210000Y-4020000D02*
X18240000Y-4050000D01*
X18240000Y-4020000D02*
X18210000Y-4050000D01*
X18210000Y-5815000D02*
X18240000Y-5845000D01*
X18240000Y-5815000D02*
X18210000Y-5845000D01*
X18210000Y-7610000D02*
X18240000Y-7640000D01*
X18240000Y-7610000D02*
X18210000Y-7640000D01*
X18210000Y-9407950D02*
X18240000Y-9437950D01*
X18240000Y-9407950D02*
X18210000Y-9437950D01*
X18685000Y-5530000D02*
X18715000Y-5560000D01*
X18715000Y-5530000D02*
X18685000Y-5560000D01*
X18800000Y-4515000D02*
X18830000Y-4545000D01*
X18830000Y-4515000D02*
X18800000Y-4545000D01*
X18855000Y-6060000D02*
X18885000Y-6090000D01*
X18885000Y-6060000D02*
X18855000Y-6090000D01*
X18855000Y-7860000D02*
X18885000Y-7890000D01*
X18885000Y-7860000D02*
X18855000Y-7890000D01*
X18855000Y-9665000D02*
X18885000Y-9695000D01*
X18885000Y-9665000D02*
X18855000Y-9695000D01*
X18855000Y-11460000D02*
X18885000Y-11490000D01*
X18885000Y-11460000D02*
X18855000Y-11490000D01*
X18950000Y-6810000D02*
X18980000Y-6840000D01*
X18980000Y-6810000D02*
X18950000Y-6840000D01*
X18970000Y-8605000D02*
X19000000Y-8635000D01*
X19000000Y-8605000D02*
X18970000Y-8635000D01*
X19025000Y-11087900D02*
X19055000Y-11117900D01*
X19055000Y-11087900D02*
X19025000Y-11117900D01*
X19030000Y-12315000D02*
X19060000Y-12345000D01*
X19060000Y-12315000D02*
X19030000Y-12345000D01*
X19095000Y-5010000D02*
X19125000Y-5040000D01*
X19125000Y-5010000D02*
X19095000Y-5040000D01*
X19155000Y-8895000D02*
X19185000Y-8925000D01*
X19185000Y-8895000D02*
X19155000Y-8925000D01*
X19155000Y-10692950D02*
X19185000Y-10722950D01*
X19185000Y-10692950D02*
X19155000Y-10722950D01*
X19160000Y-5290000D02*
X19190000Y-5320000D01*
X19190000Y-5290000D02*
X19160000Y-5320000D01*
X19160000Y-7090000D02*
X19190000Y-7120000D01*
X19190000Y-7090000D02*
X19160000Y-7120000D01*
X19230000Y-5360000D02*
X19260000Y-5390000D01*
X19260000Y-5360000D02*
X19230000Y-5390000D01*
X19230000Y-7160000D02*
X19260000Y-7190000D01*
X19260000Y-7160000D02*
X19230000Y-7190000D01*
X19230000Y-8965000D02*
X19260000Y-8995000D01*
X19260000Y-8965000D02*
X19230000Y-8995000D01*
X19230000Y-10762950D02*
X19260000Y-10792950D01*
X19260000Y-10762950D02*
X19230000Y-10792950D01*
X19245000Y-5775000D02*
X19275000Y-5805000D01*
X19275000Y-5775000D02*
X19245000Y-5805000D01*
X19250000Y-9345000D02*
X19280000Y-9375000D01*
X19280000Y-9345000D02*
X19250000Y-9375000D01*
X19255000Y-7545000D02*
X19285000Y-7575000D01*
X19285000Y-7545000D02*
X19255000Y-7575000D01*
X19325000Y-11240000D02*
X19355000Y-11270000D01*
X19355000Y-11240000D02*
X19325000Y-11270000D01*
X19635000Y-8070000D02*
X19665000Y-8100000D01*
X19665000Y-8070000D02*
X19635000Y-8100000D01*
X19635000Y-9875000D02*
X19665000Y-9905000D01*
X19665000Y-9875000D02*
X19635000Y-9905000D01*
X19637500Y-3937500D02*
X19667500Y-3967500D01*
X19667500Y-3937500D02*
X19637500Y-3967500D01*
X19637500Y-4380000D02*
X19667500Y-4410000D01*
X19667500Y-4380000D02*
X19637500Y-4410000D01*
X19637500Y-4637500D02*
X19667500Y-4667500D01*
X19667500Y-4637500D02*
X19637500Y-4667500D01*
X19637500Y-4775000D02*
X19667500Y-4805000D01*
X19667500Y-4775000D02*
X19637500Y-4805000D01*
X19640000Y-6275000D02*
X19670000Y-6305000D01*
X19670000Y-6275000D02*
X19640000Y-6305000D01*
X19640000Y-11675000D02*
X19670000Y-11705000D01*
X19670000Y-11675000D02*
X19640000Y-11705000D01*
X19950000Y-5795000D02*
X19980000Y-5825000D01*
X19980000Y-5795000D02*
X19950000Y-5825000D01*
X19960000Y-11250000D02*
X19990000Y-11280000D01*
X19990000Y-11250000D02*
X19960000Y-11280000D01*
X20040000Y-5365000D02*
X20070000Y-5395000D01*
X20070000Y-5365000D02*
X20040000Y-5395000D01*
X20040000Y-7160000D02*
X20070000Y-7190000D01*
X20070000Y-7160000D02*
X20040000Y-7190000D01*
X20040000Y-8965000D02*
X20070000Y-8995000D01*
X20070000Y-8965000D02*
X20040000Y-8995000D01*
X20040000Y-10762950D02*
X20070000Y-10792950D01*
X20070000Y-10762950D02*
X20040000Y-10792950D01*
X20110000Y-5285000D02*
X20140000Y-5315000D01*
X20140000Y-5285000D02*
X20110000Y-5315000D01*
X20110000Y-7090000D02*
X20140000Y-7120000D01*
X20140000Y-7090000D02*
X20110000Y-7120000D01*
X20110000Y-8895000D02*
X20140000Y-8925000D01*
X20140000Y-8895000D02*
X20110000Y-8925000D01*
X20110000Y-10692950D02*
X20140000Y-10722950D01*
X20140000Y-10692950D02*
X20110000Y-10722950D01*
X20260000Y-5695000D02*
X20290000Y-5725000D01*
X20290000Y-5695000D02*
X20260000Y-5725000D01*
X20335000Y-12310000D02*
X20365000Y-12340000D01*
X20365000Y-12310000D02*
X20335000Y-12340000D01*
X20585000Y-11325000D02*
X20615000Y-11355000D01*
X20615000Y-11325000D02*
X20585000Y-11355000D01*
X20655000Y-12300000D02*
X20685000Y-12330000D01*
X20685000Y-12300000D02*
X20655000Y-12330000D01*
X20710000Y-5150000D02*
X20740000Y-5180000D01*
X20740000Y-5150000D02*
X20710000Y-5180000D01*
X20755000Y-6055000D02*
X20785000Y-6085000D01*
X20785000Y-6055000D02*
X20755000Y-6085000D01*
X20755000Y-7860000D02*
X20785000Y-7890000D01*
X20785000Y-7860000D02*
X20755000Y-7890000D01*
X20755000Y-9655000D02*
X20785000Y-9685000D01*
X20785000Y-9655000D02*
X20755000Y-9685000D01*
X20755000Y-11460000D02*
X20785000Y-11490000D01*
X20785000Y-11460000D02*
X20755000Y-11490000D01*
X20865000Y-8610000D02*
X20895000Y-8640000D01*
X20895000Y-8610000D02*
X20865000Y-8640000D01*
X20870000Y-6810000D02*
X20900000Y-6840000D01*
X20900000Y-6810000D02*
X20870000Y-6840000D01*
X21060000Y-5290000D02*
X21090000Y-5320000D01*
X21090000Y-5290000D02*
X21060000Y-5320000D01*
X21060000Y-7090000D02*
X21090000Y-7120000D01*
X21090000Y-7090000D02*
X21060000Y-7120000D01*
X21060000Y-8895000D02*
X21090000Y-8925000D01*
X21090000Y-8895000D02*
X21060000Y-8925000D01*
X21060000Y-10692950D02*
X21090000Y-10722950D01*
X21090000Y-10692950D02*
X21060000Y-10722950D01*
X21130000Y-5365000D02*
X21160000Y-5395000D01*
X21160000Y-5365000D02*
X21130000Y-5395000D01*
X21130000Y-7160000D02*
X21160000Y-7190000D01*
X21160000Y-7160000D02*
X21130000Y-7190000D01*
X21130000Y-7530000D02*
X21160000Y-7560000D01*
X21160000Y-7530000D02*
X21130000Y-7560000D01*
X21130000Y-8965000D02*
X21160000Y-8995000D01*
X21160000Y-8965000D02*
X21130000Y-8995000D01*
X21130000Y-10762950D02*
X21160000Y-10792950D01*
X21160000Y-10762950D02*
X21130000Y-10792950D01*
X21135000Y-9335000D02*
X21165000Y-9365000D01*
X21165000Y-9335000D02*
X21135000Y-9365000D01*
X21245000Y-11245000D02*
X21275000Y-11275000D01*
X21275000Y-11245000D02*
X21245000Y-11275000D01*
X21535000Y-6270000D02*
X21565000Y-6300000D01*
X21565000Y-6270000D02*
X21535000Y-6300000D01*
X21535000Y-8075000D02*
X21565000Y-8105000D01*
X21565000Y-8075000D02*
X21535000Y-8105000D01*
X21535000Y-9875000D02*
X21565000Y-9905000D01*
X21565000Y-9875000D02*
X21535000Y-9905000D01*
X21540000Y-11675000D02*
X21570000Y-11705000D01*
X21570000Y-11675000D02*
X21540000Y-11705000D01*
X21860000Y-11255000D02*
X21890000Y-11285000D01*
X21890000Y-11255000D02*
X21860000Y-11285000D01*
X21934950Y-8965000D02*
X21964950Y-8995000D01*
X21964950Y-8965000D02*
X21934950Y-8995000D01*
X21939301Y-10759873D02*
X21969301Y-10789873D01*
X21969301Y-10759873D02*
X21939301Y-10789873D01*
X21940000Y-5365000D02*
X21970000Y-5395000D01*
X21970000Y-5365000D02*
X21940000Y-5395000D01*
X21940000Y-7165000D02*
X21970000Y-7195000D01*
X21970000Y-7165000D02*
X21940000Y-7195000D01*
X22005000Y-8895000D02*
X22035000Y-8925000D01*
X22035000Y-8895000D02*
X22005000Y-8925000D01*
X22005000Y-10692950D02*
X22035000Y-10722950D01*
X22035000Y-10692950D02*
X22005000Y-10722950D01*
X22010000Y-5290000D02*
X22040000Y-5320000D01*
X22040000Y-5290000D02*
X22010000Y-5320000D01*
X22010000Y-7095000D02*
X22040000Y-7125000D01*
X22040000Y-7095000D02*
X22010000Y-7125000D01*
X22160000Y-11080000D02*
X22190000Y-11110000D01*
X22190000Y-11080000D02*
X22160000Y-11110000D01*
D13*
X9783800Y-4658000D02*
G75*
G03*
X9783800Y-4658000I-20000J0D01*
G01*
X9783800Y-4912000D02*
G75*
G03*
X9783800Y-4912000I-20000J0D01*
G01*
X9783800Y-5166000D02*
G75*
G03*
X9783800Y-5166000I-20000J0D01*
G01*
X9783800Y-5420000D02*
G75*
G03*
X9783800Y-5420000I-20000J0D01*
G01*
X9783800Y-5674000D02*
G75*
G03*
X9783800Y-5674000I-20000J0D01*
G01*
X9783800Y-5928000D02*
G75*
G03*
X9783800Y-5928000I-20000J0D01*
G01*
X9783800Y-6182000D02*
G75*
G03*
X9783800Y-6182000I-20000J0D01*
G01*
X9783800Y-6436000D02*
G75*
G03*
X9783800Y-6436000I-20000J0D01*
G01*
X9783800Y-6690000D02*
G75*
G03*
X9783800Y-6690000I-20000J0D01*
G01*
X9783800Y-6944000D02*
G75*
G03*
X9783800Y-6944000I-20000J0D01*
G01*
X9783800Y-7198000D02*
G75*
G03*
X9783800Y-7198000I-20000J0D01*
G01*
X9783800Y-7452000D02*
G75*
G03*
X9783800Y-7452000I-20000J0D01*
G01*
X9936200Y-4658000D02*
G75*
G03*
X9936200Y-4658000I-20000J0D01*
G01*
X9936200Y-4912000D02*
G75*
G03*
X9936200Y-4912000I-20000J0D01*
G01*
X9936200Y-5166000D02*
G75*
G03*
X9936200Y-5166000I-20000J0D01*
G01*
X9936200Y-5420000D02*
G75*
G03*
X9936200Y-5420000I-20000J0D01*
G01*
X9936200Y-5674000D02*
G75*
G03*
X9936200Y-5674000I-20000J0D01*
G01*
X9936200Y-5928000D02*
G75*
G03*
X9936200Y-5928000I-20000J0D01*
G01*
X9936200Y-6182000D02*
G75*
G03*
X9936200Y-6182000I-20000J0D01*
G01*
X9936200Y-6436000D02*
G75*
G03*
X9936200Y-6436000I-20000J0D01*
G01*
X9936200Y-6690000D02*
G75*
G03*
X9936200Y-6690000I-20000J0D01*
G01*
X9936200Y-6944000D02*
G75*
G03*
X9936200Y-6944000I-20000J0D01*
G01*
X9936200Y-7198000D02*
G75*
G03*
X9936200Y-7198000I-20000J0D01*
G01*
X9936200Y-7452000D02*
G75*
G03*
X9936200Y-7452000I-20000J0D01*
G01*
D14*
X9459000Y-7844360D02*
X9459000Y-7925640D01*
X9418360Y-7885000D02*
X9499640Y-7885000D01*
X9713000Y-7844360D02*
X9713000Y-7925640D01*
X9672360Y-7885000D02*
X9753640Y-7885000D01*
X9967000Y-7844360D02*
X9967000Y-7925640D01*
X9926360Y-7885000D02*
X10007640Y-7885000D01*
X10221000Y-7844360D02*
X10221000Y-7925640D01*
X10180360Y-7885000D02*
X10261640Y-7885000D01*
X10260000Y-8739360D02*
X10260000Y-8820640D01*
X10219360Y-8780000D02*
X10300640Y-8780000D01*
X10260000Y-9247360D02*
X10260000Y-9328640D01*
X10219360Y-9288000D02*
X10300640Y-9288000D01*
X10263804Y-8527287D02*
X10263804Y-8608567D01*
X10223164Y-8567927D02*
X10304444Y-8567927D01*
X10483804Y-8527287D02*
X10483804Y-8608567D01*
X10443164Y-8567927D02*
X10524444Y-8567927D01*
X10485000Y-8739360D02*
X10485000Y-8820640D01*
X10444360Y-8780000D02*
X10525640Y-8780000D01*
X10485000Y-9247360D02*
X10485000Y-9328640D01*
X10444360Y-9288000D02*
X10525640Y-9288000D01*
D15*
X9507935Y-11632440D02*
X9507935Y-11562393D01*
X9437889Y-11562393D01*
X9437889Y-11632440D01*
X9507935Y-11632440D01*
X9974720Y-13942941D02*
X9974720Y-13872894D01*
X9904673Y-13872894D01*
X9904673Y-13942941D01*
X9974720Y-13942941D01*
X10269935Y-11632440D02*
X10269935Y-11562393D01*
X10199889Y-11562393D01*
X10199889Y-11632440D01*
X10269935Y-11632440D01*
X10665327Y-13620906D02*
X10665327Y-13550859D01*
X10595280Y-13550859D01*
X10595280Y-13620906D01*
X10665327Y-13620906D01*
X11704023Y-7500023D02*
X11704023Y-7429977D01*
X11633977Y-7429977D01*
X11633977Y-7500023D01*
X11704023Y-7500023D01*
X11704023Y-11090023D02*
X11704023Y-11019977D01*
X11633977Y-11019977D01*
X11633977Y-11090023D01*
X11704023Y-11090023D01*
X11709023Y-5690023D02*
X11709023Y-5619977D01*
X11638977Y-5619977D01*
X11638977Y-5690023D01*
X11709023Y-5690023D01*
X11709023Y-9295023D02*
X11709023Y-9224977D01*
X11638977Y-9224977D01*
X11638977Y-9295023D01*
X11709023Y-9295023D01*
X11722443Y-13237271D02*
X11722443Y-13167224D01*
X11652396Y-13167224D01*
X11652396Y-13237271D01*
X11722443Y-13237271D01*
X12458478Y-13040051D02*
X12458478Y-12970004D01*
X12388431Y-12970004D01*
X12388431Y-13040051D01*
X12458478Y-13040051D01*
X12466023Y-7500023D02*
X12466023Y-7429977D01*
X12395977Y-7429977D01*
X12395977Y-7500023D01*
X12466023Y-7500023D01*
X12466023Y-11090023D02*
X12466023Y-11019977D01*
X12395977Y-11019977D01*
X12395977Y-11090023D01*
X12466023Y-11090023D01*
X12471023Y-5690023D02*
X12471023Y-5619977D01*
X12400977Y-5619977D01*
X12400977Y-5690023D01*
X12471023Y-5690023D01*
X12471023Y-9295023D02*
X12471023Y-9224977D01*
X12400977Y-9224977D01*
X12400977Y-9295023D01*
X12471023Y-9295023D01*
X13560277Y-12852646D02*
X13560277Y-12782600D01*
X13490231Y-12782600D01*
X13490231Y-12852646D01*
X13560277Y-12852646D01*
X13604023Y-5470023D02*
X13604023Y-5399977D01*
X13533977Y-5399977D01*
X13533977Y-5470023D01*
X13604023Y-5470023D01*
X13604023Y-9065023D02*
X13604023Y-8994977D01*
X13533977Y-8994977D01*
X13533977Y-9065023D01*
X13604023Y-9065023D01*
X13604023Y-10870023D02*
X13604023Y-10799977D01*
X13533977Y-10799977D01*
X13533977Y-10870023D01*
X13604023Y-10870023D01*
X13609023Y-7265023D02*
X13609023Y-7194977D01*
X13538977Y-7194977D01*
X13538977Y-7265023D01*
X13609023Y-7265023D01*
X14319378Y-12786234D02*
X14319378Y-12716187D01*
X14249331Y-12716187D01*
X14249331Y-12786234D01*
X14319378Y-12786234D01*
X14366023Y-5470023D02*
X14366023Y-5399977D01*
X14295977Y-5399977D01*
X14295977Y-5470023D01*
X14366023Y-5470023D01*
X14366023Y-9065023D02*
X14366023Y-8994977D01*
X14295977Y-8994977D01*
X14295977Y-9065023D01*
X14366023Y-9065023D01*
X14366023Y-10870023D02*
X14366023Y-10799977D01*
X14295977Y-10799977D01*
X14295977Y-10870023D01*
X14366023Y-10870023D01*
X14371023Y-7265023D02*
X14371023Y-7194977D01*
X14300977Y-7194977D01*
X14300977Y-7265023D01*
X14371023Y-7265023D01*
X15449023Y-12735023D02*
X15449023Y-12664977D01*
X15378977Y-12664977D01*
X15378977Y-12735023D01*
X15449023Y-12735023D01*
X15499023Y-10290023D02*
X15499023Y-10219977D01*
X15428977Y-10219977D01*
X15428977Y-10290023D01*
X15499023Y-10290023D01*
X15509023Y-4885023D02*
X15509023Y-4814977D01*
X15438977Y-4814977D01*
X15438977Y-4885023D01*
X15509023Y-4885023D01*
X15509023Y-6685023D02*
X15509023Y-6614977D01*
X15438977Y-6614977D01*
X15438977Y-6685023D01*
X15509023Y-6685023D01*
X15509023Y-8485023D02*
X15509023Y-8414977D01*
X15438977Y-8414977D01*
X15438977Y-8485023D01*
X15509023Y-8485023D01*
X16211023Y-12735023D02*
X16211023Y-12664977D01*
X16140977Y-12664977D01*
X16140977Y-12735023D01*
X16211023Y-12735023D01*
X16261023Y-10290023D02*
X16261023Y-10219977D01*
X16190977Y-10219977D01*
X16190977Y-10290023D01*
X16261023Y-10290023D01*
X16271023Y-4885023D02*
X16271023Y-4814977D01*
X16200977Y-4814977D01*
X16200977Y-4885023D01*
X16271023Y-4885023D01*
X16271023Y-6685023D02*
X16271023Y-6614977D01*
X16200977Y-6614977D01*
X16200977Y-6685023D01*
X16271023Y-6685023D01*
X16271023Y-8485023D02*
X16271023Y-8414977D01*
X16200977Y-8414977D01*
X16200977Y-8485023D01*
X16271023Y-8485023D01*
X17339023Y-12735023D02*
X17339023Y-12664977D01*
X17268977Y-12664977D01*
X17268977Y-12735023D01*
X17339023Y-12735023D01*
X17404023Y-5540023D02*
X17404023Y-5469977D01*
X17333977Y-5469977D01*
X17333977Y-5540023D01*
X17404023Y-5540023D01*
X17404023Y-7335023D02*
X17404023Y-7264977D01*
X17333977Y-7264977D01*
X17333977Y-7335023D01*
X17404023Y-7335023D01*
X17404023Y-9135023D02*
X17404023Y-9064977D01*
X17333977Y-9064977D01*
X17333977Y-9135023D01*
X17404023Y-9135023D01*
X17404023Y-10940023D02*
X17404023Y-10869977D01*
X17333977Y-10869977D01*
X17333977Y-10940023D01*
X17404023Y-10940023D01*
X18101023Y-12735023D02*
X18101023Y-12664977D01*
X18030977Y-12664977D01*
X18030977Y-12735023D01*
X18101023Y-12735023D01*
X18166023Y-5540023D02*
X18166023Y-5469977D01*
X18095977Y-5469977D01*
X18095977Y-5540023D01*
X18166023Y-5540023D01*
X18166023Y-7335023D02*
X18166023Y-7264977D01*
X18095977Y-7264977D01*
X18095977Y-7335023D01*
X18166023Y-7335023D01*
X18166023Y-9135023D02*
X18166023Y-9064977D01*
X18095977Y-9064977D01*
X18095977Y-9135023D01*
X18166023Y-9135023D01*
X18166023Y-10940023D02*
X18166023Y-10869977D01*
X18095977Y-10869977D01*
X18095977Y-10940023D01*
X18166023Y-10940023D01*
X19304023Y-6815023D02*
X19304023Y-6744977D01*
X19233977Y-6744977D01*
X19233977Y-6815023D01*
X19304023Y-6815023D01*
X19304023Y-12210023D02*
X19304023Y-12139977D01*
X19233977Y-12139977D01*
X19233977Y-12210023D01*
X19304023Y-12210023D01*
X19309023Y-8615023D02*
X19309023Y-8544977D01*
X19238977Y-8544977D01*
X19238977Y-8615023D01*
X19309023Y-8615023D01*
X19314023Y-10410023D02*
X19314023Y-10339977D01*
X19243977Y-10339977D01*
X19243977Y-10410023D01*
X19314023Y-10410023D01*
X20066023Y-6815023D02*
X20066023Y-6744977D01*
X19995977Y-6744977D01*
X19995977Y-6815023D01*
X20066023Y-6815023D01*
X20066023Y-12210023D02*
X20066023Y-12139977D01*
X19995977Y-12139977D01*
X19995977Y-12210023D01*
X20066023Y-12210023D01*
X20071023Y-8615023D02*
X20071023Y-8544977D01*
X20000977Y-8544977D01*
X20000977Y-8615023D01*
X20071023Y-8615023D01*
X20076023Y-10410023D02*
X20076023Y-10339977D01*
X20005977Y-10339977D01*
X20005977Y-10410023D01*
X20076023Y-10410023D01*
X21204023Y-6815023D02*
X21204023Y-6744977D01*
X21133977Y-6744977D01*
X21133977Y-6815023D01*
X21204023Y-6815023D01*
X21204023Y-8610023D02*
X21204023Y-8539977D01*
X21133977Y-8539977D01*
X21133977Y-8610023D01*
X21204023Y-8610023D01*
X21204023Y-12210023D02*
X21204023Y-12139977D01*
X21133977Y-12139977D01*
X21133977Y-12210023D01*
X21204023Y-12210023D01*
X21209023Y-10415023D02*
X21209023Y-10344977D01*
X21138977Y-10344977D01*
X21138977Y-10415023D01*
X21209023Y-10415023D01*
X21966023Y-6815023D02*
X21966023Y-6744977D01*
X21895977Y-6744977D01*
X21895977Y-6815023D01*
X21966023Y-6815023D01*
X21966023Y-8610023D02*
X21966023Y-8539977D01*
X21895977Y-8539977D01*
X21895977Y-8610023D01*
X21966023Y-8610023D01*
X21966023Y-12210023D02*
X21966023Y-12139977D01*
X21895977Y-12139977D01*
X21895977Y-12210023D01*
X21966023Y-12210023D01*
X21971023Y-10415023D02*
X21971023Y-10344977D01*
X21900977Y-10344977D01*
X21900977Y-10415023D01*
X21971023Y-10415023D01*
D16*
X8830000Y-8592500D02*
X8880000Y-8542500D01*
X8830000Y-8492500D01*
X8780000Y-8542500D01*
X8830000Y-8592500D01*
D11*
X8805000Y-8582500D02*
X8855000Y-8582500D01*
X8805000Y-8502500D02*
X8855000Y-8502500D01*
X8855000Y-8582500D02*
G75*
G03*
X8855000Y-8502500I0J40000D01*
G01*
X8805000Y-8502500D02*
G75*
G03*
X8805000Y-8582500I0J-40000D01*
G01*
D16*
X8830000Y-9187500D02*
X8880000Y-9137500D01*
X8830000Y-9087500D01*
X8780000Y-9137500D01*
X8830000Y-9187500D01*
D11*
X8805000Y-9177500D02*
X8855000Y-9177500D01*
X8805000Y-9097500D02*
X8855000Y-9097500D01*
X8855000Y-9177500D02*
G75*
G03*
X8855000Y-9097500I0J40000D01*
G01*
X8805000Y-9097500D02*
G75*
G03*
X8805000Y-9177500I0J-40000D01*
G01*
D16*
X9105000Y-10605000D02*
X9155000Y-10555000D01*
X9105000Y-10505000D01*
X9055000Y-10555000D01*
X9105000Y-10605000D01*
X9105000Y-10855000D02*
X9155000Y-10805000D01*
X9105000Y-10755000D01*
X9055000Y-10805000D01*
X9105000Y-10855000D01*
X9105000Y-11105000D02*
X9155000Y-11055000D01*
X9105000Y-11005000D01*
X9055000Y-11055000D01*
X9105000Y-11105000D01*
X9130000Y-8592500D02*
X9180000Y-8542500D01*
X9130000Y-8492500D01*
X9080000Y-8542500D01*
X9130000Y-8592500D01*
D11*
X9105000Y-8582500D02*
X9155000Y-8582500D01*
X9105000Y-8502500D02*
X9155000Y-8502500D01*
X9155000Y-8582500D02*
G75*
G03*
X9155000Y-8502500I0J40000D01*
G01*
X9105000Y-8502500D02*
G75*
G03*
X9105000Y-8582500I0J-40000D01*
G01*
D16*
X9130000Y-9187500D02*
X9180000Y-9137500D01*
X9130000Y-9087500D01*
X9080000Y-9137500D01*
X9130000Y-9187500D01*
D11*
X9105000Y-9177500D02*
X9155000Y-9177500D01*
X9105000Y-9097500D02*
X9155000Y-9097500D01*
X9155000Y-9177500D02*
G75*
G03*
X9155000Y-9097500I0J40000D01*
G01*
X9105000Y-9097500D02*
G75*
G03*
X9105000Y-9177500I0J-40000D01*
G01*
D16*
X9530000Y-8592500D02*
X9580000Y-8542500D01*
X9530000Y-8492500D01*
X9480000Y-8542500D01*
X9530000Y-8592500D01*
D11*
X9505000Y-8582500D02*
X9555000Y-8582500D01*
X9505000Y-8502500D02*
X9555000Y-8502500D01*
X9555000Y-8582500D02*
G75*
G03*
X9555000Y-8502500I0J40000D01*
G01*
X9505000Y-8502500D02*
G75*
G03*
X9505000Y-8582500I0J-40000D01*
G01*
D16*
X9530000Y-9187500D02*
X9580000Y-9137500D01*
X9530000Y-9087500D01*
X9480000Y-9137500D01*
X9530000Y-9187500D01*
D11*
X9505000Y-9177500D02*
X9555000Y-9177500D01*
X9505000Y-9097500D02*
X9555000Y-9097500D01*
X9555000Y-9177500D02*
G75*
G03*
X9555000Y-9097500I0J40000D01*
G01*
X9505000Y-9097500D02*
G75*
G03*
X9505000Y-9177500I0J-40000D01*
G01*
D16*
X9680000Y-8767500D02*
X9730000Y-8717500D01*
X9680000Y-8667500D01*
X9630000Y-8717500D01*
X9680000Y-8767500D01*
D11*
X9655000Y-8757500D02*
X9705000Y-8757500D01*
X9655000Y-8677500D02*
X9705000Y-8677500D01*
X9705000Y-8757500D02*
G75*
G03*
X9705000Y-8677500I0J40000D01*
G01*
X9655000Y-8677500D02*
G75*
G03*
X9655000Y-8757500I0J-40000D01*
G01*
D16*
X9680000Y-9012500D02*
X9730000Y-8962500D01*
X9680000Y-8912500D01*
X9630000Y-8962500D01*
X9680000Y-9012500D01*
D11*
X9655000Y-9002500D02*
X9705000Y-9002500D01*
X9655000Y-8922500D02*
X9705000Y-8922500D01*
X9705000Y-9002500D02*
G75*
G03*
X9705000Y-8922500I0J40000D01*
G01*
X9655000Y-8922500D02*
G75*
G03*
X9655000Y-9002500I0J-40000D01*
G01*
D16*
X10555000Y-10605000D02*
X10605000Y-10555000D01*
X10555000Y-10505000D01*
X10505000Y-10555000D01*
X10555000Y-10605000D01*
X10555000Y-11105000D02*
X10605000Y-11055000D01*
X10555000Y-11005000D01*
X10505000Y-11055000D01*
X10555000Y-11105000D01*
D17*
X9023000Y-4603000D02*
X9133000Y-4713000D01*
X9133000Y-4603000D02*
X9023000Y-4713000D01*
X9133000Y-4658000D02*
G75*
G03*
X9133000Y-4658000I-55000J0D01*
G01*
X9023000Y-4603000D02*
X9133000Y-4713000D01*
X9133000Y-4603000D02*
X9023000Y-4713000D01*
X9133000Y-4658000D02*
G75*
G03*
X9133000Y-4658000I-55000J0D01*
G01*
X9023000Y-4857000D02*
X9133000Y-4967000D01*
X9133000Y-4857000D02*
X9023000Y-4967000D01*
X9133000Y-4912000D02*
G75*
G03*
X9133000Y-4912000I-55000J0D01*
G01*
X9023000Y-5111000D02*
X9133000Y-5221000D01*
X9133000Y-5111000D02*
X9023000Y-5221000D01*
X9133000Y-5166000D02*
G75*
G03*
X9133000Y-5166000I-55000J0D01*
G01*
X9023000Y-5365000D02*
X9133000Y-5475000D01*
X9133000Y-5365000D02*
X9023000Y-5475000D01*
X9133000Y-5420000D02*
G75*
G03*
X9133000Y-5420000I-55000J0D01*
G01*
X9023000Y-5619000D02*
X9133000Y-5729000D01*
X9133000Y-5619000D02*
X9023000Y-5729000D01*
X9133000Y-5674000D02*
G75*
G03*
X9133000Y-5674000I-55000J0D01*
G01*
X9023000Y-5873000D02*
X9133000Y-5983000D01*
X9133000Y-5873000D02*
X9023000Y-5983000D01*
X9133000Y-5928000D02*
G75*
G03*
X9133000Y-5928000I-55000J0D01*
G01*
X9023000Y-6127000D02*
X9133000Y-6237000D01*
X9133000Y-6127000D02*
X9023000Y-6237000D01*
X9133000Y-6182000D02*
G75*
G03*
X9133000Y-6182000I-55000J0D01*
G01*
X9023000Y-6381000D02*
X9133000Y-6491000D01*
X9133000Y-6381000D02*
X9023000Y-6491000D01*
X9133000Y-6436000D02*
G75*
G03*
X9133000Y-6436000I-55000J0D01*
G01*
X9023000Y-6635000D02*
X9133000Y-6745000D01*
X9133000Y-6635000D02*
X9023000Y-6745000D01*
X9133000Y-6690000D02*
G75*
G03*
X9133000Y-6690000I-55000J0D01*
G01*
X9023000Y-6889000D02*
X9133000Y-6999000D01*
X9133000Y-6889000D02*
X9023000Y-6999000D01*
X9133000Y-6944000D02*
G75*
G03*
X9133000Y-6944000I-55000J0D01*
G01*
X9023000Y-7143000D02*
X9133000Y-7253000D01*
X9133000Y-7143000D02*
X9023000Y-7253000D01*
X9133000Y-7198000D02*
G75*
G03*
X9133000Y-7198000I-55000J0D01*
G01*
X9023000Y-7397000D02*
X9133000Y-7507000D01*
X9133000Y-7397000D02*
X9023000Y-7507000D01*
X9133000Y-7452000D02*
G75*
G03*
X9133000Y-7452000I-55000J0D01*
G01*
X10547000Y-4603000D02*
X10657000Y-4713000D01*
X10657000Y-4603000D02*
X10547000Y-4713000D01*
X10657000Y-4658000D02*
G75*
G03*
X10657000Y-4658000I-55000J0D01*
G01*
X10547000Y-4603000D02*
X10657000Y-4713000D01*
X10657000Y-4603000D02*
X10547000Y-4713000D01*
X10657000Y-4658000D02*
G75*
G03*
X10657000Y-4658000I-55000J0D01*
G01*
X10547000Y-4857000D02*
X10657000Y-4967000D01*
X10657000Y-4857000D02*
X10547000Y-4967000D01*
X10657000Y-4912000D02*
G75*
G03*
X10657000Y-4912000I-55000J0D01*
G01*
X10547000Y-5111000D02*
X10657000Y-5221000D01*
X10657000Y-5111000D02*
X10547000Y-5221000D01*
X10657000Y-5166000D02*
G75*
G03*
X10657000Y-5166000I-55000J0D01*
G01*
X10547000Y-5365000D02*
X10657000Y-5475000D01*
X10657000Y-5365000D02*
X10547000Y-5475000D01*
X10657000Y-5420000D02*
G75*
G03*
X10657000Y-5420000I-55000J0D01*
G01*
X10547000Y-5619000D02*
X10657000Y-5729000D01*
X10657000Y-5619000D02*
X10547000Y-5729000D01*
X10657000Y-5674000D02*
G75*
G03*
X10657000Y-5674000I-55000J0D01*
G01*
X10547000Y-5873000D02*
X10657000Y-5983000D01*
X10657000Y-5873000D02*
X10547000Y-5983000D01*
X10657000Y-5928000D02*
G75*
G03*
X10657000Y-5928000I-55000J0D01*
G01*
X10547000Y-6127000D02*
X10657000Y-6237000D01*
X10657000Y-6127000D02*
X10547000Y-6237000D01*
X10657000Y-6182000D02*
G75*
G03*
X10657000Y-6182000I-55000J0D01*
G01*
X10547000Y-6381000D02*
X10657000Y-6491000D01*
X10657000Y-6381000D02*
X10547000Y-6491000D01*
X10657000Y-6436000D02*
G75*
G03*
X10657000Y-6436000I-55000J0D01*
G01*
X10547000Y-6635000D02*
X10657000Y-6745000D01*
X10657000Y-6635000D02*
X10547000Y-6745000D01*
X10657000Y-6690000D02*
G75*
G03*
X10657000Y-6690000I-55000J0D01*
G01*
X10547000Y-6889000D02*
X10657000Y-6999000D01*
X10657000Y-6889000D02*
X10547000Y-6999000D01*
X10657000Y-6944000D02*
G75*
G03*
X10657000Y-6944000I-55000J0D01*
G01*
X10547000Y-7143000D02*
X10657000Y-7253000D01*
X10657000Y-7143000D02*
X10547000Y-7253000D01*
X10657000Y-7198000D02*
G75*
G03*
X10657000Y-7198000I-55000J0D01*
G01*
X10547000Y-7397000D02*
X10657000Y-7507000D01*
X10657000Y-7397000D02*
X10547000Y-7507000D01*
X10657000Y-7452000D02*
G75*
G03*
X10657000Y-7452000I-55000J0D01*
G01*
D18*
X9450000Y-9452500D02*
X9580000Y-9582500D01*
X9580000Y-9452500D02*
X9450000Y-9582500D01*
X9515000Y-9452500D02*
X9515000Y-9582500D01*
X9450000Y-9517500D02*
X9580000Y-9517500D01*
X10100000Y-9452500D02*
X10230000Y-9582500D01*
X10230000Y-9452500D02*
X10100000Y-9582500D01*
X10165000Y-9452500D02*
X10165000Y-9582500D01*
X10100000Y-9517500D02*
X10230000Y-9517500D01*
D19*
X9780000Y-10170000D02*
X9930000Y-10320000D01*
X9930000Y-10170000D02*
X9780000Y-10320000D01*
X9908034Y-10298034D02*
X9908034Y-10191967D01*
X9801967Y-10191967D01*
X9801967Y-10298034D01*
X9908034Y-10298034D01*
D11*
X9790000Y-10310000D02*
X9920000Y-10310000D01*
X9790000Y-10180000D02*
X9920000Y-10180000D01*
X9920000Y-10310000D02*
G75*
G03*
X9920000Y-10180000I0J65000D01*
G01*
X9790000Y-10180000D02*
G75*
G03*
X9790000Y-10310000I0J-65000D01*
G01*
D19*
X9780000Y-11290000D02*
X9930000Y-11440000D01*
X9930000Y-11290000D02*
X9780000Y-11440000D01*
X9908034Y-11418033D02*
X9908034Y-11311966D01*
X9801967Y-11311966D01*
X9801967Y-11418033D01*
X9908034Y-11418033D01*
D11*
X9790000Y-11430000D02*
X9920000Y-11430000D01*
X9790000Y-11300000D02*
X9920000Y-11300000D01*
X9920000Y-11430000D02*
G75*
G03*
X9920000Y-11300000I0J65000D01*
G01*
X9790000Y-11300000D02*
G75*
G03*
X9790000Y-11430000I0J-65000D01*
G01*
X8747619Y-14629413D02*
X8747619Y-14429413D01*
X8795238Y-14429413D01*
X8823810Y-14438937D01*
X8842857Y-14457985D01*
X8852381Y-14477032D01*
X8861905Y-14515128D01*
X8861905Y-14543699D01*
X8852381Y-14581794D01*
X8842857Y-14600842D01*
X8823810Y-14619889D01*
X8795238Y-14629413D01*
X8747619Y-14629413D01*
X8947619Y-14629413D02*
X8947619Y-14496080D01*
X8947619Y-14534175D02*
X8957143Y-14515128D01*
X8966667Y-14505604D01*
X8985714Y-14496080D01*
X9004762Y-14496080D01*
X9071429Y-14629413D02*
X9071429Y-14496080D01*
X9071429Y-14429413D02*
X9061905Y-14438937D01*
X9071429Y-14448461D01*
X9080952Y-14438937D01*
X9071429Y-14429413D01*
X9071429Y-14448461D01*
X9195238Y-14629413D02*
X9176190Y-14619889D01*
X9166667Y-14600842D01*
X9166667Y-14429413D01*
X9300000Y-14629413D02*
X9280952Y-14619889D01*
X9271429Y-14600842D01*
X9271429Y-14429413D01*
X9528571Y-14629413D02*
X9528571Y-14429413D01*
X9595238Y-14572270D01*
X9661905Y-14429413D01*
X9661905Y-14629413D01*
X9842857Y-14629413D02*
X9842857Y-14524651D01*
X9833333Y-14505604D01*
X9814286Y-14496080D01*
X9776190Y-14496080D01*
X9757143Y-14505604D01*
X9842857Y-14619889D02*
X9823810Y-14629413D01*
X9776190Y-14629413D01*
X9757143Y-14619889D01*
X9747619Y-14600842D01*
X9747619Y-14581794D01*
X9757143Y-14562747D01*
X9776190Y-14553223D01*
X9823810Y-14553223D01*
X9842857Y-14543699D01*
X9938095Y-14496080D02*
X9938095Y-14696080D01*
X9938095Y-14505604D02*
X9957143Y-14496080D01*
X9995238Y-14496080D01*
X10014286Y-14505604D01*
X10023810Y-14515128D01*
X10033333Y-14534175D01*
X10033333Y-14591318D01*
X10023810Y-14610366D01*
X10014286Y-14619889D01*
X9995238Y-14629413D01*
X9957143Y-14629413D01*
X9938095Y-14619889D01*
X10119048Y-14610366D02*
X10128571Y-14619889D01*
X10119048Y-14629413D01*
X10109524Y-14619889D01*
X10119048Y-14610366D01*
X10119048Y-14629413D01*
X10119048Y-14505604D02*
X10128571Y-14515128D01*
X10119048Y-14524651D01*
X10109524Y-14515128D01*
X10119048Y-14505604D01*
X10119048Y-14524651D01*
D12*
X8460000Y-14943937D02*
X8490000Y-14973937D01*
X8490000Y-14943937D02*
X8460000Y-14973937D01*
D11*
X8785714Y-14849413D02*
X8804762Y-14849413D01*
X8823810Y-14858937D01*
X8833333Y-14868461D01*
X8842857Y-14887509D01*
X8852381Y-14925604D01*
X8852381Y-14973223D01*
X8842857Y-15011318D01*
X8833333Y-15030366D01*
X8823810Y-15039889D01*
X8804762Y-15049413D01*
X8785714Y-15049413D01*
X8766667Y-15039889D01*
X8757143Y-15030366D01*
X8747619Y-15011318D01*
X8738095Y-14973223D01*
X8738095Y-14925604D01*
X8747619Y-14887509D01*
X8757143Y-14868461D01*
X8766667Y-14858937D01*
X8785714Y-14849413D01*
X8938095Y-15030366D02*
X8947619Y-15039889D01*
X8938095Y-15049413D01*
X8928571Y-15039889D01*
X8938095Y-15030366D01*
X8938095Y-15049413D01*
X9014286Y-14849413D02*
X9138095Y-14849413D01*
X9071429Y-14925604D01*
X9100000Y-14925604D01*
X9119048Y-14935128D01*
X9128571Y-14944651D01*
X9138095Y-14963699D01*
X9138095Y-15011318D01*
X9128571Y-15030366D01*
X9119048Y-15039889D01*
X9100000Y-15049413D01*
X9042857Y-15049413D01*
X9023810Y-15039889D01*
X9014286Y-15030366D01*
X9261905Y-14849413D02*
X9280952Y-14849413D01*
X9300000Y-14858937D01*
X9309524Y-14868461D01*
X9319048Y-14887509D01*
X9328571Y-14925604D01*
X9328571Y-14973223D01*
X9319048Y-15011318D01*
X9309524Y-15030366D01*
X9300000Y-15039889D01*
X9280952Y-15049413D01*
X9261905Y-15049413D01*
X9242857Y-15039889D01*
X9233333Y-15030366D01*
X9223810Y-15011318D01*
X9214286Y-14973223D01*
X9214286Y-14925604D01*
X9223810Y-14887509D01*
X9233333Y-14868461D01*
X9242857Y-14858937D01*
X9261905Y-14849413D01*
X9452381Y-14849413D02*
X9471429Y-14849413D01*
X9490476Y-14858937D01*
X9500000Y-14868461D01*
X9509524Y-14887509D01*
X9519048Y-14925604D01*
X9519048Y-14973223D01*
X9509524Y-15011318D01*
X9500000Y-15030366D01*
X9490476Y-15039889D01*
X9471429Y-15049413D01*
X9452381Y-15049413D01*
X9433333Y-15039889D01*
X9423810Y-15030366D01*
X9414286Y-15011318D01*
X9404762Y-14973223D01*
X9404762Y-14925604D01*
X9414286Y-14887509D01*
X9423810Y-14868461D01*
X9433333Y-14858937D01*
X9452381Y-14849413D01*
X9604762Y-15049413D02*
X9604762Y-14916080D01*
X9604762Y-14935128D02*
X9614286Y-14925604D01*
X9633333Y-14916080D01*
X9661905Y-14916080D01*
X9680952Y-14925604D01*
X9690476Y-14944651D01*
X9690476Y-15049413D01*
X9690476Y-14944651D02*
X9700000Y-14925604D01*
X9719048Y-14916080D01*
X9747619Y-14916080D01*
X9766667Y-14925604D01*
X9776190Y-14944651D01*
X9776190Y-15049413D01*
X9871429Y-15049413D02*
X9871429Y-14916080D01*
X9871429Y-14935128D02*
X9880952Y-14925604D01*
X9900000Y-14916080D01*
X9928571Y-14916080D01*
X9947619Y-14925604D01*
X9957143Y-14944651D01*
X9957143Y-15049413D01*
X9957143Y-14944651D02*
X9966667Y-14925604D01*
X9985714Y-14916080D01*
X10014286Y-14916080D01*
X10033333Y-14925604D01*
X10042857Y-14944651D01*
X10042857Y-15049413D01*
X10433333Y-14839889D02*
X10261905Y-15097032D01*
X10690476Y-14849413D02*
X10709524Y-14849413D01*
X10728571Y-14858937D01*
X10738095Y-14868461D01*
X10747619Y-14887509D01*
X10757143Y-14925604D01*
X10757143Y-14973223D01*
X10747619Y-15011318D01*
X10738095Y-15030366D01*
X10728571Y-15039889D01*
X10709524Y-15049413D01*
X10690476Y-15049413D01*
X10671429Y-15039889D01*
X10661905Y-15030366D01*
X10652381Y-15011318D01*
X10642857Y-14973223D01*
X10642857Y-14925604D01*
X10652381Y-14887509D01*
X10661905Y-14868461D01*
X10671429Y-14858937D01*
X10690476Y-14849413D01*
X10842857Y-15030366D02*
X10852381Y-15039889D01*
X10842857Y-15049413D01*
X10833333Y-15039889D01*
X10842857Y-15030366D01*
X10842857Y-15049413D01*
X10976190Y-14849413D02*
X10995238Y-14849413D01*
X11014286Y-14858937D01*
X11023810Y-14868461D01*
X11033333Y-14887509D01*
X11042857Y-14925604D01*
X11042857Y-14973223D01*
X11033333Y-15011318D01*
X11023810Y-15030366D01*
X11014286Y-15039889D01*
X10995238Y-15049413D01*
X10976190Y-15049413D01*
X10957143Y-15039889D01*
X10947619Y-15030366D01*
X10938095Y-15011318D01*
X10928571Y-14973223D01*
X10928571Y-14925604D01*
X10938095Y-14887509D01*
X10947619Y-14868461D01*
X10957143Y-14858937D01*
X10976190Y-14849413D01*
X11233333Y-15049413D02*
X11119048Y-15049413D01*
X11176190Y-15049413D02*
X11176190Y-14849413D01*
X11157143Y-14877985D01*
X11138095Y-14897032D01*
X11119048Y-14906556D01*
X11423809Y-15049413D02*
X11309524Y-15049413D01*
X11366667Y-15049413D02*
X11366667Y-14849413D01*
X11347619Y-14877985D01*
X11328571Y-14897032D01*
X11309524Y-14906556D01*
X11538095Y-14935128D02*
X11519048Y-14925604D01*
X11509524Y-14916080D01*
X11500000Y-14897032D01*
X11500000Y-14887509D01*
X11509524Y-14868461D01*
X11519048Y-14858937D01*
X11538095Y-14849413D01*
X11576190Y-14849413D01*
X11595238Y-14858937D01*
X11604762Y-14868461D01*
X11614286Y-14887509D01*
X11614286Y-14897032D01*
X11604762Y-14916080D01*
X11595238Y-14925604D01*
X11576190Y-14935128D01*
X11538095Y-14935128D01*
X11519048Y-14944651D01*
X11509524Y-14954175D01*
X11500000Y-14973223D01*
X11500000Y-15011318D01*
X11509524Y-15030366D01*
X11519048Y-15039889D01*
X11538095Y-15049413D01*
X11576190Y-15049413D01*
X11595238Y-15039889D01*
X11604762Y-15030366D01*
X11614286Y-15011318D01*
X11614286Y-14973223D01*
X11604762Y-14954175D01*
X11595238Y-14944651D01*
X11576190Y-14935128D01*
X11690476Y-14849413D02*
X11690476Y-14887509D01*
X11766667Y-14849413D02*
X11766667Y-14887509D01*
X12061905Y-15125604D02*
X12052381Y-15116080D01*
X12033333Y-15087509D01*
X12023809Y-15068461D01*
X12014286Y-15039889D01*
X12004762Y-14992270D01*
X12004762Y-14954175D01*
X12014286Y-14906556D01*
X12023809Y-14877985D01*
X12033333Y-14858937D01*
X12052381Y-14830366D01*
X12061905Y-14820842D01*
X12119048Y-14849413D02*
X12242857Y-14849413D01*
X12176190Y-14925604D01*
X12204762Y-14925604D01*
X12223809Y-14935128D01*
X12233333Y-14944651D01*
X12242857Y-14963699D01*
X12242857Y-15011318D01*
X12233333Y-15030366D01*
X12223809Y-15039889D01*
X12204762Y-15049413D01*
X12147619Y-15049413D01*
X12128571Y-15039889D01*
X12119048Y-15030366D01*
X12366667Y-14849413D02*
X12385714Y-14849413D01*
X12404762Y-14858937D01*
X12414286Y-14868461D01*
X12423809Y-14887509D01*
X12433333Y-14925604D01*
X12433333Y-14973223D01*
X12423809Y-15011318D01*
X12414286Y-15030366D01*
X12404762Y-15039889D01*
X12385714Y-15049413D01*
X12366667Y-15049413D01*
X12347619Y-15039889D01*
X12338095Y-15030366D01*
X12328571Y-15011318D01*
X12319048Y-14973223D01*
X12319048Y-14925604D01*
X12328571Y-14887509D01*
X12338095Y-14868461D01*
X12347619Y-14858937D01*
X12366667Y-14849413D01*
X12500000Y-14849413D02*
X12623809Y-14849413D01*
X12557143Y-14925604D01*
X12585714Y-14925604D01*
X12604762Y-14935128D01*
X12614286Y-14944651D01*
X12623809Y-14963699D01*
X12623809Y-15011318D01*
X12614286Y-15030366D01*
X12604762Y-15039889D01*
X12585714Y-15049413D01*
X12528571Y-15049413D01*
X12509524Y-15039889D01*
X12500000Y-15030366D01*
X12861905Y-15049413D02*
X12861905Y-14849413D01*
X12947619Y-15049413D02*
X12947619Y-14944651D01*
X12938095Y-14925604D01*
X12919048Y-14916080D01*
X12890476Y-14916080D01*
X12871428Y-14925604D01*
X12861905Y-14935128D01*
X13071428Y-15049413D02*
X13052381Y-15039889D01*
X13042857Y-15030366D01*
X13033333Y-15011318D01*
X13033333Y-14954175D01*
X13042857Y-14935128D01*
X13052381Y-14925604D01*
X13071428Y-14916080D01*
X13100000Y-14916080D01*
X13119048Y-14925604D01*
X13128571Y-14935128D01*
X13138095Y-14954175D01*
X13138095Y-15011318D01*
X13128571Y-15030366D01*
X13119048Y-15039889D01*
X13100000Y-15049413D01*
X13071428Y-15049413D01*
X13252381Y-15049413D02*
X13233333Y-15039889D01*
X13223809Y-15020842D01*
X13223809Y-14849413D01*
X13404762Y-15039889D02*
X13385714Y-15049413D01*
X13347619Y-15049413D01*
X13328571Y-15039889D01*
X13319048Y-15020842D01*
X13319048Y-14944651D01*
X13328571Y-14925604D01*
X13347619Y-14916080D01*
X13385714Y-14916080D01*
X13404762Y-14925604D01*
X13414286Y-14944651D01*
X13414286Y-14963699D01*
X13319048Y-14982747D01*
X13490476Y-15039889D02*
X13509524Y-15049413D01*
X13547619Y-15049413D01*
X13566667Y-15039889D01*
X13576190Y-15020842D01*
X13576190Y-15011318D01*
X13566667Y-14992270D01*
X13547619Y-14982747D01*
X13519048Y-14982747D01*
X13500000Y-14973223D01*
X13490476Y-14954175D01*
X13490476Y-14944651D01*
X13500000Y-14925604D01*
X13519048Y-14916080D01*
X13547619Y-14916080D01*
X13566667Y-14925604D01*
X13642857Y-15125604D02*
X13652381Y-15116080D01*
X13671428Y-15087509D01*
X13680952Y-15068461D01*
X13690476Y-15039889D01*
X13700000Y-14992270D01*
X13700000Y-14954175D01*
X13690476Y-14906556D01*
X13680952Y-14877985D01*
X13671428Y-14858937D01*
X13652381Y-14830366D01*
X13642857Y-14820842D01*
D13*
X8490000Y-15222937D02*
G75*
G03*
X8490000Y-15222937I-20000J0D01*
G01*
D11*
X8785714Y-15113413D02*
X8804762Y-15113413D01*
X8823810Y-15122937D01*
X8833333Y-15132461D01*
X8842857Y-15151509D01*
X8852381Y-15189604D01*
X8852381Y-15237223D01*
X8842857Y-15275318D01*
X8833333Y-15294366D01*
X8823810Y-15303889D01*
X8804762Y-15313413D01*
X8785714Y-15313413D01*
X8766667Y-15303889D01*
X8757143Y-15294366D01*
X8747619Y-15275318D01*
X8738095Y-15237223D01*
X8738095Y-15189604D01*
X8747619Y-15151509D01*
X8757143Y-15132461D01*
X8766667Y-15122937D01*
X8785714Y-15113413D01*
X8938095Y-15294366D02*
X8947619Y-15303889D01*
X8938095Y-15313413D01*
X8928571Y-15303889D01*
X8938095Y-15294366D01*
X8938095Y-15313413D01*
X9119048Y-15180080D02*
X9119048Y-15313413D01*
X9071429Y-15103889D02*
X9023810Y-15246747D01*
X9147619Y-15246747D01*
X9261905Y-15113413D02*
X9280952Y-15113413D01*
X9300000Y-15122937D01*
X9309524Y-15132461D01*
X9319048Y-15151509D01*
X9328571Y-15189604D01*
X9328571Y-15237223D01*
X9319048Y-15275318D01*
X9309524Y-15294366D01*
X9300000Y-15303889D01*
X9280952Y-15313413D01*
X9261905Y-15313413D01*
X9242857Y-15303889D01*
X9233333Y-15294366D01*
X9223810Y-15275318D01*
X9214286Y-15237223D01*
X9214286Y-15189604D01*
X9223810Y-15151509D01*
X9233333Y-15132461D01*
X9242857Y-15122937D01*
X9261905Y-15113413D01*
X9452381Y-15113413D02*
X9471429Y-15113413D01*
X9490476Y-15122937D01*
X9500000Y-15132461D01*
X9509524Y-15151509D01*
X9519048Y-15189604D01*
X9519048Y-15237223D01*
X9509524Y-15275318D01*
X9500000Y-15294366D01*
X9490476Y-15303889D01*
X9471429Y-15313413D01*
X9452381Y-15313413D01*
X9433333Y-15303889D01*
X9423810Y-15294366D01*
X9414286Y-15275318D01*
X9404762Y-15237223D01*
X9404762Y-15189604D01*
X9414286Y-15151509D01*
X9423810Y-15132461D01*
X9433333Y-15122937D01*
X9452381Y-15113413D01*
X9604762Y-15313413D02*
X9604762Y-15180080D01*
X9604762Y-15199128D02*
X9614286Y-15189604D01*
X9633333Y-15180080D01*
X9661905Y-15180080D01*
X9680952Y-15189604D01*
X9690476Y-15208651D01*
X9690476Y-15313413D01*
X9690476Y-15208651D02*
X9700000Y-15189604D01*
X9719048Y-15180080D01*
X9747619Y-15180080D01*
X9766667Y-15189604D01*
X9776190Y-15208651D01*
X9776190Y-15313413D01*
X9871429Y-15313413D02*
X9871429Y-15180080D01*
X9871429Y-15199128D02*
X9880952Y-15189604D01*
X9900000Y-15180080D01*
X9928571Y-15180080D01*
X9947619Y-15189604D01*
X9957143Y-15208651D01*
X9957143Y-15313413D01*
X9957143Y-15208651D02*
X9966667Y-15189604D01*
X9985714Y-15180080D01*
X10014286Y-15180080D01*
X10033333Y-15189604D01*
X10042857Y-15208651D01*
X10042857Y-15313413D01*
X10433333Y-15103889D02*
X10261905Y-15361032D01*
X10690476Y-15113413D02*
X10709524Y-15113413D01*
X10728571Y-15122937D01*
X10738095Y-15132461D01*
X10747619Y-15151509D01*
X10757143Y-15189604D01*
X10757143Y-15237223D01*
X10747619Y-15275318D01*
X10738095Y-15294366D01*
X10728571Y-15303889D01*
X10709524Y-15313413D01*
X10690476Y-15313413D01*
X10671429Y-15303889D01*
X10661905Y-15294366D01*
X10652381Y-15275318D01*
X10642857Y-15237223D01*
X10642857Y-15189604D01*
X10652381Y-15151509D01*
X10661905Y-15132461D01*
X10671429Y-15122937D01*
X10690476Y-15113413D01*
X10842857Y-15294366D02*
X10852381Y-15303889D01*
X10842857Y-15313413D01*
X10833333Y-15303889D01*
X10842857Y-15294366D01*
X10842857Y-15313413D01*
X10976190Y-15113413D02*
X10995238Y-15113413D01*
X11014286Y-15122937D01*
X11023810Y-15132461D01*
X11033333Y-15151509D01*
X11042857Y-15189604D01*
X11042857Y-15237223D01*
X11033333Y-15275318D01*
X11023810Y-15294366D01*
X11014286Y-15303889D01*
X10995238Y-15313413D01*
X10976190Y-15313413D01*
X10957143Y-15303889D01*
X10947619Y-15294366D01*
X10938095Y-15275318D01*
X10928571Y-15237223D01*
X10928571Y-15189604D01*
X10938095Y-15151509D01*
X10947619Y-15132461D01*
X10957143Y-15122937D01*
X10976190Y-15113413D01*
X11233333Y-15313413D02*
X11119048Y-15313413D01*
X11176190Y-15313413D02*
X11176190Y-15113413D01*
X11157143Y-15141985D01*
X11138095Y-15161032D01*
X11119048Y-15170556D01*
X11414286Y-15113413D02*
X11319048Y-15113413D01*
X11309524Y-15208651D01*
X11319048Y-15199128D01*
X11338095Y-15189604D01*
X11385714Y-15189604D01*
X11404762Y-15199128D01*
X11414286Y-15208651D01*
X11423809Y-15227699D01*
X11423809Y-15275318D01*
X11414286Y-15294366D01*
X11404762Y-15303889D01*
X11385714Y-15313413D01*
X11338095Y-15313413D01*
X11319048Y-15303889D01*
X11309524Y-15294366D01*
X11490476Y-15113413D02*
X11623809Y-15113413D01*
X11538095Y-15313413D01*
X11690476Y-15113413D02*
X11690476Y-15151509D01*
X11766667Y-15113413D02*
X11766667Y-15151509D01*
X12061905Y-15389604D02*
X12052381Y-15380080D01*
X12033333Y-15351509D01*
X12023809Y-15332461D01*
X12014286Y-15303889D01*
X12004762Y-15256270D01*
X12004762Y-15218175D01*
X12014286Y-15170556D01*
X12023809Y-15141985D01*
X12033333Y-15122937D01*
X12052381Y-15094366D01*
X12061905Y-15084842D01*
X12128571Y-15132461D02*
X12138095Y-15122937D01*
X12157143Y-15113413D01*
X12204762Y-15113413D01*
X12223809Y-15122937D01*
X12233333Y-15132461D01*
X12242857Y-15151509D01*
X12242857Y-15170556D01*
X12233333Y-15199128D01*
X12119048Y-15313413D01*
X12242857Y-15313413D01*
X12414286Y-15180080D02*
X12414286Y-15313413D01*
X12366667Y-15103889D02*
X12319048Y-15246747D01*
X12442857Y-15246747D01*
X12671428Y-15313413D02*
X12671428Y-15113413D01*
X12757143Y-15313413D02*
X12757143Y-15208651D01*
X12747619Y-15189604D01*
X12728571Y-15180080D01*
X12700000Y-15180080D01*
X12680952Y-15189604D01*
X12671428Y-15199128D01*
X12880952Y-15313413D02*
X12861905Y-15303889D01*
X12852381Y-15294366D01*
X12842857Y-15275318D01*
X12842857Y-15218175D01*
X12852381Y-15199128D01*
X12861905Y-15189604D01*
X12880952Y-15180080D01*
X12909524Y-15180080D01*
X12928571Y-15189604D01*
X12938095Y-15199128D01*
X12947619Y-15218175D01*
X12947619Y-15275318D01*
X12938095Y-15294366D01*
X12928571Y-15303889D01*
X12909524Y-15313413D01*
X12880952Y-15313413D01*
X13061905Y-15313413D02*
X13042857Y-15303889D01*
X13033333Y-15284842D01*
X13033333Y-15113413D01*
X13214286Y-15303889D02*
X13195238Y-15313413D01*
X13157143Y-15313413D01*
X13138095Y-15303889D01*
X13128571Y-15284842D01*
X13128571Y-15208651D01*
X13138095Y-15189604D01*
X13157143Y-15180080D01*
X13195238Y-15180080D01*
X13214286Y-15189604D01*
X13223809Y-15208651D01*
X13223809Y-15227699D01*
X13128571Y-15246747D01*
X13300000Y-15303889D02*
X13319048Y-15313413D01*
X13357143Y-15313413D01*
X13376190Y-15303889D01*
X13385714Y-15284842D01*
X13385714Y-15275318D01*
X13376190Y-15256270D01*
X13357143Y-15246747D01*
X13328571Y-15246747D01*
X13309524Y-15237223D01*
X13300000Y-15218175D01*
X13300000Y-15208651D01*
X13309524Y-15189604D01*
X13328571Y-15180080D01*
X13357143Y-15180080D01*
X13376190Y-15189604D01*
X13452381Y-15389604D02*
X13461905Y-15380080D01*
X13480952Y-15351509D01*
X13490476Y-15332461D01*
X13500000Y-15303889D01*
X13509524Y-15256270D01*
X13509524Y-15218175D01*
X13500000Y-15170556D01*
X13490476Y-15141985D01*
X13480952Y-15122937D01*
X13461905Y-15094366D01*
X13452381Y-15084842D01*
D14*
X8449360Y-15446297D02*
X8449360Y-15527577D01*
X8408720Y-15486937D02*
X8490000Y-15486937D01*
D11*
X8785714Y-15377413D02*
X8804762Y-15377413D01*
X8823810Y-15386937D01*
X8833333Y-15396461D01*
X8842857Y-15415509D01*
X8852381Y-15453604D01*
X8852381Y-15501223D01*
X8842857Y-15539318D01*
X8833333Y-15558366D01*
X8823810Y-15567889D01*
X8804762Y-15577413D01*
X8785714Y-15577413D01*
X8766667Y-15567889D01*
X8757143Y-15558366D01*
X8747619Y-15539318D01*
X8738095Y-15501223D01*
X8738095Y-15453604D01*
X8747619Y-15415509D01*
X8757143Y-15396461D01*
X8766667Y-15386937D01*
X8785714Y-15377413D01*
X8938095Y-15558366D02*
X8947619Y-15567889D01*
X8938095Y-15577413D01*
X8928571Y-15567889D01*
X8938095Y-15558366D01*
X8938095Y-15577413D01*
X9061905Y-15463128D02*
X9042857Y-15453604D01*
X9033333Y-15444080D01*
X9023810Y-15425032D01*
X9023810Y-15415509D01*
X9033333Y-15396461D01*
X9042857Y-15386937D01*
X9061905Y-15377413D01*
X9100000Y-15377413D01*
X9119048Y-15386937D01*
X9128571Y-15396461D01*
X9138095Y-15415509D01*
X9138095Y-15425032D01*
X9128571Y-15444080D01*
X9119048Y-15453604D01*
X9100000Y-15463128D01*
X9061905Y-15463128D01*
X9042857Y-15472651D01*
X9033333Y-15482175D01*
X9023810Y-15501223D01*
X9023810Y-15539318D01*
X9033333Y-15558366D01*
X9042857Y-15567889D01*
X9061905Y-15577413D01*
X9100000Y-15577413D01*
X9119048Y-15567889D01*
X9128571Y-15558366D01*
X9138095Y-15539318D01*
X9138095Y-15501223D01*
X9128571Y-15482175D01*
X9119048Y-15472651D01*
X9100000Y-15463128D01*
X9328571Y-15577413D02*
X9214286Y-15577413D01*
X9271429Y-15577413D02*
X9271429Y-15377413D01*
X9252381Y-15405985D01*
X9233333Y-15425032D01*
X9214286Y-15434556D01*
X9395238Y-15377413D02*
X9519048Y-15377413D01*
X9452381Y-15453604D01*
X9480952Y-15453604D01*
X9500000Y-15463128D01*
X9509524Y-15472651D01*
X9519048Y-15491699D01*
X9519048Y-15539318D01*
X9509524Y-15558366D01*
X9500000Y-15567889D01*
X9480952Y-15577413D01*
X9423810Y-15577413D01*
X9404762Y-15567889D01*
X9395238Y-15558366D01*
X9604762Y-15577413D02*
X9604762Y-15444080D01*
X9604762Y-15463128D02*
X9614286Y-15453604D01*
X9633333Y-15444080D01*
X9661905Y-15444080D01*
X9680952Y-15453604D01*
X9690476Y-15472651D01*
X9690476Y-15577413D01*
X9690476Y-15472651D02*
X9700000Y-15453604D01*
X9719048Y-15444080D01*
X9747619Y-15444080D01*
X9766667Y-15453604D01*
X9776190Y-15472651D01*
X9776190Y-15577413D01*
X9871429Y-15577413D02*
X9871429Y-15444080D01*
X9871429Y-15463128D02*
X9880952Y-15453604D01*
X9900000Y-15444080D01*
X9928571Y-15444080D01*
X9947619Y-15453604D01*
X9957143Y-15472651D01*
X9957143Y-15577413D01*
X9957143Y-15472651D02*
X9966667Y-15453604D01*
X9985714Y-15444080D01*
X10014286Y-15444080D01*
X10033333Y-15453604D01*
X10042857Y-15472651D01*
X10042857Y-15577413D01*
X10433333Y-15367889D02*
X10261905Y-15625032D01*
X10690476Y-15377413D02*
X10709524Y-15377413D01*
X10728571Y-15386937D01*
X10738095Y-15396461D01*
X10747619Y-15415509D01*
X10757143Y-15453604D01*
X10757143Y-15501223D01*
X10747619Y-15539318D01*
X10738095Y-15558366D01*
X10728571Y-15567889D01*
X10709524Y-15577413D01*
X10690476Y-15577413D01*
X10671429Y-15567889D01*
X10661905Y-15558366D01*
X10652381Y-15539318D01*
X10642857Y-15501223D01*
X10642857Y-15453604D01*
X10652381Y-15415509D01*
X10661905Y-15396461D01*
X10671429Y-15386937D01*
X10690476Y-15377413D01*
X10842857Y-15558366D02*
X10852381Y-15567889D01*
X10842857Y-15577413D01*
X10833333Y-15567889D01*
X10842857Y-15558366D01*
X10842857Y-15577413D01*
X10976190Y-15377413D02*
X10995238Y-15377413D01*
X11014286Y-15386937D01*
X11023810Y-15396461D01*
X11033333Y-15415509D01*
X11042857Y-15453604D01*
X11042857Y-15501223D01*
X11033333Y-15539318D01*
X11023810Y-15558366D01*
X11014286Y-15567889D01*
X10995238Y-15577413D01*
X10976190Y-15577413D01*
X10957143Y-15567889D01*
X10947619Y-15558366D01*
X10938095Y-15539318D01*
X10928571Y-15501223D01*
X10928571Y-15453604D01*
X10938095Y-15415509D01*
X10947619Y-15396461D01*
X10957143Y-15386937D01*
X10976190Y-15377413D01*
X11109524Y-15377413D02*
X11233333Y-15377413D01*
X11166667Y-15453604D01*
X11195238Y-15453604D01*
X11214286Y-15463128D01*
X11223809Y-15472651D01*
X11233333Y-15491699D01*
X11233333Y-15539318D01*
X11223809Y-15558366D01*
X11214286Y-15567889D01*
X11195238Y-15577413D01*
X11138095Y-15577413D01*
X11119048Y-15567889D01*
X11109524Y-15558366D01*
X11309524Y-15396461D02*
X11319048Y-15386937D01*
X11338095Y-15377413D01*
X11385714Y-15377413D01*
X11404762Y-15386937D01*
X11414286Y-15396461D01*
X11423809Y-15415509D01*
X11423809Y-15434556D01*
X11414286Y-15463128D01*
X11300000Y-15577413D01*
X11423809Y-15577413D01*
X11547619Y-15377413D02*
X11566667Y-15377413D01*
X11585714Y-15386937D01*
X11595238Y-15396461D01*
X11604762Y-15415509D01*
X11614286Y-15453604D01*
X11614286Y-15501223D01*
X11604762Y-15539318D01*
X11595238Y-15558366D01*
X11585714Y-15567889D01*
X11566667Y-15577413D01*
X11547619Y-15577413D01*
X11528571Y-15567889D01*
X11519048Y-15558366D01*
X11509524Y-15539318D01*
X11500000Y-15501223D01*
X11500000Y-15453604D01*
X11509524Y-15415509D01*
X11519048Y-15396461D01*
X11528571Y-15386937D01*
X11547619Y-15377413D01*
X11690476Y-15377413D02*
X11690476Y-15415509D01*
X11766667Y-15377413D02*
X11766667Y-15415509D01*
X12061905Y-15653604D02*
X12052381Y-15644080D01*
X12033333Y-15615509D01*
X12023809Y-15596461D01*
X12014286Y-15567889D01*
X12004762Y-15520270D01*
X12004762Y-15482175D01*
X12014286Y-15434556D01*
X12023809Y-15405985D01*
X12033333Y-15386937D01*
X12052381Y-15358366D01*
X12061905Y-15348842D01*
X12242857Y-15577413D02*
X12128571Y-15577413D01*
X12185714Y-15577413D02*
X12185714Y-15377413D01*
X12166667Y-15405985D01*
X12147619Y-15425032D01*
X12128571Y-15434556D01*
X12366667Y-15377413D02*
X12385714Y-15377413D01*
X12404762Y-15386937D01*
X12414286Y-15396461D01*
X12423809Y-15415509D01*
X12433333Y-15453604D01*
X12433333Y-15501223D01*
X12423809Y-15539318D01*
X12414286Y-15558366D01*
X12404762Y-15567889D01*
X12385714Y-15577413D01*
X12366667Y-15577413D01*
X12347619Y-15567889D01*
X12338095Y-15558366D01*
X12328571Y-15539318D01*
X12319048Y-15501223D01*
X12319048Y-15453604D01*
X12328571Y-15415509D01*
X12338095Y-15396461D01*
X12347619Y-15386937D01*
X12366667Y-15377413D01*
X12671428Y-15577413D02*
X12671428Y-15377413D01*
X12757143Y-15577413D02*
X12757143Y-15472651D01*
X12747619Y-15453604D01*
X12728571Y-15444080D01*
X12700000Y-15444080D01*
X12680952Y-15453604D01*
X12671428Y-15463128D01*
X12880952Y-15577413D02*
X12861905Y-15567889D01*
X12852381Y-15558366D01*
X12842857Y-15539318D01*
X12842857Y-15482175D01*
X12852381Y-15463128D01*
X12861905Y-15453604D01*
X12880952Y-15444080D01*
X12909524Y-15444080D01*
X12928571Y-15453604D01*
X12938095Y-15463128D01*
X12947619Y-15482175D01*
X12947619Y-15539318D01*
X12938095Y-15558366D01*
X12928571Y-15567889D01*
X12909524Y-15577413D01*
X12880952Y-15577413D01*
X13061905Y-15577413D02*
X13042857Y-15567889D01*
X13033333Y-15548842D01*
X13033333Y-15377413D01*
X13214286Y-15567889D02*
X13195238Y-15577413D01*
X13157143Y-15577413D01*
X13138095Y-15567889D01*
X13128571Y-15548842D01*
X13128571Y-15472651D01*
X13138095Y-15453604D01*
X13157143Y-15444080D01*
X13195238Y-15444080D01*
X13214286Y-15453604D01*
X13223809Y-15472651D01*
X13223809Y-15491699D01*
X13128571Y-15510747D01*
X13300000Y-15567889D02*
X13319048Y-15577413D01*
X13357143Y-15577413D01*
X13376190Y-15567889D01*
X13385714Y-15548842D01*
X13385714Y-15539318D01*
X13376190Y-15520270D01*
X13357143Y-15510747D01*
X13328571Y-15510747D01*
X13309524Y-15501223D01*
X13300000Y-15482175D01*
X13300000Y-15472651D01*
X13309524Y-15453604D01*
X13328571Y-15444080D01*
X13357143Y-15444080D01*
X13376190Y-15453604D01*
X13452381Y-15653604D02*
X13461905Y-15644080D01*
X13480952Y-15615509D01*
X13490476Y-15596461D01*
X13500000Y-15567889D01*
X13509524Y-15520270D01*
X13509524Y-15482175D01*
X13500000Y-15434556D01*
X13490476Y-15405985D01*
X13480952Y-15386937D01*
X13461905Y-15358366D01*
X13452381Y-15348842D01*
D15*
X8475493Y-15785960D02*
X8475493Y-15715914D01*
X8405447Y-15715914D01*
X8405447Y-15785960D01*
X8475493Y-15785960D01*
D11*
X8785714Y-15641413D02*
X8804762Y-15641413D01*
X8823810Y-15650937D01*
X8833333Y-15660461D01*
X8842857Y-15679509D01*
X8852381Y-15717604D01*
X8852381Y-15765223D01*
X8842857Y-15803318D01*
X8833333Y-15822366D01*
X8823810Y-15831889D01*
X8804762Y-15841413D01*
X8785714Y-15841413D01*
X8766667Y-15831889D01*
X8757143Y-15822366D01*
X8747619Y-15803318D01*
X8738095Y-15765223D01*
X8738095Y-15717604D01*
X8747619Y-15679509D01*
X8757143Y-15660461D01*
X8766667Y-15650937D01*
X8785714Y-15641413D01*
X8938095Y-15822366D02*
X8947619Y-15831889D01*
X8938095Y-15841413D01*
X8928571Y-15831889D01*
X8938095Y-15822366D01*
X8938095Y-15841413D01*
X9042857Y-15841413D02*
X9080952Y-15841413D01*
X9100000Y-15831889D01*
X9109524Y-15822366D01*
X9128571Y-15793794D01*
X9138095Y-15755699D01*
X9138095Y-15679509D01*
X9128571Y-15660461D01*
X9119048Y-15650937D01*
X9100000Y-15641413D01*
X9061905Y-15641413D01*
X9042857Y-15650937D01*
X9033333Y-15660461D01*
X9023810Y-15679509D01*
X9023810Y-15727128D01*
X9033333Y-15746175D01*
X9042857Y-15755699D01*
X9061905Y-15765223D01*
X9100000Y-15765223D01*
X9119048Y-15755699D01*
X9128571Y-15746175D01*
X9138095Y-15727128D01*
X9233333Y-15841413D02*
X9271429Y-15841413D01*
X9290476Y-15831889D01*
X9300000Y-15822366D01*
X9319048Y-15793794D01*
X9328571Y-15755699D01*
X9328571Y-15679509D01*
X9319048Y-15660461D01*
X9309524Y-15650937D01*
X9290476Y-15641413D01*
X9252381Y-15641413D01*
X9233333Y-15650937D01*
X9223810Y-15660461D01*
X9214286Y-15679509D01*
X9214286Y-15727128D01*
X9223810Y-15746175D01*
X9233333Y-15755699D01*
X9252381Y-15765223D01*
X9290476Y-15765223D01*
X9309524Y-15755699D01*
X9319048Y-15746175D01*
X9328571Y-15727128D01*
X9519048Y-15841413D02*
X9404762Y-15841413D01*
X9461905Y-15841413D02*
X9461905Y-15641413D01*
X9442857Y-15669985D01*
X9423810Y-15689032D01*
X9404762Y-15698556D01*
X9604762Y-15841413D02*
X9604762Y-15708080D01*
X9604762Y-15727128D02*
X9614286Y-15717604D01*
X9633333Y-15708080D01*
X9661905Y-15708080D01*
X9680952Y-15717604D01*
X9690476Y-15736651D01*
X9690476Y-15841413D01*
X9690476Y-15736651D02*
X9700000Y-15717604D01*
X9719048Y-15708080D01*
X9747619Y-15708080D01*
X9766667Y-15717604D01*
X9776190Y-15736651D01*
X9776190Y-15841413D01*
X9871429Y-15841413D02*
X9871429Y-15708080D01*
X9871429Y-15727128D02*
X9880952Y-15717604D01*
X9900000Y-15708080D01*
X9928571Y-15708080D01*
X9947619Y-15717604D01*
X9957143Y-15736651D01*
X9957143Y-15841413D01*
X9957143Y-15736651D02*
X9966667Y-15717604D01*
X9985714Y-15708080D01*
X10014286Y-15708080D01*
X10033333Y-15717604D01*
X10042857Y-15736651D01*
X10042857Y-15841413D01*
X10433333Y-15631889D02*
X10261905Y-15889032D01*
X10690476Y-15641413D02*
X10709524Y-15641413D01*
X10728571Y-15650937D01*
X10738095Y-15660461D01*
X10747619Y-15679509D01*
X10757143Y-15717604D01*
X10757143Y-15765223D01*
X10747619Y-15803318D01*
X10738095Y-15822366D01*
X10728571Y-15831889D01*
X10709524Y-15841413D01*
X10690476Y-15841413D01*
X10671429Y-15831889D01*
X10661905Y-15822366D01*
X10652381Y-15803318D01*
X10642857Y-15765223D01*
X10642857Y-15717604D01*
X10652381Y-15679509D01*
X10661905Y-15660461D01*
X10671429Y-15650937D01*
X10690476Y-15641413D01*
X10842857Y-15822366D02*
X10852381Y-15831889D01*
X10842857Y-15841413D01*
X10833333Y-15831889D01*
X10842857Y-15822366D01*
X10842857Y-15841413D01*
X10976190Y-15641413D02*
X10995238Y-15641413D01*
X11014286Y-15650937D01*
X11023810Y-15660461D01*
X11033333Y-15679509D01*
X11042857Y-15717604D01*
X11042857Y-15765223D01*
X11033333Y-15803318D01*
X11023810Y-15822366D01*
X11014286Y-15831889D01*
X10995238Y-15841413D01*
X10976190Y-15841413D01*
X10957143Y-15831889D01*
X10947619Y-15822366D01*
X10938095Y-15803318D01*
X10928571Y-15765223D01*
X10928571Y-15717604D01*
X10938095Y-15679509D01*
X10947619Y-15660461D01*
X10957143Y-15650937D01*
X10976190Y-15641413D01*
X11109524Y-15641413D02*
X11233333Y-15641413D01*
X11166667Y-15717604D01*
X11195238Y-15717604D01*
X11214286Y-15727128D01*
X11223809Y-15736651D01*
X11233333Y-15755699D01*
X11233333Y-15803318D01*
X11223809Y-15822366D01*
X11214286Y-15831889D01*
X11195238Y-15841413D01*
X11138095Y-15841413D01*
X11119048Y-15831889D01*
X11109524Y-15822366D01*
X11328571Y-15841413D02*
X11366667Y-15841413D01*
X11385714Y-15831889D01*
X11395238Y-15822366D01*
X11414286Y-15793794D01*
X11423809Y-15755699D01*
X11423809Y-15679509D01*
X11414286Y-15660461D01*
X11404762Y-15650937D01*
X11385714Y-15641413D01*
X11347619Y-15641413D01*
X11328571Y-15650937D01*
X11319048Y-15660461D01*
X11309524Y-15679509D01*
X11309524Y-15727128D01*
X11319048Y-15746175D01*
X11328571Y-15755699D01*
X11347619Y-15765223D01*
X11385714Y-15765223D01*
X11404762Y-15755699D01*
X11414286Y-15746175D01*
X11423809Y-15727128D01*
X11547619Y-15641413D02*
X11566667Y-15641413D01*
X11585714Y-15650937D01*
X11595238Y-15660461D01*
X11604762Y-15679509D01*
X11614286Y-15717604D01*
X11614286Y-15765223D01*
X11604762Y-15803318D01*
X11595238Y-15822366D01*
X11585714Y-15831889D01*
X11566667Y-15841413D01*
X11547619Y-15841413D01*
X11528571Y-15831889D01*
X11519048Y-15822366D01*
X11509524Y-15803318D01*
X11500000Y-15765223D01*
X11500000Y-15717604D01*
X11509524Y-15679509D01*
X11519048Y-15660461D01*
X11528571Y-15650937D01*
X11547619Y-15641413D01*
X11690476Y-15641413D02*
X11690476Y-15679509D01*
X11766667Y-15641413D02*
X11766667Y-15679509D01*
X12061905Y-15917604D02*
X12052381Y-15908080D01*
X12033333Y-15879509D01*
X12023809Y-15860461D01*
X12014286Y-15831889D01*
X12004762Y-15784270D01*
X12004762Y-15746175D01*
X12014286Y-15698556D01*
X12023809Y-15669985D01*
X12033333Y-15650937D01*
X12052381Y-15622366D01*
X12061905Y-15612842D01*
X12223809Y-15641413D02*
X12185714Y-15641413D01*
X12166667Y-15650937D01*
X12157143Y-15660461D01*
X12138095Y-15689032D01*
X12128571Y-15727128D01*
X12128571Y-15803318D01*
X12138095Y-15822366D01*
X12147619Y-15831889D01*
X12166667Y-15841413D01*
X12204762Y-15841413D01*
X12223809Y-15831889D01*
X12233333Y-15822366D01*
X12242857Y-15803318D01*
X12242857Y-15755699D01*
X12233333Y-15736651D01*
X12223809Y-15727128D01*
X12204762Y-15717604D01*
X12166667Y-15717604D01*
X12147619Y-15727128D01*
X12138095Y-15736651D01*
X12128571Y-15755699D01*
X12366667Y-15641413D02*
X12385714Y-15641413D01*
X12404762Y-15650937D01*
X12414286Y-15660461D01*
X12423809Y-15679509D01*
X12433333Y-15717604D01*
X12433333Y-15765223D01*
X12423809Y-15803318D01*
X12414286Y-15822366D01*
X12404762Y-15831889D01*
X12385714Y-15841413D01*
X12366667Y-15841413D01*
X12347619Y-15831889D01*
X12338095Y-15822366D01*
X12328571Y-15803318D01*
X12319048Y-15765223D01*
X12319048Y-15717604D01*
X12328571Y-15679509D01*
X12338095Y-15660461D01*
X12347619Y-15650937D01*
X12366667Y-15641413D01*
X12671428Y-15841413D02*
X12671428Y-15641413D01*
X12757143Y-15841413D02*
X12757143Y-15736651D01*
X12747619Y-15717604D01*
X12728571Y-15708080D01*
X12700000Y-15708080D01*
X12680952Y-15717604D01*
X12671428Y-15727128D01*
X12880952Y-15841413D02*
X12861905Y-15831889D01*
X12852381Y-15822366D01*
X12842857Y-15803318D01*
X12842857Y-15746175D01*
X12852381Y-15727128D01*
X12861905Y-15717604D01*
X12880952Y-15708080D01*
X12909524Y-15708080D01*
X12928571Y-15717604D01*
X12938095Y-15727128D01*
X12947619Y-15746175D01*
X12947619Y-15803318D01*
X12938095Y-15822366D01*
X12928571Y-15831889D01*
X12909524Y-15841413D01*
X12880952Y-15841413D01*
X13061905Y-15841413D02*
X13042857Y-15831889D01*
X13033333Y-15812842D01*
X13033333Y-15641413D01*
X13214286Y-15831889D02*
X13195238Y-15841413D01*
X13157143Y-15841413D01*
X13138095Y-15831889D01*
X13128571Y-15812842D01*
X13128571Y-15736651D01*
X13138095Y-15717604D01*
X13157143Y-15708080D01*
X13195238Y-15708080D01*
X13214286Y-15717604D01*
X13223809Y-15736651D01*
X13223809Y-15755699D01*
X13128571Y-15774747D01*
X13300000Y-15831889D02*
X13319048Y-15841413D01*
X13357143Y-15841413D01*
X13376190Y-15831889D01*
X13385714Y-15812842D01*
X13385714Y-15803318D01*
X13376190Y-15784270D01*
X13357143Y-15774747D01*
X13328571Y-15774747D01*
X13309524Y-15765223D01*
X13300000Y-15746175D01*
X13300000Y-15736651D01*
X13309524Y-15717604D01*
X13328571Y-15708080D01*
X13357143Y-15708080D01*
X13376190Y-15717604D01*
X13452381Y-15917604D02*
X13461905Y-15908080D01*
X13480952Y-15879509D01*
X13490476Y-15860461D01*
X13500000Y-15831889D01*
X13509524Y-15784270D01*
X13509524Y-15746175D01*
X13500000Y-15698556D01*
X13490476Y-15669985D01*
X13480952Y-15650937D01*
X13461905Y-15622366D01*
X13452381Y-15612842D01*
D16*
X8440000Y-16064937D02*
X8490000Y-16014937D01*
X8440000Y-15964937D01*
X8390000Y-16014937D01*
X8440000Y-16064937D01*
D11*
X8852381Y-16105413D02*
X8738095Y-16105413D01*
X8795238Y-16105413D02*
X8795238Y-15905413D01*
X8776190Y-15933985D01*
X8757143Y-15953032D01*
X8738095Y-15962556D01*
X8938095Y-16086366D02*
X8947619Y-16095889D01*
X8938095Y-16105413D01*
X8928571Y-16095889D01*
X8938095Y-16086366D01*
X8938095Y-16105413D01*
X9071429Y-15905413D02*
X9090476Y-15905413D01*
X9109524Y-15914937D01*
X9119048Y-15924461D01*
X9128571Y-15943509D01*
X9138095Y-15981604D01*
X9138095Y-16029223D01*
X9128571Y-16067318D01*
X9119048Y-16086366D01*
X9109524Y-16095889D01*
X9090476Y-16105413D01*
X9071429Y-16105413D01*
X9052381Y-16095889D01*
X9042857Y-16086366D01*
X9033333Y-16067318D01*
X9023810Y-16029223D01*
X9023810Y-15981604D01*
X9033333Y-15943509D01*
X9042857Y-15924461D01*
X9052381Y-15914937D01*
X9071429Y-15905413D01*
X9261905Y-15905413D02*
X9280952Y-15905413D01*
X9300000Y-15914937D01*
X9309524Y-15924461D01*
X9319048Y-15943509D01*
X9328571Y-15981604D01*
X9328571Y-16029223D01*
X9319048Y-16067318D01*
X9309524Y-16086366D01*
X9300000Y-16095889D01*
X9280952Y-16105413D01*
X9261905Y-16105413D01*
X9242857Y-16095889D01*
X9233333Y-16086366D01*
X9223810Y-16067318D01*
X9214286Y-16029223D01*
X9214286Y-15981604D01*
X9223810Y-15943509D01*
X9233333Y-15924461D01*
X9242857Y-15914937D01*
X9261905Y-15905413D01*
X9452381Y-15905413D02*
X9471429Y-15905413D01*
X9490476Y-15914937D01*
X9500000Y-15924461D01*
X9509524Y-15943509D01*
X9519048Y-15981604D01*
X9519048Y-16029223D01*
X9509524Y-16067318D01*
X9500000Y-16086366D01*
X9490476Y-16095889D01*
X9471429Y-16105413D01*
X9452381Y-16105413D01*
X9433333Y-16095889D01*
X9423810Y-16086366D01*
X9414286Y-16067318D01*
X9404762Y-16029223D01*
X9404762Y-15981604D01*
X9414286Y-15943509D01*
X9423810Y-15924461D01*
X9433333Y-15914937D01*
X9452381Y-15905413D01*
X9604762Y-16105413D02*
X9604762Y-15972080D01*
X9604762Y-15991128D02*
X9614286Y-15981604D01*
X9633333Y-15972080D01*
X9661905Y-15972080D01*
X9680952Y-15981604D01*
X9690476Y-16000651D01*
X9690476Y-16105413D01*
X9690476Y-16000651D02*
X9700000Y-15981604D01*
X9719048Y-15972080D01*
X9747619Y-15972080D01*
X9766667Y-15981604D01*
X9776190Y-16000651D01*
X9776190Y-16105413D01*
X9871429Y-16105413D02*
X9871429Y-15972080D01*
X9871429Y-15991128D02*
X9880952Y-15981604D01*
X9900000Y-15972080D01*
X9928571Y-15972080D01*
X9947619Y-15981604D01*
X9957143Y-16000651D01*
X9957143Y-16105413D01*
X9957143Y-16000651D02*
X9966667Y-15981604D01*
X9985714Y-15972080D01*
X10014286Y-15972080D01*
X10033333Y-15981604D01*
X10042857Y-16000651D01*
X10042857Y-16105413D01*
X10433333Y-15895889D02*
X10261905Y-16153032D01*
X10690476Y-15905413D02*
X10709524Y-15905413D01*
X10728571Y-15914937D01*
X10738095Y-15924461D01*
X10747619Y-15943509D01*
X10757143Y-15981604D01*
X10757143Y-16029223D01*
X10747619Y-16067318D01*
X10738095Y-16086366D01*
X10728571Y-16095889D01*
X10709524Y-16105413D01*
X10690476Y-16105413D01*
X10671429Y-16095889D01*
X10661905Y-16086366D01*
X10652381Y-16067318D01*
X10642857Y-16029223D01*
X10642857Y-15981604D01*
X10652381Y-15943509D01*
X10661905Y-15924461D01*
X10671429Y-15914937D01*
X10690476Y-15905413D01*
X10842857Y-16086366D02*
X10852381Y-16095889D01*
X10842857Y-16105413D01*
X10833333Y-16095889D01*
X10842857Y-16086366D01*
X10842857Y-16105413D01*
X10976190Y-15905413D02*
X10995238Y-15905413D01*
X11014286Y-15914937D01*
X11023810Y-15924461D01*
X11033333Y-15943509D01*
X11042857Y-15981604D01*
X11042857Y-16029223D01*
X11033333Y-16067318D01*
X11023810Y-16086366D01*
X11014286Y-16095889D01*
X10995238Y-16105413D01*
X10976190Y-16105413D01*
X10957143Y-16095889D01*
X10947619Y-16086366D01*
X10938095Y-16067318D01*
X10928571Y-16029223D01*
X10928571Y-15981604D01*
X10938095Y-15943509D01*
X10947619Y-15924461D01*
X10957143Y-15914937D01*
X10976190Y-15905413D01*
X11109524Y-15905413D02*
X11233333Y-15905413D01*
X11166667Y-15981604D01*
X11195238Y-15981604D01*
X11214286Y-15991128D01*
X11223809Y-16000651D01*
X11233333Y-16019699D01*
X11233333Y-16067318D01*
X11223809Y-16086366D01*
X11214286Y-16095889D01*
X11195238Y-16105413D01*
X11138095Y-16105413D01*
X11119048Y-16095889D01*
X11109524Y-16086366D01*
X11328571Y-16105413D02*
X11366667Y-16105413D01*
X11385714Y-16095889D01*
X11395238Y-16086366D01*
X11414286Y-16057794D01*
X11423809Y-16019699D01*
X11423809Y-15943509D01*
X11414286Y-15924461D01*
X11404762Y-15914937D01*
X11385714Y-15905413D01*
X11347619Y-15905413D01*
X11328571Y-15914937D01*
X11319048Y-15924461D01*
X11309524Y-15943509D01*
X11309524Y-15991128D01*
X11319048Y-16010175D01*
X11328571Y-16019699D01*
X11347619Y-16029223D01*
X11385714Y-16029223D01*
X11404762Y-16019699D01*
X11414286Y-16010175D01*
X11423809Y-15991128D01*
X11595238Y-15972080D02*
X11595238Y-16105413D01*
X11547619Y-15895889D02*
X11500000Y-16038747D01*
X11623809Y-16038747D01*
X11690476Y-15905413D02*
X11690476Y-15943509D01*
X11766667Y-15905413D02*
X11766667Y-15943509D01*
X12061905Y-16181604D02*
X12052381Y-16172080D01*
X12033333Y-16143509D01*
X12023809Y-16124461D01*
X12014286Y-16095889D01*
X12004762Y-16048270D01*
X12004762Y-16010175D01*
X12014286Y-15962556D01*
X12023809Y-15933985D01*
X12033333Y-15914937D01*
X12052381Y-15886366D01*
X12061905Y-15876842D01*
X12233333Y-15905413D02*
X12138095Y-15905413D01*
X12128571Y-16000651D01*
X12138095Y-15991128D01*
X12157143Y-15981604D01*
X12204762Y-15981604D01*
X12223809Y-15991128D01*
X12233333Y-16000651D01*
X12242857Y-16019699D01*
X12242857Y-16067318D01*
X12233333Y-16086366D01*
X12223809Y-16095889D01*
X12204762Y-16105413D01*
X12157143Y-16105413D01*
X12138095Y-16095889D01*
X12128571Y-16086366D01*
X12480952Y-16105413D02*
X12480952Y-15905413D01*
X12566667Y-16105413D02*
X12566667Y-16000651D01*
X12557143Y-15981604D01*
X12538095Y-15972080D01*
X12509524Y-15972080D01*
X12490476Y-15981604D01*
X12480952Y-15991128D01*
X12690476Y-16105413D02*
X12671428Y-16095889D01*
X12661905Y-16086366D01*
X12652381Y-16067318D01*
X12652381Y-16010175D01*
X12661905Y-15991128D01*
X12671428Y-15981604D01*
X12690476Y-15972080D01*
X12719048Y-15972080D01*
X12738095Y-15981604D01*
X12747619Y-15991128D01*
X12757143Y-16010175D01*
X12757143Y-16067318D01*
X12747619Y-16086366D01*
X12738095Y-16095889D01*
X12719048Y-16105413D01*
X12690476Y-16105413D01*
X12871428Y-16105413D02*
X12852381Y-16095889D01*
X12842857Y-16076842D01*
X12842857Y-15905413D01*
X13023809Y-16095889D02*
X13004762Y-16105413D01*
X12966667Y-16105413D01*
X12947619Y-16095889D01*
X12938095Y-16076842D01*
X12938095Y-16000651D01*
X12947619Y-15981604D01*
X12966667Y-15972080D01*
X13004762Y-15972080D01*
X13023809Y-15981604D01*
X13033333Y-16000651D01*
X13033333Y-16019699D01*
X12938095Y-16038747D01*
X13109524Y-16095889D02*
X13128571Y-16105413D01*
X13166667Y-16105413D01*
X13185714Y-16095889D01*
X13195238Y-16076842D01*
X13195238Y-16067318D01*
X13185714Y-16048270D01*
X13166667Y-16038747D01*
X13138095Y-16038747D01*
X13119048Y-16029223D01*
X13109524Y-16010175D01*
X13109524Y-16000651D01*
X13119048Y-15981604D01*
X13138095Y-15972080D01*
X13166667Y-15972080D01*
X13185714Y-15981604D01*
X13433333Y-16029223D02*
X13585714Y-16029223D01*
X13509524Y-16105413D02*
X13509524Y-15953032D01*
X13861905Y-15991128D02*
X13842857Y-15981604D01*
X13833333Y-15972080D01*
X13823809Y-15953032D01*
X13823809Y-15943509D01*
X13833333Y-15924461D01*
X13842857Y-15914937D01*
X13861905Y-15905413D01*
X13900000Y-15905413D01*
X13919048Y-15914937D01*
X13928571Y-15924461D01*
X13938095Y-15943509D01*
X13938095Y-15953032D01*
X13928571Y-15972080D01*
X13919048Y-15981604D01*
X13900000Y-15991128D01*
X13861905Y-15991128D01*
X13842857Y-16000651D01*
X13833333Y-16010175D01*
X13823809Y-16029223D01*
X13823809Y-16067318D01*
X13833333Y-16086366D01*
X13842857Y-16095889D01*
X13861905Y-16105413D01*
X13900000Y-16105413D01*
X13919048Y-16095889D01*
X13928571Y-16086366D01*
X13938095Y-16067318D01*
X13938095Y-16029223D01*
X13928571Y-16010175D01*
X13919048Y-16000651D01*
X13900000Y-15991128D01*
X14166667Y-16095889D02*
X14185714Y-16105413D01*
X14223809Y-16105413D01*
X14242857Y-16095889D01*
X14252381Y-16076842D01*
X14252381Y-16067318D01*
X14242857Y-16048270D01*
X14223809Y-16038747D01*
X14195238Y-16038747D01*
X14176190Y-16029223D01*
X14166667Y-16010175D01*
X14166667Y-16000651D01*
X14176190Y-15981604D01*
X14195238Y-15972080D01*
X14223809Y-15972080D01*
X14242857Y-15981604D01*
X14366667Y-16105413D02*
X14347619Y-16095889D01*
X14338095Y-16076842D01*
X14338095Y-15905413D01*
X14471428Y-16105413D02*
X14452381Y-16095889D01*
X14442857Y-16086366D01*
X14433333Y-16067318D01*
X14433333Y-16010175D01*
X14442857Y-15991128D01*
X14452381Y-15981604D01*
X14471428Y-15972080D01*
X14500000Y-15972080D01*
X14519048Y-15981604D01*
X14528571Y-15991128D01*
X14538095Y-16010175D01*
X14538095Y-16067318D01*
X14528571Y-16086366D01*
X14519048Y-16095889D01*
X14500000Y-16105413D01*
X14471428Y-16105413D01*
X14595238Y-15972080D02*
X14671428Y-15972080D01*
X14623809Y-15905413D02*
X14623809Y-16076842D01*
X14633333Y-16095889D01*
X14652381Y-16105413D01*
X14671428Y-16105413D01*
X14728571Y-16095889D02*
X14747619Y-16105413D01*
X14785714Y-16105413D01*
X14804762Y-16095889D01*
X14814286Y-16076842D01*
X14814286Y-16067318D01*
X14804762Y-16048270D01*
X14785714Y-16038747D01*
X14757143Y-16038747D01*
X14738095Y-16029223D01*
X14728571Y-16010175D01*
X14728571Y-16000651D01*
X14738095Y-15981604D01*
X14757143Y-15972080D01*
X14785714Y-15972080D01*
X14804762Y-15981604D01*
X14880952Y-16181604D02*
X14890476Y-16172080D01*
X14909524Y-16143509D01*
X14919048Y-16124461D01*
X14928571Y-16095889D01*
X14938095Y-16048270D01*
X14938095Y-16010175D01*
X14928571Y-15962556D01*
X14919048Y-15933985D01*
X14909524Y-15914937D01*
X14890476Y-15886366D01*
X14880952Y-15876842D01*
D17*
X8380000Y-16223937D02*
X8490000Y-16333937D01*
X8490000Y-16223937D02*
X8380000Y-16333937D01*
X8490000Y-16278937D02*
G75*
G03*
X8490000Y-16278937I-55000J0D01*
G01*
D11*
X8852381Y-16369413D02*
X8738095Y-16369413D01*
X8795238Y-16369413D02*
X8795238Y-16169413D01*
X8776190Y-16197985D01*
X8757143Y-16217032D01*
X8738095Y-16226556D01*
X8938095Y-16350366D02*
X8947619Y-16359889D01*
X8938095Y-16369413D01*
X8928571Y-16359889D01*
X8938095Y-16350366D01*
X8938095Y-16369413D01*
X9138095Y-16369413D02*
X9023810Y-16369413D01*
X9080952Y-16369413D02*
X9080952Y-16169413D01*
X9061905Y-16197985D01*
X9042857Y-16217032D01*
X9023810Y-16226556D01*
X9261905Y-16169413D02*
X9280952Y-16169413D01*
X9300000Y-16178937D01*
X9309524Y-16188461D01*
X9319048Y-16207509D01*
X9328571Y-16245604D01*
X9328571Y-16293223D01*
X9319048Y-16331318D01*
X9309524Y-16350366D01*
X9300000Y-16359889D01*
X9280952Y-16369413D01*
X9261905Y-16369413D01*
X9242857Y-16359889D01*
X9233333Y-16350366D01*
X9223810Y-16331318D01*
X9214286Y-16293223D01*
X9214286Y-16245604D01*
X9223810Y-16207509D01*
X9233333Y-16188461D01*
X9242857Y-16178937D01*
X9261905Y-16169413D01*
X9452381Y-16169413D02*
X9471429Y-16169413D01*
X9490476Y-16178937D01*
X9500000Y-16188461D01*
X9509524Y-16207509D01*
X9519048Y-16245604D01*
X9519048Y-16293223D01*
X9509524Y-16331318D01*
X9500000Y-16350366D01*
X9490476Y-16359889D01*
X9471429Y-16369413D01*
X9452381Y-16369413D01*
X9433333Y-16359889D01*
X9423810Y-16350366D01*
X9414286Y-16331318D01*
X9404762Y-16293223D01*
X9404762Y-16245604D01*
X9414286Y-16207509D01*
X9423810Y-16188461D01*
X9433333Y-16178937D01*
X9452381Y-16169413D01*
X9604762Y-16369413D02*
X9604762Y-16236080D01*
X9604762Y-16255128D02*
X9614286Y-16245604D01*
X9633333Y-16236080D01*
X9661905Y-16236080D01*
X9680952Y-16245604D01*
X9690476Y-16264651D01*
X9690476Y-16369413D01*
X9690476Y-16264651D02*
X9700000Y-16245604D01*
X9719048Y-16236080D01*
X9747619Y-16236080D01*
X9766667Y-16245604D01*
X9776190Y-16264651D01*
X9776190Y-16369413D01*
X9871429Y-16369413D02*
X9871429Y-16236080D01*
X9871429Y-16255128D02*
X9880952Y-16245604D01*
X9900000Y-16236080D01*
X9928571Y-16236080D01*
X9947619Y-16245604D01*
X9957143Y-16264651D01*
X9957143Y-16369413D01*
X9957143Y-16264651D02*
X9966667Y-16245604D01*
X9985714Y-16236080D01*
X10014286Y-16236080D01*
X10033333Y-16245604D01*
X10042857Y-16264651D01*
X10042857Y-16369413D01*
X10433333Y-16159889D02*
X10261905Y-16417032D01*
X10690476Y-16169413D02*
X10709524Y-16169413D01*
X10728571Y-16178937D01*
X10738095Y-16188461D01*
X10747619Y-16207509D01*
X10757143Y-16245604D01*
X10757143Y-16293223D01*
X10747619Y-16331318D01*
X10738095Y-16350366D01*
X10728571Y-16359889D01*
X10709524Y-16369413D01*
X10690476Y-16369413D01*
X10671429Y-16359889D01*
X10661905Y-16350366D01*
X10652381Y-16331318D01*
X10642857Y-16293223D01*
X10642857Y-16245604D01*
X10652381Y-16207509D01*
X10661905Y-16188461D01*
X10671429Y-16178937D01*
X10690476Y-16169413D01*
X10842857Y-16350366D02*
X10852381Y-16359889D01*
X10842857Y-16369413D01*
X10833333Y-16359889D01*
X10842857Y-16350366D01*
X10842857Y-16369413D01*
X10976190Y-16169413D02*
X10995238Y-16169413D01*
X11014286Y-16178937D01*
X11023810Y-16188461D01*
X11033333Y-16207509D01*
X11042857Y-16245604D01*
X11042857Y-16293223D01*
X11033333Y-16331318D01*
X11023810Y-16350366D01*
X11014286Y-16359889D01*
X10995238Y-16369413D01*
X10976190Y-16369413D01*
X10957143Y-16359889D01*
X10947619Y-16350366D01*
X10938095Y-16331318D01*
X10928571Y-16293223D01*
X10928571Y-16245604D01*
X10938095Y-16207509D01*
X10947619Y-16188461D01*
X10957143Y-16178937D01*
X10976190Y-16169413D01*
X11214286Y-16236080D02*
X11214286Y-16369413D01*
X11166667Y-16159889D02*
X11119048Y-16302747D01*
X11242857Y-16302747D01*
X11300000Y-16169413D02*
X11423809Y-16169413D01*
X11357143Y-16245604D01*
X11385714Y-16245604D01*
X11404762Y-16255128D01*
X11414286Y-16264651D01*
X11423809Y-16283699D01*
X11423809Y-16331318D01*
X11414286Y-16350366D01*
X11404762Y-16359889D01*
X11385714Y-16369413D01*
X11328571Y-16369413D01*
X11309524Y-16359889D01*
X11300000Y-16350366D01*
X11490476Y-16169413D02*
X11614286Y-16169413D01*
X11547619Y-16245604D01*
X11576190Y-16245604D01*
X11595238Y-16255128D01*
X11604762Y-16264651D01*
X11614286Y-16283699D01*
X11614286Y-16331318D01*
X11604762Y-16350366D01*
X11595238Y-16359889D01*
X11576190Y-16369413D01*
X11519048Y-16369413D01*
X11500000Y-16359889D01*
X11490476Y-16350366D01*
X11690476Y-16169413D02*
X11690476Y-16207509D01*
X11766667Y-16169413D02*
X11766667Y-16207509D01*
X12061905Y-16445604D02*
X12052381Y-16436080D01*
X12033333Y-16407509D01*
X12023809Y-16388461D01*
X12014286Y-16359889D01*
X12004762Y-16312270D01*
X12004762Y-16274175D01*
X12014286Y-16226556D01*
X12023809Y-16197985D01*
X12033333Y-16178937D01*
X12052381Y-16150366D01*
X12061905Y-16140842D01*
X12128571Y-16188461D02*
X12138095Y-16178937D01*
X12157143Y-16169413D01*
X12204762Y-16169413D01*
X12223809Y-16178937D01*
X12233333Y-16188461D01*
X12242857Y-16207509D01*
X12242857Y-16226556D01*
X12233333Y-16255128D01*
X12119048Y-16369413D01*
X12242857Y-16369413D01*
X12414286Y-16169413D02*
X12376190Y-16169413D01*
X12357143Y-16178937D01*
X12347619Y-16188461D01*
X12328571Y-16217032D01*
X12319048Y-16255128D01*
X12319048Y-16331318D01*
X12328571Y-16350366D01*
X12338095Y-16359889D01*
X12357143Y-16369413D01*
X12395238Y-16369413D01*
X12414286Y-16359889D01*
X12423809Y-16350366D01*
X12433333Y-16331318D01*
X12433333Y-16283699D01*
X12423809Y-16264651D01*
X12414286Y-16255128D01*
X12395238Y-16245604D01*
X12357143Y-16245604D01*
X12338095Y-16255128D01*
X12328571Y-16264651D01*
X12319048Y-16283699D01*
X12671428Y-16369413D02*
X12671428Y-16169413D01*
X12757143Y-16369413D02*
X12757143Y-16264651D01*
X12747619Y-16245604D01*
X12728571Y-16236080D01*
X12700000Y-16236080D01*
X12680952Y-16245604D01*
X12671428Y-16255128D01*
X12880952Y-16369413D02*
X12861905Y-16359889D01*
X12852381Y-16350366D01*
X12842857Y-16331318D01*
X12842857Y-16274175D01*
X12852381Y-16255128D01*
X12861905Y-16245604D01*
X12880952Y-16236080D01*
X12909524Y-16236080D01*
X12928571Y-16245604D01*
X12938095Y-16255128D01*
X12947619Y-16274175D01*
X12947619Y-16331318D01*
X12938095Y-16350366D01*
X12928571Y-16359889D01*
X12909524Y-16369413D01*
X12880952Y-16369413D01*
X13061905Y-16369413D02*
X13042857Y-16359889D01*
X13033333Y-16340842D01*
X13033333Y-16169413D01*
X13214286Y-16359889D02*
X13195238Y-16369413D01*
X13157143Y-16369413D01*
X13138095Y-16359889D01*
X13128571Y-16340842D01*
X13128571Y-16264651D01*
X13138095Y-16245604D01*
X13157143Y-16236080D01*
X13195238Y-16236080D01*
X13214286Y-16245604D01*
X13223809Y-16264651D01*
X13223809Y-16283699D01*
X13128571Y-16302747D01*
X13300000Y-16359889D02*
X13319048Y-16369413D01*
X13357143Y-16369413D01*
X13376190Y-16359889D01*
X13385714Y-16340842D01*
X13385714Y-16331318D01*
X13376190Y-16312270D01*
X13357143Y-16302747D01*
X13328571Y-16302747D01*
X13309524Y-16293223D01*
X13300000Y-16274175D01*
X13300000Y-16264651D01*
X13309524Y-16245604D01*
X13328571Y-16236080D01*
X13357143Y-16236080D01*
X13376190Y-16245604D01*
X13452381Y-16445604D02*
X13461905Y-16436080D01*
X13480952Y-16407509D01*
X13490476Y-16388461D01*
X13500000Y-16359889D01*
X13509524Y-16312270D01*
X13509524Y-16274175D01*
X13500000Y-16226556D01*
X13490476Y-16197985D01*
X13480952Y-16178937D01*
X13461905Y-16150366D01*
X13452381Y-16140842D01*
D18*
X8360000Y-16477937D02*
X8490000Y-16607937D01*
X8490000Y-16477937D02*
X8360000Y-16607937D01*
X8425000Y-16477937D02*
X8425000Y-16607937D01*
X8360000Y-16542937D02*
X8490000Y-16542937D01*
D11*
X8852381Y-16633413D02*
X8738095Y-16633413D01*
X8795238Y-16633413D02*
X8795238Y-16433413D01*
X8776190Y-16461985D01*
X8757143Y-16481032D01*
X8738095Y-16490556D01*
X8938095Y-16614366D02*
X8947619Y-16623889D01*
X8938095Y-16633413D01*
X8928571Y-16623889D01*
X8938095Y-16614366D01*
X8938095Y-16633413D01*
X9014286Y-16433413D02*
X9138095Y-16433413D01*
X9071429Y-16509604D01*
X9100000Y-16509604D01*
X9119048Y-16519128D01*
X9128571Y-16528651D01*
X9138095Y-16547699D01*
X9138095Y-16595318D01*
X9128571Y-16614366D01*
X9119048Y-16623889D01*
X9100000Y-16633413D01*
X9042857Y-16633413D01*
X9023810Y-16623889D01*
X9014286Y-16614366D01*
X9261905Y-16433413D02*
X9280952Y-16433413D01*
X9300000Y-16442937D01*
X9309524Y-16452461D01*
X9319048Y-16471509D01*
X9328571Y-16509604D01*
X9328571Y-16557223D01*
X9319048Y-16595318D01*
X9309524Y-16614366D01*
X9300000Y-16623889D01*
X9280952Y-16633413D01*
X9261905Y-16633413D01*
X9242857Y-16623889D01*
X9233333Y-16614366D01*
X9223810Y-16595318D01*
X9214286Y-16557223D01*
X9214286Y-16509604D01*
X9223810Y-16471509D01*
X9233333Y-16452461D01*
X9242857Y-16442937D01*
X9261905Y-16433413D01*
X9452381Y-16433413D02*
X9471429Y-16433413D01*
X9490476Y-16442937D01*
X9500000Y-16452461D01*
X9509524Y-16471509D01*
X9519048Y-16509604D01*
X9519048Y-16557223D01*
X9509524Y-16595318D01*
X9500000Y-16614366D01*
X9490476Y-16623889D01*
X9471429Y-16633413D01*
X9452381Y-16633413D01*
X9433333Y-16623889D01*
X9423810Y-16614366D01*
X9414286Y-16595318D01*
X9404762Y-16557223D01*
X9404762Y-16509604D01*
X9414286Y-16471509D01*
X9423810Y-16452461D01*
X9433333Y-16442937D01*
X9452381Y-16433413D01*
X9604762Y-16633413D02*
X9604762Y-16500080D01*
X9604762Y-16519128D02*
X9614286Y-16509604D01*
X9633333Y-16500080D01*
X9661905Y-16500080D01*
X9680952Y-16509604D01*
X9690476Y-16528651D01*
X9690476Y-16633413D01*
X9690476Y-16528651D02*
X9700000Y-16509604D01*
X9719048Y-16500080D01*
X9747619Y-16500080D01*
X9766667Y-16509604D01*
X9776190Y-16528651D01*
X9776190Y-16633413D01*
X9871429Y-16633413D02*
X9871429Y-16500080D01*
X9871429Y-16519128D02*
X9880952Y-16509604D01*
X9900000Y-16500080D01*
X9928571Y-16500080D01*
X9947619Y-16509604D01*
X9957143Y-16528651D01*
X9957143Y-16633413D01*
X9957143Y-16528651D02*
X9966667Y-16509604D01*
X9985714Y-16500080D01*
X10014286Y-16500080D01*
X10033333Y-16509604D01*
X10042857Y-16528651D01*
X10042857Y-16633413D01*
X10433333Y-16423889D02*
X10261905Y-16681032D01*
X10690476Y-16433413D02*
X10709524Y-16433413D01*
X10728571Y-16442937D01*
X10738095Y-16452461D01*
X10747619Y-16471509D01*
X10757143Y-16509604D01*
X10757143Y-16557223D01*
X10747619Y-16595318D01*
X10738095Y-16614366D01*
X10728571Y-16623889D01*
X10709524Y-16633413D01*
X10690476Y-16633413D01*
X10671429Y-16623889D01*
X10661905Y-16614366D01*
X10652381Y-16595318D01*
X10642857Y-16557223D01*
X10642857Y-16509604D01*
X10652381Y-16471509D01*
X10661905Y-16452461D01*
X10671429Y-16442937D01*
X10690476Y-16433413D01*
X10842857Y-16614366D02*
X10852381Y-16623889D01*
X10842857Y-16633413D01*
X10833333Y-16623889D01*
X10842857Y-16614366D01*
X10842857Y-16633413D01*
X10976190Y-16433413D02*
X10995238Y-16433413D01*
X11014286Y-16442937D01*
X11023810Y-16452461D01*
X11033333Y-16471509D01*
X11042857Y-16509604D01*
X11042857Y-16557223D01*
X11033333Y-16595318D01*
X11023810Y-16614366D01*
X11014286Y-16623889D01*
X10995238Y-16633413D01*
X10976190Y-16633413D01*
X10957143Y-16623889D01*
X10947619Y-16614366D01*
X10938095Y-16595318D01*
X10928571Y-16557223D01*
X10928571Y-16509604D01*
X10938095Y-16471509D01*
X10947619Y-16452461D01*
X10957143Y-16442937D01*
X10976190Y-16433413D01*
X11223809Y-16433413D02*
X11128571Y-16433413D01*
X11119048Y-16528651D01*
X11128571Y-16519128D01*
X11147619Y-16509604D01*
X11195238Y-16509604D01*
X11214286Y-16519128D01*
X11223809Y-16528651D01*
X11233333Y-16547699D01*
X11233333Y-16595318D01*
X11223809Y-16614366D01*
X11214286Y-16623889D01*
X11195238Y-16633413D01*
X11147619Y-16633413D01*
X11128571Y-16623889D01*
X11119048Y-16614366D01*
X11423809Y-16633413D02*
X11309524Y-16633413D01*
X11366667Y-16633413D02*
X11366667Y-16433413D01*
X11347619Y-16461985D01*
X11328571Y-16481032D01*
X11309524Y-16490556D01*
X11500000Y-16452461D02*
X11509524Y-16442937D01*
X11528571Y-16433413D01*
X11576190Y-16433413D01*
X11595238Y-16442937D01*
X11604762Y-16452461D01*
X11614286Y-16471509D01*
X11614286Y-16490556D01*
X11604762Y-16519128D01*
X11490476Y-16633413D01*
X11614286Y-16633413D01*
X11690476Y-16433413D02*
X11690476Y-16471509D01*
X11766667Y-16433413D02*
X11766667Y-16471509D01*
X12061905Y-16709604D02*
X12052381Y-16700080D01*
X12033333Y-16671509D01*
X12023809Y-16652461D01*
X12014286Y-16623889D01*
X12004762Y-16576270D01*
X12004762Y-16538175D01*
X12014286Y-16490556D01*
X12023809Y-16461985D01*
X12033333Y-16442937D01*
X12052381Y-16414366D01*
X12061905Y-16404842D01*
X12128571Y-16452461D02*
X12138095Y-16442937D01*
X12157143Y-16433413D01*
X12204762Y-16433413D01*
X12223809Y-16442937D01*
X12233333Y-16452461D01*
X12242857Y-16471509D01*
X12242857Y-16490556D01*
X12233333Y-16519128D01*
X12119048Y-16633413D01*
X12242857Y-16633413D01*
X12480952Y-16633413D02*
X12480952Y-16433413D01*
X12566667Y-16633413D02*
X12566667Y-16528651D01*
X12557143Y-16509604D01*
X12538095Y-16500080D01*
X12509524Y-16500080D01*
X12490476Y-16509604D01*
X12480952Y-16519128D01*
X12690476Y-16633413D02*
X12671428Y-16623889D01*
X12661905Y-16614366D01*
X12652381Y-16595318D01*
X12652381Y-16538175D01*
X12661905Y-16519128D01*
X12671428Y-16509604D01*
X12690476Y-16500080D01*
X12719048Y-16500080D01*
X12738095Y-16509604D01*
X12747619Y-16519128D01*
X12757143Y-16538175D01*
X12757143Y-16595318D01*
X12747619Y-16614366D01*
X12738095Y-16623889D01*
X12719048Y-16633413D01*
X12690476Y-16633413D01*
X12871428Y-16633413D02*
X12852381Y-16623889D01*
X12842857Y-16604842D01*
X12842857Y-16433413D01*
X13023809Y-16623889D02*
X13004762Y-16633413D01*
X12966667Y-16633413D01*
X12947619Y-16623889D01*
X12938095Y-16604842D01*
X12938095Y-16528651D01*
X12947619Y-16509604D01*
X12966667Y-16500080D01*
X13004762Y-16500080D01*
X13023809Y-16509604D01*
X13033333Y-16528651D01*
X13033333Y-16547699D01*
X12938095Y-16566747D01*
X13109524Y-16623889D02*
X13128571Y-16633413D01*
X13166667Y-16633413D01*
X13185714Y-16623889D01*
X13195238Y-16604842D01*
X13195238Y-16595318D01*
X13185714Y-16576270D01*
X13166667Y-16566747D01*
X13138095Y-16566747D01*
X13119048Y-16557223D01*
X13109524Y-16538175D01*
X13109524Y-16528651D01*
X13119048Y-16509604D01*
X13138095Y-16500080D01*
X13166667Y-16500080D01*
X13185714Y-16509604D01*
X13261905Y-16709604D02*
X13271428Y-16700080D01*
X13290476Y-16671509D01*
X13300000Y-16652461D01*
X13309524Y-16623889D01*
X13319048Y-16576270D01*
X13319048Y-16538175D01*
X13309524Y-16490556D01*
X13300000Y-16461985D01*
X13290476Y-16442937D01*
X13271428Y-16414366D01*
X13261905Y-16404842D01*
D19*
X8340000Y-16731937D02*
X8490000Y-16881937D01*
X8490000Y-16731937D02*
X8340000Y-16881937D01*
X8468034Y-16859971D02*
X8468034Y-16753904D01*
X8361966Y-16753904D01*
X8361966Y-16859971D01*
X8468034Y-16859971D01*
D11*
X8852381Y-16897413D02*
X8738095Y-16897413D01*
X8795238Y-16897413D02*
X8795238Y-16697413D01*
X8776190Y-16725985D01*
X8757143Y-16745032D01*
X8738095Y-16754556D01*
X8938095Y-16878366D02*
X8947619Y-16887890D01*
X8938095Y-16897413D01*
X8928571Y-16887890D01*
X8938095Y-16878366D01*
X8938095Y-16897413D01*
X9128571Y-16697413D02*
X9033333Y-16697413D01*
X9023810Y-16792651D01*
X9033333Y-16783128D01*
X9052381Y-16773604D01*
X9100000Y-16773604D01*
X9119048Y-16783128D01*
X9128571Y-16792651D01*
X9138095Y-16811699D01*
X9138095Y-16859318D01*
X9128571Y-16878366D01*
X9119048Y-16887890D01*
X9100000Y-16897413D01*
X9052381Y-16897413D01*
X9033333Y-16887890D01*
X9023810Y-16878366D01*
X9261905Y-16697413D02*
X9280952Y-16697413D01*
X9300000Y-16706937D01*
X9309524Y-16716461D01*
X9319048Y-16735509D01*
X9328571Y-16773604D01*
X9328571Y-16821223D01*
X9319048Y-16859318D01*
X9309524Y-16878366D01*
X9300000Y-16887890D01*
X9280952Y-16897413D01*
X9261905Y-16897413D01*
X9242857Y-16887890D01*
X9233333Y-16878366D01*
X9223810Y-16859318D01*
X9214286Y-16821223D01*
X9214286Y-16773604D01*
X9223810Y-16735509D01*
X9233333Y-16716461D01*
X9242857Y-16706937D01*
X9261905Y-16697413D01*
X9452381Y-16697413D02*
X9471429Y-16697413D01*
X9490476Y-16706937D01*
X9500000Y-16716461D01*
X9509524Y-16735509D01*
X9519048Y-16773604D01*
X9519048Y-16821223D01*
X9509524Y-16859318D01*
X9500000Y-16878366D01*
X9490476Y-16887890D01*
X9471429Y-16897413D01*
X9452381Y-16897413D01*
X9433333Y-16887890D01*
X9423810Y-16878366D01*
X9414286Y-16859318D01*
X9404762Y-16821223D01*
X9404762Y-16773604D01*
X9414286Y-16735509D01*
X9423810Y-16716461D01*
X9433333Y-16706937D01*
X9452381Y-16697413D01*
X9604762Y-16897413D02*
X9604762Y-16764080D01*
X9604762Y-16783128D02*
X9614286Y-16773604D01*
X9633333Y-16764080D01*
X9661905Y-16764080D01*
X9680952Y-16773604D01*
X9690476Y-16792651D01*
X9690476Y-16897413D01*
X9690476Y-16792651D02*
X9700000Y-16773604D01*
X9719048Y-16764080D01*
X9747619Y-16764080D01*
X9766667Y-16773604D01*
X9776190Y-16792651D01*
X9776190Y-16897413D01*
X9871429Y-16897413D02*
X9871429Y-16764080D01*
X9871429Y-16783128D02*
X9880952Y-16773604D01*
X9900000Y-16764080D01*
X9928571Y-16764080D01*
X9947619Y-16773604D01*
X9957143Y-16792651D01*
X9957143Y-16897413D01*
X9957143Y-16792651D02*
X9966667Y-16773604D01*
X9985714Y-16764080D01*
X10014286Y-16764080D01*
X10033333Y-16773604D01*
X10042857Y-16792651D01*
X10042857Y-16897413D01*
X10433333Y-16687889D02*
X10261905Y-16945032D01*
X10690476Y-16697413D02*
X10709524Y-16697413D01*
X10728571Y-16706937D01*
X10738095Y-16716461D01*
X10747619Y-16735509D01*
X10757143Y-16773604D01*
X10757143Y-16821223D01*
X10747619Y-16859318D01*
X10738095Y-16878366D01*
X10728571Y-16887890D01*
X10709524Y-16897413D01*
X10690476Y-16897413D01*
X10671429Y-16887890D01*
X10661905Y-16878366D01*
X10652381Y-16859318D01*
X10642857Y-16821223D01*
X10642857Y-16773604D01*
X10652381Y-16735509D01*
X10661905Y-16716461D01*
X10671429Y-16706937D01*
X10690476Y-16697413D01*
X10842857Y-16878366D02*
X10852381Y-16887890D01*
X10842857Y-16897413D01*
X10833333Y-16887890D01*
X10842857Y-16878366D01*
X10842857Y-16897413D01*
X10976190Y-16697413D02*
X10995238Y-16697413D01*
X11014286Y-16706937D01*
X11023810Y-16716461D01*
X11033333Y-16735509D01*
X11042857Y-16773604D01*
X11042857Y-16821223D01*
X11033333Y-16859318D01*
X11023810Y-16878366D01*
X11014286Y-16887890D01*
X10995238Y-16897413D01*
X10976190Y-16897413D01*
X10957143Y-16887890D01*
X10947619Y-16878366D01*
X10938095Y-16859318D01*
X10928571Y-16821223D01*
X10928571Y-16773604D01*
X10938095Y-16735509D01*
X10947619Y-16716461D01*
X10957143Y-16706937D01*
X10976190Y-16697413D01*
X11223809Y-16697413D02*
X11128571Y-16697413D01*
X11119048Y-16792651D01*
X11128571Y-16783128D01*
X11147619Y-16773604D01*
X11195238Y-16773604D01*
X11214286Y-16783128D01*
X11223809Y-16792651D01*
X11233333Y-16811699D01*
X11233333Y-16859318D01*
X11223809Y-16878366D01*
X11214286Y-16887890D01*
X11195238Y-16897413D01*
X11147619Y-16897413D01*
X11128571Y-16887890D01*
X11119048Y-16878366D01*
X11328571Y-16897413D02*
X11366667Y-16897413D01*
X11385714Y-16887890D01*
X11395238Y-16878366D01*
X11414286Y-16849794D01*
X11423809Y-16811699D01*
X11423809Y-16735509D01*
X11414286Y-16716461D01*
X11404762Y-16706937D01*
X11385714Y-16697413D01*
X11347619Y-16697413D01*
X11328571Y-16706937D01*
X11319048Y-16716461D01*
X11309524Y-16735509D01*
X11309524Y-16783128D01*
X11319048Y-16802175D01*
X11328571Y-16811699D01*
X11347619Y-16821223D01*
X11385714Y-16821223D01*
X11404762Y-16811699D01*
X11414286Y-16802175D01*
X11423809Y-16783128D01*
X11614286Y-16897413D02*
X11500000Y-16897413D01*
X11557143Y-16897413D02*
X11557143Y-16697413D01*
X11538095Y-16725985D01*
X11519048Y-16745032D01*
X11500000Y-16754556D01*
X11690476Y-16697413D02*
X11690476Y-16735509D01*
X11766667Y-16697413D02*
X11766667Y-16735509D01*
X12061905Y-16973604D02*
X12052381Y-16964080D01*
X12033333Y-16935509D01*
X12023809Y-16916461D01*
X12014286Y-16887890D01*
X12004762Y-16840271D01*
X12004762Y-16802175D01*
X12014286Y-16754556D01*
X12023809Y-16725985D01*
X12033333Y-16706937D01*
X12052381Y-16678366D01*
X12061905Y-16668842D01*
X12176190Y-16697413D02*
X12195238Y-16697413D01*
X12214286Y-16706937D01*
X12223809Y-16716461D01*
X12233333Y-16735509D01*
X12242857Y-16773604D01*
X12242857Y-16821223D01*
X12233333Y-16859318D01*
X12223809Y-16878366D01*
X12214286Y-16887890D01*
X12195238Y-16897413D01*
X12176190Y-16897413D01*
X12157143Y-16887890D01*
X12147619Y-16878366D01*
X12138095Y-16859318D01*
X12128571Y-16821223D01*
X12128571Y-16773604D01*
X12138095Y-16735509D01*
X12147619Y-16716461D01*
X12157143Y-16706937D01*
X12176190Y-16697413D01*
X12480952Y-16897413D02*
X12480952Y-16697413D01*
X12566667Y-16897413D02*
X12566667Y-16792651D01*
X12557143Y-16773604D01*
X12538095Y-16764080D01*
X12509524Y-16764080D01*
X12490476Y-16773604D01*
X12480952Y-16783128D01*
X12690476Y-16897413D02*
X12671428Y-16887890D01*
X12661905Y-16878366D01*
X12652381Y-16859318D01*
X12652381Y-16802175D01*
X12661905Y-16783128D01*
X12671428Y-16773604D01*
X12690476Y-16764080D01*
X12719048Y-16764080D01*
X12738095Y-16773604D01*
X12747619Y-16783128D01*
X12757143Y-16802175D01*
X12757143Y-16859318D01*
X12747619Y-16878366D01*
X12738095Y-16887890D01*
X12719048Y-16897413D01*
X12690476Y-16897413D01*
X12871428Y-16897413D02*
X12852381Y-16887890D01*
X12842857Y-16868842D01*
X12842857Y-16697413D01*
X13023809Y-16887890D02*
X13004762Y-16897413D01*
X12966667Y-16897413D01*
X12947619Y-16887890D01*
X12938095Y-16868842D01*
X12938095Y-16792651D01*
X12947619Y-16773604D01*
X12966667Y-16764080D01*
X13004762Y-16764080D01*
X13023809Y-16773604D01*
X13033333Y-16792651D01*
X13033333Y-16811699D01*
X12938095Y-16830747D01*
X13109524Y-16887890D02*
X13128571Y-16897413D01*
X13166667Y-16897413D01*
X13185714Y-16887890D01*
X13195238Y-16868842D01*
X13195238Y-16859318D01*
X13185714Y-16840271D01*
X13166667Y-16830747D01*
X13138095Y-16830747D01*
X13119048Y-16821223D01*
X13109524Y-16802175D01*
X13109524Y-16792651D01*
X13119048Y-16773604D01*
X13138095Y-16764080D01*
X13166667Y-16764080D01*
X13185714Y-16773604D01*
X13433333Y-16821223D02*
X13585714Y-16821223D01*
X13509524Y-16897413D02*
X13509524Y-16745032D01*
X13823809Y-16716461D02*
X13833333Y-16706937D01*
X13852381Y-16697413D01*
X13900000Y-16697413D01*
X13919048Y-16706937D01*
X13928571Y-16716461D01*
X13938095Y-16735509D01*
X13938095Y-16754556D01*
X13928571Y-16783128D01*
X13814286Y-16897413D01*
X13938095Y-16897413D01*
X14166667Y-16887890D02*
X14185714Y-16897413D01*
X14223809Y-16897413D01*
X14242857Y-16887890D01*
X14252381Y-16868842D01*
X14252381Y-16859318D01*
X14242857Y-16840271D01*
X14223809Y-16830747D01*
X14195238Y-16830747D01*
X14176190Y-16821223D01*
X14166667Y-16802175D01*
X14166667Y-16792651D01*
X14176190Y-16773604D01*
X14195238Y-16764080D01*
X14223809Y-16764080D01*
X14242857Y-16773604D01*
X14366667Y-16897413D02*
X14347619Y-16887890D01*
X14338095Y-16868842D01*
X14338095Y-16697413D01*
X14471428Y-16897413D02*
X14452381Y-16887890D01*
X14442857Y-16878366D01*
X14433333Y-16859318D01*
X14433333Y-16802175D01*
X14442857Y-16783128D01*
X14452381Y-16773604D01*
X14471428Y-16764080D01*
X14500000Y-16764080D01*
X14519048Y-16773604D01*
X14528571Y-16783128D01*
X14538095Y-16802175D01*
X14538095Y-16859318D01*
X14528571Y-16878366D01*
X14519048Y-16887890D01*
X14500000Y-16897413D01*
X14471428Y-16897413D01*
X14595238Y-16764080D02*
X14671428Y-16764080D01*
X14623809Y-16697413D02*
X14623809Y-16868842D01*
X14633333Y-16887890D01*
X14652381Y-16897413D01*
X14671428Y-16897413D01*
X14728571Y-16887890D02*
X14747619Y-16897413D01*
X14785714Y-16897413D01*
X14804762Y-16887890D01*
X14814286Y-16868842D01*
X14814286Y-16859318D01*
X14804762Y-16840271D01*
X14785714Y-16830747D01*
X14757143Y-16830747D01*
X14738095Y-16821223D01*
X14728571Y-16802175D01*
X14728571Y-16792651D01*
X14738095Y-16773604D01*
X14757143Y-16764080D01*
X14785714Y-16764080D01*
X14804762Y-16773604D01*
X14880952Y-16973604D02*
X14890476Y-16964080D01*
X14909524Y-16935509D01*
X14919048Y-16916461D01*
X14928571Y-16887890D01*
X14938095Y-16840271D01*
X14938095Y-16802175D01*
X14928571Y-16754556D01*
X14919048Y-16725985D01*
X14909524Y-16706937D01*
X14890476Y-16678366D01*
X14880952Y-16668842D01*
M02*
