G04 #@! TF.GenerationSoftware,KiCad,Pcbnew,6.0.2+dfsg-1*
G04 #@! TF.CreationDate,2022-08-27T13:38:11+01:00*
G04 #@! TF.ProjectId,Jocket_Split_LP,4a6f636b-6574-45f5-9370-6c69745f4c50,rev?*
G04 #@! TF.SameCoordinates,Original*
G04 #@! TF.FileFunction,Soldermask,Top*
G04 #@! TF.FilePolarity,Negative*
%FSLAX46Y46*%
G04 Gerber Fmt 4.6, Leading zero omitted, Abs format (unit mm)*
G04 Created by KiCad (PCBNEW 6.0.2+dfsg-1) date 2022-08-27 13:38:11*
%MOMM*%
%LPD*%
G01*
G04 APERTURE LIST*
G04 Aperture macros list*
%AMRoundRect*
0 Rectangle with rounded corners*
0 $1 Rounding radius*
0 $2 $3 $4 $5 $6 $7 $8 $9 X,Y pos of 4 corners*
0 Add a 4 corners polygon primitive as box body*
4,1,4,$2,$3,$4,$5,$6,$7,$8,$9,$2,$3,0*
0 Add four circle primitives for the rounded corners*
1,1,$1+$1,$2,$3*
1,1,$1+$1,$4,$5*
1,1,$1+$1,$6,$7*
1,1,$1+$1,$8,$9*
0 Add four rect primitives between the rounded corners*
20,1,$1+$1,$2,$3,$4,$5,0*
20,1,$1+$1,$4,$5,$6,$7,0*
20,1,$1+$1,$6,$7,$8,$9,0*
20,1,$1+$1,$8,$9,$2,$3,0*%
%AMFreePoly0*
4,1,22,0.686777,0.580194,0.756366,0.524698,0.794986,0.444504,0.800000,0.400000,0.800000,0.200000,0.780194,0.113223,0.741421,0.058579,0.141421,-0.541421,0.066056,-0.588777,-0.022393,-0.598742,-0.106406,-0.569345,-0.141421,-0.541421,-0.741421,0.058579,-0.788777,0.133944,-0.800000,0.200000,-0.800000,0.400000,-0.780194,0.486777,-0.724698,0.556366,-0.644504,0.594986,-0.600000,0.600000,
0.600000,0.600000,0.686777,0.580194,0.686777,0.580194,$1*%
%AMFreePoly1*
4,1,26,0.706406,1.169345,0.769345,1.106406,0.798742,1.022393,0.800000,1.000000,0.800000,-0.250000,0.780194,-0.336777,0.724698,-0.406366,0.644504,-0.444986,0.600000,-0.450000,-0.600000,-0.450000,-0.686777,-0.430194,-0.756366,-0.374698,-0.794986,-0.294504,-0.800000,-0.250000,-0.800000,1.000000,-0.780194,1.086777,-0.724698,1.156366,-0.644504,1.194986,-0.555496,1.194986,-0.475302,1.156366,
-0.458579,1.141421,0.000000,0.682842,0.458579,1.141421,0.533944,1.188777,0.622393,1.198742,0.706406,1.169345,0.706406,1.169345,$1*%
G04 Aperture macros list end*
%ADD10C,0.250000*%
%ADD11C,0.100000*%
%ADD12C,2.000000*%
%ADD13FreePoly0,270.000000*%
%ADD14RoundRect,0.200000X-0.800000X0.800000X-0.800000X-0.800000X0.800000X-0.800000X0.800000X0.800000X0*%
%ADD15FreePoly0,90.000000*%
%ADD16FreePoly1,270.000000*%
%ADD17FreePoly1,90.000000*%
%ADD18C,2.400000*%
%ADD19RoundRect,0.200000X-0.450000X-0.600000X0.450000X-0.600000X0.450000X0.600000X-0.450000X0.600000X0*%
%ADD20RoundRect,0.200000X-0.889000X-0.889000X0.889000X-0.889000X0.889000X0.889000X-0.889000X0.889000X0*%
%ADD21C,2.305000*%
%ADD22RoundRect,0.200000X-0.430000X-1.181415X1.181415X-0.430000X0.430000X1.181415X-1.181415X0.430000X0*%
%ADD23RoundRect,0.200000X-0.154268X-0.733963X0.661409X-0.353606X0.154268X0.733963X-0.661409X0.353606X0*%
%ADD24RoundRect,0.200000X-0.279375X-0.696024X0.589958X-0.463087X0.279375X0.696024X-0.589958X0.463087X0*%
%ADD25RoundRect,0.200000X-0.628618X-1.088798X1.088798X-0.628618X0.628618X1.088798X-1.088798X0.628618X0*%
%ADD26RoundRect,0.200000X-0.395994X-0.636937X0.500581X-0.558497X0.395994X0.636937X-0.500581X0.558497X0*%
%ADD27RoundRect,0.200000X-0.808136X-0.963099X0.963099X-0.808136X0.808136X0.963099X-0.963099X0.808136X0*%
%ADD28C,1.400000*%
%ADD29C,3.400000*%
%ADD30C,2.200000*%
%ADD31C,3.800000*%
%ADD32RoundRect,0.200000X0.850000X0.500000X-0.850000X0.500000X-0.850000X-0.500000X0.850000X-0.500000X0*%
%ADD33RoundRect,0.200000X0.800000X1.100000X-0.800000X1.100000X-0.800000X-1.100000X0.800000X-1.100000X0*%
%ADD34RoundRect,0.200000X0.559052X0.812379X-0.981671X0.093928X-0.559052X-0.812379X0.981671X-0.093928X0*%
%ADD35RoundRect,0.200000X0.260166X1.335033X-1.189926X0.658844X-0.260166X-1.335033X1.189926X-0.658844X0*%
%ADD36RoundRect,0.200000X0.803188X0.572180X-0.890343X0.424015X-0.803188X-0.572180X0.890343X-0.424015X0*%
%ADD37RoundRect,0.200000X0.701084X1.165539X-0.892827X1.026090X-0.701084X-1.165539X0.892827X-1.026090X0*%
%ADD38RoundRect,0.200000X-1.600000X-1.000000X1.600000X-1.000000X1.600000X1.000000X-1.600000X1.000000X0*%
%ADD39RoundRect,0.200000X0.691627X0.702959X-0.950446X0.262967X-0.691627X-0.702959X0.950446X-0.262967X0*%
%ADD40RoundRect,0.200000X0.488040X1.269574X-1.057442X0.855463X-0.488040X-1.269574X1.057442X-0.855463X0*%
%ADD41RoundRect,0.200000X-0.571500X0.317500X-0.571500X-0.317500X0.571500X-0.317500X0.571500X0.317500X0*%
%ADD42C,1.797000*%
%ADD43C,1.600000*%
%ADD44O,2.900000X2.100000*%
%ADD45C,1.250000*%
%ADD46RoundRect,0.200000X-0.500000X0.250000X-0.500000X-0.250000X0.500000X-0.250000X0.500000X0.250000X0*%
%ADD47RoundRect,0.200000X-0.250000X-0.400000X0.250000X-0.400000X0.250000X0.400000X-0.250000X0.400000X0*%
%ADD48RoundRect,0.200000X-0.400000X-0.950000X0.400000X-0.950000X0.400000X0.950000X-0.400000X0.950000X0*%
%ADD49RoundRect,0.200000X-0.650000X-1.675000X0.650000X-1.675000X0.650000X1.675000X-0.650000X1.675000X0*%
%ADD50RoundRect,0.200000X0.317500X0.571500X-0.317500X0.571500X-0.317500X-0.571500X0.317500X-0.571500X0*%
G04 APERTURE END LIST*
D10*
X99287000Y-54200000D02*
G75*
G03*
X99287000Y-54200000I-125000J0D01*
G01*
X99287000Y-61820000D02*
G75*
G03*
X99287000Y-61820000I-125000J0D01*
G01*
X97763000Y-56740000D02*
G75*
G03*
X97763000Y-56740000I-125000J0D01*
G01*
X97763000Y-46580000D02*
G75*
G03*
X97763000Y-46580000I-125000J0D01*
G01*
X97763000Y-64360000D02*
G75*
G03*
X97763000Y-64360000I-125000J0D01*
G01*
X97763000Y-66900000D02*
G75*
G03*
X97763000Y-66900000I-125000J0D01*
G01*
X99287000Y-64360000D02*
G75*
G03*
X99287000Y-64360000I-125000J0D01*
G01*
X99287000Y-56740000D02*
G75*
G03*
X99287000Y-56740000I-125000J0D01*
G01*
X97763000Y-49120000D02*
G75*
G03*
X97763000Y-49120000I-125000J0D01*
G01*
X97763000Y-74520000D02*
G75*
G03*
X97763000Y-74520000I-125000J0D01*
G01*
X99287000Y-46580000D02*
G75*
G03*
X99287000Y-46580000I-125000J0D01*
G01*
X97763000Y-54200000D02*
G75*
G03*
X97763000Y-54200000I-125000J0D01*
G01*
X97763000Y-59280000D02*
G75*
G03*
X97763000Y-59280000I-125000J0D01*
G01*
X99287000Y-71980000D02*
G75*
G03*
X99287000Y-71980000I-125000J0D01*
G01*
X99287000Y-66900000D02*
G75*
G03*
X99287000Y-66900000I-125000J0D01*
G01*
X99287000Y-69440000D02*
G75*
G03*
X99287000Y-69440000I-125000J0D01*
G01*
X99287000Y-74520000D02*
G75*
G03*
X99287000Y-74520000I-125000J0D01*
G01*
X99287000Y-59280000D02*
G75*
G03*
X99287000Y-59280000I-125000J0D01*
G01*
X97763000Y-69440000D02*
G75*
G03*
X97763000Y-69440000I-125000J0D01*
G01*
X99287000Y-51660000D02*
G75*
G03*
X99287000Y-51660000I-125000J0D01*
G01*
X97763000Y-61820000D02*
G75*
G03*
X97763000Y-61820000I-125000J0D01*
G01*
X97763000Y-51660000D02*
G75*
G03*
X97763000Y-51660000I-125000J0D01*
G01*
X99287000Y-49120000D02*
G75*
G03*
X99287000Y-49120000I-125000J0D01*
G01*
X97763000Y-71980000D02*
G75*
G03*
X97763000Y-71980000I-125000J0D01*
G01*
D11*
X93320000Y-74012000D02*
X93320000Y-75028000D01*
X93320000Y-75028000D02*
X92304000Y-75028000D01*
X92304000Y-75028000D02*
X92304000Y-74012000D01*
X92304000Y-74012000D02*
X93320000Y-74012000D01*
G36*
X93320000Y-75028000D02*
G01*
X92304000Y-75028000D01*
X92304000Y-74012000D01*
X93320000Y-74012000D01*
X93320000Y-75028000D01*
G37*
X93320000Y-75028000D02*
X92304000Y-75028000D01*
X92304000Y-74012000D01*
X93320000Y-74012000D01*
X93320000Y-75028000D01*
X103480000Y-75028000D02*
X103480000Y-74012000D01*
X103480000Y-74012000D02*
X104496000Y-74012000D01*
X104496000Y-74012000D02*
X104496000Y-75028000D01*
X104496000Y-75028000D02*
X103480000Y-75028000D01*
G36*
X104496000Y-75028000D02*
G01*
X103480000Y-75028000D01*
X103480000Y-74012000D01*
X104496000Y-74012000D01*
X104496000Y-75028000D01*
G37*
X104496000Y-75028000D02*
X103480000Y-75028000D01*
X103480000Y-74012000D01*
X104496000Y-74012000D01*
X104496000Y-75028000D01*
X93320000Y-48612000D02*
X93320000Y-49628000D01*
X93320000Y-49628000D02*
X92304000Y-49628000D01*
X92304000Y-49628000D02*
X92304000Y-48612000D01*
X92304000Y-48612000D02*
X93320000Y-48612000D01*
G36*
X93320000Y-49628000D02*
G01*
X92304000Y-49628000D01*
X92304000Y-48612000D01*
X93320000Y-48612000D01*
X93320000Y-49628000D01*
G37*
X93320000Y-49628000D02*
X92304000Y-49628000D01*
X92304000Y-48612000D01*
X93320000Y-48612000D01*
X93320000Y-49628000D01*
X93320000Y-53692000D02*
X93320000Y-54708000D01*
X93320000Y-54708000D02*
X92304000Y-54708000D01*
X92304000Y-54708000D02*
X92304000Y-53692000D01*
X92304000Y-53692000D02*
X93320000Y-53692000D01*
G36*
X93320000Y-54708000D02*
G01*
X92304000Y-54708000D01*
X92304000Y-53692000D01*
X93320000Y-53692000D01*
X93320000Y-54708000D01*
G37*
X93320000Y-54708000D02*
X92304000Y-54708000D01*
X92304000Y-53692000D01*
X93320000Y-53692000D01*
X93320000Y-54708000D01*
X93320000Y-46072000D02*
X93320000Y-47088000D01*
X93320000Y-47088000D02*
X92304000Y-47088000D01*
X92304000Y-47088000D02*
X92304000Y-46072000D01*
X92304000Y-46072000D02*
X93320000Y-46072000D01*
G36*
X93320000Y-47088000D02*
G01*
X92304000Y-47088000D01*
X92304000Y-46072000D01*
X93320000Y-46072000D01*
X93320000Y-47088000D01*
G37*
X93320000Y-47088000D02*
X92304000Y-47088000D01*
X92304000Y-46072000D01*
X93320000Y-46072000D01*
X93320000Y-47088000D01*
X93320000Y-56232000D02*
X93320000Y-57248000D01*
X93320000Y-57248000D02*
X92304000Y-57248000D01*
X92304000Y-57248000D02*
X92304000Y-56232000D01*
X92304000Y-56232000D02*
X93320000Y-56232000D01*
G36*
X93320000Y-57248000D02*
G01*
X92304000Y-57248000D01*
X92304000Y-56232000D01*
X93320000Y-56232000D01*
X93320000Y-57248000D01*
G37*
X93320000Y-57248000D02*
X92304000Y-57248000D01*
X92304000Y-56232000D01*
X93320000Y-56232000D01*
X93320000Y-57248000D01*
X103480000Y-49628000D02*
X103480000Y-48612000D01*
X103480000Y-48612000D02*
X104496000Y-48612000D01*
X104496000Y-48612000D02*
X104496000Y-49628000D01*
X104496000Y-49628000D02*
X103480000Y-49628000D01*
G36*
X104496000Y-49628000D02*
G01*
X103480000Y-49628000D01*
X103480000Y-48612000D01*
X104496000Y-48612000D01*
X104496000Y-49628000D01*
G37*
X104496000Y-49628000D02*
X103480000Y-49628000D01*
X103480000Y-48612000D01*
X104496000Y-48612000D01*
X104496000Y-49628000D01*
X103480000Y-69948000D02*
X103480000Y-68932000D01*
X103480000Y-68932000D02*
X104496000Y-68932000D01*
X104496000Y-68932000D02*
X104496000Y-69948000D01*
X104496000Y-69948000D02*
X103480000Y-69948000D01*
G36*
X104496000Y-69948000D02*
G01*
X103480000Y-69948000D01*
X103480000Y-68932000D01*
X104496000Y-68932000D01*
X104496000Y-69948000D01*
G37*
X104496000Y-69948000D02*
X103480000Y-69948000D01*
X103480000Y-68932000D01*
X104496000Y-68932000D01*
X104496000Y-69948000D01*
X103480000Y-47088000D02*
X103480000Y-46072000D01*
X103480000Y-46072000D02*
X104496000Y-46072000D01*
X104496000Y-46072000D02*
X104496000Y-47088000D01*
X104496000Y-47088000D02*
X103480000Y-47088000D01*
G36*
X104496000Y-47088000D02*
G01*
X103480000Y-47088000D01*
X103480000Y-46072000D01*
X104496000Y-46072000D01*
X104496000Y-47088000D01*
G37*
X104496000Y-47088000D02*
X103480000Y-47088000D01*
X103480000Y-46072000D01*
X104496000Y-46072000D01*
X104496000Y-47088000D01*
X103480000Y-64868000D02*
X103480000Y-63852000D01*
X103480000Y-63852000D02*
X104496000Y-63852000D01*
X104496000Y-63852000D02*
X104496000Y-64868000D01*
X104496000Y-64868000D02*
X103480000Y-64868000D01*
G36*
X104496000Y-64868000D02*
G01*
X103480000Y-64868000D01*
X103480000Y-63852000D01*
X104496000Y-63852000D01*
X104496000Y-64868000D01*
G37*
X104496000Y-64868000D02*
X103480000Y-64868000D01*
X103480000Y-63852000D01*
X104496000Y-63852000D01*
X104496000Y-64868000D01*
X93320000Y-58772000D02*
X93320000Y-59788000D01*
X93320000Y-59788000D02*
X92304000Y-59788000D01*
X92304000Y-59788000D02*
X92304000Y-58772000D01*
X92304000Y-58772000D02*
X93320000Y-58772000D01*
G36*
X93320000Y-59788000D02*
G01*
X92304000Y-59788000D01*
X92304000Y-58772000D01*
X93320000Y-58772000D01*
X93320000Y-59788000D01*
G37*
X93320000Y-59788000D02*
X92304000Y-59788000D01*
X92304000Y-58772000D01*
X93320000Y-58772000D01*
X93320000Y-59788000D01*
X93320000Y-66392000D02*
X93320000Y-67408000D01*
X93320000Y-67408000D02*
X92304000Y-67408000D01*
X92304000Y-67408000D02*
X92304000Y-66392000D01*
X92304000Y-66392000D02*
X93320000Y-66392000D01*
G36*
X93320000Y-67408000D02*
G01*
X92304000Y-67408000D01*
X92304000Y-66392000D01*
X93320000Y-66392000D01*
X93320000Y-67408000D01*
G37*
X93320000Y-67408000D02*
X92304000Y-67408000D01*
X92304000Y-66392000D01*
X93320000Y-66392000D01*
X93320000Y-67408000D01*
X103480000Y-67408000D02*
X103480000Y-66392000D01*
X103480000Y-66392000D02*
X104496000Y-66392000D01*
X104496000Y-66392000D02*
X104496000Y-67408000D01*
X104496000Y-67408000D02*
X103480000Y-67408000D01*
G36*
X104496000Y-67408000D02*
G01*
X103480000Y-67408000D01*
X103480000Y-66392000D01*
X104496000Y-66392000D01*
X104496000Y-67408000D01*
G37*
X104496000Y-67408000D02*
X103480000Y-67408000D01*
X103480000Y-66392000D01*
X104496000Y-66392000D01*
X104496000Y-67408000D01*
X103480000Y-57248000D02*
X103480000Y-56232000D01*
X103480000Y-56232000D02*
X104496000Y-56232000D01*
X104496000Y-56232000D02*
X104496000Y-57248000D01*
X104496000Y-57248000D02*
X103480000Y-57248000D01*
G36*
X104496000Y-57248000D02*
G01*
X103480000Y-57248000D01*
X103480000Y-56232000D01*
X104496000Y-56232000D01*
X104496000Y-57248000D01*
G37*
X104496000Y-57248000D02*
X103480000Y-57248000D01*
X103480000Y-56232000D01*
X104496000Y-56232000D01*
X104496000Y-57248000D01*
X93320000Y-61312000D02*
X93320000Y-62328000D01*
X93320000Y-62328000D02*
X92304000Y-62328000D01*
X92304000Y-62328000D02*
X92304000Y-61312000D01*
X92304000Y-61312000D02*
X93320000Y-61312000D01*
G36*
X93320000Y-62328000D02*
G01*
X92304000Y-62328000D01*
X92304000Y-61312000D01*
X93320000Y-61312000D01*
X93320000Y-62328000D01*
G37*
X93320000Y-62328000D02*
X92304000Y-62328000D01*
X92304000Y-61312000D01*
X93320000Y-61312000D01*
X93320000Y-62328000D01*
X103480000Y-59788000D02*
X103480000Y-58772000D01*
X103480000Y-58772000D02*
X104496000Y-58772000D01*
X104496000Y-58772000D02*
X104496000Y-59788000D01*
X104496000Y-59788000D02*
X103480000Y-59788000D01*
G36*
X104496000Y-59788000D02*
G01*
X103480000Y-59788000D01*
X103480000Y-58772000D01*
X104496000Y-58772000D01*
X104496000Y-59788000D01*
G37*
X104496000Y-59788000D02*
X103480000Y-59788000D01*
X103480000Y-58772000D01*
X104496000Y-58772000D01*
X104496000Y-59788000D01*
X103480000Y-72488000D02*
X103480000Y-71472000D01*
X103480000Y-71472000D02*
X104496000Y-71472000D01*
X104496000Y-71472000D02*
X104496000Y-72488000D01*
X104496000Y-72488000D02*
X103480000Y-72488000D01*
G36*
X104496000Y-72488000D02*
G01*
X103480000Y-72488000D01*
X103480000Y-71472000D01*
X104496000Y-71472000D01*
X104496000Y-72488000D01*
G37*
X104496000Y-72488000D02*
X103480000Y-72488000D01*
X103480000Y-71472000D01*
X104496000Y-71472000D01*
X104496000Y-72488000D01*
X103480000Y-54708000D02*
X103480000Y-53692000D01*
X103480000Y-53692000D02*
X104496000Y-53692000D01*
X104496000Y-53692000D02*
X104496000Y-54708000D01*
X104496000Y-54708000D02*
X103480000Y-54708000D01*
G36*
X104496000Y-54708000D02*
G01*
X103480000Y-54708000D01*
X103480000Y-53692000D01*
X104496000Y-53692000D01*
X104496000Y-54708000D01*
G37*
X104496000Y-54708000D02*
X103480000Y-54708000D01*
X103480000Y-53692000D01*
X104496000Y-53692000D01*
X104496000Y-54708000D01*
X93320000Y-51152000D02*
X93320000Y-52168000D01*
X93320000Y-52168000D02*
X92304000Y-52168000D01*
X92304000Y-52168000D02*
X92304000Y-51152000D01*
X92304000Y-51152000D02*
X93320000Y-51152000D01*
G36*
X93320000Y-52168000D02*
G01*
X92304000Y-52168000D01*
X92304000Y-51152000D01*
X93320000Y-51152000D01*
X93320000Y-52168000D01*
G37*
X93320000Y-52168000D02*
X92304000Y-52168000D01*
X92304000Y-51152000D01*
X93320000Y-51152000D01*
X93320000Y-52168000D01*
X93320000Y-71472000D02*
X93320000Y-72488000D01*
X93320000Y-72488000D02*
X92304000Y-72488000D01*
X92304000Y-72488000D02*
X92304000Y-71472000D01*
X92304000Y-71472000D02*
X93320000Y-71472000D01*
G36*
X93320000Y-72488000D02*
G01*
X92304000Y-72488000D01*
X92304000Y-71472000D01*
X93320000Y-71472000D01*
X93320000Y-72488000D01*
G37*
X93320000Y-72488000D02*
X92304000Y-72488000D01*
X92304000Y-71472000D01*
X93320000Y-71472000D01*
X93320000Y-72488000D01*
X93320000Y-68932000D02*
X93320000Y-69948000D01*
X93320000Y-69948000D02*
X92304000Y-69948000D01*
X92304000Y-69948000D02*
X92304000Y-68932000D01*
X92304000Y-68932000D02*
X93320000Y-68932000D01*
G36*
X93320000Y-69948000D02*
G01*
X92304000Y-69948000D01*
X92304000Y-68932000D01*
X93320000Y-68932000D01*
X93320000Y-69948000D01*
G37*
X93320000Y-69948000D02*
X92304000Y-69948000D01*
X92304000Y-68932000D01*
X93320000Y-68932000D01*
X93320000Y-69948000D01*
X103480000Y-62328000D02*
X103480000Y-61312000D01*
X103480000Y-61312000D02*
X104496000Y-61312000D01*
X104496000Y-61312000D02*
X104496000Y-62328000D01*
X104496000Y-62328000D02*
X103480000Y-62328000D01*
G36*
X104496000Y-62328000D02*
G01*
X103480000Y-62328000D01*
X103480000Y-61312000D01*
X104496000Y-61312000D01*
X104496000Y-62328000D01*
G37*
X104496000Y-62328000D02*
X103480000Y-62328000D01*
X103480000Y-61312000D01*
X104496000Y-61312000D01*
X104496000Y-62328000D01*
X103480000Y-52168000D02*
X103480000Y-51152000D01*
X103480000Y-51152000D02*
X104496000Y-51152000D01*
X104496000Y-51152000D02*
X104496000Y-52168000D01*
X104496000Y-52168000D02*
X103480000Y-52168000D01*
G36*
X104496000Y-52168000D02*
G01*
X103480000Y-52168000D01*
X103480000Y-51152000D01*
X104496000Y-51152000D01*
X104496000Y-52168000D01*
G37*
X104496000Y-52168000D02*
X103480000Y-52168000D01*
X103480000Y-51152000D01*
X104496000Y-51152000D01*
X104496000Y-52168000D01*
X93320000Y-63852000D02*
X93320000Y-64868000D01*
X93320000Y-64868000D02*
X92304000Y-64868000D01*
X92304000Y-64868000D02*
X92304000Y-63852000D01*
X92304000Y-63852000D02*
X93320000Y-63852000D01*
G36*
X93320000Y-64868000D02*
G01*
X92304000Y-64868000D01*
X92304000Y-63852000D01*
X93320000Y-63852000D01*
X93320000Y-64868000D01*
G37*
X93320000Y-64868000D02*
X92304000Y-64868000D01*
X92304000Y-63852000D01*
X93320000Y-63852000D01*
X93320000Y-64868000D01*
D12*
X106020000Y-66900000D03*
D13*
X104242000Y-46580000D03*
X104242000Y-61820000D03*
D12*
X106020000Y-64360000D03*
D14*
X90780000Y-46580000D03*
D12*
X106020000Y-46580000D03*
D13*
X104242000Y-51660000D03*
D15*
X92558000Y-71980000D03*
D12*
X90780000Y-74520000D03*
X106020000Y-54200000D03*
D13*
X104242000Y-71980000D03*
D12*
X90780000Y-54200000D03*
D13*
X104242000Y-64360000D03*
X104242000Y-54200000D03*
D12*
X106020000Y-56740000D03*
X106020000Y-59280000D03*
X90780000Y-71980000D03*
X106020000Y-74520000D03*
X106020000Y-69440000D03*
X90780000Y-64360000D03*
D15*
X92558000Y-49120000D03*
D12*
X90780000Y-61820000D03*
D13*
X104242000Y-69440000D03*
D15*
X92558000Y-51660000D03*
D12*
X106020000Y-61820000D03*
D15*
X92558000Y-59280000D03*
X92558000Y-61820000D03*
D13*
X104242000Y-74520000D03*
D15*
X92558000Y-54200000D03*
D13*
X104242000Y-49120000D03*
D12*
X90780000Y-59280000D03*
D13*
X104242000Y-56740000D03*
D12*
X90780000Y-51660000D03*
X106020000Y-51660000D03*
D15*
X92558000Y-69440000D03*
D12*
X106020000Y-49120000D03*
D15*
X92558000Y-74520000D03*
D12*
X90780000Y-56740000D03*
D15*
X92558000Y-46580000D03*
D12*
X90780000Y-69440000D03*
X90780000Y-46580000D03*
D15*
X92558000Y-56740000D03*
D12*
X106020000Y-71980000D03*
D13*
X104242000Y-59280000D03*
X104242000Y-66900000D03*
D12*
X90780000Y-49120000D03*
D15*
X92558000Y-64360000D03*
X92558000Y-66900000D03*
D12*
X90780000Y-66900000D03*
D16*
X103226000Y-46580000D03*
X103226000Y-49120000D03*
X103226000Y-51660000D03*
X103226000Y-54200000D03*
X103226000Y-56740000D03*
X103226000Y-59280000D03*
X103226000Y-61820000D03*
X103226000Y-64360000D03*
X103226000Y-66900000D03*
X103226000Y-69440000D03*
X103226000Y-71980000D03*
X103226000Y-74520000D03*
D17*
X93574000Y-74520000D03*
X93574000Y-71980000D03*
X93574000Y-69440000D03*
X93574000Y-66900000D03*
X93574000Y-64360000D03*
X93574000Y-61820000D03*
X93574000Y-59280000D03*
X93574000Y-56740000D03*
X93574000Y-54200000D03*
X93574000Y-51660000D03*
X93574000Y-49120000D03*
X93574000Y-46580000D03*
D18*
X101650000Y-95175000D03*
X95150000Y-95175000D03*
D19*
X118900000Y-56550000D03*
D20*
X116740000Y-56550000D03*
D19*
X122200000Y-56550000D03*
D21*
X124360000Y-56550000D03*
D20*
X135690000Y-54350000D03*
D19*
X137850000Y-54350000D03*
D21*
X143310000Y-54350000D03*
D19*
X141150000Y-54350000D03*
X156900000Y-48500000D03*
D20*
X154740000Y-48500000D03*
D19*
X160200000Y-48500000D03*
D21*
X162360000Y-48500000D03*
D19*
X175850000Y-55050000D03*
D20*
X173690000Y-55050000D03*
D21*
X181310000Y-55050000D03*
D19*
X179150000Y-55050000D03*
D20*
X192690000Y-67800000D03*
D19*
X194850000Y-67800000D03*
X198150000Y-67800000D03*
D21*
X200310000Y-67800000D03*
D20*
X211690000Y-67800000D03*
D19*
X213850000Y-67800000D03*
X217150000Y-67800000D03*
D21*
X219310000Y-67800000D03*
D20*
X116690000Y-74650000D03*
D19*
X118850000Y-74650000D03*
X122150000Y-74650000D03*
D21*
X124310000Y-74650000D03*
D20*
X135740000Y-72300000D03*
D19*
X137900000Y-72300000D03*
D21*
X143360000Y-72300000D03*
D19*
X141200000Y-72300000D03*
X156900000Y-66500000D03*
D20*
X154740000Y-66500000D03*
D19*
X160200000Y-66500000D03*
D21*
X162360000Y-66500000D03*
D20*
X173690000Y-73000000D03*
D19*
X175850000Y-73000000D03*
D21*
X181310000Y-73000000D03*
D19*
X179150000Y-73000000D03*
D20*
X192740000Y-85800000D03*
D19*
X194900000Y-85800000D03*
X198200000Y-85800000D03*
D21*
X200360000Y-85800000D03*
D19*
X213850000Y-85750000D03*
D20*
X211690000Y-85750000D03*
D19*
X217150000Y-85750000D03*
D21*
X219310000Y-85750000D03*
D19*
X118900000Y-92600000D03*
D20*
X116740000Y-92600000D03*
D19*
X122200000Y-92600000D03*
D21*
X124360000Y-92600000D03*
D20*
X135690000Y-90300000D03*
D19*
X137850000Y-90300000D03*
D21*
X143310000Y-90300000D03*
D19*
X141150000Y-90300000D03*
D20*
X154740000Y-84500000D03*
D19*
X156900000Y-84500000D03*
D21*
X162360000Y-84500000D03*
D19*
X160200000Y-84500000D03*
D20*
X173690000Y-91000000D03*
D19*
X175850000Y-91000000D03*
D21*
X181310000Y-91000000D03*
D19*
X179150000Y-91000000D03*
X194950000Y-103750000D03*
D20*
X192790000Y-103750000D03*
D19*
X198250000Y-103750000D03*
D21*
X200410000Y-103750000D03*
D19*
X213900000Y-103800000D03*
D20*
X211740000Y-103800000D03*
D19*
X217200000Y-103800000D03*
D21*
X219360000Y-103800000D03*
D20*
X116690000Y-110550000D03*
D19*
X118850000Y-110550000D03*
X122150000Y-110550000D03*
D21*
X124310000Y-110550000D03*
D19*
X137850000Y-108350000D03*
D20*
X135690000Y-108350000D03*
D21*
X143310000Y-108350000D03*
D19*
X141150000Y-108350000D03*
X156800000Y-102550000D03*
D20*
X154640000Y-102550000D03*
D21*
X162260000Y-102550000D03*
D19*
X160100000Y-102550000D03*
D20*
X173690000Y-109050000D03*
D19*
X175850000Y-109050000D03*
D21*
X181310000Y-109050000D03*
D19*
X179150000Y-109050000D03*
X194850000Y-121750000D03*
D20*
X192690000Y-121750000D03*
D21*
X200310000Y-121750000D03*
D19*
X198150000Y-121750000D03*
X213850000Y-121750000D03*
D20*
X211690000Y-121750000D03*
D19*
X217150000Y-121750000D03*
D21*
X219310000Y-121750000D03*
D19*
X96889121Y-115974163D03*
D20*
X94729121Y-115974163D03*
D21*
X102349121Y-115974163D03*
D19*
X100189121Y-115974163D03*
D22*
X99396967Y-139079176D03*
D23*
X101354592Y-138166320D03*
D21*
X106303033Y-135858824D03*
D23*
X104345408Y-136771680D03*
D24*
X118960592Y-131463426D03*
D25*
X116874193Y-132022476D03*
D24*
X122148148Y-130609324D03*
D21*
X124234547Y-130050274D03*
D26*
X137404320Y-127987974D03*
D27*
X135252539Y-128176230D03*
D26*
X140691762Y-127700360D03*
D21*
X142843543Y-127512104D03*
D19*
X156300000Y-127000000D03*
D20*
X154140000Y-127000000D03*
D21*
X161760000Y-127000000D03*
D19*
X159600000Y-127000000D03*
D28*
X125720000Y-43819500D03*
D29*
X120500000Y-53919500D03*
D30*
X126000000Y-48019500D03*
X115000000Y-48019500D03*
D29*
X115500000Y-51719500D03*
D28*
X115280000Y-43819500D03*
D31*
X120500000Y-48019500D03*
D29*
X125500000Y-51719500D03*
D32*
X117750000Y-44020500D03*
X117750000Y-42620500D03*
X123250000Y-42620500D03*
X123250000Y-44020500D03*
D33*
X117700000Y-53919500D03*
X128400000Y-51719500D03*
D31*
X139500000Y-45769500D03*
D30*
X134000000Y-45769500D03*
D29*
X144500000Y-49469500D03*
D28*
X134280000Y-41569500D03*
D29*
X139500000Y-51669500D03*
D30*
X145000000Y-45769500D03*
D28*
X144720000Y-41569500D03*
D29*
X134500000Y-49469500D03*
D32*
X136750000Y-41770500D03*
X136750000Y-40370500D03*
X142250000Y-40370500D03*
X142250000Y-41770500D03*
D33*
X136700000Y-51669500D03*
X147400000Y-49469500D03*
D30*
X164000000Y-39950000D03*
D28*
X153280000Y-35750000D03*
D30*
X153000000Y-39950000D03*
D29*
X163500000Y-43650000D03*
X153500000Y-43650000D03*
D28*
X163720000Y-35750000D03*
D31*
X158500000Y-39950000D03*
D29*
X158500000Y-45850000D03*
D32*
X155750000Y-35951000D03*
X155750000Y-34551000D03*
X161250000Y-34551000D03*
X161250000Y-35951000D03*
D33*
X155700000Y-45850000D03*
X166400000Y-43650000D03*
D28*
X182720000Y-42269500D03*
D29*
X172500000Y-50169500D03*
D28*
X172280000Y-42269500D03*
D30*
X172000000Y-46469500D03*
X183000000Y-46469500D03*
D31*
X177500000Y-46469500D03*
D29*
X182500000Y-50169500D03*
X177500000Y-52369500D03*
D32*
X174750000Y-42470500D03*
X174750000Y-41070500D03*
X180250000Y-41070500D03*
X180250000Y-42470500D03*
D33*
X174700000Y-52369500D03*
X185400000Y-50169500D03*
D28*
X201720000Y-55019500D03*
X191280000Y-55019500D03*
D30*
X191000000Y-59219500D03*
X202000000Y-59219500D03*
D29*
X201500000Y-62919500D03*
X196500000Y-65119500D03*
X191500000Y-62919500D03*
D31*
X196500000Y-59219500D03*
D32*
X193750000Y-55220500D03*
X193750000Y-53820500D03*
X199250000Y-53820500D03*
X199250000Y-55220500D03*
D33*
X193700000Y-65119500D03*
X204400000Y-62919500D03*
D28*
X115280000Y-61819500D03*
D30*
X126000000Y-66019500D03*
D28*
X125720000Y-61819500D03*
D31*
X120500000Y-66019500D03*
D30*
X115000000Y-66019500D03*
D29*
X115500000Y-69719500D03*
X120500000Y-71919500D03*
X125500000Y-69719500D03*
D32*
X117750000Y-62020500D03*
X117750000Y-60620500D03*
X123250000Y-60620500D03*
X123250000Y-62020500D03*
D33*
X117700000Y-71919500D03*
X128400000Y-69719500D03*
D29*
X139500000Y-69669500D03*
D30*
X145000000Y-63769500D03*
D29*
X144500000Y-67469500D03*
X134500000Y-67469500D03*
D31*
X139500000Y-63769500D03*
D28*
X134280000Y-59569500D03*
D30*
X134000000Y-63769500D03*
D28*
X144720000Y-59569500D03*
D32*
X136750000Y-59770500D03*
X136750000Y-58370500D03*
X142250000Y-58370500D03*
X142250000Y-59770500D03*
D33*
X136700000Y-69669500D03*
X147400000Y-67469500D03*
D30*
X164000000Y-57940000D03*
D28*
X163720000Y-53740000D03*
D31*
X158500000Y-57940000D03*
D28*
X153280000Y-53740000D03*
D30*
X153000000Y-57940000D03*
D29*
X158500000Y-63840000D03*
X163500000Y-61640000D03*
X153500000Y-61640000D03*
D32*
X155750000Y-53941000D03*
X155750000Y-52541000D03*
X161250000Y-52541000D03*
X161250000Y-53941000D03*
D33*
X155700000Y-63840000D03*
X166400000Y-61640000D03*
D28*
X172280000Y-60269500D03*
X182720000Y-60269500D03*
D30*
X172000000Y-64469500D03*
D29*
X172500000Y-68169500D03*
X182500000Y-68169500D03*
X177500000Y-70369500D03*
D31*
X177500000Y-64469500D03*
D30*
X183000000Y-64469500D03*
D32*
X174750000Y-60470500D03*
X174750000Y-59070500D03*
X180250000Y-59070500D03*
X180250000Y-60470500D03*
D33*
X174700000Y-70369500D03*
X185400000Y-68169500D03*
D30*
X191000000Y-77219500D03*
X202000000Y-77219500D03*
D29*
X196500000Y-83119500D03*
X201500000Y-80919500D03*
D31*
X196500000Y-77219500D03*
D28*
X191280000Y-73019500D03*
X201720000Y-73019500D03*
D29*
X191500000Y-80919500D03*
D32*
X193750000Y-73220500D03*
X193750000Y-71820500D03*
X199250000Y-71820500D03*
X199250000Y-73220500D03*
D33*
X193700000Y-83119500D03*
X204400000Y-80919500D03*
D30*
X210000000Y-77219500D03*
D29*
X210500000Y-80919500D03*
X220500000Y-80919500D03*
X215500000Y-83119500D03*
D28*
X220720000Y-73019500D03*
X210280000Y-73019500D03*
D31*
X215500000Y-77219500D03*
D30*
X221000000Y-77219500D03*
D32*
X212750000Y-73220500D03*
X212750000Y-71820500D03*
X218250000Y-71820500D03*
X218250000Y-73220500D03*
D33*
X212700000Y-83119500D03*
X223400000Y-80919500D03*
D28*
X115280000Y-79819500D03*
D31*
X120500000Y-84019500D03*
D30*
X126000000Y-84019500D03*
X115000000Y-84019500D03*
D29*
X120500000Y-89919500D03*
X125500000Y-87719500D03*
D28*
X125720000Y-79819500D03*
D29*
X115500000Y-87719500D03*
D32*
X117750000Y-80020500D03*
X117750000Y-78620500D03*
X123250000Y-78620500D03*
X123250000Y-80020500D03*
D33*
X117700000Y-89919500D03*
X128400000Y-87719500D03*
D31*
X139500000Y-81769500D03*
D28*
X144720000Y-77569500D03*
D29*
X134500000Y-85469500D03*
X144500000Y-85469500D03*
D28*
X134280000Y-77569500D03*
D29*
X139500000Y-87669500D03*
D30*
X145000000Y-81769500D03*
X134000000Y-81769500D03*
D32*
X136750000Y-77770500D03*
X136750000Y-76370500D03*
X142250000Y-76370500D03*
X142250000Y-77770500D03*
D33*
X136700000Y-87669500D03*
X147400000Y-85469500D03*
D29*
X153500000Y-79640000D03*
D28*
X163720000Y-71740000D03*
D30*
X153000000Y-75940000D03*
D29*
X163500000Y-79640000D03*
D31*
X158500000Y-75940000D03*
D28*
X153280000Y-71740000D03*
D29*
X158500000Y-81840000D03*
D30*
X164000000Y-75940000D03*
D32*
X155750000Y-71941000D03*
X155750000Y-70541000D03*
X161250000Y-70541000D03*
X161250000Y-71941000D03*
D33*
X155700000Y-81840000D03*
X166400000Y-79640000D03*
D28*
X182720000Y-78269500D03*
D29*
X172500000Y-86169500D03*
D28*
X172280000Y-78269500D03*
D30*
X183000000Y-82469500D03*
D29*
X182500000Y-86169500D03*
D31*
X177500000Y-82469500D03*
D30*
X172000000Y-82469500D03*
D29*
X177500000Y-88369500D03*
D32*
X174750000Y-78470500D03*
X174750000Y-77070500D03*
X180250000Y-77070500D03*
X180250000Y-78470500D03*
D33*
X174700000Y-88369500D03*
X185400000Y-86169500D03*
D30*
X202000000Y-95219500D03*
D31*
X196500000Y-95219500D03*
D29*
X191500000Y-98919500D03*
D30*
X191000000Y-95219500D03*
D29*
X201500000Y-98919500D03*
D28*
X201720000Y-91019500D03*
D29*
X196500000Y-101119500D03*
D28*
X191280000Y-91019500D03*
D32*
X193750000Y-91220500D03*
X193750000Y-89820500D03*
X199250000Y-89820500D03*
X199250000Y-91220500D03*
D33*
X193700000Y-101119500D03*
X204400000Y-98919500D03*
D29*
X220500000Y-98919500D03*
D28*
X210280000Y-91019500D03*
D29*
X210500000Y-98919500D03*
D28*
X220720000Y-91019500D03*
D29*
X215500000Y-101119500D03*
D31*
X215500000Y-95219500D03*
D30*
X210000000Y-95219500D03*
X221000000Y-95219500D03*
D32*
X212750000Y-91220500D03*
X212750000Y-89820500D03*
X218250000Y-89820500D03*
X218250000Y-91220500D03*
D33*
X212700000Y-101119500D03*
X223400000Y-98919500D03*
D29*
X125500000Y-105719500D03*
D30*
X126000000Y-102019500D03*
D29*
X120500000Y-107919500D03*
X115500000Y-105719500D03*
D31*
X120500000Y-102019500D03*
D28*
X115280000Y-97819500D03*
X125720000Y-97819500D03*
D30*
X115000000Y-102019500D03*
D32*
X117750000Y-98020500D03*
X117750000Y-96620500D03*
X123250000Y-96620500D03*
X123250000Y-98020500D03*
D33*
X117700000Y-107919500D03*
X128400000Y-105719500D03*
D30*
X134000000Y-99769500D03*
D28*
X144720000Y-95569500D03*
D29*
X144500000Y-103469500D03*
X139500000Y-105669500D03*
X134500000Y-103469500D03*
D31*
X139500000Y-99769500D03*
D28*
X134280000Y-95569500D03*
D30*
X145000000Y-99769500D03*
D32*
X136750000Y-95770500D03*
X136750000Y-94370500D03*
X142250000Y-94370500D03*
X142250000Y-95770500D03*
D33*
X136700000Y-105669500D03*
X147400000Y-103469500D03*
D29*
X153500000Y-97640000D03*
D28*
X163720000Y-89740000D03*
D29*
X163500000Y-97640000D03*
D30*
X153000000Y-93940000D03*
D29*
X158500000Y-99840000D03*
D30*
X164000000Y-93940000D03*
D28*
X153280000Y-89740000D03*
D31*
X158500000Y-93940000D03*
D32*
X155750000Y-89941000D03*
X155750000Y-88541000D03*
X161250000Y-88541000D03*
X161250000Y-89941000D03*
D33*
X155700000Y-99840000D03*
X166400000Y-97640000D03*
D31*
X177500000Y-100469500D03*
D29*
X172500000Y-104169500D03*
D28*
X182720000Y-96269500D03*
D30*
X172000000Y-100469500D03*
D29*
X177500000Y-106369500D03*
D30*
X183000000Y-100469500D03*
D29*
X182500000Y-104169500D03*
D28*
X172280000Y-96269500D03*
D32*
X174750000Y-96470500D03*
X174750000Y-95070500D03*
X180250000Y-95070500D03*
X180250000Y-96470500D03*
D33*
X174700000Y-106369500D03*
X185400000Y-104169500D03*
D29*
X191500000Y-116919500D03*
D31*
X196500000Y-113219500D03*
D29*
X201500000Y-116919500D03*
D28*
X191280000Y-109019500D03*
X201720000Y-109019500D03*
D29*
X196500000Y-119119500D03*
D30*
X202000000Y-113219500D03*
X191000000Y-113219500D03*
D32*
X193750000Y-109220500D03*
X193750000Y-107820500D03*
X199250000Y-107820500D03*
X199250000Y-109220500D03*
D33*
X193700000Y-119119500D03*
X204400000Y-116919500D03*
D28*
X210292493Y-109019500D03*
D29*
X210512493Y-116919500D03*
D30*
X210012493Y-113219500D03*
D28*
X220732493Y-109019500D03*
D31*
X215512493Y-113219500D03*
D30*
X221012493Y-113219500D03*
D29*
X220512493Y-116919500D03*
X215512493Y-119119500D03*
D32*
X212762493Y-109220500D03*
X212762493Y-107820500D03*
X218262493Y-107820500D03*
X218262493Y-109220500D03*
D33*
X212712493Y-119119500D03*
X223412493Y-116919500D03*
D29*
X101642682Y-135166181D03*
D28*
X92643311Y-128218540D03*
X102105164Y-123806405D03*
D30*
X94164541Y-132143365D03*
X104133927Y-127494565D03*
D29*
X96181383Y-135285395D03*
D31*
X99149234Y-129818965D03*
D29*
X105244461Y-131059213D03*
D34*
X94966837Y-127356840D03*
X94375172Y-126088009D03*
X99359864Y-123763609D03*
X99951530Y-125032440D03*
D35*
X99105020Y-136349512D03*
X107872753Y-129833620D03*
D30*
X132818970Y-119823524D03*
D31*
X138298041Y-119344167D03*
D29*
X138812260Y-125221716D03*
X133639544Y-123465866D03*
D28*
X132731851Y-115615102D03*
X143132123Y-114705196D03*
D29*
X143601491Y-122594309D03*
D30*
X143777112Y-118864810D03*
D36*
X135209970Y-115600063D03*
X135087952Y-114205390D03*
X140567023Y-113726034D03*
X140689041Y-115120706D03*
D37*
X136022915Y-125465752D03*
X146490455Y-122341557D03*
D28*
X163120000Y-114259500D03*
D31*
X157900000Y-118459500D03*
D29*
X157900000Y-124359500D03*
X152900000Y-122159500D03*
D30*
X152400000Y-118459500D03*
D29*
X162900000Y-122159500D03*
D28*
X152680000Y-114259500D03*
D30*
X163400000Y-118459500D03*
D32*
X155150000Y-114460500D03*
X155150000Y-113060500D03*
X160650000Y-113060500D03*
X160650000Y-114460500D03*
D33*
X155100000Y-124359500D03*
X165800000Y-122159500D03*
D19*
X175200000Y-127000000D03*
D20*
X173040000Y-127000000D03*
D19*
X178500000Y-127000000D03*
D21*
X180660000Y-127000000D03*
D18*
X91050000Y-105550000D03*
X91050000Y-110550000D03*
X91050000Y-108050000D03*
D38*
X98550000Y-102450000D03*
X98550000Y-113650000D03*
D18*
X105550000Y-110550000D03*
X105550000Y-105550000D03*
D28*
X171680000Y-114269500D03*
D29*
X176900000Y-124369500D03*
D28*
X182120000Y-114269500D03*
D29*
X181900000Y-122169500D03*
X171900000Y-122169500D03*
D30*
X171400000Y-118469500D03*
D31*
X176900000Y-118469500D03*
D30*
X182400000Y-118469500D03*
D32*
X174150000Y-114470500D03*
X174150000Y-113070500D03*
X179650000Y-113070500D03*
X179650000Y-114470500D03*
D33*
X174100000Y-124369500D03*
X184800000Y-122169500D03*
D31*
X118254370Y-122836375D03*
D29*
X114382371Y-127704396D03*
D28*
X122209463Y-117428451D03*
X112125197Y-120130522D03*
D29*
X119781402Y-128535337D03*
X124041630Y-125116205D03*
D30*
X123566962Y-121412870D03*
X112941778Y-124259880D03*
D39*
X114563057Y-119685390D03*
X114200710Y-118333094D03*
X119513302Y-116909589D03*
X119875649Y-118261885D03*
D40*
X117076810Y-129260031D03*
X126842814Y-124365630D03*
D30*
X210000000Y-59219500D03*
D31*
X215500000Y-59219500D03*
D28*
X220720000Y-55019500D03*
D29*
X220500000Y-62919500D03*
X210500000Y-62919500D03*
D30*
X221000000Y-59219500D03*
D29*
X215500000Y-65119500D03*
D28*
X210280000Y-55019500D03*
D32*
X212750000Y-55220500D03*
X212750000Y-53820500D03*
X218250000Y-53820500D03*
X218250000Y-55220500D03*
D33*
X212700000Y-65119500D03*
X223400000Y-62919500D03*
D41*
X102200000Y-81499620D03*
X102200000Y-82500380D03*
D42*
X94590000Y-78850000D03*
X97130000Y-78850000D03*
X99670000Y-78850000D03*
X102210000Y-78850000D03*
D41*
X97100000Y-81499620D03*
X97100000Y-82500380D03*
D42*
X104850000Y-92880000D03*
X104850000Y-87800000D03*
X102638035Y-85679272D03*
D43*
X86500000Y-89275000D03*
X93500000Y-87525000D03*
X86500000Y-87525000D03*
X93500000Y-89275000D03*
D44*
X95300000Y-85425000D03*
X95300000Y-91375000D03*
X91300000Y-85425000D03*
X91300000Y-91375000D03*
X88300000Y-91375000D03*
X88300000Y-85425000D03*
X96800000Y-89625000D03*
X96800000Y-87175000D03*
D42*
X104838035Y-85679272D03*
D41*
X99600000Y-81499620D03*
X99600000Y-82500380D03*
D42*
X102600000Y-92880000D03*
X102600000Y-87800000D03*
D45*
X86825000Y-100950000D03*
X86825000Y-97950000D03*
D46*
X88675000Y-97200000D03*
X88675000Y-100200000D03*
X88675000Y-101700000D03*
D47*
X87875000Y-102900000D03*
X85775000Y-102900000D03*
X85775000Y-96000000D03*
X87875000Y-96000000D03*
D48*
X195900000Y-41650000D03*
X197150000Y-41650000D03*
D49*
X193050000Y-46525000D03*
X200000000Y-46525000D03*
D41*
X94610000Y-81499620D03*
X94610000Y-82500380D03*
D50*
X106650380Y-80100000D03*
X105649620Y-80100000D03*
M02*
