G04 #@! TF.GenerationSoftware,KiCad,Pcbnew,6.0.2+dfsg-1*
G04 #@! TF.CreationDate,2022-11-14T21:07:20+00:00*
G04 #@! TF.ProjectId,Jocket_Split_LP,4a6f636b-6574-45f5-9370-6c69745f4c50,rev?*
G04 #@! TF.SameCoordinates,Original*
G04 #@! TF.FileFunction,Paste,Bot*
G04 #@! TF.FilePolarity,Positive*
%FSLAX46Y46*%
G04 Gerber Fmt 4.6, Leading zero omitted, Abs format (unit mm)*
G04 Created by KiCad (PCBNEW 6.0.2+dfsg-1) date 2022-11-14 21:07:20*
%MOMM*%
%LPD*%
G01*
G04 APERTURE LIST*
G04 Aperture macros list*
%AMRotRect*
0 Rectangle, with rotation*
0 The origin of the aperture is its center*
0 $1 length*
0 $2 width*
0 $3 Rotation angle, in degrees counterclockwise*
0 Add horizontal line*
21,1,$1,$2,0,0,$3*%
G04 Aperture macros list end*
%ADD10R,0.900000X1.200000*%
%ADD11R,1.200000X0.900000*%
%ADD12R,1.700000X1.000000*%
%ADD13R,1.600000X2.200000*%
%ADD14RotRect,1.700000X1.000000X205.000000*%
%ADD15RotRect,1.600000X2.200000X205.000000*%
%ADD16RotRect,1.700000X1.000000X185.000000*%
%ADD17RotRect,1.600000X2.200000X185.000000*%
%ADD18RotRect,1.700000X1.000000X195.000000*%
%ADD19RotRect,1.600000X2.200000X195.000000*%
%ADD20R,1.000000X0.500000*%
%ADD21R,0.500000X0.800000*%
%ADD22R,1.900000X0.800000*%
%ADD23R,3.350000X1.300000*%
%ADD24R,1.143000X0.635000*%
G04 APERTURE END LIST*
D10*
X118900000Y-57325000D03*
X122200000Y-57325000D03*
X137850000Y-55100000D03*
X141150000Y-55100000D03*
X156900000Y-49250000D03*
X160200000Y-49250000D03*
X175850000Y-55800000D03*
X179150000Y-55800000D03*
X194850000Y-68550000D03*
X198150000Y-68550000D03*
X213850000Y-68550000D03*
X217150000Y-68550000D03*
X118850000Y-75400000D03*
X122150000Y-75400000D03*
X137900000Y-73050000D03*
X141200000Y-73050000D03*
X156900000Y-67250000D03*
X160200000Y-67250000D03*
X175850000Y-73750000D03*
X179150000Y-73750000D03*
X194900000Y-86550000D03*
X198200000Y-86550000D03*
X213850000Y-86500000D03*
X217150000Y-86500000D03*
X118900000Y-93350000D03*
X122200000Y-93350000D03*
X137850000Y-91050000D03*
X141150000Y-91050000D03*
X156900000Y-85250000D03*
X160200000Y-85250000D03*
X175850000Y-91750000D03*
X179150000Y-91750000D03*
X194950000Y-104500000D03*
X198250000Y-104500000D03*
X213900000Y-104550000D03*
X217200000Y-104550000D03*
X118850000Y-111300000D03*
X122150000Y-111300000D03*
X137850000Y-109100000D03*
X141150000Y-109100000D03*
X156800000Y-103300000D03*
X160100000Y-103300000D03*
X175850000Y-109800000D03*
X179150000Y-109800000D03*
X194850000Y-122525000D03*
X198150000Y-122525000D03*
X194850000Y-125000000D03*
X198150000Y-125000000D03*
D11*
X88000000Y-107800000D03*
X88000000Y-111100000D03*
D10*
X89475000Y-121375000D03*
X92775000Y-121375000D03*
X89475000Y-118900000D03*
X92775000Y-118900000D03*
X89475000Y-116450000D03*
X92775000Y-116450000D03*
X156825000Y-106000000D03*
X160125000Y-106000000D03*
D12*
X117750000Y-42620500D03*
X117750000Y-44020500D03*
X123250000Y-44020500D03*
X123250000Y-42620500D03*
D13*
X123300000Y-53919500D03*
X112700000Y-51719500D03*
D12*
X136750000Y-40370500D03*
X136750000Y-41770500D03*
X142250000Y-41770500D03*
X142250000Y-40370500D03*
D13*
X142300000Y-51669500D03*
X131700000Y-49469500D03*
D12*
X155750000Y-34551000D03*
X155750000Y-35951000D03*
X161250000Y-35951000D03*
X161250000Y-34551000D03*
D13*
X161300000Y-45850000D03*
X150700000Y-43650000D03*
D12*
X174750000Y-41070500D03*
X174750000Y-42470500D03*
X180250000Y-42470500D03*
X180250000Y-41070500D03*
D13*
X180300000Y-52369500D03*
X169700000Y-50169500D03*
D12*
X193750000Y-53820500D03*
X193750000Y-55220500D03*
X199250000Y-55220500D03*
X199250000Y-53820500D03*
D13*
X199300000Y-65119500D03*
X188700000Y-62919500D03*
D12*
X117750000Y-60620500D03*
X117750000Y-62020500D03*
X123250000Y-62020500D03*
X123250000Y-60620500D03*
D13*
X123300000Y-71919500D03*
X112700000Y-69719500D03*
D12*
X136750000Y-58370500D03*
X136750000Y-59770500D03*
X142250000Y-59770500D03*
X142250000Y-58370500D03*
D13*
X142300000Y-69669500D03*
X131700000Y-67469500D03*
D12*
X155750000Y-52541000D03*
X155750000Y-53941000D03*
X161250000Y-53941000D03*
X161250000Y-52541000D03*
D13*
X161300000Y-63840000D03*
X150700000Y-61640000D03*
D12*
X174750000Y-59070500D03*
X174750000Y-60470500D03*
X180250000Y-60470500D03*
X180250000Y-59070500D03*
D13*
X180300000Y-70369500D03*
X169700000Y-68169500D03*
D12*
X193750000Y-71820500D03*
X193750000Y-73220500D03*
X199250000Y-73220500D03*
X199250000Y-71820500D03*
D13*
X199300000Y-83119500D03*
X188700000Y-80919500D03*
D12*
X212750000Y-71820500D03*
X212750000Y-73220500D03*
X218250000Y-73220500D03*
X218250000Y-71820500D03*
D13*
X218300000Y-83119500D03*
X207700000Y-80919500D03*
D12*
X117750000Y-78620500D03*
X117750000Y-80020500D03*
X123250000Y-80020500D03*
X123250000Y-78620500D03*
D13*
X123300000Y-89919500D03*
X112700000Y-87719500D03*
D12*
X136750000Y-76370500D03*
X136750000Y-77770500D03*
X142250000Y-77770500D03*
X142250000Y-76370500D03*
D13*
X142300000Y-87669500D03*
X131700000Y-85469500D03*
D12*
X155750000Y-70541000D03*
X155750000Y-71941000D03*
X161250000Y-71941000D03*
X161250000Y-70541000D03*
D13*
X161300000Y-81840000D03*
X150700000Y-79640000D03*
D12*
X174750000Y-77070500D03*
X174750000Y-78470500D03*
X180250000Y-78470500D03*
X180250000Y-77070500D03*
D13*
X180300000Y-88369500D03*
X169700000Y-86169500D03*
D12*
X193750000Y-89820500D03*
X193750000Y-91220500D03*
X199250000Y-91220500D03*
X199250000Y-89820500D03*
D13*
X199300000Y-101119500D03*
X188700000Y-98919500D03*
D12*
X212750000Y-89820500D03*
X212750000Y-91220500D03*
X218250000Y-91220500D03*
X218250000Y-89820500D03*
D13*
X218300000Y-101119500D03*
X207700000Y-98919500D03*
D12*
X117750000Y-96620500D03*
X117750000Y-98020500D03*
X123250000Y-98020500D03*
X123250000Y-96620500D03*
D13*
X123300000Y-107919500D03*
X112700000Y-105719500D03*
D12*
X136750000Y-94370500D03*
X136750000Y-95770500D03*
X142250000Y-95770500D03*
X142250000Y-94370500D03*
D13*
X142300000Y-105669500D03*
X131700000Y-103469500D03*
D12*
X155750000Y-88541000D03*
X155750000Y-89941000D03*
X161250000Y-89941000D03*
X161250000Y-88541000D03*
D13*
X161300000Y-99840000D03*
X150700000Y-97640000D03*
D12*
X174750000Y-95070500D03*
X174750000Y-96470500D03*
X180250000Y-96470500D03*
X180250000Y-95070500D03*
D13*
X180300000Y-106369500D03*
X169700000Y-104169500D03*
D12*
X193750000Y-107820500D03*
X193750000Y-109220500D03*
X199250000Y-109220500D03*
X199250000Y-107820500D03*
D13*
X199300000Y-119119500D03*
X188700000Y-116919500D03*
D12*
X212762493Y-107820500D03*
X212762493Y-109220500D03*
X218262493Y-109220500D03*
X218262493Y-107820500D03*
D13*
X218312493Y-119119500D03*
X207712493Y-116919500D03*
D14*
X94375172Y-126088009D03*
X94966837Y-127356840D03*
X99951530Y-125032440D03*
X99359864Y-123763609D03*
D15*
X104180344Y-133982850D03*
X93643721Y-136468726D03*
D16*
X135087952Y-114205390D03*
X135209970Y-115600063D03*
X140689041Y-115120706D03*
X140567023Y-113726034D03*
D17*
X141601605Y-124977680D03*
X130850199Y-123709902D03*
D12*
X155150000Y-113060500D03*
X155150000Y-114460500D03*
X160650000Y-114460500D03*
X160650000Y-113060500D03*
D13*
X160700000Y-124359500D03*
X150100000Y-122159500D03*
D10*
X156825000Y-108775000D03*
X160125000Y-108775000D03*
D12*
X174150000Y-113070500D03*
X174150000Y-114470500D03*
X179650000Y-114470500D03*
X179650000Y-113070500D03*
D13*
X179700000Y-124369500D03*
X169100000Y-122169500D03*
D18*
X114200710Y-118333094D03*
X114563057Y-119685390D03*
X119875649Y-118261885D03*
X119513302Y-116909589D03*
D19*
X122485995Y-127810644D03*
X111677779Y-128429089D03*
D12*
X212750000Y-53820500D03*
X212750000Y-55220500D03*
X218250000Y-55220500D03*
X218250000Y-53820500D03*
D13*
X218300000Y-65119500D03*
X207700000Y-62919500D03*
D20*
X88675000Y-101700000D03*
X88675000Y-98700000D03*
X88675000Y-97200000D03*
D21*
X87875000Y-102900000D03*
X85775000Y-102900000D03*
X85775000Y-96000000D03*
X87875000Y-96000000D03*
D22*
X94925000Y-90260856D03*
X94925000Y-91510856D03*
D23*
X99800000Y-87410856D03*
X99800000Y-94360856D03*
D24*
X103500000Y-81274620D03*
X103500000Y-82275380D03*
X100950000Y-81299620D03*
X100950000Y-82300380D03*
X95900000Y-81299620D03*
X95900000Y-82300380D03*
X93325000Y-81299620D03*
X93325000Y-82300380D03*
M02*
