G04 #@! TF.GenerationSoftware,KiCad,Pcbnew,6.0.2+dfsg-1*
G04 #@! TF.CreationDate,2022-11-14T21:07:20+00:00*
G04 #@! TF.ProjectId,Jocket_Split_LP,4a6f636b-6574-45f5-9370-6c69745f4c50,rev?*
G04 #@! TF.SameCoordinates,Original*
G04 #@! TF.FileFunction,Profile,NP*
%FSLAX46Y46*%
G04 Gerber Fmt 4.6, Leading zero omitted, Abs format (unit mm)*
G04 Created by KiCad (PCBNEW 6.0.2+dfsg-1) date 2022-11-14 21:07:20*
%MOMM*%
%LPD*%
G01*
G04 APERTURE LIST*
G04 #@! TA.AperFunction,Profile*
%ADD10C,0.100000*%
G04 #@! TD*
G04 #@! TA.AperFunction,Profile*
%ADD11C,0.120000*%
G04 #@! TD*
G04 APERTURE END LIST*
D10*
X97450000Y-142650000D02*
X103850000Y-139600000D01*
X180550000Y-129100000D02*
G75*
G03*
X222696070Y-123435293I-6678179J209304567D01*
G01*
X168000000Y-30950000D02*
G75*
G03*
X154100000Y-30550000I-9934911J-103525663D01*
G01*
X91500000Y-140650000D02*
G75*
G03*
X97450000Y-142650000I3941735J1876036D01*
G01*
X223200000Y-48600000D02*
G75*
G03*
X168000000Y-30950000I-73210287J-133820204D01*
G01*
X154100000Y-30550000D02*
G75*
G03*
X89100000Y-41750000I14523460J-278504010D01*
G01*
X86850000Y-130200000D02*
X91500000Y-140650000D01*
X148450000Y-129350000D02*
X180550000Y-129100000D01*
X222696070Y-123435293D02*
G75*
G03*
X225750000Y-119600000I-665056J3663088D01*
G01*
X225732233Y-52650000D02*
G75*
G03*
X223200000Y-48600000I-4554422J-30989D01*
G01*
X84950000Y-47500000D02*
X84950000Y-120550000D01*
X89100000Y-41750000D02*
G75*
G03*
X84950000Y-47500000I2168061J-5937383D01*
G01*
X84950000Y-120550000D02*
G75*
G03*
X86850000Y-130200000I26495307J204646D01*
G01*
X225732233Y-52650000D02*
X225750000Y-119600000D01*
X148450000Y-129350000D02*
G75*
G03*
X103850000Y-139600000I2226705J-111846078D01*
G01*
D11*
X118700000Y-41770500D02*
X118700000Y-44870500D01*
X122300000Y-41770500D02*
X118700000Y-41770500D01*
X118700000Y-44870500D02*
X122300000Y-44870500D01*
X122300000Y-44870500D02*
X122300000Y-41770500D01*
X137700000Y-42620500D02*
X141300000Y-42620500D01*
X141300000Y-39520500D02*
X137700000Y-39520500D01*
X137700000Y-39520500D02*
X137700000Y-42620500D01*
X141300000Y-42620500D02*
X141300000Y-39520500D01*
X160300000Y-33701000D02*
X156700000Y-33701000D01*
X160300000Y-36801000D02*
X160300000Y-33701000D01*
X156700000Y-36801000D02*
X160300000Y-36801000D01*
X156700000Y-33701000D02*
X156700000Y-36801000D01*
X179300000Y-40220500D02*
X175700000Y-40220500D01*
X175700000Y-43320500D02*
X179300000Y-43320500D01*
X175700000Y-40220500D02*
X175700000Y-43320500D01*
X179300000Y-43320500D02*
X179300000Y-40220500D01*
X198300000Y-56070500D02*
X198300000Y-52970500D01*
X194700000Y-52970500D02*
X194700000Y-56070500D01*
X194700000Y-56070500D02*
X198300000Y-56070500D01*
X198300000Y-52970500D02*
X194700000Y-52970500D01*
X118700000Y-62870500D02*
X122300000Y-62870500D01*
X122300000Y-62870500D02*
X122300000Y-59770500D01*
X118700000Y-59770500D02*
X118700000Y-62870500D01*
X122300000Y-59770500D02*
X118700000Y-59770500D01*
X137700000Y-60620500D02*
X141300000Y-60620500D01*
X137700000Y-57520500D02*
X137700000Y-60620500D01*
X141300000Y-57520500D02*
X137700000Y-57520500D01*
X141300000Y-60620500D02*
X141300000Y-57520500D01*
X156700000Y-51691000D02*
X156700000Y-54791000D01*
X160300000Y-51691000D02*
X156700000Y-51691000D01*
X160300000Y-54791000D02*
X160300000Y-51691000D01*
X156700000Y-54791000D02*
X160300000Y-54791000D01*
X179300000Y-58220500D02*
X175700000Y-58220500D01*
X175700000Y-61320500D02*
X179300000Y-61320500D01*
X179300000Y-61320500D02*
X179300000Y-58220500D01*
X175700000Y-58220500D02*
X175700000Y-61320500D01*
X198300000Y-74070500D02*
X198300000Y-70970500D01*
X198300000Y-70970500D02*
X194700000Y-70970500D01*
X194700000Y-70970500D02*
X194700000Y-74070500D01*
X194700000Y-74070500D02*
X198300000Y-74070500D01*
X217300000Y-74070500D02*
X217300000Y-70970500D01*
X213700000Y-74070500D02*
X217300000Y-74070500D01*
X217300000Y-70970500D02*
X213700000Y-70970500D01*
X213700000Y-70970500D02*
X213700000Y-74070500D01*
X122300000Y-77770500D02*
X118700000Y-77770500D01*
X122300000Y-80870500D02*
X122300000Y-77770500D01*
X118700000Y-80870500D02*
X122300000Y-80870500D01*
X118700000Y-77770500D02*
X118700000Y-80870500D01*
X141300000Y-78620500D02*
X141300000Y-75520500D01*
X137700000Y-75520500D02*
X137700000Y-78620500D01*
X141300000Y-75520500D02*
X137700000Y-75520500D01*
X137700000Y-78620500D02*
X141300000Y-78620500D01*
X160300000Y-69691000D02*
X156700000Y-69691000D01*
X160300000Y-72791000D02*
X160300000Y-69691000D01*
X156700000Y-69691000D02*
X156700000Y-72791000D01*
X156700000Y-72791000D02*
X160300000Y-72791000D01*
X175700000Y-76220500D02*
X175700000Y-79320500D01*
X179300000Y-76220500D02*
X175700000Y-76220500D01*
X175700000Y-79320500D02*
X179300000Y-79320500D01*
X179300000Y-79320500D02*
X179300000Y-76220500D01*
X194700000Y-92070500D02*
X198300000Y-92070500D01*
X198300000Y-92070500D02*
X198300000Y-88970500D01*
X198300000Y-88970500D02*
X194700000Y-88970500D01*
X194700000Y-88970500D02*
X194700000Y-92070500D01*
X213700000Y-88970500D02*
X213700000Y-92070500D01*
X213700000Y-92070500D02*
X217300000Y-92070500D01*
X217300000Y-92070500D02*
X217300000Y-88970500D01*
X217300000Y-88970500D02*
X213700000Y-88970500D01*
X118700000Y-98870500D02*
X122300000Y-98870500D01*
X122300000Y-98870500D02*
X122300000Y-95770500D01*
X118700000Y-95770500D02*
X118700000Y-98870500D01*
X122300000Y-95770500D02*
X118700000Y-95770500D01*
X141300000Y-93520500D02*
X137700000Y-93520500D01*
X137700000Y-96620500D02*
X141300000Y-96620500D01*
X137700000Y-93520500D02*
X137700000Y-96620500D01*
X141300000Y-96620500D02*
X141300000Y-93520500D01*
X160300000Y-90791000D02*
X160300000Y-87691000D01*
X160300000Y-87691000D02*
X156700000Y-87691000D01*
X156700000Y-90791000D02*
X160300000Y-90791000D01*
X156700000Y-87691000D02*
X156700000Y-90791000D01*
X175700000Y-97320500D02*
X179300000Y-97320500D01*
X179300000Y-94220500D02*
X175700000Y-94220500D01*
X179300000Y-97320500D02*
X179300000Y-94220500D01*
X175700000Y-94220500D02*
X175700000Y-97320500D01*
X194700000Y-106970500D02*
X194700000Y-110070500D01*
X194700000Y-110070500D02*
X198300000Y-110070500D01*
X198300000Y-110070500D02*
X198300000Y-106970500D01*
X198300000Y-106970500D02*
X194700000Y-106970500D01*
X213712493Y-106970500D02*
X213712493Y-110070500D01*
X217312493Y-106970500D02*
X213712493Y-106970500D01*
X217312493Y-110070500D02*
X217312493Y-106970500D01*
X213712493Y-110070500D02*
X217312493Y-110070500D01*
X99449763Y-126204289D02*
X98139646Y-123394735D01*
X96187055Y-127725715D02*
X99449763Y-126204289D01*
X94876938Y-124916161D02*
X96187055Y-127725715D01*
X98139646Y-123394735D02*
X94876938Y-124916161D01*
X136230437Y-116364030D02*
X139816738Y-116050270D01*
X139816738Y-116050270D02*
X139546555Y-112962066D01*
X135960254Y-113275827D02*
X136230437Y-116364030D01*
X139546555Y-112962066D02*
X135960254Y-113275827D01*
X159700000Y-115310500D02*
X159700000Y-112210500D01*
X156100000Y-115310500D02*
X159700000Y-115310500D01*
X156100000Y-112210500D02*
X156100000Y-115310500D01*
X159700000Y-112210500D02*
X156100000Y-112210500D01*
X175100000Y-112220500D02*
X175100000Y-115320500D01*
X175100000Y-115320500D02*
X178700000Y-115320500D01*
X178700000Y-112220500D02*
X175100000Y-112220500D01*
X178700000Y-115320500D02*
X178700000Y-112220500D01*
X119178015Y-119328800D02*
X118375676Y-116334430D01*
X115700682Y-120260549D02*
X119178015Y-119328800D01*
X118375676Y-116334430D02*
X114898343Y-117266179D01*
X114898343Y-117266179D02*
X115700682Y-120260549D01*
X213700000Y-56070500D02*
X217300000Y-56070500D01*
X217300000Y-56070500D02*
X217300000Y-52970500D01*
X217300000Y-52970500D02*
X213700000Y-52970500D01*
X213700000Y-52970500D02*
X213700000Y-56070500D01*
M02*
