%FSLAX45Y45*%
G04 Gerber Fmt 4.5, Leading zero omitted, Abs format (unit mm)*
G04 Created by KiCad (PCBNEW 6.0.2+dfsg-1) date 2022-08-27 13:38:32*
%MOMM*%
%LPD*%
G01*
G04 APERTURE LIST*
%TA.AperFunction,Profile*%
%ADD10C,0.100000*%
%TD*%
%ADD11C,0.200000*%
%ADD12C,0.085000*%
%ADD13C,0.100000*%
%ADD14C,0.120000*%
%ADD15C,0.180000*%
%ADD16C,0.300000*%
%ADD17C,0.340000*%
G04 APERTURE END LIST*
D10*
X9745000Y-14265000D02*
X10385000Y-13960000D01*
X18055000Y-12910000D02*
G75*
G03*
X22269607Y-12343529I-667818J20930457D01*
G01*
X16800000Y-3095000D02*
G75*
G03*
X15410000Y-3055000I-993491J-10352566D01*
G01*
X9150000Y-14065000D02*
G75*
G03*
X9745000Y-14265000I394174J187604D01*
G01*
X22320000Y-4860000D02*
G75*
G03*
X16800000Y-3095000I-7321029J-13382020D01*
G01*
X15410000Y-3055000D02*
G75*
G03*
X8910000Y-4175000I1452346J-27850401D01*
G01*
X8685000Y-13020000D02*
X9150000Y-14065000D01*
X14845000Y-12935000D02*
X18055000Y-12910000D01*
X22269607Y-12343529D02*
G75*
G03*
X22575000Y-11960000I-66506J366309D01*
G01*
X22573223Y-5265000D02*
G75*
G03*
X22320000Y-4860000I-455442J-3099D01*
G01*
X8495000Y-4750000D02*
X8495000Y-12055000D01*
X8910000Y-4175000D02*
G75*
G03*
X8495000Y-4750000I216806J-593738D01*
G01*
X8495000Y-12055000D02*
G75*
G03*
X8685000Y-13020000I2649531J20465D01*
G01*
X22573223Y-5265000D02*
X22575000Y-11960000D01*
X14845000Y-12935000D02*
G75*
G03*
X10385000Y-13960000I222671J-11184608D01*
G01*
D11*
D12*
X8640000Y-9752500D02*
X8725000Y-9837500D01*
X8725000Y-9752500D02*
X8640000Y-9837500D01*
X8640000Y-10052500D02*
X8725000Y-10137500D01*
X8725000Y-10052500D02*
X8640000Y-10137500D01*
D13*
X9314331Y-12821854D02*
G75*
G03*
X9314331Y-12821854I-50000J0D01*
G01*
X10260516Y-12380640D02*
G75*
G03*
X10260516Y-12380640I-50000J0D01*
G01*
X11262520Y-12013052D02*
G75*
G03*
X11262520Y-12013052I-50000J0D01*
G01*
X11578000Y-4381950D02*
G75*
G03*
X11578000Y-4381950I-50000J0D01*
G01*
X11578000Y-6181950D02*
G75*
G03*
X11578000Y-6181950I-50000J0D01*
G01*
X11578000Y-7981950D02*
G75*
G03*
X11578000Y-7981950I-50000J0D01*
G01*
X11578000Y-9781950D02*
G75*
G03*
X11578000Y-9781950I-50000J0D01*
G01*
X12270946Y-11742845D02*
G75*
G03*
X12270946Y-11742845I-50000J0D01*
G01*
X12622000Y-4381950D02*
G75*
G03*
X12622000Y-4381950I-50000J0D01*
G01*
X12622000Y-6181950D02*
G75*
G03*
X12622000Y-6181950I-50000J0D01*
G01*
X12622000Y-7981950D02*
G75*
G03*
X12622000Y-7981950I-50000J0D01*
G01*
X12622000Y-9781950D02*
G75*
G03*
X12622000Y-9781950I-50000J0D01*
G01*
X13323185Y-11561510D02*
G75*
G03*
X13323185Y-11561510I-50000J0D01*
G01*
X13478000Y-4156950D02*
G75*
G03*
X13478000Y-4156950I-50000J0D01*
G01*
X13478000Y-5956950D02*
G75*
G03*
X13478000Y-5956950I-50000J0D01*
G01*
X13478000Y-7756950D02*
G75*
G03*
X13478000Y-7756950I-50000J0D01*
G01*
X13478000Y-9556950D02*
G75*
G03*
X13478000Y-9556950I-50000J0D01*
G01*
X14363212Y-11470520D02*
G75*
G03*
X14363212Y-11470520I-50000J0D01*
G01*
X14522000Y-4156950D02*
G75*
G03*
X14522000Y-4156950I-50000J0D01*
G01*
X14522000Y-5956950D02*
G75*
G03*
X14522000Y-5956950I-50000J0D01*
G01*
X14522000Y-7756950D02*
G75*
G03*
X14522000Y-7756950I-50000J0D01*
G01*
X14522000Y-9556950D02*
G75*
G03*
X14522000Y-9556950I-50000J0D01*
G01*
X15318000Y-11425950D02*
G75*
G03*
X15318000Y-11425950I-50000J0D01*
G01*
X15378000Y-3575000D02*
G75*
G03*
X15378000Y-3575000I-50000J0D01*
G01*
X15378000Y-5374000D02*
G75*
G03*
X15378000Y-5374000I-50000J0D01*
G01*
X15378000Y-7174000D02*
G75*
G03*
X15378000Y-7174000I-50000J0D01*
G01*
X15378000Y-8974000D02*
G75*
G03*
X15378000Y-8974000I-50000J0D01*
G01*
X16362000Y-11425950D02*
G75*
G03*
X16362000Y-11425950I-50000J0D01*
G01*
X16422000Y-3575000D02*
G75*
G03*
X16422000Y-3575000I-50000J0D01*
G01*
X16422000Y-5374000D02*
G75*
G03*
X16422000Y-5374000I-50000J0D01*
G01*
X16422000Y-7174000D02*
G75*
G03*
X16422000Y-7174000I-50000J0D01*
G01*
X16422000Y-8974000D02*
G75*
G03*
X16422000Y-8974000I-50000J0D01*
G01*
X17218000Y-11426950D02*
G75*
G03*
X17218000Y-11426950I-50000J0D01*
G01*
X17278000Y-4226950D02*
G75*
G03*
X17278000Y-4226950I-50000J0D01*
G01*
X17278000Y-6026950D02*
G75*
G03*
X17278000Y-6026950I-50000J0D01*
G01*
X17278000Y-7826950D02*
G75*
G03*
X17278000Y-7826950I-50000J0D01*
G01*
X17278000Y-9626950D02*
G75*
G03*
X17278000Y-9626950I-50000J0D01*
G01*
X18262000Y-11426950D02*
G75*
G03*
X18262000Y-11426950I-50000J0D01*
G01*
X18322000Y-4226950D02*
G75*
G03*
X18322000Y-4226950I-50000J0D01*
G01*
X18322000Y-6026950D02*
G75*
G03*
X18322000Y-6026950I-50000J0D01*
G01*
X18322000Y-7826950D02*
G75*
G03*
X18322000Y-7826950I-50000J0D01*
G01*
X18322000Y-9626950D02*
G75*
G03*
X18322000Y-9626950I-50000J0D01*
G01*
X19178000Y-5501950D02*
G75*
G03*
X19178000Y-5501950I-50000J0D01*
G01*
X19178000Y-7301950D02*
G75*
G03*
X19178000Y-7301950I-50000J0D01*
G01*
X19178000Y-9101950D02*
G75*
G03*
X19178000Y-9101950I-50000J0D01*
G01*
X19178000Y-10901950D02*
G75*
G03*
X19178000Y-10901950I-50000J0D01*
G01*
X20222000Y-5501950D02*
G75*
G03*
X20222000Y-5501950I-50000J0D01*
G01*
X20222000Y-7301950D02*
G75*
G03*
X20222000Y-7301950I-50000J0D01*
G01*
X20222000Y-9101950D02*
G75*
G03*
X20222000Y-9101950I-50000J0D01*
G01*
X20222000Y-10901950D02*
G75*
G03*
X20222000Y-10901950I-50000J0D01*
G01*
X21078000Y-5501950D02*
G75*
G03*
X21078000Y-5501950I-50000J0D01*
G01*
X21078000Y-7301950D02*
G75*
G03*
X21078000Y-7301950I-50000J0D01*
G01*
X21078000Y-9101950D02*
G75*
G03*
X21078000Y-9101950I-50000J0D01*
G01*
X21079249Y-10901950D02*
G75*
G03*
X21079249Y-10901950I-50000J0D01*
G01*
X22122000Y-5501950D02*
G75*
G03*
X22122000Y-5501950I-50000J0D01*
G01*
X22122000Y-7301950D02*
G75*
G03*
X22122000Y-7301950I-50000J0D01*
G01*
X22122000Y-9101950D02*
G75*
G03*
X22122000Y-9101950I-50000J0D01*
G01*
X22123249Y-10901950D02*
G75*
G03*
X22123249Y-10901950I-50000J0D01*
G01*
D14*
X8650000Y-8692500D02*
X8650000Y-8812500D01*
X8590000Y-8752500D02*
X8710000Y-8752500D01*
X8650000Y-8867500D02*
X8650000Y-8987500D01*
X8590000Y-8927500D02*
X8710000Y-8927500D01*
X9350000Y-8692500D02*
X9350000Y-8812500D01*
X9290000Y-8752500D02*
X9410000Y-8752500D01*
X9350000Y-8867500D02*
X9350000Y-8987500D01*
X9290000Y-8927500D02*
X9410000Y-8927500D01*
D15*
X9480094Y-13277977D02*
X9480094Y-13150696D01*
X9352814Y-13150696D01*
X9352814Y-13277977D01*
X9480094Y-13277977D01*
X10477033Y-12813097D02*
X10477033Y-12685816D01*
X10349753Y-12685816D01*
X10349753Y-12813097D01*
X10477033Y-12813097D01*
X11357818Y-12489628D02*
X11357818Y-12362348D01*
X11230538Y-12362348D01*
X11230538Y-12489628D01*
X11357818Y-12489628D01*
X11563640Y-4865590D02*
X11563640Y-4738310D01*
X11436360Y-4738310D01*
X11436360Y-4865590D01*
X11563640Y-4865590D01*
X11563640Y-6665590D02*
X11563640Y-6538310D01*
X11436360Y-6538310D01*
X11436360Y-6665590D01*
X11563640Y-6665590D01*
X11563640Y-8465590D02*
X11563640Y-8338310D01*
X11436360Y-8338310D01*
X11436360Y-8465590D01*
X11563640Y-8465590D01*
X11563640Y-10265590D02*
X11563640Y-10138310D01*
X11436360Y-10138310D01*
X11436360Y-10265590D01*
X11563640Y-10265590D01*
X12420336Y-12204927D02*
X12420336Y-12077647D01*
X12293056Y-12077647D01*
X12293056Y-12204927D01*
X12420336Y-12204927D01*
X12663640Y-4865590D02*
X12663640Y-4738310D01*
X12536360Y-4738310D01*
X12536360Y-4865590D01*
X12663640Y-4865590D01*
X12663640Y-6665590D02*
X12663640Y-6538310D01*
X12536360Y-6538310D01*
X12536360Y-6665590D01*
X12663640Y-6665590D01*
X12663640Y-8465590D02*
X12663640Y-8338310D01*
X12536360Y-8338310D01*
X12536360Y-8465590D01*
X12663640Y-8465590D01*
X12663640Y-10265590D02*
X12663640Y-10138310D01*
X12536360Y-10138310D01*
X12536360Y-10265590D01*
X12663640Y-10265590D01*
X13345537Y-12045993D02*
X13345537Y-11918712D01*
X13218257Y-11918712D01*
X13218257Y-12045993D01*
X13345537Y-12045993D01*
X13463640Y-4640590D02*
X13463640Y-4513310D01*
X13336360Y-4513310D01*
X13336360Y-4640590D01*
X13463640Y-4640590D01*
X13463640Y-6440590D02*
X13463640Y-6313310D01*
X13336360Y-6313310D01*
X13336360Y-6440590D01*
X13463640Y-6440590D01*
X13463640Y-8240590D02*
X13463640Y-8113310D01*
X13336360Y-8113310D01*
X13336360Y-8240590D01*
X13463640Y-8240590D01*
X13463640Y-10040590D02*
X13463640Y-9913310D01*
X13336360Y-9913310D01*
X13336360Y-10040590D01*
X13463640Y-10040590D01*
X14441351Y-11950121D02*
X14441351Y-11822841D01*
X14314071Y-11822841D01*
X14314071Y-11950121D01*
X14441351Y-11950121D01*
X14563640Y-4640590D02*
X14563640Y-4513310D01*
X14436360Y-4513310D01*
X14436360Y-4640590D01*
X14563640Y-4640590D01*
X14563640Y-6440590D02*
X14563640Y-6313310D01*
X14436360Y-6313310D01*
X14436360Y-6440590D01*
X14563640Y-6440590D01*
X14563640Y-8240590D02*
X14563640Y-8113310D01*
X14436360Y-8113310D01*
X14436360Y-8240590D01*
X14563640Y-8240590D01*
X14563640Y-10040590D02*
X14563640Y-9913310D01*
X14436360Y-9913310D01*
X14436360Y-10040590D01*
X14563640Y-10040590D01*
X15303640Y-11909590D02*
X15303640Y-11782310D01*
X15176360Y-11782310D01*
X15176360Y-11909590D01*
X15303640Y-11909590D01*
X15363640Y-4058640D02*
X15363640Y-3931360D01*
X15236360Y-3931360D01*
X15236360Y-4058640D01*
X15363640Y-4058640D01*
X15363640Y-5857640D02*
X15363640Y-5730360D01*
X15236360Y-5730360D01*
X15236360Y-5857640D01*
X15363640Y-5857640D01*
X15363640Y-7657640D02*
X15363640Y-7530360D01*
X15236360Y-7530360D01*
X15236360Y-7657640D01*
X15363640Y-7657640D01*
X15363640Y-9457640D02*
X15363640Y-9330360D01*
X15236360Y-9330360D01*
X15236360Y-9457640D01*
X15363640Y-9457640D01*
X16403640Y-11909590D02*
X16403640Y-11782310D01*
X16276360Y-11782310D01*
X16276360Y-11909590D01*
X16403640Y-11909590D01*
X16463640Y-4058640D02*
X16463640Y-3931360D01*
X16336360Y-3931360D01*
X16336360Y-4058640D01*
X16463640Y-4058640D01*
X16463640Y-5857640D02*
X16463640Y-5730360D01*
X16336360Y-5730360D01*
X16336360Y-5857640D01*
X16463640Y-5857640D01*
X16463640Y-7657640D02*
X16463640Y-7530360D01*
X16336360Y-7530360D01*
X16336360Y-7657640D01*
X16463640Y-7657640D01*
X16463640Y-9457640D02*
X16463640Y-9330360D01*
X16336360Y-9330360D01*
X16336360Y-9457640D01*
X16463640Y-9457640D01*
X17203640Y-11910590D02*
X17203640Y-11783310D01*
X17076360Y-11783310D01*
X17076360Y-11910590D01*
X17203640Y-11910590D01*
X17263640Y-4710590D02*
X17263640Y-4583310D01*
X17136360Y-4583310D01*
X17136360Y-4710590D01*
X17263640Y-4710590D01*
X17263640Y-6510590D02*
X17263640Y-6383310D01*
X17136360Y-6383310D01*
X17136360Y-6510590D01*
X17263640Y-6510590D01*
X17263640Y-8310590D02*
X17263640Y-8183310D01*
X17136360Y-8183310D01*
X17136360Y-8310590D01*
X17263640Y-8310590D01*
X17263640Y-10110590D02*
X17263640Y-9983310D01*
X17136360Y-9983310D01*
X17136360Y-10110590D01*
X17263640Y-10110590D01*
X18303640Y-11910590D02*
X18303640Y-11783310D01*
X18176360Y-11783310D01*
X18176360Y-11910590D01*
X18303640Y-11910590D01*
X18363640Y-4710590D02*
X18363640Y-4583310D01*
X18236360Y-4583310D01*
X18236360Y-4710590D01*
X18363640Y-4710590D01*
X18363640Y-6510590D02*
X18363640Y-6383310D01*
X18236360Y-6383310D01*
X18236360Y-6510590D01*
X18363640Y-6510590D01*
X18363640Y-8310590D02*
X18363640Y-8183310D01*
X18236360Y-8183310D01*
X18236360Y-8310590D01*
X18363640Y-8310590D01*
X18363640Y-10110590D02*
X18363640Y-9983310D01*
X18236360Y-9983310D01*
X18236360Y-10110590D01*
X18363640Y-10110590D01*
X19163640Y-5985590D02*
X19163640Y-5858310D01*
X19036360Y-5858310D01*
X19036360Y-5985590D01*
X19163640Y-5985590D01*
X19163640Y-7785590D02*
X19163640Y-7658310D01*
X19036360Y-7658310D01*
X19036360Y-7785590D01*
X19163640Y-7785590D01*
X19163640Y-9585590D02*
X19163640Y-9458310D01*
X19036360Y-9458310D01*
X19036360Y-9585590D01*
X19163640Y-9585590D01*
X19163640Y-11385590D02*
X19163640Y-11258310D01*
X19036360Y-11258310D01*
X19036360Y-11385590D01*
X19163640Y-11385590D01*
X20263640Y-5985590D02*
X20263640Y-5858310D01*
X20136360Y-5858310D01*
X20136360Y-5985590D01*
X20263640Y-5985590D01*
X20263640Y-7785590D02*
X20263640Y-7658310D01*
X20136360Y-7658310D01*
X20136360Y-7785590D01*
X20263640Y-7785590D01*
X20263640Y-9585590D02*
X20263640Y-9458310D01*
X20136360Y-9458310D01*
X20136360Y-9585590D01*
X20263640Y-9585590D01*
X20263640Y-11385590D02*
X20263640Y-11258310D01*
X20136360Y-11258310D01*
X20136360Y-11385590D01*
X20263640Y-11385590D01*
X21063640Y-5985590D02*
X21063640Y-5858310D01*
X20936360Y-5858310D01*
X20936360Y-5985590D01*
X21063640Y-5985590D01*
X21063640Y-7785590D02*
X21063640Y-7658310D01*
X20936360Y-7658310D01*
X20936360Y-7785590D01*
X21063640Y-7785590D01*
X21063640Y-9585590D02*
X21063640Y-9458310D01*
X20936360Y-9458310D01*
X20936360Y-9585590D01*
X21063640Y-9585590D01*
X21064890Y-11385590D02*
X21064890Y-11258310D01*
X20937609Y-11258310D01*
X20937609Y-11385590D01*
X21064890Y-11385590D01*
X22163640Y-5985590D02*
X22163640Y-5858310D01*
X22036360Y-5858310D01*
X22036360Y-5985590D01*
X22163640Y-5985590D01*
X22163640Y-7785590D02*
X22163640Y-7658310D01*
X22036360Y-7658310D01*
X22036360Y-7785590D01*
X22163640Y-7785590D01*
X22163640Y-9585590D02*
X22163640Y-9458310D01*
X22036360Y-9458310D01*
X22036360Y-9585590D01*
X22163640Y-9585590D01*
X22164890Y-11385590D02*
X22164890Y-11258310D01*
X22037609Y-11258310D01*
X22037609Y-11385590D01*
X22164890Y-11385590D01*
D16*
X9618138Y-13678539D02*
X9768138Y-13528539D01*
X9618138Y-13378539D01*
X9468138Y-13528539D01*
X9618138Y-13678539D01*
X10164268Y-13666618D02*
X10314268Y-13516618D01*
X10164268Y-13366618D01*
X10014268Y-13516618D01*
X10164268Y-13666618D01*
X10524446Y-13255921D02*
X10674446Y-13105921D01*
X10524446Y-12955921D01*
X10374446Y-13105921D01*
X10524446Y-13255921D01*
X11438237Y-12920440D02*
X11588237Y-12770440D01*
X11438237Y-12620440D01*
X11288237Y-12770440D01*
X11438237Y-12920440D01*
X11550000Y-5321950D02*
X11700000Y-5171950D01*
X11550000Y-5021950D01*
X11400000Y-5171950D01*
X11550000Y-5321950D01*
X11550000Y-7121950D02*
X11700000Y-6971950D01*
X11550000Y-6821950D01*
X11400000Y-6971950D01*
X11550000Y-7121950D01*
X11550000Y-8921950D02*
X11700000Y-8771950D01*
X11550000Y-8621950D01*
X11400000Y-8771950D01*
X11550000Y-8921950D01*
X11550000Y-10721950D02*
X11700000Y-10571950D01*
X11550000Y-10421950D01*
X11400000Y-10571950D01*
X11550000Y-10721950D01*
X11978140Y-13003534D02*
X12128140Y-12853534D01*
X11978140Y-12703534D01*
X11828140Y-12853534D01*
X11978140Y-13003534D01*
X12050000Y-5541950D02*
X12200000Y-5391950D01*
X12050000Y-5241950D01*
X11900000Y-5391950D01*
X12050000Y-5541950D01*
X12050000Y-7341950D02*
X12200000Y-7191950D01*
X12050000Y-7041950D01*
X11900000Y-7191950D01*
X12050000Y-7341950D01*
X12050000Y-9141950D02*
X12200000Y-8991950D01*
X12050000Y-8841950D01*
X11900000Y-8991950D01*
X12050000Y-9141950D01*
X12050000Y-10941950D02*
X12200000Y-10791950D01*
X12050000Y-10641950D01*
X11900000Y-10791950D01*
X12050000Y-10941950D01*
X12404163Y-12661620D02*
X12554163Y-12511620D01*
X12404163Y-12361620D01*
X12254163Y-12511620D01*
X12404163Y-12661620D01*
X12550000Y-5321950D02*
X12700000Y-5171950D01*
X12550000Y-5021950D01*
X12400000Y-5171950D01*
X12550000Y-5321950D01*
X12550000Y-7121950D02*
X12700000Y-6971950D01*
X12550000Y-6821950D01*
X12400000Y-6971950D01*
X12550000Y-7121950D01*
X12550000Y-8921950D02*
X12700000Y-8771950D01*
X12550000Y-8621950D01*
X12400000Y-8771950D01*
X12550000Y-8921950D01*
X12550000Y-10721950D02*
X12700000Y-10571950D01*
X12550000Y-10421950D01*
X12400000Y-10571950D01*
X12550000Y-10721950D01*
X13363954Y-12496587D02*
X13513954Y-12346587D01*
X13363954Y-12196587D01*
X13213954Y-12346587D01*
X13363954Y-12496587D01*
X13450000Y-5096950D02*
X13600000Y-4946950D01*
X13450000Y-4796950D01*
X13300000Y-4946950D01*
X13450000Y-5096950D01*
X13450000Y-6896950D02*
X13600000Y-6746950D01*
X13450000Y-6596950D01*
X13300000Y-6746950D01*
X13450000Y-6896950D01*
X13450000Y-8696950D02*
X13600000Y-8546950D01*
X13450000Y-8396950D01*
X13300000Y-8546950D01*
X13450000Y-8696950D01*
X13450000Y-10496950D02*
X13600000Y-10346950D01*
X13450000Y-10196950D01*
X13300000Y-10346950D01*
X13450000Y-10496950D01*
X13881226Y-12672172D02*
X14031226Y-12522172D01*
X13881226Y-12372172D01*
X13731226Y-12522172D01*
X13881226Y-12672172D01*
X13950000Y-5316950D02*
X14100000Y-5166950D01*
X13950000Y-5016950D01*
X13800000Y-5166950D01*
X13950000Y-5316950D01*
X13950000Y-7116950D02*
X14100000Y-6966950D01*
X13950000Y-6816950D01*
X13800000Y-6966950D01*
X13950000Y-7116950D01*
X13950000Y-8916950D02*
X14100000Y-8766950D01*
X13950000Y-8616950D01*
X13800000Y-8766950D01*
X13950000Y-8916950D01*
X13950000Y-10716950D02*
X14100000Y-10566950D01*
X13950000Y-10416950D01*
X13800000Y-10566950D01*
X13950000Y-10716950D01*
X14360149Y-12409431D02*
X14510149Y-12259431D01*
X14360149Y-12109431D01*
X14210149Y-12259431D01*
X14360149Y-12409431D01*
X14450000Y-5096950D02*
X14600000Y-4946950D01*
X14450000Y-4796950D01*
X14300000Y-4946950D01*
X14450000Y-5096950D01*
X14450000Y-6896950D02*
X14600000Y-6746950D01*
X14450000Y-6596950D01*
X14300000Y-6746950D01*
X14450000Y-6896950D01*
X14450000Y-8696950D02*
X14600000Y-8546950D01*
X14450000Y-8396950D01*
X14300000Y-8546950D01*
X14450000Y-8696950D01*
X14450000Y-10496950D02*
X14600000Y-10346950D01*
X14450000Y-10196950D01*
X14300000Y-10346950D01*
X14450000Y-10496950D01*
X15290000Y-12365950D02*
X15440000Y-12215950D01*
X15290000Y-12065950D01*
X15140000Y-12215950D01*
X15290000Y-12365950D01*
X15350000Y-4515000D02*
X15500000Y-4365000D01*
X15350000Y-4215000D01*
X15200000Y-4365000D01*
X15350000Y-4515000D01*
X15350000Y-6314000D02*
X15500000Y-6164000D01*
X15350000Y-6014000D01*
X15200000Y-6164000D01*
X15350000Y-6314000D01*
X15350000Y-8114000D02*
X15500000Y-7964000D01*
X15350000Y-7814000D01*
X15200000Y-7964000D01*
X15350000Y-8114000D01*
X15350000Y-9914000D02*
X15500000Y-9764000D01*
X15350000Y-9614000D01*
X15200000Y-9764000D01*
X15350000Y-9914000D01*
X15790000Y-12585950D02*
X15940000Y-12435950D01*
X15790000Y-12285950D01*
X15640000Y-12435950D01*
X15790000Y-12585950D01*
X15850000Y-4735000D02*
X16000000Y-4585000D01*
X15850000Y-4435000D01*
X15700000Y-4585000D01*
X15850000Y-4735000D01*
X15850000Y-6534000D02*
X16000000Y-6384000D01*
X15850000Y-6234000D01*
X15700000Y-6384000D01*
X15850000Y-6534000D01*
X15850000Y-8334000D02*
X16000000Y-8184000D01*
X15850000Y-8034000D01*
X15700000Y-8184000D01*
X15850000Y-8334000D01*
X15850000Y-10134000D02*
X16000000Y-9984000D01*
X15850000Y-9834000D01*
X15700000Y-9984000D01*
X15850000Y-10134000D01*
X16290000Y-12365950D02*
X16440000Y-12215950D01*
X16290000Y-12065950D01*
X16140000Y-12215950D01*
X16290000Y-12365950D01*
X16350000Y-4515000D02*
X16500000Y-4365000D01*
X16350000Y-4215000D01*
X16200000Y-4365000D01*
X16350000Y-4515000D01*
X16350000Y-6314000D02*
X16500000Y-6164000D01*
X16350000Y-6014000D01*
X16200000Y-6164000D01*
X16350000Y-6314000D01*
X16350000Y-8114000D02*
X16500000Y-7964000D01*
X16350000Y-7814000D01*
X16200000Y-7964000D01*
X16350000Y-8114000D01*
X16350000Y-9914000D02*
X16500000Y-9764000D01*
X16350000Y-9614000D01*
X16200000Y-9764000D01*
X16350000Y-9914000D01*
X17190000Y-12366950D02*
X17340000Y-12216950D01*
X17190000Y-12066950D01*
X17040000Y-12216950D01*
X17190000Y-12366950D01*
X17250000Y-5166950D02*
X17400000Y-5016950D01*
X17250000Y-4866950D01*
X17100000Y-5016950D01*
X17250000Y-5166950D01*
X17250000Y-6966950D02*
X17400000Y-6816950D01*
X17250000Y-6666950D01*
X17100000Y-6816950D01*
X17250000Y-6966950D01*
X17250000Y-8766950D02*
X17400000Y-8616950D01*
X17250000Y-8466950D01*
X17100000Y-8616950D01*
X17250000Y-8766950D01*
X17250000Y-10566950D02*
X17400000Y-10416950D01*
X17250000Y-10266950D01*
X17100000Y-10416950D01*
X17250000Y-10566950D01*
X17690000Y-12586950D02*
X17840000Y-12436950D01*
X17690000Y-12286950D01*
X17540000Y-12436950D01*
X17690000Y-12586950D01*
X17750000Y-5386950D02*
X17900000Y-5236950D01*
X17750000Y-5086950D01*
X17600000Y-5236950D01*
X17750000Y-5386950D01*
X17750000Y-7186950D02*
X17900000Y-7036950D01*
X17750000Y-6886950D01*
X17600000Y-7036950D01*
X17750000Y-7186950D01*
X17750000Y-8986950D02*
X17900000Y-8836950D01*
X17750000Y-8686950D01*
X17600000Y-8836950D01*
X17750000Y-8986950D01*
X17750000Y-10786950D02*
X17900000Y-10636950D01*
X17750000Y-10486950D01*
X17600000Y-10636950D01*
X17750000Y-10786950D01*
X18190000Y-12366950D02*
X18340000Y-12216950D01*
X18190000Y-12066950D01*
X18040000Y-12216950D01*
X18190000Y-12366950D01*
X18250000Y-5166950D02*
X18400000Y-5016950D01*
X18250000Y-4866950D01*
X18100000Y-5016950D01*
X18250000Y-5166950D01*
X18250000Y-6966950D02*
X18400000Y-6816950D01*
X18250000Y-6666950D01*
X18100000Y-6816950D01*
X18250000Y-6966950D01*
X18250000Y-8766950D02*
X18400000Y-8616950D01*
X18250000Y-8466950D01*
X18100000Y-8616950D01*
X18250000Y-8766950D01*
X18250000Y-10566950D02*
X18400000Y-10416950D01*
X18250000Y-10266950D01*
X18100000Y-10416950D01*
X18250000Y-10566950D01*
X19150000Y-6441950D02*
X19300000Y-6291950D01*
X19150000Y-6141950D01*
X19000000Y-6291950D01*
X19150000Y-6441950D01*
X19150000Y-8241950D02*
X19300000Y-8091950D01*
X19150000Y-7941950D01*
X19000000Y-8091950D01*
X19150000Y-8241950D01*
X19150000Y-10041950D02*
X19300000Y-9891950D01*
X19150000Y-9741950D01*
X19000000Y-9891950D01*
X19150000Y-10041950D01*
X19150000Y-11841950D02*
X19300000Y-11691950D01*
X19150000Y-11541950D01*
X19000000Y-11691950D01*
X19150000Y-11841950D01*
X19650000Y-6661950D02*
X19800000Y-6511950D01*
X19650000Y-6361950D01*
X19500000Y-6511950D01*
X19650000Y-6661950D01*
X19650000Y-8461950D02*
X19800000Y-8311950D01*
X19650000Y-8161950D01*
X19500000Y-8311950D01*
X19650000Y-8461950D01*
X19650000Y-10261950D02*
X19800000Y-10111950D01*
X19650000Y-9961950D01*
X19500000Y-10111950D01*
X19650000Y-10261950D01*
X19650000Y-12061950D02*
X19800000Y-11911950D01*
X19650000Y-11761950D01*
X19500000Y-11911950D01*
X19650000Y-12061950D01*
X20150000Y-6441950D02*
X20300000Y-6291950D01*
X20150000Y-6141950D01*
X20000000Y-6291950D01*
X20150000Y-6441950D01*
X20150000Y-8241950D02*
X20300000Y-8091950D01*
X20150000Y-7941950D01*
X20000000Y-8091950D01*
X20150000Y-8241950D01*
X20150000Y-10041950D02*
X20300000Y-9891950D01*
X20150000Y-9741950D01*
X20000000Y-9891950D01*
X20150000Y-10041950D01*
X20150000Y-11841950D02*
X20300000Y-11691950D01*
X20150000Y-11541950D01*
X20000000Y-11691950D01*
X20150000Y-11841950D01*
X21050000Y-6441950D02*
X21200000Y-6291950D01*
X21050000Y-6141950D01*
X20900000Y-6291950D01*
X21050000Y-6441950D01*
X21050000Y-8241950D02*
X21200000Y-8091950D01*
X21050000Y-7941950D01*
X20900000Y-8091950D01*
X21050000Y-8241950D01*
X21050000Y-10041950D02*
X21200000Y-9891950D01*
X21050000Y-9741950D01*
X20900000Y-9891950D01*
X21050000Y-10041950D01*
X21051249Y-11841950D02*
X21201249Y-11691950D01*
X21051249Y-11541950D01*
X20901249Y-11691950D01*
X21051249Y-11841950D01*
X21550000Y-6661950D02*
X21700000Y-6511950D01*
X21550000Y-6361950D01*
X21400000Y-6511950D01*
X21550000Y-6661950D01*
X21550000Y-8461950D02*
X21700000Y-8311950D01*
X21550000Y-8161950D01*
X21400000Y-8311950D01*
X21550000Y-8461950D01*
X21550000Y-10261950D02*
X21700000Y-10111950D01*
X21550000Y-9961950D01*
X21400000Y-10111950D01*
X21550000Y-10261950D01*
X21551249Y-12061950D02*
X21701249Y-11911950D01*
X21551249Y-11761950D01*
X21401249Y-11911950D01*
X21551249Y-12061950D01*
X22050000Y-6441950D02*
X22200000Y-6291950D01*
X22050000Y-6141950D01*
X21900000Y-6291950D01*
X22050000Y-6441950D01*
X22050000Y-8241950D02*
X22200000Y-8091950D01*
X22050000Y-7941950D01*
X21900000Y-8091950D01*
X22050000Y-8241950D01*
X22050000Y-10041950D02*
X22200000Y-9891950D01*
X22050000Y-9741950D01*
X21900000Y-9891950D01*
X22050000Y-10041950D01*
X22051249Y-11841950D02*
X22201249Y-11691950D01*
X22051249Y-11541950D01*
X21901249Y-11691950D01*
X22051249Y-11841950D01*
D17*
X9744923Y-12811896D02*
X10084923Y-13151896D01*
X10084923Y-12811896D02*
X9744923Y-13151896D01*
X10084923Y-12981896D02*
G75*
G03*
X10084923Y-12981896I-170000J0D01*
G01*
X11655437Y-12113637D02*
X11995437Y-12453637D01*
X11995437Y-12113637D02*
X11655437Y-12453637D01*
X11995437Y-12283637D02*
G75*
G03*
X11995437Y-12283637I-170000J0D01*
G01*
X11880000Y-4631950D02*
X12220000Y-4971950D01*
X12220000Y-4631950D02*
X11880000Y-4971950D01*
X12220000Y-4801950D02*
G75*
G03*
X12220000Y-4801950I-170000J0D01*
G01*
X11880000Y-6431950D02*
X12220000Y-6771950D01*
X12220000Y-6431950D02*
X11880000Y-6771950D01*
X12220000Y-6601950D02*
G75*
G03*
X12220000Y-6601950I-170000J0D01*
G01*
X11880000Y-8231950D02*
X12220000Y-8571950D01*
X12220000Y-8231950D02*
X11880000Y-8571950D01*
X12220000Y-8401950D02*
G75*
G03*
X12220000Y-8401950I-170000J0D01*
G01*
X11880000Y-10031950D02*
X12220000Y-10371950D01*
X12220000Y-10031950D02*
X11880000Y-10371950D01*
X12220000Y-10201950D02*
G75*
G03*
X12220000Y-10201950I-170000J0D01*
G01*
X13659804Y-11764417D02*
X13999804Y-12104417D01*
X13999804Y-11764417D02*
X13659804Y-12104417D01*
X13999804Y-11934417D02*
G75*
G03*
X13999804Y-11934417I-170000J0D01*
G01*
X13780000Y-4406950D02*
X14120000Y-4746950D01*
X14120000Y-4406950D02*
X13780000Y-4746950D01*
X14120000Y-4576950D02*
G75*
G03*
X14120000Y-4576950I-170000J0D01*
G01*
X13780000Y-6206950D02*
X14120000Y-6546950D01*
X14120000Y-6206950D02*
X13780000Y-6546950D01*
X14120000Y-6376950D02*
G75*
G03*
X14120000Y-6376950I-170000J0D01*
G01*
X13780000Y-8006950D02*
X14120000Y-8346950D01*
X14120000Y-8006950D02*
X13780000Y-8346950D01*
X14120000Y-8176950D02*
G75*
G03*
X14120000Y-8176950I-170000J0D01*
G01*
X13780000Y-9806950D02*
X14120000Y-10146950D01*
X14120000Y-9806950D02*
X13780000Y-10146950D01*
X14120000Y-9976950D02*
G75*
G03*
X14120000Y-9976950I-170000J0D01*
G01*
X15620000Y-11675950D02*
X15960000Y-12015950D01*
X15960000Y-11675950D02*
X15620000Y-12015950D01*
X15960000Y-11845950D02*
G75*
G03*
X15960000Y-11845950I-170000J0D01*
G01*
X15680000Y-3825000D02*
X16020000Y-4165000D01*
X16020000Y-3825000D02*
X15680000Y-4165000D01*
X16020000Y-3995000D02*
G75*
G03*
X16020000Y-3995000I-170000J0D01*
G01*
X15680000Y-5624000D02*
X16020000Y-5964000D01*
X16020000Y-5624000D02*
X15680000Y-5964000D01*
X16020000Y-5794000D02*
G75*
G03*
X16020000Y-5794000I-170000J0D01*
G01*
X15680000Y-7424000D02*
X16020000Y-7764000D01*
X16020000Y-7424000D02*
X15680000Y-7764000D01*
X16020000Y-7594000D02*
G75*
G03*
X16020000Y-7594000I-170000J0D01*
G01*
X15680000Y-9224000D02*
X16020000Y-9564000D01*
X16020000Y-9224000D02*
X15680000Y-9564000D01*
X16020000Y-9394000D02*
G75*
G03*
X16020000Y-9394000I-170000J0D01*
G01*
X17520000Y-11676950D02*
X17860000Y-12016950D01*
X17860000Y-11676950D02*
X17520000Y-12016950D01*
X17860000Y-11846950D02*
G75*
G03*
X17860000Y-11846950I-170000J0D01*
G01*
X17580000Y-4476950D02*
X17920000Y-4816950D01*
X17920000Y-4476950D02*
X17580000Y-4816950D01*
X17920000Y-4646950D02*
G75*
G03*
X17920000Y-4646950I-170000J0D01*
G01*
X17580000Y-6276950D02*
X17920000Y-6616950D01*
X17920000Y-6276950D02*
X17580000Y-6616950D01*
X17920000Y-6446950D02*
G75*
G03*
X17920000Y-6446950I-170000J0D01*
G01*
X17580000Y-8076950D02*
X17920000Y-8416950D01*
X17920000Y-8076950D02*
X17580000Y-8416950D01*
X17920000Y-8246950D02*
G75*
G03*
X17920000Y-8246950I-170000J0D01*
G01*
X17580000Y-9876950D02*
X17920000Y-10216950D01*
X17920000Y-9876950D02*
X17580000Y-10216950D01*
X17920000Y-10046950D02*
G75*
G03*
X17920000Y-10046950I-170000J0D01*
G01*
X19480000Y-5751950D02*
X19820000Y-6091950D01*
X19820000Y-5751950D02*
X19480000Y-6091950D01*
X19820000Y-5921950D02*
G75*
G03*
X19820000Y-5921950I-170000J0D01*
G01*
X19480000Y-7551950D02*
X19820000Y-7891950D01*
X19820000Y-7551950D02*
X19480000Y-7891950D01*
X19820000Y-7721950D02*
G75*
G03*
X19820000Y-7721950I-170000J0D01*
G01*
X19480000Y-9351950D02*
X19820000Y-9691950D01*
X19820000Y-9351950D02*
X19480000Y-9691950D01*
X19820000Y-9521950D02*
G75*
G03*
X19820000Y-9521950I-170000J0D01*
G01*
X19480000Y-11151950D02*
X19820000Y-11491950D01*
X19820000Y-11151950D02*
X19480000Y-11491950D01*
X19820000Y-11321950D02*
G75*
G03*
X19820000Y-11321950I-170000J0D01*
G01*
X21380000Y-5751950D02*
X21720000Y-6091950D01*
X21720000Y-5751950D02*
X21380000Y-6091950D01*
X21720000Y-5921950D02*
G75*
G03*
X21720000Y-5921950I-170000J0D01*
G01*
X21380000Y-7551950D02*
X21720000Y-7891950D01*
X21720000Y-7551950D02*
X21380000Y-7891950D01*
X21720000Y-7721950D02*
G75*
G03*
X21720000Y-7721950I-170000J0D01*
G01*
X21380000Y-9351950D02*
X21720000Y-9691950D01*
X21720000Y-9351950D02*
X21380000Y-9691950D01*
X21720000Y-9521950D02*
G75*
G03*
X21720000Y-9521950I-170000J0D01*
G01*
X21381249Y-11151950D02*
X21721249Y-11491950D01*
X21721249Y-11151950D02*
X21381249Y-11491950D01*
X21721249Y-11321950D02*
G75*
G03*
X21721249Y-11321950I-170000J0D01*
G01*
D11*
X8747619Y-14629413D02*
X8747619Y-14429413D01*
X8795238Y-14429413D01*
X8823810Y-14438937D01*
X8842857Y-14457985D01*
X8852381Y-14477032D01*
X8861905Y-14515128D01*
X8861905Y-14543699D01*
X8852381Y-14581794D01*
X8842857Y-14600842D01*
X8823810Y-14619889D01*
X8795238Y-14629413D01*
X8747619Y-14629413D01*
X8947619Y-14629413D02*
X8947619Y-14496080D01*
X8947619Y-14534175D02*
X8957143Y-14515128D01*
X8966667Y-14505604D01*
X8985714Y-14496080D01*
X9004762Y-14496080D01*
X9071429Y-14629413D02*
X9071429Y-14496080D01*
X9071429Y-14429413D02*
X9061905Y-14438937D01*
X9071429Y-14448461D01*
X9080952Y-14438937D01*
X9071429Y-14429413D01*
X9071429Y-14448461D01*
X9195238Y-14629413D02*
X9176190Y-14619889D01*
X9166667Y-14600842D01*
X9166667Y-14429413D01*
X9300000Y-14629413D02*
X9280952Y-14619889D01*
X9271429Y-14600842D01*
X9271429Y-14429413D01*
X9528571Y-14629413D02*
X9528571Y-14429413D01*
X9595238Y-14572270D01*
X9661905Y-14429413D01*
X9661905Y-14629413D01*
X9842857Y-14629413D02*
X9842857Y-14524651D01*
X9833333Y-14505604D01*
X9814286Y-14496080D01*
X9776190Y-14496080D01*
X9757143Y-14505604D01*
X9842857Y-14619889D02*
X9823810Y-14629413D01*
X9776190Y-14629413D01*
X9757143Y-14619889D01*
X9747619Y-14600842D01*
X9747619Y-14581794D01*
X9757143Y-14562747D01*
X9776190Y-14553223D01*
X9823810Y-14553223D01*
X9842857Y-14543699D01*
X9938095Y-14496080D02*
X9938095Y-14696080D01*
X9938095Y-14505604D02*
X9957143Y-14496080D01*
X9995238Y-14496080D01*
X10014286Y-14505604D01*
X10023810Y-14515128D01*
X10033333Y-14534175D01*
X10033333Y-14591318D01*
X10023810Y-14610366D01*
X10014286Y-14619889D01*
X9995238Y-14629413D01*
X9957143Y-14629413D01*
X9938095Y-14619889D01*
X10119048Y-14610366D02*
X10128571Y-14619889D01*
X10119048Y-14629413D01*
X10109524Y-14619889D01*
X10119048Y-14610366D01*
X10119048Y-14629413D01*
X10119048Y-14505604D02*
X10128571Y-14515128D01*
X10119048Y-14524651D01*
X10109524Y-14515128D01*
X10119048Y-14505604D01*
X10119048Y-14524651D01*
D12*
X8405000Y-14916437D02*
X8490000Y-15001437D01*
X8490000Y-14916437D02*
X8405000Y-15001437D01*
D11*
X8785714Y-14849413D02*
X8804762Y-14849413D01*
X8823810Y-14858937D01*
X8833333Y-14868461D01*
X8842857Y-14887509D01*
X8852381Y-14925604D01*
X8852381Y-14973223D01*
X8842857Y-15011318D01*
X8833333Y-15030366D01*
X8823810Y-15039889D01*
X8804762Y-15049413D01*
X8785714Y-15049413D01*
X8766667Y-15039889D01*
X8757143Y-15030366D01*
X8747619Y-15011318D01*
X8738095Y-14973223D01*
X8738095Y-14925604D01*
X8747619Y-14887509D01*
X8757143Y-14868461D01*
X8766667Y-14858937D01*
X8785714Y-14849413D01*
X8938095Y-15030366D02*
X8947619Y-15039889D01*
X8938095Y-15049413D01*
X8928571Y-15039889D01*
X8938095Y-15030366D01*
X8938095Y-15049413D01*
X9061905Y-14935128D02*
X9042857Y-14925604D01*
X9033333Y-14916080D01*
X9023810Y-14897032D01*
X9023810Y-14887509D01*
X9033333Y-14868461D01*
X9042857Y-14858937D01*
X9061905Y-14849413D01*
X9100000Y-14849413D01*
X9119048Y-14858937D01*
X9128571Y-14868461D01*
X9138095Y-14887509D01*
X9138095Y-14897032D01*
X9128571Y-14916080D01*
X9119048Y-14925604D01*
X9100000Y-14935128D01*
X9061905Y-14935128D01*
X9042857Y-14944651D01*
X9033333Y-14954175D01*
X9023810Y-14973223D01*
X9023810Y-15011318D01*
X9033333Y-15030366D01*
X9042857Y-15039889D01*
X9061905Y-15049413D01*
X9100000Y-15049413D01*
X9119048Y-15039889D01*
X9128571Y-15030366D01*
X9138095Y-15011318D01*
X9138095Y-14973223D01*
X9128571Y-14954175D01*
X9119048Y-14944651D01*
X9100000Y-14935128D01*
X9319048Y-14849413D02*
X9223810Y-14849413D01*
X9214286Y-14944651D01*
X9223810Y-14935128D01*
X9242857Y-14925604D01*
X9290476Y-14925604D01*
X9309524Y-14935128D01*
X9319048Y-14944651D01*
X9328571Y-14963699D01*
X9328571Y-15011318D01*
X9319048Y-15030366D01*
X9309524Y-15039889D01*
X9290476Y-15049413D01*
X9242857Y-15049413D01*
X9223810Y-15039889D01*
X9214286Y-15030366D01*
X9452381Y-14849413D02*
X9471429Y-14849413D01*
X9490476Y-14858937D01*
X9500000Y-14868461D01*
X9509524Y-14887509D01*
X9519048Y-14925604D01*
X9519048Y-14973223D01*
X9509524Y-15011318D01*
X9500000Y-15030366D01*
X9490476Y-15039889D01*
X9471429Y-15049413D01*
X9452381Y-15049413D01*
X9433333Y-15039889D01*
X9423810Y-15030366D01*
X9414286Y-15011318D01*
X9404762Y-14973223D01*
X9404762Y-14925604D01*
X9414286Y-14887509D01*
X9423810Y-14868461D01*
X9433333Y-14858937D01*
X9452381Y-14849413D01*
X9604762Y-15049413D02*
X9604762Y-14916080D01*
X9604762Y-14935128D02*
X9614286Y-14925604D01*
X9633333Y-14916080D01*
X9661905Y-14916080D01*
X9680952Y-14925604D01*
X9690476Y-14944651D01*
X9690476Y-15049413D01*
X9690476Y-14944651D02*
X9700000Y-14925604D01*
X9719048Y-14916080D01*
X9747619Y-14916080D01*
X9766667Y-14925604D01*
X9776190Y-14944651D01*
X9776190Y-15049413D01*
X9871429Y-15049413D02*
X9871429Y-14916080D01*
X9871429Y-14935128D02*
X9880952Y-14925604D01*
X9900000Y-14916080D01*
X9928571Y-14916080D01*
X9947619Y-14925604D01*
X9957143Y-14944651D01*
X9957143Y-15049413D01*
X9957143Y-14944651D02*
X9966667Y-14925604D01*
X9985714Y-14916080D01*
X10014286Y-14916080D01*
X10033333Y-14925604D01*
X10042857Y-14944651D01*
X10042857Y-15049413D01*
X10433333Y-14839889D02*
X10261905Y-15097032D01*
X10690476Y-14849413D02*
X10709524Y-14849413D01*
X10728571Y-14858937D01*
X10738095Y-14868461D01*
X10747619Y-14887509D01*
X10757143Y-14925604D01*
X10757143Y-14973223D01*
X10747619Y-15011318D01*
X10738095Y-15030366D01*
X10728571Y-15039889D01*
X10709524Y-15049413D01*
X10690476Y-15049413D01*
X10671429Y-15039889D01*
X10661905Y-15030366D01*
X10652381Y-15011318D01*
X10642857Y-14973223D01*
X10642857Y-14925604D01*
X10652381Y-14887509D01*
X10661905Y-14868461D01*
X10671429Y-14858937D01*
X10690476Y-14849413D01*
X10842857Y-15030366D02*
X10852381Y-15039889D01*
X10842857Y-15049413D01*
X10833333Y-15039889D01*
X10842857Y-15030366D01*
X10842857Y-15049413D01*
X10976190Y-14849413D02*
X10995238Y-14849413D01*
X11014286Y-14858937D01*
X11023810Y-14868461D01*
X11033333Y-14887509D01*
X11042857Y-14925604D01*
X11042857Y-14973223D01*
X11033333Y-15011318D01*
X11023810Y-15030366D01*
X11014286Y-15039889D01*
X10995238Y-15049413D01*
X10976190Y-15049413D01*
X10957143Y-15039889D01*
X10947619Y-15030366D01*
X10938095Y-15011318D01*
X10928571Y-14973223D01*
X10928571Y-14925604D01*
X10938095Y-14887509D01*
X10947619Y-14868461D01*
X10957143Y-14858937D01*
X10976190Y-14849413D01*
X11109524Y-14849413D02*
X11233333Y-14849413D01*
X11166667Y-14925604D01*
X11195238Y-14925604D01*
X11214286Y-14935128D01*
X11223809Y-14944651D01*
X11233333Y-14963699D01*
X11233333Y-15011318D01*
X11223809Y-15030366D01*
X11214286Y-15039889D01*
X11195238Y-15049413D01*
X11138095Y-15049413D01*
X11119048Y-15039889D01*
X11109524Y-15030366D01*
X11300000Y-14849413D02*
X11423809Y-14849413D01*
X11357143Y-14925604D01*
X11385714Y-14925604D01*
X11404762Y-14935128D01*
X11414286Y-14944651D01*
X11423809Y-14963699D01*
X11423809Y-15011318D01*
X11414286Y-15030366D01*
X11404762Y-15039889D01*
X11385714Y-15049413D01*
X11328571Y-15049413D01*
X11309524Y-15039889D01*
X11300000Y-15030366D01*
X11604762Y-14849413D02*
X11509524Y-14849413D01*
X11500000Y-14944651D01*
X11509524Y-14935128D01*
X11528571Y-14925604D01*
X11576190Y-14925604D01*
X11595238Y-14935128D01*
X11604762Y-14944651D01*
X11614286Y-14963699D01*
X11614286Y-15011318D01*
X11604762Y-15030366D01*
X11595238Y-15039889D01*
X11576190Y-15049413D01*
X11528571Y-15049413D01*
X11509524Y-15039889D01*
X11500000Y-15030366D01*
X11690476Y-14849413D02*
X11690476Y-14887509D01*
X11766667Y-14849413D02*
X11766667Y-14887509D01*
X12061905Y-15125604D02*
X12052381Y-15116080D01*
X12033333Y-15087509D01*
X12023809Y-15068461D01*
X12014286Y-15039889D01*
X12004762Y-14992270D01*
X12004762Y-14954175D01*
X12014286Y-14906556D01*
X12023809Y-14877985D01*
X12033333Y-14858937D01*
X12052381Y-14830366D01*
X12061905Y-14820842D01*
X12128571Y-14868461D02*
X12138095Y-14858937D01*
X12157143Y-14849413D01*
X12204762Y-14849413D01*
X12223809Y-14858937D01*
X12233333Y-14868461D01*
X12242857Y-14887509D01*
X12242857Y-14906556D01*
X12233333Y-14935128D01*
X12119048Y-15049413D01*
X12242857Y-15049413D01*
X12480952Y-15049413D02*
X12480952Y-14849413D01*
X12566667Y-15049413D02*
X12566667Y-14944651D01*
X12557143Y-14925604D01*
X12538095Y-14916080D01*
X12509524Y-14916080D01*
X12490476Y-14925604D01*
X12480952Y-14935128D01*
X12690476Y-15049413D02*
X12671428Y-15039889D01*
X12661905Y-15030366D01*
X12652381Y-15011318D01*
X12652381Y-14954175D01*
X12661905Y-14935128D01*
X12671428Y-14925604D01*
X12690476Y-14916080D01*
X12719048Y-14916080D01*
X12738095Y-14925604D01*
X12747619Y-14935128D01*
X12757143Y-14954175D01*
X12757143Y-15011318D01*
X12747619Y-15030366D01*
X12738095Y-15039889D01*
X12719048Y-15049413D01*
X12690476Y-15049413D01*
X12871428Y-15049413D02*
X12852381Y-15039889D01*
X12842857Y-15020842D01*
X12842857Y-14849413D01*
X13023809Y-15039889D02*
X13004762Y-15049413D01*
X12966667Y-15049413D01*
X12947619Y-15039889D01*
X12938095Y-15020842D01*
X12938095Y-14944651D01*
X12947619Y-14925604D01*
X12966667Y-14916080D01*
X13004762Y-14916080D01*
X13023809Y-14925604D01*
X13033333Y-14944651D01*
X13033333Y-14963699D01*
X12938095Y-14982747D01*
X13109524Y-15039889D02*
X13128571Y-15049413D01*
X13166667Y-15049413D01*
X13185714Y-15039889D01*
X13195238Y-15020842D01*
X13195238Y-15011318D01*
X13185714Y-14992270D01*
X13166667Y-14982747D01*
X13138095Y-14982747D01*
X13119048Y-14973223D01*
X13109524Y-14954175D01*
X13109524Y-14944651D01*
X13119048Y-14925604D01*
X13138095Y-14916080D01*
X13166667Y-14916080D01*
X13185714Y-14925604D01*
X13261905Y-15125604D02*
X13271428Y-15116080D01*
X13290476Y-15087509D01*
X13300000Y-15068461D01*
X13309524Y-15039889D01*
X13319048Y-14992270D01*
X13319048Y-14954175D01*
X13309524Y-14906556D01*
X13300000Y-14877985D01*
X13290476Y-14858937D01*
X13271428Y-14830366D01*
X13261905Y-14820842D01*
X13623809Y-15125604D02*
X13614286Y-15116080D01*
X13595238Y-15087509D01*
X13585714Y-15068461D01*
X13576190Y-15039889D01*
X13566667Y-14992270D01*
X13566667Y-14954175D01*
X13576190Y-14906556D01*
X13585714Y-14877985D01*
X13595238Y-14858937D01*
X13614286Y-14830366D01*
X13623809Y-14820842D01*
X13700000Y-14916080D02*
X13700000Y-15049413D01*
X13700000Y-14935128D02*
X13709524Y-14925604D01*
X13728571Y-14916080D01*
X13757143Y-14916080D01*
X13776190Y-14925604D01*
X13785714Y-14944651D01*
X13785714Y-15049413D01*
X13909524Y-15049413D02*
X13890476Y-15039889D01*
X13880952Y-15030366D01*
X13871428Y-15011318D01*
X13871428Y-14954175D01*
X13880952Y-14935128D01*
X13890476Y-14925604D01*
X13909524Y-14916080D01*
X13938095Y-14916080D01*
X13957143Y-14925604D01*
X13966667Y-14935128D01*
X13976190Y-14954175D01*
X13976190Y-15011318D01*
X13966667Y-15030366D01*
X13957143Y-15039889D01*
X13938095Y-15049413D01*
X13909524Y-15049413D01*
X14033333Y-14916080D02*
X14109524Y-14916080D01*
X14061905Y-14849413D02*
X14061905Y-15020842D01*
X14071428Y-15039889D01*
X14090476Y-15049413D01*
X14109524Y-15049413D01*
X14328571Y-14916080D02*
X14328571Y-15116080D01*
X14328571Y-14925604D02*
X14347619Y-14916080D01*
X14385714Y-14916080D01*
X14404762Y-14925604D01*
X14414286Y-14935128D01*
X14423809Y-14954175D01*
X14423809Y-15011318D01*
X14414286Y-15030366D01*
X14404762Y-15039889D01*
X14385714Y-15049413D01*
X14347619Y-15049413D01*
X14328571Y-15039889D01*
X14538095Y-15049413D02*
X14519048Y-15039889D01*
X14509524Y-15020842D01*
X14509524Y-14849413D01*
X14700000Y-15049413D02*
X14700000Y-14944651D01*
X14690476Y-14925604D01*
X14671428Y-14916080D01*
X14633333Y-14916080D01*
X14614286Y-14925604D01*
X14700000Y-15039889D02*
X14680952Y-15049413D01*
X14633333Y-15049413D01*
X14614286Y-15039889D01*
X14604762Y-15020842D01*
X14604762Y-15001794D01*
X14614286Y-14982747D01*
X14633333Y-14973223D01*
X14680952Y-14973223D01*
X14700000Y-14963699D01*
X14766667Y-14916080D02*
X14842857Y-14916080D01*
X14795238Y-14849413D02*
X14795238Y-15020842D01*
X14804762Y-15039889D01*
X14823809Y-15049413D01*
X14842857Y-15049413D01*
X14985714Y-15039889D02*
X14966667Y-15049413D01*
X14928571Y-15049413D01*
X14909524Y-15039889D01*
X14900000Y-15020842D01*
X14900000Y-14944651D01*
X14909524Y-14925604D01*
X14928571Y-14916080D01*
X14966667Y-14916080D01*
X14985714Y-14925604D01*
X14995238Y-14944651D01*
X14995238Y-14963699D01*
X14900000Y-14982747D01*
X15166667Y-15049413D02*
X15166667Y-14849413D01*
X15166667Y-15039889D02*
X15147619Y-15049413D01*
X15109524Y-15049413D01*
X15090476Y-15039889D01*
X15080952Y-15030366D01*
X15071428Y-15011318D01*
X15071428Y-14954175D01*
X15080952Y-14935128D01*
X15090476Y-14925604D01*
X15109524Y-14916080D01*
X15147619Y-14916080D01*
X15166667Y-14925604D01*
X15242857Y-15125604D02*
X15252381Y-15116080D01*
X15271428Y-15087509D01*
X15280952Y-15068461D01*
X15290476Y-15039889D01*
X15300000Y-14992270D01*
X15300000Y-14954175D01*
X15290476Y-14906556D01*
X15280952Y-14877985D01*
X15271428Y-14858937D01*
X15252381Y-14830366D01*
X15242857Y-14820842D01*
D13*
X8490000Y-15222937D02*
G75*
G03*
X8490000Y-15222937I-50000J0D01*
G01*
D11*
X8852381Y-15313413D02*
X8738095Y-15313413D01*
X8795238Y-15313413D02*
X8795238Y-15113413D01*
X8776190Y-15141985D01*
X8757143Y-15161032D01*
X8738095Y-15170556D01*
X8938095Y-15294366D02*
X8947619Y-15303889D01*
X8938095Y-15313413D01*
X8928571Y-15303889D01*
X8938095Y-15294366D01*
X8938095Y-15313413D01*
X9071429Y-15113413D02*
X9090476Y-15113413D01*
X9109524Y-15122937D01*
X9119048Y-15132461D01*
X9128571Y-15151509D01*
X9138095Y-15189604D01*
X9138095Y-15237223D01*
X9128571Y-15275318D01*
X9119048Y-15294366D01*
X9109524Y-15303889D01*
X9090476Y-15313413D01*
X9071429Y-15313413D01*
X9052381Y-15303889D01*
X9042857Y-15294366D01*
X9033333Y-15275318D01*
X9023810Y-15237223D01*
X9023810Y-15189604D01*
X9033333Y-15151509D01*
X9042857Y-15132461D01*
X9052381Y-15122937D01*
X9071429Y-15113413D01*
X9261905Y-15113413D02*
X9280952Y-15113413D01*
X9300000Y-15122937D01*
X9309524Y-15132461D01*
X9319048Y-15151509D01*
X9328571Y-15189604D01*
X9328571Y-15237223D01*
X9319048Y-15275318D01*
X9309524Y-15294366D01*
X9300000Y-15303889D01*
X9280952Y-15313413D01*
X9261905Y-15313413D01*
X9242857Y-15303889D01*
X9233333Y-15294366D01*
X9223810Y-15275318D01*
X9214286Y-15237223D01*
X9214286Y-15189604D01*
X9223810Y-15151509D01*
X9233333Y-15132461D01*
X9242857Y-15122937D01*
X9261905Y-15113413D01*
X9452381Y-15113413D02*
X9471429Y-15113413D01*
X9490476Y-15122937D01*
X9500000Y-15132461D01*
X9509524Y-15151509D01*
X9519048Y-15189604D01*
X9519048Y-15237223D01*
X9509524Y-15275318D01*
X9500000Y-15294366D01*
X9490476Y-15303889D01*
X9471429Y-15313413D01*
X9452381Y-15313413D01*
X9433333Y-15303889D01*
X9423810Y-15294366D01*
X9414286Y-15275318D01*
X9404762Y-15237223D01*
X9404762Y-15189604D01*
X9414286Y-15151509D01*
X9423810Y-15132461D01*
X9433333Y-15122937D01*
X9452381Y-15113413D01*
X9604762Y-15313413D02*
X9604762Y-15180080D01*
X9604762Y-15199128D02*
X9614286Y-15189604D01*
X9633333Y-15180080D01*
X9661905Y-15180080D01*
X9680952Y-15189604D01*
X9690476Y-15208651D01*
X9690476Y-15313413D01*
X9690476Y-15208651D02*
X9700000Y-15189604D01*
X9719048Y-15180080D01*
X9747619Y-15180080D01*
X9766667Y-15189604D01*
X9776190Y-15208651D01*
X9776190Y-15313413D01*
X9871429Y-15313413D02*
X9871429Y-15180080D01*
X9871429Y-15199128D02*
X9880952Y-15189604D01*
X9900000Y-15180080D01*
X9928571Y-15180080D01*
X9947619Y-15189604D01*
X9957143Y-15208651D01*
X9957143Y-15313413D01*
X9957143Y-15208651D02*
X9966667Y-15189604D01*
X9985714Y-15180080D01*
X10014286Y-15180080D01*
X10033333Y-15189604D01*
X10042857Y-15208651D01*
X10042857Y-15313413D01*
X10433333Y-15103889D02*
X10261905Y-15361032D01*
X10690476Y-15113413D02*
X10709524Y-15113413D01*
X10728571Y-15122937D01*
X10738095Y-15132461D01*
X10747619Y-15151509D01*
X10757143Y-15189604D01*
X10757143Y-15237223D01*
X10747619Y-15275318D01*
X10738095Y-15294366D01*
X10728571Y-15303889D01*
X10709524Y-15313413D01*
X10690476Y-15313413D01*
X10671429Y-15303889D01*
X10661905Y-15294366D01*
X10652381Y-15275318D01*
X10642857Y-15237223D01*
X10642857Y-15189604D01*
X10652381Y-15151509D01*
X10661905Y-15132461D01*
X10671429Y-15122937D01*
X10690476Y-15113413D01*
X10842857Y-15294366D02*
X10852381Y-15303889D01*
X10842857Y-15313413D01*
X10833333Y-15303889D01*
X10842857Y-15294366D01*
X10842857Y-15313413D01*
X10976190Y-15113413D02*
X10995238Y-15113413D01*
X11014286Y-15122937D01*
X11023810Y-15132461D01*
X11033333Y-15151509D01*
X11042857Y-15189604D01*
X11042857Y-15237223D01*
X11033333Y-15275318D01*
X11023810Y-15294366D01*
X11014286Y-15303889D01*
X10995238Y-15313413D01*
X10976190Y-15313413D01*
X10957143Y-15303889D01*
X10947619Y-15294366D01*
X10938095Y-15275318D01*
X10928571Y-15237223D01*
X10928571Y-15189604D01*
X10938095Y-15151509D01*
X10947619Y-15132461D01*
X10957143Y-15122937D01*
X10976190Y-15113413D01*
X11109524Y-15113413D02*
X11233333Y-15113413D01*
X11166667Y-15189604D01*
X11195238Y-15189604D01*
X11214286Y-15199128D01*
X11223809Y-15208651D01*
X11233333Y-15227699D01*
X11233333Y-15275318D01*
X11223809Y-15294366D01*
X11214286Y-15303889D01*
X11195238Y-15313413D01*
X11138095Y-15313413D01*
X11119048Y-15303889D01*
X11109524Y-15294366D01*
X11328571Y-15313413D02*
X11366667Y-15313413D01*
X11385714Y-15303889D01*
X11395238Y-15294366D01*
X11414286Y-15265794D01*
X11423809Y-15227699D01*
X11423809Y-15151509D01*
X11414286Y-15132461D01*
X11404762Y-15122937D01*
X11385714Y-15113413D01*
X11347619Y-15113413D01*
X11328571Y-15122937D01*
X11319048Y-15132461D01*
X11309524Y-15151509D01*
X11309524Y-15199128D01*
X11319048Y-15218175D01*
X11328571Y-15227699D01*
X11347619Y-15237223D01*
X11385714Y-15237223D01*
X11404762Y-15227699D01*
X11414286Y-15218175D01*
X11423809Y-15199128D01*
X11595238Y-15180080D02*
X11595238Y-15313413D01*
X11547619Y-15103889D02*
X11500000Y-15246747D01*
X11623809Y-15246747D01*
X11690476Y-15113413D02*
X11690476Y-15151509D01*
X11766667Y-15113413D02*
X11766667Y-15151509D01*
X12061905Y-15389604D02*
X12052381Y-15380080D01*
X12033333Y-15351509D01*
X12023809Y-15332461D01*
X12014286Y-15303889D01*
X12004762Y-15256270D01*
X12004762Y-15218175D01*
X12014286Y-15170556D01*
X12023809Y-15141985D01*
X12033333Y-15122937D01*
X12052381Y-15094366D01*
X12061905Y-15084842D01*
X12233333Y-15113413D02*
X12138095Y-15113413D01*
X12128571Y-15208651D01*
X12138095Y-15199128D01*
X12157143Y-15189604D01*
X12204762Y-15189604D01*
X12223809Y-15199128D01*
X12233333Y-15208651D01*
X12242857Y-15227699D01*
X12242857Y-15275318D01*
X12233333Y-15294366D01*
X12223809Y-15303889D01*
X12204762Y-15313413D01*
X12157143Y-15313413D01*
X12138095Y-15303889D01*
X12128571Y-15294366D01*
X12357143Y-15199128D02*
X12338095Y-15189604D01*
X12328571Y-15180080D01*
X12319048Y-15161032D01*
X12319048Y-15151509D01*
X12328571Y-15132461D01*
X12338095Y-15122937D01*
X12357143Y-15113413D01*
X12395238Y-15113413D01*
X12414286Y-15122937D01*
X12423809Y-15132461D01*
X12433333Y-15151509D01*
X12433333Y-15161032D01*
X12423809Y-15180080D01*
X12414286Y-15189604D01*
X12395238Y-15199128D01*
X12357143Y-15199128D01*
X12338095Y-15208651D01*
X12328571Y-15218175D01*
X12319048Y-15237223D01*
X12319048Y-15275318D01*
X12328571Y-15294366D01*
X12338095Y-15303889D01*
X12357143Y-15313413D01*
X12395238Y-15313413D01*
X12414286Y-15303889D01*
X12423809Y-15294366D01*
X12433333Y-15275318D01*
X12433333Y-15237223D01*
X12423809Y-15218175D01*
X12414286Y-15208651D01*
X12395238Y-15199128D01*
X12671428Y-15313413D02*
X12671428Y-15113413D01*
X12757143Y-15313413D02*
X12757143Y-15208651D01*
X12747619Y-15189604D01*
X12728571Y-15180080D01*
X12700000Y-15180080D01*
X12680952Y-15189604D01*
X12671428Y-15199128D01*
X12880952Y-15313413D02*
X12861905Y-15303889D01*
X12852381Y-15294366D01*
X12842857Y-15275318D01*
X12842857Y-15218175D01*
X12852381Y-15199128D01*
X12861905Y-15189604D01*
X12880952Y-15180080D01*
X12909524Y-15180080D01*
X12928571Y-15189604D01*
X12938095Y-15199128D01*
X12947619Y-15218175D01*
X12947619Y-15275318D01*
X12938095Y-15294366D01*
X12928571Y-15303889D01*
X12909524Y-15313413D01*
X12880952Y-15313413D01*
X13061905Y-15313413D02*
X13042857Y-15303889D01*
X13033333Y-15284842D01*
X13033333Y-15113413D01*
X13214286Y-15303889D02*
X13195238Y-15313413D01*
X13157143Y-15313413D01*
X13138095Y-15303889D01*
X13128571Y-15284842D01*
X13128571Y-15208651D01*
X13138095Y-15189604D01*
X13157143Y-15180080D01*
X13195238Y-15180080D01*
X13214286Y-15189604D01*
X13223809Y-15208651D01*
X13223809Y-15227699D01*
X13128571Y-15246747D01*
X13300000Y-15303889D02*
X13319048Y-15313413D01*
X13357143Y-15313413D01*
X13376190Y-15303889D01*
X13385714Y-15284842D01*
X13385714Y-15275318D01*
X13376190Y-15256270D01*
X13357143Y-15246747D01*
X13328571Y-15246747D01*
X13309524Y-15237223D01*
X13300000Y-15218175D01*
X13300000Y-15208651D01*
X13309524Y-15189604D01*
X13328571Y-15180080D01*
X13357143Y-15180080D01*
X13376190Y-15189604D01*
X13452381Y-15389604D02*
X13461905Y-15380080D01*
X13480952Y-15351509D01*
X13490476Y-15332461D01*
X13500000Y-15303889D01*
X13509524Y-15256270D01*
X13509524Y-15218175D01*
X13500000Y-15170556D01*
X13490476Y-15141985D01*
X13480952Y-15122937D01*
X13461905Y-15094366D01*
X13452381Y-15084842D01*
X13814286Y-15389604D02*
X13804762Y-15380080D01*
X13785714Y-15351509D01*
X13776190Y-15332461D01*
X13766667Y-15303889D01*
X13757143Y-15256270D01*
X13757143Y-15218175D01*
X13766667Y-15170556D01*
X13776190Y-15141985D01*
X13785714Y-15122937D01*
X13804762Y-15094366D01*
X13814286Y-15084842D01*
X13890476Y-15180080D02*
X13890476Y-15313413D01*
X13890476Y-15199128D02*
X13900000Y-15189604D01*
X13919048Y-15180080D01*
X13947619Y-15180080D01*
X13966667Y-15189604D01*
X13976190Y-15208651D01*
X13976190Y-15313413D01*
X14100000Y-15313413D02*
X14080952Y-15303889D01*
X14071428Y-15294366D01*
X14061905Y-15275318D01*
X14061905Y-15218175D01*
X14071428Y-15199128D01*
X14080952Y-15189604D01*
X14100000Y-15180080D01*
X14128571Y-15180080D01*
X14147619Y-15189604D01*
X14157143Y-15199128D01*
X14166667Y-15218175D01*
X14166667Y-15275318D01*
X14157143Y-15294366D01*
X14147619Y-15303889D01*
X14128571Y-15313413D01*
X14100000Y-15313413D01*
X14223809Y-15180080D02*
X14300000Y-15180080D01*
X14252381Y-15113413D02*
X14252381Y-15284842D01*
X14261905Y-15303889D01*
X14280952Y-15313413D01*
X14300000Y-15313413D01*
X14519048Y-15180080D02*
X14519048Y-15380080D01*
X14519048Y-15189604D02*
X14538095Y-15180080D01*
X14576190Y-15180080D01*
X14595238Y-15189604D01*
X14604762Y-15199128D01*
X14614286Y-15218175D01*
X14614286Y-15275318D01*
X14604762Y-15294366D01*
X14595238Y-15303889D01*
X14576190Y-15313413D01*
X14538095Y-15313413D01*
X14519048Y-15303889D01*
X14728571Y-15313413D02*
X14709524Y-15303889D01*
X14700000Y-15284842D01*
X14700000Y-15113413D01*
X14890476Y-15313413D02*
X14890476Y-15208651D01*
X14880952Y-15189604D01*
X14861905Y-15180080D01*
X14823809Y-15180080D01*
X14804762Y-15189604D01*
X14890476Y-15303889D02*
X14871428Y-15313413D01*
X14823809Y-15313413D01*
X14804762Y-15303889D01*
X14795238Y-15284842D01*
X14795238Y-15265794D01*
X14804762Y-15246747D01*
X14823809Y-15237223D01*
X14871428Y-15237223D01*
X14890476Y-15227699D01*
X14957143Y-15180080D02*
X15033333Y-15180080D01*
X14985714Y-15113413D02*
X14985714Y-15284842D01*
X14995238Y-15303889D01*
X15014286Y-15313413D01*
X15033333Y-15313413D01*
X15176190Y-15303889D02*
X15157143Y-15313413D01*
X15119048Y-15313413D01*
X15100000Y-15303889D01*
X15090476Y-15284842D01*
X15090476Y-15208651D01*
X15100000Y-15189604D01*
X15119048Y-15180080D01*
X15157143Y-15180080D01*
X15176190Y-15189604D01*
X15185714Y-15208651D01*
X15185714Y-15227699D01*
X15090476Y-15246747D01*
X15357143Y-15313413D02*
X15357143Y-15113413D01*
X15357143Y-15303889D02*
X15338095Y-15313413D01*
X15300000Y-15313413D01*
X15280952Y-15303889D01*
X15271428Y-15294366D01*
X15261905Y-15275318D01*
X15261905Y-15218175D01*
X15271428Y-15199128D01*
X15280952Y-15189604D01*
X15300000Y-15180080D01*
X15338095Y-15180080D01*
X15357143Y-15189604D01*
X15433333Y-15389604D02*
X15442857Y-15380080D01*
X15461905Y-15351509D01*
X15471428Y-15332461D01*
X15480952Y-15303889D01*
X15490476Y-15256270D01*
X15490476Y-15218175D01*
X15480952Y-15170556D01*
X15471428Y-15141985D01*
X15461905Y-15122937D01*
X15442857Y-15094366D01*
X15433333Y-15084842D01*
D14*
X8430000Y-15426937D02*
X8430000Y-15546937D01*
X8370000Y-15486937D02*
X8490000Y-15486937D01*
D11*
X8852381Y-15577413D02*
X8738095Y-15577413D01*
X8795238Y-15577413D02*
X8795238Y-15377413D01*
X8776190Y-15405985D01*
X8757143Y-15425032D01*
X8738095Y-15434556D01*
X8938095Y-15558366D02*
X8947619Y-15567889D01*
X8938095Y-15577413D01*
X8928571Y-15567889D01*
X8938095Y-15558366D01*
X8938095Y-15577413D01*
X9023810Y-15396461D02*
X9033333Y-15386937D01*
X9052381Y-15377413D01*
X9100000Y-15377413D01*
X9119048Y-15386937D01*
X9128571Y-15396461D01*
X9138095Y-15415509D01*
X9138095Y-15434556D01*
X9128571Y-15463128D01*
X9014286Y-15577413D01*
X9138095Y-15577413D01*
X9261905Y-15377413D02*
X9280952Y-15377413D01*
X9300000Y-15386937D01*
X9309524Y-15396461D01*
X9319048Y-15415509D01*
X9328571Y-15453604D01*
X9328571Y-15501223D01*
X9319048Y-15539318D01*
X9309524Y-15558366D01*
X9300000Y-15567889D01*
X9280952Y-15577413D01*
X9261905Y-15577413D01*
X9242857Y-15567889D01*
X9233333Y-15558366D01*
X9223810Y-15539318D01*
X9214286Y-15501223D01*
X9214286Y-15453604D01*
X9223810Y-15415509D01*
X9233333Y-15396461D01*
X9242857Y-15386937D01*
X9261905Y-15377413D01*
X9452381Y-15377413D02*
X9471429Y-15377413D01*
X9490476Y-15386937D01*
X9500000Y-15396461D01*
X9509524Y-15415509D01*
X9519048Y-15453604D01*
X9519048Y-15501223D01*
X9509524Y-15539318D01*
X9500000Y-15558366D01*
X9490476Y-15567889D01*
X9471429Y-15577413D01*
X9452381Y-15577413D01*
X9433333Y-15567889D01*
X9423810Y-15558366D01*
X9414286Y-15539318D01*
X9404762Y-15501223D01*
X9404762Y-15453604D01*
X9414286Y-15415509D01*
X9423810Y-15396461D01*
X9433333Y-15386937D01*
X9452381Y-15377413D01*
X9604762Y-15577413D02*
X9604762Y-15444080D01*
X9604762Y-15463128D02*
X9614286Y-15453604D01*
X9633333Y-15444080D01*
X9661905Y-15444080D01*
X9680952Y-15453604D01*
X9690476Y-15472651D01*
X9690476Y-15577413D01*
X9690476Y-15472651D02*
X9700000Y-15453604D01*
X9719048Y-15444080D01*
X9747619Y-15444080D01*
X9766667Y-15453604D01*
X9776190Y-15472651D01*
X9776190Y-15577413D01*
X9871429Y-15577413D02*
X9871429Y-15444080D01*
X9871429Y-15463128D02*
X9880952Y-15453604D01*
X9900000Y-15444080D01*
X9928571Y-15444080D01*
X9947619Y-15453604D01*
X9957143Y-15472651D01*
X9957143Y-15577413D01*
X9957143Y-15472651D02*
X9966667Y-15453604D01*
X9985714Y-15444080D01*
X10014286Y-15444080D01*
X10033333Y-15453604D01*
X10042857Y-15472651D01*
X10042857Y-15577413D01*
X10433333Y-15367889D02*
X10261905Y-15625032D01*
X10690476Y-15377413D02*
X10709524Y-15377413D01*
X10728571Y-15386937D01*
X10738095Y-15396461D01*
X10747619Y-15415509D01*
X10757143Y-15453604D01*
X10757143Y-15501223D01*
X10747619Y-15539318D01*
X10738095Y-15558366D01*
X10728571Y-15567889D01*
X10709524Y-15577413D01*
X10690476Y-15577413D01*
X10671429Y-15567889D01*
X10661905Y-15558366D01*
X10652381Y-15539318D01*
X10642857Y-15501223D01*
X10642857Y-15453604D01*
X10652381Y-15415509D01*
X10661905Y-15396461D01*
X10671429Y-15386937D01*
X10690476Y-15377413D01*
X10842857Y-15558366D02*
X10852381Y-15567889D01*
X10842857Y-15577413D01*
X10833333Y-15567889D01*
X10842857Y-15558366D01*
X10842857Y-15577413D01*
X10976190Y-15377413D02*
X10995238Y-15377413D01*
X11014286Y-15386937D01*
X11023810Y-15396461D01*
X11033333Y-15415509D01*
X11042857Y-15453604D01*
X11042857Y-15501223D01*
X11033333Y-15539318D01*
X11023810Y-15558366D01*
X11014286Y-15567889D01*
X10995238Y-15577413D01*
X10976190Y-15577413D01*
X10957143Y-15567889D01*
X10947619Y-15558366D01*
X10938095Y-15539318D01*
X10928571Y-15501223D01*
X10928571Y-15453604D01*
X10938095Y-15415509D01*
X10947619Y-15396461D01*
X10957143Y-15386937D01*
X10976190Y-15377413D01*
X11214286Y-15444080D02*
X11214286Y-15577413D01*
X11166667Y-15367889D02*
X11119048Y-15510747D01*
X11242857Y-15510747D01*
X11300000Y-15377413D02*
X11433333Y-15377413D01*
X11347619Y-15577413D01*
X11500000Y-15396461D02*
X11509524Y-15386937D01*
X11528571Y-15377413D01*
X11576190Y-15377413D01*
X11595238Y-15386937D01*
X11604762Y-15396461D01*
X11614286Y-15415509D01*
X11614286Y-15434556D01*
X11604762Y-15463128D01*
X11490476Y-15577413D01*
X11614286Y-15577413D01*
X11690476Y-15377413D02*
X11690476Y-15415509D01*
X11766667Y-15377413D02*
X11766667Y-15415509D01*
X12061905Y-15653604D02*
X12052381Y-15644080D01*
X12033333Y-15615509D01*
X12023809Y-15596461D01*
X12014286Y-15567889D01*
X12004762Y-15520270D01*
X12004762Y-15482175D01*
X12014286Y-15434556D01*
X12023809Y-15405985D01*
X12033333Y-15386937D01*
X12052381Y-15358366D01*
X12061905Y-15348842D01*
X12223809Y-15444080D02*
X12223809Y-15577413D01*
X12176190Y-15367889D02*
X12128571Y-15510747D01*
X12252381Y-15510747D01*
X12480952Y-15577413D02*
X12480952Y-15377413D01*
X12566667Y-15577413D02*
X12566667Y-15472651D01*
X12557143Y-15453604D01*
X12538095Y-15444080D01*
X12509524Y-15444080D01*
X12490476Y-15453604D01*
X12480952Y-15463128D01*
X12690476Y-15577413D02*
X12671428Y-15567889D01*
X12661905Y-15558366D01*
X12652381Y-15539318D01*
X12652381Y-15482175D01*
X12661905Y-15463128D01*
X12671428Y-15453604D01*
X12690476Y-15444080D01*
X12719048Y-15444080D01*
X12738095Y-15453604D01*
X12747619Y-15463128D01*
X12757143Y-15482175D01*
X12757143Y-15539318D01*
X12747619Y-15558366D01*
X12738095Y-15567889D01*
X12719048Y-15577413D01*
X12690476Y-15577413D01*
X12871428Y-15577413D02*
X12852381Y-15567889D01*
X12842857Y-15548842D01*
X12842857Y-15377413D01*
X13023809Y-15567889D02*
X13004762Y-15577413D01*
X12966667Y-15577413D01*
X12947619Y-15567889D01*
X12938095Y-15548842D01*
X12938095Y-15472651D01*
X12947619Y-15453604D01*
X12966667Y-15444080D01*
X13004762Y-15444080D01*
X13023809Y-15453604D01*
X13033333Y-15472651D01*
X13033333Y-15491699D01*
X12938095Y-15510747D01*
X13109524Y-15567889D02*
X13128571Y-15577413D01*
X13166667Y-15577413D01*
X13185714Y-15567889D01*
X13195238Y-15548842D01*
X13195238Y-15539318D01*
X13185714Y-15520270D01*
X13166667Y-15510747D01*
X13138095Y-15510747D01*
X13119048Y-15501223D01*
X13109524Y-15482175D01*
X13109524Y-15472651D01*
X13119048Y-15453604D01*
X13138095Y-15444080D01*
X13166667Y-15444080D01*
X13185714Y-15453604D01*
X13261905Y-15653604D02*
X13271428Y-15644080D01*
X13290476Y-15615509D01*
X13300000Y-15596461D01*
X13309524Y-15567889D01*
X13319048Y-15520270D01*
X13319048Y-15482175D01*
X13309524Y-15434556D01*
X13300000Y-15405985D01*
X13290476Y-15386937D01*
X13271428Y-15358366D01*
X13261905Y-15348842D01*
X13623809Y-15653604D02*
X13614286Y-15644080D01*
X13595238Y-15615509D01*
X13585714Y-15596461D01*
X13576190Y-15567889D01*
X13566667Y-15520270D01*
X13566667Y-15482175D01*
X13576190Y-15434556D01*
X13585714Y-15405985D01*
X13595238Y-15386937D01*
X13614286Y-15358366D01*
X13623809Y-15348842D01*
X13700000Y-15444080D02*
X13700000Y-15577413D01*
X13700000Y-15463128D02*
X13709524Y-15453604D01*
X13728571Y-15444080D01*
X13757143Y-15444080D01*
X13776190Y-15453604D01*
X13785714Y-15472651D01*
X13785714Y-15577413D01*
X13909524Y-15577413D02*
X13890476Y-15567889D01*
X13880952Y-15558366D01*
X13871428Y-15539318D01*
X13871428Y-15482175D01*
X13880952Y-15463128D01*
X13890476Y-15453604D01*
X13909524Y-15444080D01*
X13938095Y-15444080D01*
X13957143Y-15453604D01*
X13966667Y-15463128D01*
X13976190Y-15482175D01*
X13976190Y-15539318D01*
X13966667Y-15558366D01*
X13957143Y-15567889D01*
X13938095Y-15577413D01*
X13909524Y-15577413D01*
X14033333Y-15444080D02*
X14109524Y-15444080D01*
X14061905Y-15377413D02*
X14061905Y-15548842D01*
X14071428Y-15567889D01*
X14090476Y-15577413D01*
X14109524Y-15577413D01*
X14328571Y-15444080D02*
X14328571Y-15644080D01*
X14328571Y-15453604D02*
X14347619Y-15444080D01*
X14385714Y-15444080D01*
X14404762Y-15453604D01*
X14414286Y-15463128D01*
X14423809Y-15482175D01*
X14423809Y-15539318D01*
X14414286Y-15558366D01*
X14404762Y-15567889D01*
X14385714Y-15577413D01*
X14347619Y-15577413D01*
X14328571Y-15567889D01*
X14538095Y-15577413D02*
X14519048Y-15567889D01*
X14509524Y-15548842D01*
X14509524Y-15377413D01*
X14700000Y-15577413D02*
X14700000Y-15472651D01*
X14690476Y-15453604D01*
X14671428Y-15444080D01*
X14633333Y-15444080D01*
X14614286Y-15453604D01*
X14700000Y-15567889D02*
X14680952Y-15577413D01*
X14633333Y-15577413D01*
X14614286Y-15567889D01*
X14604762Y-15548842D01*
X14604762Y-15529794D01*
X14614286Y-15510747D01*
X14633333Y-15501223D01*
X14680952Y-15501223D01*
X14700000Y-15491699D01*
X14766667Y-15444080D02*
X14842857Y-15444080D01*
X14795238Y-15377413D02*
X14795238Y-15548842D01*
X14804762Y-15567889D01*
X14823809Y-15577413D01*
X14842857Y-15577413D01*
X14985714Y-15567889D02*
X14966667Y-15577413D01*
X14928571Y-15577413D01*
X14909524Y-15567889D01*
X14900000Y-15548842D01*
X14900000Y-15472651D01*
X14909524Y-15453604D01*
X14928571Y-15444080D01*
X14966667Y-15444080D01*
X14985714Y-15453604D01*
X14995238Y-15472651D01*
X14995238Y-15491699D01*
X14900000Y-15510747D01*
X15166667Y-15577413D02*
X15166667Y-15377413D01*
X15166667Y-15567889D02*
X15147619Y-15577413D01*
X15109524Y-15577413D01*
X15090476Y-15567889D01*
X15080952Y-15558366D01*
X15071428Y-15539318D01*
X15071428Y-15482175D01*
X15080952Y-15463128D01*
X15090476Y-15453604D01*
X15109524Y-15444080D01*
X15147619Y-15444080D01*
X15166667Y-15453604D01*
X15242857Y-15653604D02*
X15252381Y-15644080D01*
X15271428Y-15615509D01*
X15280952Y-15596461D01*
X15290476Y-15567889D01*
X15300000Y-15520270D01*
X15300000Y-15482175D01*
X15290476Y-15434556D01*
X15280952Y-15405985D01*
X15271428Y-15386937D01*
X15252381Y-15358366D01*
X15242857Y-15348842D01*
D15*
X8463640Y-15814577D02*
X8463640Y-15687297D01*
X8336360Y-15687297D01*
X8336360Y-15814577D01*
X8463640Y-15814577D01*
D11*
X8852381Y-15841413D02*
X8738095Y-15841413D01*
X8795238Y-15841413D02*
X8795238Y-15641413D01*
X8776190Y-15669985D01*
X8757143Y-15689032D01*
X8738095Y-15698556D01*
X8938095Y-15822366D02*
X8947619Y-15831889D01*
X8938095Y-15841413D01*
X8928571Y-15831889D01*
X8938095Y-15822366D01*
X8938095Y-15841413D01*
X9061905Y-15727128D02*
X9042857Y-15717604D01*
X9033333Y-15708080D01*
X9023810Y-15689032D01*
X9023810Y-15679509D01*
X9033333Y-15660461D01*
X9042857Y-15650937D01*
X9061905Y-15641413D01*
X9100000Y-15641413D01*
X9119048Y-15650937D01*
X9128571Y-15660461D01*
X9138095Y-15679509D01*
X9138095Y-15689032D01*
X9128571Y-15708080D01*
X9119048Y-15717604D01*
X9100000Y-15727128D01*
X9061905Y-15727128D01*
X9042857Y-15736651D01*
X9033333Y-15746175D01*
X9023810Y-15765223D01*
X9023810Y-15803318D01*
X9033333Y-15822366D01*
X9042857Y-15831889D01*
X9061905Y-15841413D01*
X9100000Y-15841413D01*
X9119048Y-15831889D01*
X9128571Y-15822366D01*
X9138095Y-15803318D01*
X9138095Y-15765223D01*
X9128571Y-15746175D01*
X9119048Y-15736651D01*
X9100000Y-15727128D01*
X9261905Y-15641413D02*
X9280952Y-15641413D01*
X9300000Y-15650937D01*
X9309524Y-15660461D01*
X9319048Y-15679509D01*
X9328571Y-15717604D01*
X9328571Y-15765223D01*
X9319048Y-15803318D01*
X9309524Y-15822366D01*
X9300000Y-15831889D01*
X9280952Y-15841413D01*
X9261905Y-15841413D01*
X9242857Y-15831889D01*
X9233333Y-15822366D01*
X9223810Y-15803318D01*
X9214286Y-15765223D01*
X9214286Y-15717604D01*
X9223810Y-15679509D01*
X9233333Y-15660461D01*
X9242857Y-15650937D01*
X9261905Y-15641413D01*
X9452381Y-15641413D02*
X9471429Y-15641413D01*
X9490476Y-15650937D01*
X9500000Y-15660461D01*
X9509524Y-15679509D01*
X9519048Y-15717604D01*
X9519048Y-15765223D01*
X9509524Y-15803318D01*
X9500000Y-15822366D01*
X9490476Y-15831889D01*
X9471429Y-15841413D01*
X9452381Y-15841413D01*
X9433333Y-15831889D01*
X9423810Y-15822366D01*
X9414286Y-15803318D01*
X9404762Y-15765223D01*
X9404762Y-15717604D01*
X9414286Y-15679509D01*
X9423810Y-15660461D01*
X9433333Y-15650937D01*
X9452381Y-15641413D01*
X9604762Y-15841413D02*
X9604762Y-15708080D01*
X9604762Y-15727128D02*
X9614286Y-15717604D01*
X9633333Y-15708080D01*
X9661905Y-15708080D01*
X9680952Y-15717604D01*
X9690476Y-15736651D01*
X9690476Y-15841413D01*
X9690476Y-15736651D02*
X9700000Y-15717604D01*
X9719048Y-15708080D01*
X9747619Y-15708080D01*
X9766667Y-15717604D01*
X9776190Y-15736651D01*
X9776190Y-15841413D01*
X9871429Y-15841413D02*
X9871429Y-15708080D01*
X9871429Y-15727128D02*
X9880952Y-15717604D01*
X9900000Y-15708080D01*
X9928571Y-15708080D01*
X9947619Y-15717604D01*
X9957143Y-15736651D01*
X9957143Y-15841413D01*
X9957143Y-15736651D02*
X9966667Y-15717604D01*
X9985714Y-15708080D01*
X10014286Y-15708080D01*
X10033333Y-15717604D01*
X10042857Y-15736651D01*
X10042857Y-15841413D01*
X10433333Y-15631889D02*
X10261905Y-15889032D01*
X10690476Y-15641413D02*
X10709524Y-15641413D01*
X10728571Y-15650937D01*
X10738095Y-15660461D01*
X10747619Y-15679509D01*
X10757143Y-15717604D01*
X10757143Y-15765223D01*
X10747619Y-15803318D01*
X10738095Y-15822366D01*
X10728571Y-15831889D01*
X10709524Y-15841413D01*
X10690476Y-15841413D01*
X10671429Y-15831889D01*
X10661905Y-15822366D01*
X10652381Y-15803318D01*
X10642857Y-15765223D01*
X10642857Y-15717604D01*
X10652381Y-15679509D01*
X10661905Y-15660461D01*
X10671429Y-15650937D01*
X10690476Y-15641413D01*
X10842857Y-15822366D02*
X10852381Y-15831889D01*
X10842857Y-15841413D01*
X10833333Y-15831889D01*
X10842857Y-15822366D01*
X10842857Y-15841413D01*
X10976190Y-15641413D02*
X10995238Y-15641413D01*
X11014286Y-15650937D01*
X11023810Y-15660461D01*
X11033333Y-15679509D01*
X11042857Y-15717604D01*
X11042857Y-15765223D01*
X11033333Y-15803318D01*
X11023810Y-15822366D01*
X11014286Y-15831889D01*
X10995238Y-15841413D01*
X10976190Y-15841413D01*
X10957143Y-15831889D01*
X10947619Y-15822366D01*
X10938095Y-15803318D01*
X10928571Y-15765223D01*
X10928571Y-15717604D01*
X10938095Y-15679509D01*
X10947619Y-15660461D01*
X10957143Y-15650937D01*
X10976190Y-15641413D01*
X11109524Y-15641413D02*
X11242857Y-15641413D01*
X11157143Y-15841413D01*
X11357143Y-15641413D02*
X11376190Y-15641413D01*
X11395238Y-15650937D01*
X11404762Y-15660461D01*
X11414286Y-15679509D01*
X11423809Y-15717604D01*
X11423809Y-15765223D01*
X11414286Y-15803318D01*
X11404762Y-15822366D01*
X11395238Y-15831889D01*
X11376190Y-15841413D01*
X11357143Y-15841413D01*
X11338095Y-15831889D01*
X11328571Y-15822366D01*
X11319048Y-15803318D01*
X11309524Y-15765223D01*
X11309524Y-15717604D01*
X11319048Y-15679509D01*
X11328571Y-15660461D01*
X11338095Y-15650937D01*
X11357143Y-15641413D01*
X11519048Y-15841413D02*
X11557143Y-15841413D01*
X11576190Y-15831889D01*
X11585714Y-15822366D01*
X11604762Y-15793794D01*
X11614286Y-15755699D01*
X11614286Y-15679509D01*
X11604762Y-15660461D01*
X11595238Y-15650937D01*
X11576190Y-15641413D01*
X11538095Y-15641413D01*
X11519048Y-15650937D01*
X11509524Y-15660461D01*
X11500000Y-15679509D01*
X11500000Y-15727128D01*
X11509524Y-15746175D01*
X11519048Y-15755699D01*
X11538095Y-15765223D01*
X11576190Y-15765223D01*
X11595238Y-15755699D01*
X11604762Y-15746175D01*
X11614286Y-15727128D01*
X11690476Y-15641413D02*
X11690476Y-15679509D01*
X11766667Y-15641413D02*
X11766667Y-15679509D01*
X12061905Y-15917604D02*
X12052381Y-15908080D01*
X12033333Y-15879509D01*
X12023809Y-15860461D01*
X12014286Y-15831889D01*
X12004762Y-15784270D01*
X12004762Y-15746175D01*
X12014286Y-15698556D01*
X12023809Y-15669985D01*
X12033333Y-15650937D01*
X12052381Y-15622366D01*
X12061905Y-15612842D01*
X12233333Y-15641413D02*
X12138095Y-15641413D01*
X12128571Y-15736651D01*
X12138095Y-15727128D01*
X12157143Y-15717604D01*
X12204762Y-15717604D01*
X12223809Y-15727128D01*
X12233333Y-15736651D01*
X12242857Y-15755699D01*
X12242857Y-15803318D01*
X12233333Y-15822366D01*
X12223809Y-15831889D01*
X12204762Y-15841413D01*
X12157143Y-15841413D01*
X12138095Y-15831889D01*
X12128571Y-15822366D01*
X12357143Y-15727128D02*
X12338095Y-15717604D01*
X12328571Y-15708080D01*
X12319048Y-15689032D01*
X12319048Y-15679509D01*
X12328571Y-15660461D01*
X12338095Y-15650937D01*
X12357143Y-15641413D01*
X12395238Y-15641413D01*
X12414286Y-15650937D01*
X12423809Y-15660461D01*
X12433333Y-15679509D01*
X12433333Y-15689032D01*
X12423809Y-15708080D01*
X12414286Y-15717604D01*
X12395238Y-15727128D01*
X12357143Y-15727128D01*
X12338095Y-15736651D01*
X12328571Y-15746175D01*
X12319048Y-15765223D01*
X12319048Y-15803318D01*
X12328571Y-15822366D01*
X12338095Y-15831889D01*
X12357143Y-15841413D01*
X12395238Y-15841413D01*
X12414286Y-15831889D01*
X12423809Y-15822366D01*
X12433333Y-15803318D01*
X12433333Y-15765223D01*
X12423809Y-15746175D01*
X12414286Y-15736651D01*
X12395238Y-15727128D01*
X12671428Y-15841413D02*
X12671428Y-15641413D01*
X12757143Y-15841413D02*
X12757143Y-15736651D01*
X12747619Y-15717604D01*
X12728571Y-15708080D01*
X12700000Y-15708080D01*
X12680952Y-15717604D01*
X12671428Y-15727128D01*
X12880952Y-15841413D02*
X12861905Y-15831889D01*
X12852381Y-15822366D01*
X12842857Y-15803318D01*
X12842857Y-15746175D01*
X12852381Y-15727128D01*
X12861905Y-15717604D01*
X12880952Y-15708080D01*
X12909524Y-15708080D01*
X12928571Y-15717604D01*
X12938095Y-15727128D01*
X12947619Y-15746175D01*
X12947619Y-15803318D01*
X12938095Y-15822366D01*
X12928571Y-15831889D01*
X12909524Y-15841413D01*
X12880952Y-15841413D01*
X13061905Y-15841413D02*
X13042857Y-15831889D01*
X13033333Y-15812842D01*
X13033333Y-15641413D01*
X13214286Y-15831889D02*
X13195238Y-15841413D01*
X13157143Y-15841413D01*
X13138095Y-15831889D01*
X13128571Y-15812842D01*
X13128571Y-15736651D01*
X13138095Y-15717604D01*
X13157143Y-15708080D01*
X13195238Y-15708080D01*
X13214286Y-15717604D01*
X13223809Y-15736651D01*
X13223809Y-15755699D01*
X13128571Y-15774747D01*
X13300000Y-15831889D02*
X13319048Y-15841413D01*
X13357143Y-15841413D01*
X13376190Y-15831889D01*
X13385714Y-15812842D01*
X13385714Y-15803318D01*
X13376190Y-15784270D01*
X13357143Y-15774747D01*
X13328571Y-15774747D01*
X13309524Y-15765223D01*
X13300000Y-15746175D01*
X13300000Y-15736651D01*
X13309524Y-15717604D01*
X13328571Y-15708080D01*
X13357143Y-15708080D01*
X13376190Y-15717604D01*
X13452381Y-15917604D02*
X13461905Y-15908080D01*
X13480952Y-15879509D01*
X13490476Y-15860461D01*
X13500000Y-15831889D01*
X13509524Y-15784270D01*
X13509524Y-15746175D01*
X13500000Y-15698556D01*
X13490476Y-15669985D01*
X13480952Y-15650937D01*
X13461905Y-15622366D01*
X13452381Y-15612842D01*
X13814286Y-15917604D02*
X13804762Y-15908080D01*
X13785714Y-15879509D01*
X13776190Y-15860461D01*
X13766667Y-15831889D01*
X13757143Y-15784270D01*
X13757143Y-15746175D01*
X13766667Y-15698556D01*
X13776190Y-15669985D01*
X13785714Y-15650937D01*
X13804762Y-15622366D01*
X13814286Y-15612842D01*
X13890476Y-15708080D02*
X13890476Y-15841413D01*
X13890476Y-15727128D02*
X13900000Y-15717604D01*
X13919048Y-15708080D01*
X13947619Y-15708080D01*
X13966667Y-15717604D01*
X13976190Y-15736651D01*
X13976190Y-15841413D01*
X14100000Y-15841413D02*
X14080952Y-15831889D01*
X14071428Y-15822366D01*
X14061905Y-15803318D01*
X14061905Y-15746175D01*
X14071428Y-15727128D01*
X14080952Y-15717604D01*
X14100000Y-15708080D01*
X14128571Y-15708080D01*
X14147619Y-15717604D01*
X14157143Y-15727128D01*
X14166667Y-15746175D01*
X14166667Y-15803318D01*
X14157143Y-15822366D01*
X14147619Y-15831889D01*
X14128571Y-15841413D01*
X14100000Y-15841413D01*
X14223809Y-15708080D02*
X14300000Y-15708080D01*
X14252381Y-15641413D02*
X14252381Y-15812842D01*
X14261905Y-15831889D01*
X14280952Y-15841413D01*
X14300000Y-15841413D01*
X14519048Y-15708080D02*
X14519048Y-15908080D01*
X14519048Y-15717604D02*
X14538095Y-15708080D01*
X14576190Y-15708080D01*
X14595238Y-15717604D01*
X14604762Y-15727128D01*
X14614286Y-15746175D01*
X14614286Y-15803318D01*
X14604762Y-15822366D01*
X14595238Y-15831889D01*
X14576190Y-15841413D01*
X14538095Y-15841413D01*
X14519048Y-15831889D01*
X14728571Y-15841413D02*
X14709524Y-15831889D01*
X14700000Y-15812842D01*
X14700000Y-15641413D01*
X14890476Y-15841413D02*
X14890476Y-15736651D01*
X14880952Y-15717604D01*
X14861905Y-15708080D01*
X14823809Y-15708080D01*
X14804762Y-15717604D01*
X14890476Y-15831889D02*
X14871428Y-15841413D01*
X14823809Y-15841413D01*
X14804762Y-15831889D01*
X14795238Y-15812842D01*
X14795238Y-15793794D01*
X14804762Y-15774747D01*
X14823809Y-15765223D01*
X14871428Y-15765223D01*
X14890476Y-15755699D01*
X14957143Y-15708080D02*
X15033333Y-15708080D01*
X14985714Y-15641413D02*
X14985714Y-15812842D01*
X14995238Y-15831889D01*
X15014286Y-15841413D01*
X15033333Y-15841413D01*
X15176190Y-15831889D02*
X15157143Y-15841413D01*
X15119048Y-15841413D01*
X15100000Y-15831889D01*
X15090476Y-15812842D01*
X15090476Y-15736651D01*
X15100000Y-15717604D01*
X15119048Y-15708080D01*
X15157143Y-15708080D01*
X15176190Y-15717604D01*
X15185714Y-15736651D01*
X15185714Y-15755699D01*
X15090476Y-15774747D01*
X15357143Y-15841413D02*
X15357143Y-15641413D01*
X15357143Y-15831889D02*
X15338095Y-15841413D01*
X15300000Y-15841413D01*
X15280952Y-15831889D01*
X15271428Y-15822366D01*
X15261905Y-15803318D01*
X15261905Y-15746175D01*
X15271428Y-15727128D01*
X15280952Y-15717604D01*
X15300000Y-15708080D01*
X15338095Y-15708080D01*
X15357143Y-15717604D01*
X15433333Y-15917604D02*
X15442857Y-15908080D01*
X15461905Y-15879509D01*
X15471428Y-15860461D01*
X15480952Y-15831889D01*
X15490476Y-15784270D01*
X15490476Y-15746175D01*
X15480952Y-15698556D01*
X15471428Y-15669985D01*
X15461905Y-15650937D01*
X15442857Y-15622366D01*
X15433333Y-15612842D01*
X8390000Y-16150937D02*
X8490000Y-16050937D01*
X8390000Y-15950937D01*
X8290000Y-16050937D01*
X8390000Y-16150937D01*
X8728571Y-15941413D02*
X8852381Y-15941413D01*
X8785714Y-16017604D01*
X8814286Y-16017604D01*
X8833333Y-16027128D01*
X8842857Y-16036651D01*
X8852381Y-16055699D01*
X8852381Y-16103318D01*
X8842857Y-16122366D01*
X8833333Y-16131889D01*
X8814286Y-16141413D01*
X8757143Y-16141413D01*
X8738095Y-16131889D01*
X8728571Y-16122366D01*
X8938095Y-16122366D02*
X8947619Y-16131889D01*
X8938095Y-16141413D01*
X8928571Y-16131889D01*
X8938095Y-16122366D01*
X8938095Y-16141413D01*
X9071429Y-15941413D02*
X9090476Y-15941413D01*
X9109524Y-15950937D01*
X9119048Y-15960461D01*
X9128571Y-15979509D01*
X9138095Y-16017604D01*
X9138095Y-16065223D01*
X9128571Y-16103318D01*
X9119048Y-16122366D01*
X9109524Y-16131889D01*
X9090476Y-16141413D01*
X9071429Y-16141413D01*
X9052381Y-16131889D01*
X9042857Y-16122366D01*
X9033333Y-16103318D01*
X9023810Y-16065223D01*
X9023810Y-16017604D01*
X9033333Y-15979509D01*
X9042857Y-15960461D01*
X9052381Y-15950937D01*
X9071429Y-15941413D01*
X9261905Y-15941413D02*
X9280952Y-15941413D01*
X9300000Y-15950937D01*
X9309524Y-15960461D01*
X9319048Y-15979509D01*
X9328571Y-16017604D01*
X9328571Y-16065223D01*
X9319048Y-16103318D01*
X9309524Y-16122366D01*
X9300000Y-16131889D01*
X9280952Y-16141413D01*
X9261905Y-16141413D01*
X9242857Y-16131889D01*
X9233333Y-16122366D01*
X9223810Y-16103318D01*
X9214286Y-16065223D01*
X9214286Y-16017604D01*
X9223810Y-15979509D01*
X9233333Y-15960461D01*
X9242857Y-15950937D01*
X9261905Y-15941413D01*
X9452381Y-15941413D02*
X9471429Y-15941413D01*
X9490476Y-15950937D01*
X9500000Y-15960461D01*
X9509524Y-15979509D01*
X9519048Y-16017604D01*
X9519048Y-16065223D01*
X9509524Y-16103318D01*
X9500000Y-16122366D01*
X9490476Y-16131889D01*
X9471429Y-16141413D01*
X9452381Y-16141413D01*
X9433333Y-16131889D01*
X9423810Y-16122366D01*
X9414286Y-16103318D01*
X9404762Y-16065223D01*
X9404762Y-16017604D01*
X9414286Y-15979509D01*
X9423810Y-15960461D01*
X9433333Y-15950937D01*
X9452381Y-15941413D01*
X9604762Y-16141413D02*
X9604762Y-16008080D01*
X9604762Y-16027128D02*
X9614286Y-16017604D01*
X9633333Y-16008080D01*
X9661905Y-16008080D01*
X9680952Y-16017604D01*
X9690476Y-16036651D01*
X9690476Y-16141413D01*
X9690476Y-16036651D02*
X9700000Y-16017604D01*
X9719048Y-16008080D01*
X9747619Y-16008080D01*
X9766667Y-16017604D01*
X9776190Y-16036651D01*
X9776190Y-16141413D01*
X9871429Y-16141413D02*
X9871429Y-16008080D01*
X9871429Y-16027128D02*
X9880952Y-16017604D01*
X9900000Y-16008080D01*
X9928571Y-16008080D01*
X9947619Y-16017604D01*
X9957143Y-16036651D01*
X9957143Y-16141413D01*
X9957143Y-16036651D02*
X9966667Y-16017604D01*
X9985714Y-16008080D01*
X10014286Y-16008080D01*
X10033333Y-16017604D01*
X10042857Y-16036651D01*
X10042857Y-16141413D01*
X10433333Y-15931889D02*
X10261905Y-16189032D01*
X10690476Y-15941413D02*
X10709524Y-15941413D01*
X10728571Y-15950937D01*
X10738095Y-15960461D01*
X10747619Y-15979509D01*
X10757143Y-16017604D01*
X10757143Y-16065223D01*
X10747619Y-16103318D01*
X10738095Y-16122366D01*
X10728571Y-16131889D01*
X10709524Y-16141413D01*
X10690476Y-16141413D01*
X10671429Y-16131889D01*
X10661905Y-16122366D01*
X10652381Y-16103318D01*
X10642857Y-16065223D01*
X10642857Y-16017604D01*
X10652381Y-15979509D01*
X10661905Y-15960461D01*
X10671429Y-15950937D01*
X10690476Y-15941413D01*
X10842857Y-16122366D02*
X10852381Y-16131889D01*
X10842857Y-16141413D01*
X10833333Y-16131889D01*
X10842857Y-16122366D01*
X10842857Y-16141413D01*
X11042857Y-16141413D02*
X10928571Y-16141413D01*
X10985714Y-16141413D02*
X10985714Y-15941413D01*
X10966667Y-15969985D01*
X10947619Y-15989032D01*
X10928571Y-15998556D01*
X11233333Y-16141413D02*
X11119048Y-16141413D01*
X11176190Y-16141413D02*
X11176190Y-15941413D01*
X11157143Y-15969985D01*
X11138095Y-15989032D01*
X11119048Y-15998556D01*
X11347619Y-16027128D02*
X11328571Y-16017604D01*
X11319048Y-16008080D01*
X11309524Y-15989032D01*
X11309524Y-15979509D01*
X11319048Y-15960461D01*
X11328571Y-15950937D01*
X11347619Y-15941413D01*
X11385714Y-15941413D01*
X11404762Y-15950937D01*
X11414286Y-15960461D01*
X11423809Y-15979509D01*
X11423809Y-15989032D01*
X11414286Y-16008080D01*
X11404762Y-16017604D01*
X11385714Y-16027128D01*
X11347619Y-16027128D01*
X11328571Y-16036651D01*
X11319048Y-16046175D01*
X11309524Y-16065223D01*
X11309524Y-16103318D01*
X11319048Y-16122366D01*
X11328571Y-16131889D01*
X11347619Y-16141413D01*
X11385714Y-16141413D01*
X11404762Y-16131889D01*
X11414286Y-16122366D01*
X11423809Y-16103318D01*
X11423809Y-16065223D01*
X11414286Y-16046175D01*
X11404762Y-16036651D01*
X11385714Y-16027128D01*
X11614286Y-16141413D02*
X11500000Y-16141413D01*
X11557143Y-16141413D02*
X11557143Y-15941413D01*
X11538095Y-15969985D01*
X11519048Y-15989032D01*
X11500000Y-15998556D01*
X11690476Y-15941413D02*
X11690476Y-15979509D01*
X11766667Y-15941413D02*
X11766667Y-15979509D01*
X12061905Y-16217604D02*
X12052381Y-16208080D01*
X12033333Y-16179509D01*
X12023809Y-16160461D01*
X12014286Y-16131889D01*
X12004762Y-16084270D01*
X12004762Y-16046175D01*
X12014286Y-15998556D01*
X12023809Y-15969985D01*
X12033333Y-15950937D01*
X12052381Y-15922366D01*
X12061905Y-15912842D01*
X12166667Y-16027128D02*
X12147619Y-16017604D01*
X12138095Y-16008080D01*
X12128571Y-15989032D01*
X12128571Y-15979509D01*
X12138095Y-15960461D01*
X12147619Y-15950937D01*
X12166667Y-15941413D01*
X12204762Y-15941413D01*
X12223809Y-15950937D01*
X12233333Y-15960461D01*
X12242857Y-15979509D01*
X12242857Y-15989032D01*
X12233333Y-16008080D01*
X12223809Y-16017604D01*
X12204762Y-16027128D01*
X12166667Y-16027128D01*
X12147619Y-16036651D01*
X12138095Y-16046175D01*
X12128571Y-16065223D01*
X12128571Y-16103318D01*
X12138095Y-16122366D01*
X12147619Y-16131889D01*
X12166667Y-16141413D01*
X12204762Y-16141413D01*
X12223809Y-16131889D01*
X12233333Y-16122366D01*
X12242857Y-16103318D01*
X12242857Y-16065223D01*
X12233333Y-16046175D01*
X12223809Y-16036651D01*
X12204762Y-16027128D01*
X12309524Y-15941413D02*
X12442857Y-15941413D01*
X12357143Y-16141413D01*
X12671428Y-16141413D02*
X12671428Y-15941413D01*
X12757143Y-16141413D02*
X12757143Y-16036651D01*
X12747619Y-16017604D01*
X12728571Y-16008080D01*
X12700000Y-16008080D01*
X12680952Y-16017604D01*
X12671428Y-16027128D01*
X12880952Y-16141413D02*
X12861905Y-16131889D01*
X12852381Y-16122366D01*
X12842857Y-16103318D01*
X12842857Y-16046175D01*
X12852381Y-16027128D01*
X12861905Y-16017604D01*
X12880952Y-16008080D01*
X12909524Y-16008080D01*
X12928571Y-16017604D01*
X12938095Y-16027128D01*
X12947619Y-16046175D01*
X12947619Y-16103318D01*
X12938095Y-16122366D01*
X12928571Y-16131889D01*
X12909524Y-16141413D01*
X12880952Y-16141413D01*
X13061905Y-16141413D02*
X13042857Y-16131889D01*
X13033333Y-16112842D01*
X13033333Y-15941413D01*
X13214286Y-16131889D02*
X13195238Y-16141413D01*
X13157143Y-16141413D01*
X13138095Y-16131889D01*
X13128571Y-16112842D01*
X13128571Y-16036651D01*
X13138095Y-16017604D01*
X13157143Y-16008080D01*
X13195238Y-16008080D01*
X13214286Y-16017604D01*
X13223809Y-16036651D01*
X13223809Y-16055699D01*
X13128571Y-16074747D01*
X13300000Y-16131889D02*
X13319048Y-16141413D01*
X13357143Y-16141413D01*
X13376190Y-16131889D01*
X13385714Y-16112842D01*
X13385714Y-16103318D01*
X13376190Y-16084270D01*
X13357143Y-16074747D01*
X13328571Y-16074747D01*
X13309524Y-16065223D01*
X13300000Y-16046175D01*
X13300000Y-16036651D01*
X13309524Y-16017604D01*
X13328571Y-16008080D01*
X13357143Y-16008080D01*
X13376190Y-16017604D01*
X13452381Y-16217604D02*
X13461905Y-16208080D01*
X13480952Y-16179509D01*
X13490476Y-16160461D01*
X13500000Y-16131889D01*
X13509524Y-16084270D01*
X13509524Y-16046175D01*
X13500000Y-15998556D01*
X13490476Y-15969985D01*
X13480952Y-15950937D01*
X13461905Y-15922366D01*
X13452381Y-15912842D01*
X13814286Y-16217604D02*
X13804762Y-16208080D01*
X13785714Y-16179509D01*
X13776190Y-16160461D01*
X13766667Y-16131889D01*
X13757143Y-16084270D01*
X13757143Y-16046175D01*
X13766667Y-15998556D01*
X13776190Y-15969985D01*
X13785714Y-15950937D01*
X13804762Y-15922366D01*
X13814286Y-15912842D01*
X13890476Y-16008080D02*
X13890476Y-16141413D01*
X13890476Y-16027128D02*
X13900000Y-16017604D01*
X13919048Y-16008080D01*
X13947619Y-16008080D01*
X13966667Y-16017604D01*
X13976190Y-16036651D01*
X13976190Y-16141413D01*
X14100000Y-16141413D02*
X14080952Y-16131889D01*
X14071428Y-16122366D01*
X14061905Y-16103318D01*
X14061905Y-16046175D01*
X14071428Y-16027128D01*
X14080952Y-16017604D01*
X14100000Y-16008080D01*
X14128571Y-16008080D01*
X14147619Y-16017604D01*
X14157143Y-16027128D01*
X14166667Y-16046175D01*
X14166667Y-16103318D01*
X14157143Y-16122366D01*
X14147619Y-16131889D01*
X14128571Y-16141413D01*
X14100000Y-16141413D01*
X14223809Y-16008080D02*
X14300000Y-16008080D01*
X14252381Y-15941413D02*
X14252381Y-16112842D01*
X14261905Y-16131889D01*
X14280952Y-16141413D01*
X14300000Y-16141413D01*
X14519048Y-16008080D02*
X14519048Y-16208080D01*
X14519048Y-16017604D02*
X14538095Y-16008080D01*
X14576190Y-16008080D01*
X14595238Y-16017604D01*
X14604762Y-16027128D01*
X14614286Y-16046175D01*
X14614286Y-16103318D01*
X14604762Y-16122366D01*
X14595238Y-16131889D01*
X14576190Y-16141413D01*
X14538095Y-16141413D01*
X14519048Y-16131889D01*
X14728571Y-16141413D02*
X14709524Y-16131889D01*
X14700000Y-16112842D01*
X14700000Y-15941413D01*
X14890476Y-16141413D02*
X14890476Y-16036651D01*
X14880952Y-16017604D01*
X14861905Y-16008080D01*
X14823809Y-16008080D01*
X14804762Y-16017604D01*
X14890476Y-16131889D02*
X14871428Y-16141413D01*
X14823809Y-16141413D01*
X14804762Y-16131889D01*
X14795238Y-16112842D01*
X14795238Y-16093794D01*
X14804762Y-16074747D01*
X14823809Y-16065223D01*
X14871428Y-16065223D01*
X14890476Y-16055699D01*
X14957143Y-16008080D02*
X15033333Y-16008080D01*
X14985714Y-15941413D02*
X14985714Y-16112842D01*
X14995238Y-16131889D01*
X15014286Y-16141413D01*
X15033333Y-16141413D01*
X15176190Y-16131889D02*
X15157143Y-16141413D01*
X15119048Y-16141413D01*
X15100000Y-16131889D01*
X15090476Y-16112842D01*
X15090476Y-16036651D01*
X15100000Y-16017604D01*
X15119048Y-16008080D01*
X15157143Y-16008080D01*
X15176190Y-16017604D01*
X15185714Y-16036651D01*
X15185714Y-16055699D01*
X15090476Y-16074747D01*
X15357143Y-16141413D02*
X15357143Y-15941413D01*
X15357143Y-16131889D02*
X15338095Y-16141413D01*
X15300000Y-16141413D01*
X15280952Y-16131889D01*
X15271428Y-16122366D01*
X15261905Y-16103318D01*
X15261905Y-16046175D01*
X15271428Y-16027128D01*
X15280952Y-16017604D01*
X15300000Y-16008080D01*
X15338095Y-16008080D01*
X15357143Y-16017604D01*
X15433333Y-16217604D02*
X15442857Y-16208080D01*
X15461905Y-16179509D01*
X15471428Y-16160461D01*
X15480952Y-16131889D01*
X15490476Y-16084270D01*
X15490476Y-16046175D01*
X15480952Y-15998556D01*
X15471428Y-15969985D01*
X15461905Y-15950937D01*
X15442857Y-15922366D01*
X15433333Y-15912842D01*
X8290000Y-16270937D02*
X8490000Y-16470937D01*
X8490000Y-16270937D02*
X8290000Y-16470937D01*
X8490000Y-16370937D02*
G75*
G03*
X8490000Y-16370937I-100000J0D01*
G01*
X8728571Y-16261413D02*
X8852381Y-16261413D01*
X8785714Y-16337604D01*
X8814286Y-16337604D01*
X8833333Y-16347128D01*
X8842857Y-16356651D01*
X8852381Y-16375699D01*
X8852381Y-16423318D01*
X8842857Y-16442366D01*
X8833333Y-16451889D01*
X8814286Y-16461413D01*
X8757143Y-16461413D01*
X8738095Y-16451889D01*
X8728571Y-16442366D01*
X8938095Y-16442366D02*
X8947619Y-16451889D01*
X8938095Y-16461413D01*
X8928571Y-16451889D01*
X8938095Y-16442366D01*
X8938095Y-16461413D01*
X9119048Y-16328080D02*
X9119048Y-16461413D01*
X9071429Y-16251889D02*
X9023810Y-16394747D01*
X9147619Y-16394747D01*
X9261905Y-16261413D02*
X9280952Y-16261413D01*
X9300000Y-16270937D01*
X9309524Y-16280461D01*
X9319048Y-16299509D01*
X9328571Y-16337604D01*
X9328571Y-16385223D01*
X9319048Y-16423318D01*
X9309524Y-16442366D01*
X9300000Y-16451889D01*
X9280952Y-16461413D01*
X9261905Y-16461413D01*
X9242857Y-16451889D01*
X9233333Y-16442366D01*
X9223810Y-16423318D01*
X9214286Y-16385223D01*
X9214286Y-16337604D01*
X9223810Y-16299509D01*
X9233333Y-16280461D01*
X9242857Y-16270937D01*
X9261905Y-16261413D01*
X9452381Y-16261413D02*
X9471429Y-16261413D01*
X9490476Y-16270937D01*
X9500000Y-16280461D01*
X9509524Y-16299509D01*
X9519048Y-16337604D01*
X9519048Y-16385223D01*
X9509524Y-16423318D01*
X9500000Y-16442366D01*
X9490476Y-16451889D01*
X9471429Y-16461413D01*
X9452381Y-16461413D01*
X9433333Y-16451889D01*
X9423810Y-16442366D01*
X9414286Y-16423318D01*
X9404762Y-16385223D01*
X9404762Y-16337604D01*
X9414286Y-16299509D01*
X9423810Y-16280461D01*
X9433333Y-16270937D01*
X9452381Y-16261413D01*
X9604762Y-16461413D02*
X9604762Y-16328080D01*
X9604762Y-16347128D02*
X9614286Y-16337604D01*
X9633333Y-16328080D01*
X9661905Y-16328080D01*
X9680952Y-16337604D01*
X9690476Y-16356651D01*
X9690476Y-16461413D01*
X9690476Y-16356651D02*
X9700000Y-16337604D01*
X9719048Y-16328080D01*
X9747619Y-16328080D01*
X9766667Y-16337604D01*
X9776190Y-16356651D01*
X9776190Y-16461413D01*
X9871429Y-16461413D02*
X9871429Y-16328080D01*
X9871429Y-16347128D02*
X9880952Y-16337604D01*
X9900000Y-16328080D01*
X9928571Y-16328080D01*
X9947619Y-16337604D01*
X9957143Y-16356651D01*
X9957143Y-16461413D01*
X9957143Y-16356651D02*
X9966667Y-16337604D01*
X9985714Y-16328080D01*
X10014286Y-16328080D01*
X10033333Y-16337604D01*
X10042857Y-16356651D01*
X10042857Y-16461413D01*
X10433333Y-16251889D02*
X10261905Y-16509032D01*
X10690476Y-16261413D02*
X10709524Y-16261413D01*
X10728571Y-16270937D01*
X10738095Y-16280461D01*
X10747619Y-16299509D01*
X10757143Y-16337604D01*
X10757143Y-16385223D01*
X10747619Y-16423318D01*
X10738095Y-16442366D01*
X10728571Y-16451889D01*
X10709524Y-16461413D01*
X10690476Y-16461413D01*
X10671429Y-16451889D01*
X10661905Y-16442366D01*
X10652381Y-16423318D01*
X10642857Y-16385223D01*
X10642857Y-16337604D01*
X10652381Y-16299509D01*
X10661905Y-16280461D01*
X10671429Y-16270937D01*
X10690476Y-16261413D01*
X10842857Y-16442366D02*
X10852381Y-16451889D01*
X10842857Y-16461413D01*
X10833333Y-16451889D01*
X10842857Y-16442366D01*
X10842857Y-16461413D01*
X11042857Y-16461413D02*
X10928571Y-16461413D01*
X10985714Y-16461413D02*
X10985714Y-16261413D01*
X10966667Y-16289985D01*
X10947619Y-16309032D01*
X10928571Y-16318556D01*
X11109524Y-16261413D02*
X11233333Y-16261413D01*
X11166667Y-16337604D01*
X11195238Y-16337604D01*
X11214286Y-16347128D01*
X11223809Y-16356651D01*
X11233333Y-16375699D01*
X11233333Y-16423318D01*
X11223809Y-16442366D01*
X11214286Y-16451889D01*
X11195238Y-16461413D01*
X11138095Y-16461413D01*
X11119048Y-16451889D01*
X11109524Y-16442366D01*
X11300000Y-16261413D02*
X11423809Y-16261413D01*
X11357143Y-16337604D01*
X11385714Y-16337604D01*
X11404762Y-16347128D01*
X11414286Y-16356651D01*
X11423809Y-16375699D01*
X11423809Y-16423318D01*
X11414286Y-16442366D01*
X11404762Y-16451889D01*
X11385714Y-16461413D01*
X11328571Y-16461413D01*
X11309524Y-16451889D01*
X11300000Y-16442366D01*
X11519048Y-16461413D02*
X11557143Y-16461413D01*
X11576190Y-16451889D01*
X11585714Y-16442366D01*
X11604762Y-16413794D01*
X11614286Y-16375699D01*
X11614286Y-16299509D01*
X11604762Y-16280461D01*
X11595238Y-16270937D01*
X11576190Y-16261413D01*
X11538095Y-16261413D01*
X11519048Y-16270937D01*
X11509524Y-16280461D01*
X11500000Y-16299509D01*
X11500000Y-16347128D01*
X11509524Y-16366175D01*
X11519048Y-16375699D01*
X11538095Y-16385223D01*
X11576190Y-16385223D01*
X11595238Y-16375699D01*
X11604762Y-16366175D01*
X11614286Y-16347128D01*
X11690476Y-16261413D02*
X11690476Y-16299509D01*
X11766667Y-16261413D02*
X11766667Y-16299509D01*
X12061905Y-16537604D02*
X12052381Y-16528080D01*
X12033333Y-16499509D01*
X12023809Y-16480461D01*
X12014286Y-16451889D01*
X12004762Y-16404270D01*
X12004762Y-16366175D01*
X12014286Y-16318556D01*
X12023809Y-16289985D01*
X12033333Y-16270937D01*
X12052381Y-16242366D01*
X12061905Y-16232842D01*
X12128571Y-16280461D02*
X12138095Y-16270937D01*
X12157143Y-16261413D01*
X12204762Y-16261413D01*
X12223809Y-16270937D01*
X12233333Y-16280461D01*
X12242857Y-16299509D01*
X12242857Y-16318556D01*
X12233333Y-16347128D01*
X12119048Y-16461413D01*
X12242857Y-16461413D01*
X12338095Y-16461413D02*
X12376190Y-16461413D01*
X12395238Y-16451889D01*
X12404762Y-16442366D01*
X12423809Y-16413794D01*
X12433333Y-16375699D01*
X12433333Y-16299509D01*
X12423809Y-16280461D01*
X12414286Y-16270937D01*
X12395238Y-16261413D01*
X12357143Y-16261413D01*
X12338095Y-16270937D01*
X12328571Y-16280461D01*
X12319048Y-16299509D01*
X12319048Y-16347128D01*
X12328571Y-16366175D01*
X12338095Y-16375699D01*
X12357143Y-16385223D01*
X12395238Y-16385223D01*
X12414286Y-16375699D01*
X12423809Y-16366175D01*
X12433333Y-16347128D01*
X12671428Y-16461413D02*
X12671428Y-16261413D01*
X12757143Y-16461413D02*
X12757143Y-16356651D01*
X12747619Y-16337604D01*
X12728571Y-16328080D01*
X12700000Y-16328080D01*
X12680952Y-16337604D01*
X12671428Y-16347128D01*
X12880952Y-16461413D02*
X12861905Y-16451889D01*
X12852381Y-16442366D01*
X12842857Y-16423318D01*
X12842857Y-16366175D01*
X12852381Y-16347128D01*
X12861905Y-16337604D01*
X12880952Y-16328080D01*
X12909524Y-16328080D01*
X12928571Y-16337604D01*
X12938095Y-16347128D01*
X12947619Y-16366175D01*
X12947619Y-16423318D01*
X12938095Y-16442366D01*
X12928571Y-16451889D01*
X12909524Y-16461413D01*
X12880952Y-16461413D01*
X13061905Y-16461413D02*
X13042857Y-16451889D01*
X13033333Y-16432842D01*
X13033333Y-16261413D01*
X13214286Y-16451889D02*
X13195238Y-16461413D01*
X13157143Y-16461413D01*
X13138095Y-16451889D01*
X13128571Y-16432842D01*
X13128571Y-16356651D01*
X13138095Y-16337604D01*
X13157143Y-16328080D01*
X13195238Y-16328080D01*
X13214286Y-16337604D01*
X13223809Y-16356651D01*
X13223809Y-16375699D01*
X13128571Y-16394747D01*
X13300000Y-16451889D02*
X13319048Y-16461413D01*
X13357143Y-16461413D01*
X13376190Y-16451889D01*
X13385714Y-16432842D01*
X13385714Y-16423318D01*
X13376190Y-16404270D01*
X13357143Y-16394747D01*
X13328571Y-16394747D01*
X13309524Y-16385223D01*
X13300000Y-16366175D01*
X13300000Y-16356651D01*
X13309524Y-16337604D01*
X13328571Y-16328080D01*
X13357143Y-16328080D01*
X13376190Y-16337604D01*
X13452381Y-16537604D02*
X13461905Y-16528080D01*
X13480952Y-16499509D01*
X13490476Y-16480461D01*
X13500000Y-16451889D01*
X13509524Y-16404270D01*
X13509524Y-16366175D01*
X13500000Y-16318556D01*
X13490476Y-16289985D01*
X13480952Y-16270937D01*
X13461905Y-16242366D01*
X13452381Y-16232842D01*
X13814286Y-16537604D02*
X13804762Y-16528080D01*
X13785714Y-16499509D01*
X13776190Y-16480461D01*
X13766667Y-16451889D01*
X13757143Y-16404270D01*
X13757143Y-16366175D01*
X13766667Y-16318556D01*
X13776190Y-16289985D01*
X13785714Y-16270937D01*
X13804762Y-16242366D01*
X13814286Y-16232842D01*
X13890476Y-16328080D02*
X13890476Y-16461413D01*
X13890476Y-16347128D02*
X13900000Y-16337604D01*
X13919048Y-16328080D01*
X13947619Y-16328080D01*
X13966667Y-16337604D01*
X13976190Y-16356651D01*
X13976190Y-16461413D01*
X14100000Y-16461413D02*
X14080952Y-16451889D01*
X14071428Y-16442366D01*
X14061905Y-16423318D01*
X14061905Y-16366175D01*
X14071428Y-16347128D01*
X14080952Y-16337604D01*
X14100000Y-16328080D01*
X14128571Y-16328080D01*
X14147619Y-16337604D01*
X14157143Y-16347128D01*
X14166667Y-16366175D01*
X14166667Y-16423318D01*
X14157143Y-16442366D01*
X14147619Y-16451889D01*
X14128571Y-16461413D01*
X14100000Y-16461413D01*
X14223809Y-16328080D02*
X14300000Y-16328080D01*
X14252381Y-16261413D02*
X14252381Y-16432842D01*
X14261905Y-16451889D01*
X14280952Y-16461413D01*
X14300000Y-16461413D01*
X14519048Y-16328080D02*
X14519048Y-16528080D01*
X14519048Y-16337604D02*
X14538095Y-16328080D01*
X14576190Y-16328080D01*
X14595238Y-16337604D01*
X14604762Y-16347128D01*
X14614286Y-16366175D01*
X14614286Y-16423318D01*
X14604762Y-16442366D01*
X14595238Y-16451889D01*
X14576190Y-16461413D01*
X14538095Y-16461413D01*
X14519048Y-16451889D01*
X14728571Y-16461413D02*
X14709524Y-16451889D01*
X14700000Y-16432842D01*
X14700000Y-16261413D01*
X14890476Y-16461413D02*
X14890476Y-16356651D01*
X14880952Y-16337604D01*
X14861905Y-16328080D01*
X14823809Y-16328080D01*
X14804762Y-16337604D01*
X14890476Y-16451889D02*
X14871428Y-16461413D01*
X14823809Y-16461413D01*
X14804762Y-16451889D01*
X14795238Y-16432842D01*
X14795238Y-16413794D01*
X14804762Y-16394747D01*
X14823809Y-16385223D01*
X14871428Y-16385223D01*
X14890476Y-16375699D01*
X14957143Y-16328080D02*
X15033333Y-16328080D01*
X14985714Y-16261413D02*
X14985714Y-16432842D01*
X14995238Y-16451889D01*
X15014286Y-16461413D01*
X15033333Y-16461413D01*
X15176190Y-16451889D02*
X15157143Y-16461413D01*
X15119048Y-16461413D01*
X15100000Y-16451889D01*
X15090476Y-16432842D01*
X15090476Y-16356651D01*
X15100000Y-16337604D01*
X15119048Y-16328080D01*
X15157143Y-16328080D01*
X15176190Y-16337604D01*
X15185714Y-16356651D01*
X15185714Y-16375699D01*
X15090476Y-16394747D01*
X15357143Y-16461413D02*
X15357143Y-16261413D01*
X15357143Y-16451889D02*
X15338095Y-16461413D01*
X15300000Y-16461413D01*
X15280952Y-16451889D01*
X15271428Y-16442366D01*
X15261905Y-16423318D01*
X15261905Y-16366175D01*
X15271428Y-16347128D01*
X15280952Y-16337604D01*
X15300000Y-16328080D01*
X15338095Y-16328080D01*
X15357143Y-16337604D01*
X15433333Y-16537604D02*
X15442857Y-16528080D01*
X15461905Y-16499509D01*
X15471428Y-16480461D01*
X15480952Y-16451889D01*
X15490476Y-16404270D01*
X15490476Y-16366175D01*
X15480952Y-16318556D01*
X15471428Y-16289985D01*
X15461905Y-16270937D01*
X15442857Y-16242366D01*
X15433333Y-16232842D01*
M02*
