%FSLAX45Y45*%
G04 Gerber Fmt 4.5, Leading zero omitted, Abs format (unit mm)*
G04 Created by KiCad (PCBNEW 6.0.2+dfsg-1) date 2022-11-14 21:07:41*
%MOMM*%
%LPD*%
G01*
G04 APERTURE LIST*
%TA.AperFunction,Profile*%
%ADD10C,0.100000*%
%TD*%
%ADD11C,0.200000*%
%ADD12C,0.030000*%
%ADD13C,0.040000*%
%ADD14C,0.081280*%
%ADD15C,0.099060*%
%ADD16C,0.100000*%
%ADD17C,0.110000*%
%ADD18C,0.130000*%
%ADD19C,0.150000*%
G04 APERTURE END LIST*
D10*
X9745000Y-14265000D02*
X10385000Y-13960000D01*
X18055000Y-12910000D02*
G75*
G03*
X22269607Y-12343529I-667818J20930457D01*
G01*
X16800000Y-3095000D02*
G75*
G03*
X15410000Y-3055000I-993491J-10352566D01*
G01*
X9150000Y-14065000D02*
G75*
G03*
X9745000Y-14265000I394174J187604D01*
G01*
X22320000Y-4860000D02*
G75*
G03*
X16800000Y-3095000I-7321029J-13382020D01*
G01*
X15410000Y-3055000D02*
G75*
G03*
X8910000Y-4175000I1452346J-27850401D01*
G01*
X8685000Y-13020000D02*
X9150000Y-14065000D01*
X14845000Y-12935000D02*
X18055000Y-12910000D01*
X22269607Y-12343529D02*
G75*
G03*
X22575000Y-11960000I-66506J366309D01*
G01*
X22573223Y-5265000D02*
G75*
G03*
X22320000Y-4860000I-455442J-3099D01*
G01*
X8495000Y-4750000D02*
X8495000Y-12055000D01*
X8910000Y-4175000D02*
G75*
G03*
X8495000Y-4750000I216806J-593738D01*
G01*
X8495000Y-12055000D02*
G75*
G03*
X8685000Y-13020000I2649531J20465D01*
G01*
X22573223Y-5265000D02*
X22575000Y-11960000D01*
X14845000Y-12935000D02*
G75*
G03*
X10385000Y-13960000I222671J-11184608D01*
G01*
D11*
D12*
X8540000Y-4675000D02*
X8570000Y-4705000D01*
X8570000Y-4675000D02*
X8540000Y-4705000D01*
X8667500Y-9930000D02*
X8697500Y-9960000D01*
X8697500Y-9930000D02*
X8667500Y-9960000D01*
X8905000Y-9327500D02*
X8935000Y-9357500D01*
X8935000Y-9327500D02*
X8905000Y-9357500D01*
X8905000Y-9390000D02*
X8935000Y-9420000D01*
X8935000Y-9390000D02*
X8905000Y-9420000D01*
X8980000Y-8665000D02*
X9010000Y-8695000D01*
X9010000Y-8665000D02*
X8980000Y-8695000D01*
X8985000Y-10155000D02*
X9015000Y-10185000D01*
X9015000Y-10155000D02*
X8985000Y-10185000D01*
X9232500Y-9070000D02*
X9262500Y-9100000D01*
X9262500Y-9070000D02*
X9232500Y-9100000D01*
X9255032Y-13432005D02*
X9285032Y-13462005D01*
X9285032Y-13432005D02*
X9255032Y-13462005D01*
X9301331Y-12638051D02*
X9331331Y-12668051D01*
X9331331Y-12638051D02*
X9301331Y-12668051D01*
X9422500Y-12432500D02*
X9452500Y-12462500D01*
X9452500Y-12432500D02*
X9422500Y-12462500D01*
X9712500Y-9072500D02*
X9742500Y-9102500D01*
X9742500Y-9072500D02*
X9712500Y-9102500D01*
X9825000Y-7720000D02*
X9855000Y-7750000D01*
X9855000Y-7720000D02*
X9825000Y-7750000D01*
X9827500Y-8215000D02*
X9857500Y-8245000D01*
X9857500Y-8215000D02*
X9827500Y-8245000D01*
X9827500Y-8292500D02*
X9857500Y-8322500D01*
X9857500Y-8292500D02*
X9827500Y-8322500D01*
X9827500Y-8432500D02*
X9857500Y-8462500D01*
X9857500Y-8432500D02*
X9827500Y-8462500D01*
X9965000Y-9072500D02*
X9995000Y-9102500D01*
X9995000Y-9072500D02*
X9965000Y-9102500D01*
X10037505Y-12617505D02*
X10067505Y-12647505D01*
X10067505Y-12617505D02*
X10037505Y-12647505D01*
X10042216Y-12292516D02*
X10072216Y-12322516D01*
X10072216Y-12292516D02*
X10042216Y-12322516D01*
X10053121Y-13286043D02*
X10083121Y-13316043D01*
X10083121Y-13286043D02*
X10053121Y-13316043D01*
X10102500Y-9072500D02*
X10132500Y-9102500D01*
X10132500Y-9072500D02*
X10102500Y-9102500D01*
X10177500Y-7627500D02*
X10207500Y-7657500D01*
X10207500Y-7627500D02*
X10177500Y-7657500D01*
X10510000Y-8212500D02*
X10540000Y-8242500D01*
X10540000Y-8212500D02*
X10510000Y-8242500D01*
X10582500Y-9250000D02*
X10612500Y-9280000D01*
X10612500Y-9250000D02*
X10582500Y-9280000D01*
X10630000Y-7942500D02*
X10660000Y-7972500D01*
X10660000Y-7942500D02*
X10630000Y-7972500D01*
X10632500Y-11287500D02*
X10662500Y-11317500D01*
X10662500Y-11287500D02*
X10632500Y-11317500D01*
X10827500Y-11780000D02*
X10857500Y-11810000D01*
X10857500Y-11780000D02*
X10827500Y-11810000D01*
X10832500Y-7560000D02*
X10862500Y-7590000D01*
X10862500Y-7560000D02*
X10832500Y-7590000D01*
X10860000Y-13137500D02*
X10890000Y-13167500D01*
X10890000Y-13137500D02*
X10860000Y-13167500D01*
X10862500Y-4645000D02*
X10892500Y-4675000D01*
X10892500Y-4645000D02*
X10862500Y-4675000D01*
X10867500Y-5490000D02*
X10897500Y-5520000D01*
X10897500Y-5490000D02*
X10867500Y-5520000D01*
X10887500Y-7050000D02*
X10917500Y-7080000D01*
X10917500Y-7050000D02*
X10887500Y-7080000D01*
X10887500Y-11115000D02*
X10917500Y-11145000D01*
X10917500Y-11115000D02*
X10887500Y-11145000D01*
X10887500Y-11187500D02*
X10917500Y-11217500D01*
X10917500Y-11187500D02*
X10887500Y-11217500D01*
X10892500Y-6367500D02*
X10922500Y-6397500D01*
X10922500Y-6367500D02*
X10892500Y-6397500D01*
X10892500Y-11495000D02*
X10922500Y-11525000D01*
X10922500Y-11495000D02*
X10892500Y-11525000D01*
X10945000Y-6820000D02*
X10975000Y-6850000D01*
X10975000Y-6820000D02*
X10945000Y-6850000D01*
X10945000Y-9320000D02*
X10975000Y-9350000D01*
X10975000Y-9320000D02*
X10945000Y-9350000D01*
X10975000Y-4017500D02*
X11005000Y-4047500D01*
X11005000Y-4017500D02*
X10975000Y-4047500D01*
X11012500Y-6022500D02*
X11042500Y-6052500D01*
X11042500Y-6022500D02*
X11012500Y-6052500D01*
X11012500Y-7627500D02*
X11042500Y-7657500D01*
X11042500Y-7627500D02*
X11012500Y-7657500D01*
X11012500Y-9620000D02*
X11042500Y-9650000D01*
X11042500Y-9620000D02*
X11012500Y-9650000D01*
X11082500Y-5025000D02*
X11112500Y-5055000D01*
X11112500Y-5025000D02*
X11082500Y-5055000D01*
X11082500Y-6330000D02*
X11112500Y-6360000D01*
X11112500Y-6330000D02*
X11082500Y-6360000D01*
X11082500Y-8130000D02*
X11112500Y-8160000D01*
X11112500Y-8130000D02*
X11082500Y-8160000D01*
X11082500Y-9930000D02*
X11112500Y-9960000D01*
X11112500Y-9930000D02*
X11082500Y-9960000D01*
X11096562Y-12614663D02*
X11126562Y-12644663D01*
X11126562Y-12614663D02*
X11096562Y-12644663D01*
X11097500Y-11705000D02*
X11127500Y-11735000D01*
X11127500Y-11705000D02*
X11097500Y-11735000D01*
X11132500Y-4560000D02*
X11162500Y-4590000D01*
X11162500Y-4560000D02*
X11132500Y-4590000D01*
X11177500Y-4615000D02*
X11207500Y-4645000D01*
X11207500Y-4615000D02*
X11177500Y-4645000D01*
X11222500Y-4662500D02*
X11252500Y-4692500D01*
X11252500Y-4662500D02*
X11222500Y-4692500D01*
X11255000Y-4940000D02*
X11285000Y-4970000D01*
X11285000Y-4940000D02*
X11255000Y-4970000D01*
X11255000Y-6737950D02*
X11285000Y-6767950D01*
X11285000Y-6737950D02*
X11255000Y-6767950D01*
X11255000Y-7590000D02*
X11285000Y-7620000D01*
X11285000Y-7590000D02*
X11255000Y-7620000D01*
X11255000Y-8537950D02*
X11285000Y-8567950D01*
X11285000Y-8537950D02*
X11255000Y-8567950D01*
X11255000Y-10337950D02*
X11285000Y-10367950D01*
X11285000Y-10337950D02*
X11255000Y-10367950D01*
X11280026Y-11840811D02*
X11310026Y-11870811D01*
X11310026Y-11840811D02*
X11280026Y-11870811D01*
X11282500Y-11187500D02*
X11312500Y-11217500D01*
X11312500Y-11187500D02*
X11282500Y-11217500D01*
X11380000Y-9447500D02*
X11410000Y-9477500D01*
X11410000Y-9447500D02*
X11380000Y-9477500D01*
X11387500Y-7305000D02*
X11417500Y-7335000D01*
X11417500Y-7305000D02*
X11387500Y-7335000D01*
X11392500Y-5495000D02*
X11422500Y-5525000D01*
X11422500Y-5495000D02*
X11392500Y-5525000D01*
X11392500Y-9105000D02*
X11422500Y-9135000D01*
X11422500Y-9105000D02*
X11392500Y-9135000D01*
X11405000Y-5857500D02*
X11435000Y-5887500D01*
X11435000Y-5857500D02*
X11405000Y-5887500D01*
X11405000Y-11667500D02*
X11435000Y-11697500D01*
X11435000Y-11667500D02*
X11405000Y-11697500D01*
X11435000Y-7662500D02*
X11465000Y-7692500D01*
X11465000Y-7662500D02*
X11435000Y-7692500D01*
X11487500Y-12245000D02*
X11517500Y-12275000D01*
X11517500Y-12245000D02*
X11487500Y-12275000D01*
X11632500Y-4240000D02*
X11662500Y-4270000D01*
X11662500Y-4240000D02*
X11632500Y-4270000D01*
X11632500Y-6037950D02*
X11662500Y-6067950D01*
X11662500Y-6037950D02*
X11632500Y-6067950D01*
X11632500Y-7837950D02*
X11662500Y-7867950D01*
X11662500Y-7837950D02*
X11632500Y-7867950D01*
X11632500Y-9637950D02*
X11662500Y-9667950D01*
X11662500Y-9637950D02*
X11632500Y-9667950D01*
X11665000Y-8255000D02*
X11695000Y-8285000D01*
X11695000Y-8255000D02*
X11665000Y-8285000D01*
X11672500Y-6475000D02*
X11702500Y-6505000D01*
X11702500Y-6475000D02*
X11672500Y-6505000D01*
X11672500Y-10057500D02*
X11702500Y-10087500D01*
X11702500Y-10057500D02*
X11672500Y-10087500D01*
X11760000Y-4112500D02*
X11790000Y-4142500D01*
X11790000Y-4112500D02*
X11760000Y-4142500D01*
X11760000Y-5900000D02*
X11790000Y-5930000D01*
X11790000Y-5900000D02*
X11760000Y-5930000D01*
X11760000Y-7700000D02*
X11790000Y-7730000D01*
X11790000Y-7700000D02*
X11760000Y-7730000D01*
X11760000Y-9500000D02*
X11790000Y-9530000D01*
X11790000Y-9500000D02*
X11760000Y-9530000D01*
X11907872Y-12609505D02*
X11937872Y-12639505D01*
X11937872Y-12609505D02*
X11907872Y-12639505D01*
X12010145Y-11947994D02*
X12040145Y-11977994D01*
X12040145Y-11947994D02*
X12010145Y-11977994D01*
X12040000Y-5145000D02*
X12070000Y-5175000D01*
X12070000Y-5145000D02*
X12040000Y-5175000D01*
X12040000Y-6942950D02*
X12070000Y-6972950D01*
X12070000Y-6942950D02*
X12040000Y-6972950D01*
X12040000Y-8742950D02*
X12070000Y-8772950D01*
X12070000Y-8742950D02*
X12040000Y-8772950D01*
X12040000Y-10542950D02*
X12070000Y-10572950D01*
X12070000Y-10542950D02*
X12040000Y-10572950D01*
X12069657Y-11629178D02*
X12099657Y-11659178D01*
X12099657Y-11629178D02*
X12069657Y-11659178D01*
X12132500Y-12030000D02*
X12162500Y-12060000D01*
X12162500Y-12030000D02*
X12132500Y-12060000D01*
X12272500Y-11600000D02*
X12302500Y-11630000D01*
X12302500Y-11600000D02*
X12272500Y-11630000D01*
X12310000Y-4532500D02*
X12340000Y-4562500D01*
X12340000Y-4532500D02*
X12310000Y-4562500D01*
X12310000Y-6330450D02*
X12340000Y-6360450D01*
X12340000Y-6330450D02*
X12310000Y-6360450D01*
X12310000Y-8130450D02*
X12340000Y-8160450D01*
X12340000Y-8130450D02*
X12310000Y-8160450D01*
X12310000Y-9930450D02*
X12340000Y-9960450D01*
X12340000Y-9930450D02*
X12310000Y-9960450D01*
X12450000Y-4239950D02*
X12480000Y-4269950D01*
X12480000Y-4239950D02*
X12450000Y-4269950D01*
X12450000Y-6037900D02*
X12480000Y-6067900D01*
X12480000Y-6037900D02*
X12450000Y-6067900D01*
X12450000Y-7837900D02*
X12480000Y-7867900D01*
X12480000Y-7837900D02*
X12450000Y-7867900D01*
X12450000Y-9637900D02*
X12480000Y-9667900D01*
X12480000Y-9637900D02*
X12450000Y-9667900D01*
X12690000Y-12070000D02*
X12720000Y-12100000D01*
X12720000Y-12070000D02*
X12690000Y-12100000D01*
X12797500Y-7517500D02*
X12827500Y-7547500D01*
X12827500Y-7517500D02*
X12797500Y-7547500D01*
X12822500Y-9272500D02*
X12852500Y-9302500D01*
X12852500Y-9272500D02*
X12822500Y-9302500D01*
X12902500Y-11325000D02*
X12932500Y-11355000D01*
X12932500Y-11325000D02*
X12902500Y-11355000D01*
X13045000Y-11985000D02*
X13075000Y-12015000D01*
X13075000Y-11985000D02*
X13045000Y-12015000D01*
X13049707Y-12135295D02*
X13079707Y-12165295D01*
X13079707Y-12135295D02*
X13049707Y-12165295D01*
X13090000Y-11227500D02*
X13120000Y-11257500D01*
X13120000Y-11227500D02*
X13090000Y-11257500D01*
X13097500Y-3762500D02*
X13127500Y-3792500D01*
X13127500Y-3762500D02*
X13097500Y-3792500D01*
X13155000Y-4712950D02*
X13185000Y-4742950D01*
X13185000Y-4712950D02*
X13155000Y-4742950D01*
X13155000Y-6512950D02*
X13185000Y-6542950D01*
X13185000Y-6512950D02*
X13155000Y-6542950D01*
X13155000Y-8312950D02*
X13185000Y-8342950D01*
X13185000Y-8312950D02*
X13155000Y-8342950D01*
X13155000Y-10112950D02*
X13185000Y-10142950D01*
X13185000Y-10112950D02*
X13155000Y-10142950D01*
X13230000Y-10760000D02*
X13260000Y-10790000D01*
X13260000Y-10760000D02*
X13230000Y-10790000D01*
X13262500Y-7775000D02*
X13292500Y-7805000D01*
X13292500Y-7775000D02*
X13262500Y-7805000D01*
X13265000Y-7112500D02*
X13295000Y-7142500D01*
X13295000Y-7112500D02*
X13265000Y-7142500D01*
X13267500Y-5292500D02*
X13297500Y-5322500D01*
X13297500Y-5292500D02*
X13267500Y-5322500D01*
X13364762Y-11405058D02*
X13394762Y-11435058D01*
X13394762Y-11405058D02*
X13364762Y-11435058D01*
X13495000Y-11257500D02*
X13525000Y-11287500D01*
X13525000Y-11257500D02*
X13495000Y-11287500D01*
X13515000Y-11780000D02*
X13545000Y-11810000D01*
X13545000Y-11780000D02*
X13515000Y-11810000D01*
X13532500Y-4012950D02*
X13562500Y-4042950D01*
X13562500Y-4012950D02*
X13532500Y-4042950D01*
X13532500Y-5812950D02*
X13562500Y-5842950D01*
X13562500Y-5812950D02*
X13532500Y-5842950D01*
X13532500Y-7612950D02*
X13562500Y-7642950D01*
X13562500Y-7612950D02*
X13532500Y-7642950D01*
X13532500Y-9412950D02*
X13562500Y-9442950D01*
X13562500Y-9412950D02*
X13532500Y-9442950D01*
X13542500Y-6205000D02*
X13572500Y-6235000D01*
X13572500Y-6205000D02*
X13542500Y-6235000D01*
X13542500Y-8012500D02*
X13572500Y-8042500D01*
X13572500Y-8012500D02*
X13542500Y-8042500D01*
X13545000Y-9817500D02*
X13575000Y-9847500D01*
X13575000Y-9817500D02*
X13545000Y-9847500D01*
X13660000Y-3877500D02*
X13690000Y-3907500D01*
X13690000Y-3877500D02*
X13660000Y-3907500D01*
X13660000Y-5675000D02*
X13690000Y-5705000D01*
X13690000Y-5675000D02*
X13660000Y-5705000D01*
X13660000Y-7475000D02*
X13690000Y-7505000D01*
X13690000Y-7475000D02*
X13660000Y-7505000D01*
X13660000Y-9275000D02*
X13690000Y-9305000D01*
X13690000Y-9275000D02*
X13660000Y-9305000D01*
X13687500Y-11140000D02*
X13717500Y-11170000D01*
X13717500Y-11140000D02*
X13687500Y-11170000D01*
X13849587Y-12271098D02*
X13879587Y-12301098D01*
X13879587Y-12271098D02*
X13849587Y-12301098D01*
X13940000Y-4917950D02*
X13970000Y-4947950D01*
X13970000Y-4917950D02*
X13940000Y-4947950D01*
X13940000Y-6717950D02*
X13970000Y-6747950D01*
X13970000Y-6717950D02*
X13940000Y-6747950D01*
X13940000Y-8517950D02*
X13970000Y-8547950D01*
X13970000Y-8517950D02*
X13940000Y-8547950D01*
X13940000Y-10317950D02*
X13970000Y-10347950D01*
X13970000Y-10317950D02*
X13940000Y-10347950D01*
X14065177Y-11637396D02*
X14095177Y-11667396D01*
X14095177Y-11637396D02*
X14065177Y-11667396D01*
X14179147Y-11333758D02*
X14209147Y-11363758D01*
X14209147Y-11333758D02*
X14179147Y-11363758D01*
X14210000Y-4305450D02*
X14240000Y-4335450D01*
X14240000Y-4305450D02*
X14210000Y-4335450D01*
X14210000Y-6105450D02*
X14240000Y-6135450D01*
X14240000Y-6105450D02*
X14210000Y-6135450D01*
X14210000Y-7905450D02*
X14240000Y-7935450D01*
X14240000Y-7905450D02*
X14210000Y-7935450D01*
X14210000Y-9705450D02*
X14240000Y-9735450D01*
X14240000Y-9705450D02*
X14210000Y-9735450D01*
X14350000Y-4012900D02*
X14380000Y-4042900D01*
X14380000Y-4012900D02*
X14350000Y-4042900D01*
X14350000Y-5812900D02*
X14380000Y-5842900D01*
X14380000Y-5812900D02*
X14350000Y-5842900D01*
X14350000Y-7612900D02*
X14380000Y-7642900D01*
X14380000Y-7612900D02*
X14350000Y-7642900D01*
X14350000Y-9412900D02*
X14380000Y-9442900D01*
X14380000Y-9412900D02*
X14350000Y-9442900D01*
X14410000Y-3360000D02*
X14440000Y-3390000D01*
X14440000Y-3360000D02*
X14410000Y-3390000D01*
X14625000Y-5475000D02*
X14655000Y-5505000D01*
X14655000Y-5475000D02*
X14625000Y-5505000D01*
X14682500Y-3590000D02*
X14712500Y-3620000D01*
X14712500Y-3590000D02*
X14682500Y-3620000D01*
X14817500Y-12702500D02*
X14847500Y-12732500D01*
X14847500Y-12702500D02*
X14817500Y-12732500D01*
X14935000Y-10972500D02*
X14965000Y-11002500D01*
X14965000Y-10972500D02*
X14935000Y-11002500D01*
X14995000Y-11980450D02*
X15025000Y-12010450D01*
X15025000Y-11980450D02*
X14995000Y-12010450D01*
X15055000Y-4132950D02*
X15085000Y-4162950D01*
X15085000Y-4132950D02*
X15055000Y-4162950D01*
X15055000Y-5930450D02*
X15085000Y-5960450D01*
X15085000Y-5930450D02*
X15055000Y-5960450D01*
X15055000Y-7730450D02*
X15085000Y-7760450D01*
X15085000Y-7730450D02*
X15055000Y-7760450D01*
X15055000Y-9530450D02*
X15085000Y-9560450D01*
X15085000Y-9530450D02*
X15055000Y-9560450D01*
X15147500Y-9020000D02*
X15177500Y-9050000D01*
X15177500Y-9020000D02*
X15147500Y-9050000D01*
X15190000Y-8377500D02*
X15220000Y-8407500D01*
X15220000Y-8377500D02*
X15190000Y-8407500D01*
X15192500Y-10157500D02*
X15222500Y-10187500D01*
X15222500Y-10157500D02*
X15192500Y-10187500D01*
X15197500Y-6572500D02*
X15227500Y-6602500D01*
X15227500Y-6572500D02*
X15197500Y-6602500D01*
X15210000Y-10802500D02*
X15240000Y-10832500D01*
X15240000Y-10802500D02*
X15210000Y-10832500D01*
X15212500Y-4732500D02*
X15242500Y-4762500D01*
X15242500Y-4732500D02*
X15212500Y-4762500D01*
X15277500Y-5107500D02*
X15307500Y-5137500D01*
X15307500Y-5107500D02*
X15277500Y-5137500D01*
X15372500Y-11280450D02*
X15402500Y-11310450D01*
X15402500Y-11280450D02*
X15372500Y-11310450D01*
X15432500Y-3432950D02*
X15462500Y-3462950D01*
X15462500Y-3432950D02*
X15432500Y-3462950D01*
X15432500Y-5230450D02*
X15462500Y-5260450D01*
X15462500Y-5230450D02*
X15432500Y-5260450D01*
X15432500Y-7030450D02*
X15462500Y-7060450D01*
X15462500Y-7030450D02*
X15432500Y-7060450D01*
X15432500Y-8830450D02*
X15462500Y-8860450D01*
X15462500Y-8830450D02*
X15432500Y-8860450D01*
X15472500Y-3835000D02*
X15502500Y-3865000D01*
X15502500Y-3835000D02*
X15472500Y-3865000D01*
X15475000Y-9250000D02*
X15505000Y-9280000D01*
X15505000Y-9250000D02*
X15475000Y-9280000D01*
X15482500Y-7445000D02*
X15512500Y-7475000D01*
X15512500Y-7445000D02*
X15482500Y-7475000D01*
X15482500Y-11710000D02*
X15512500Y-11740000D01*
X15512500Y-11710000D02*
X15482500Y-11740000D01*
X15485000Y-5650000D02*
X15515000Y-5680000D01*
X15515000Y-5650000D02*
X15485000Y-5680000D01*
X15500000Y-11145000D02*
X15530000Y-11175000D01*
X15530000Y-11145000D02*
X15500000Y-11175000D01*
X15560000Y-3295000D02*
X15590000Y-3325000D01*
X15590000Y-3295000D02*
X15560000Y-3325000D01*
X15560000Y-5095000D02*
X15590000Y-5125000D01*
X15590000Y-5095000D02*
X15560000Y-5125000D01*
X15560000Y-6892500D02*
X15590000Y-6922500D01*
X15590000Y-6892500D02*
X15560000Y-6922500D01*
X15560000Y-8692500D02*
X15590000Y-8722500D01*
X15590000Y-8692500D02*
X15560000Y-8722500D01*
X15780000Y-12185450D02*
X15810000Y-12215450D01*
X15810000Y-12185450D02*
X15780000Y-12215450D01*
X15832500Y-10590000D02*
X15862500Y-10620000D01*
X15862500Y-10590000D02*
X15832500Y-10620000D01*
X15840000Y-4337950D02*
X15870000Y-4367950D01*
X15870000Y-4337950D02*
X15840000Y-4367950D01*
X15840000Y-6135450D02*
X15870000Y-6165450D01*
X15870000Y-6135450D02*
X15840000Y-6165450D01*
X15840000Y-7935450D02*
X15870000Y-7965450D01*
X15870000Y-7935450D02*
X15840000Y-7965450D01*
X15840000Y-9735450D02*
X15870000Y-9765450D01*
X15870000Y-9735450D02*
X15840000Y-9765450D01*
X16050000Y-11572950D02*
X16080000Y-11602950D01*
X16080000Y-11572950D02*
X16050000Y-11602950D01*
X16050000Y-11692500D02*
X16080000Y-11722500D01*
X16080000Y-11692500D02*
X16050000Y-11722500D01*
X16100000Y-11872500D02*
X16130000Y-11902500D01*
X16130000Y-11872500D02*
X16100000Y-11902500D01*
X16110000Y-3725450D02*
X16140000Y-3755450D01*
X16140000Y-3725450D02*
X16110000Y-3755450D01*
X16110000Y-5522950D02*
X16140000Y-5552950D01*
X16140000Y-5522950D02*
X16110000Y-5552950D01*
X16110000Y-7322950D02*
X16140000Y-7352950D01*
X16140000Y-7322950D02*
X16110000Y-7352950D01*
X16110000Y-9122950D02*
X16140000Y-9152950D01*
X16140000Y-9122950D02*
X16110000Y-9152950D01*
X16190000Y-11065000D02*
X16220000Y-11095000D01*
X16220000Y-11065000D02*
X16190000Y-11095000D01*
X16190000Y-11280400D02*
X16220000Y-11310400D01*
X16220000Y-11280400D02*
X16190000Y-11310400D01*
X16250000Y-3432900D02*
X16280000Y-3462900D01*
X16280000Y-3432900D02*
X16250000Y-3462900D01*
X16250000Y-5230400D02*
X16280000Y-5260400D01*
X16280000Y-5230400D02*
X16250000Y-5260400D01*
X16250000Y-7030400D02*
X16280000Y-7060400D01*
X16280000Y-7030400D02*
X16250000Y-7060400D01*
X16250000Y-8830400D02*
X16280000Y-8860400D01*
X16280000Y-8830400D02*
X16250000Y-8860400D01*
X16535000Y-10827500D02*
X16565000Y-10857500D01*
X16565000Y-10827500D02*
X16535000Y-10857500D01*
X16675000Y-10242500D02*
X16705000Y-10272500D01*
X16705000Y-10242500D02*
X16675000Y-10272500D01*
X16765000Y-11485000D02*
X16795000Y-11515000D01*
X16795000Y-11485000D02*
X16765000Y-11515000D01*
X16837500Y-5667500D02*
X16867500Y-5697500D01*
X16867500Y-5667500D02*
X16837500Y-5697500D01*
X16895000Y-11982950D02*
X16925000Y-12012950D01*
X16925000Y-11982950D02*
X16895000Y-12012950D01*
X16915000Y-3475000D02*
X16945000Y-3505000D01*
X16945000Y-3475000D02*
X16915000Y-3505000D01*
X16955000Y-4782950D02*
X16985000Y-4812950D01*
X16985000Y-4782950D02*
X16955000Y-4812950D01*
X16955000Y-6582950D02*
X16985000Y-6612950D01*
X16985000Y-6582950D02*
X16955000Y-6612950D01*
X16955000Y-8382950D02*
X16985000Y-8412950D01*
X16985000Y-8382950D02*
X16955000Y-8412950D01*
X16955000Y-10182950D02*
X16985000Y-10212950D01*
X16985000Y-10182950D02*
X16955000Y-10212950D01*
X16955000Y-11295000D02*
X16985000Y-11325000D01*
X16985000Y-11295000D02*
X16955000Y-11325000D01*
X17052500Y-5357500D02*
X17082500Y-5387500D01*
X17082500Y-5357500D02*
X17052500Y-5387500D01*
X17057500Y-10750000D02*
X17087500Y-10780000D01*
X17087500Y-10750000D02*
X17057500Y-10780000D01*
X17067500Y-7172500D02*
X17097500Y-7202500D01*
X17097500Y-7172500D02*
X17067500Y-7202500D01*
X17067500Y-8957500D02*
X17097500Y-8987500D01*
X17097500Y-8957500D02*
X17067500Y-8987500D01*
X17272500Y-11282950D02*
X17302500Y-11312950D01*
X17302500Y-11282950D02*
X17272500Y-11312950D01*
X17327500Y-11692500D02*
X17357500Y-11722500D01*
X17357500Y-11692500D02*
X17327500Y-11722500D01*
X17332500Y-4082950D02*
X17362500Y-4112950D01*
X17362500Y-4082950D02*
X17332500Y-4112950D01*
X17332500Y-5882950D02*
X17362500Y-5912950D01*
X17362500Y-5882950D02*
X17332500Y-5912950D01*
X17332500Y-7682950D02*
X17362500Y-7712950D01*
X17362500Y-7682950D02*
X17332500Y-7712950D01*
X17332500Y-9482950D02*
X17362500Y-9512950D01*
X17362500Y-9482950D02*
X17332500Y-9512950D01*
X17342500Y-6275000D02*
X17372500Y-6305000D01*
X17372500Y-6275000D02*
X17342500Y-6305000D01*
X17342500Y-8090000D02*
X17372500Y-8120000D01*
X17372500Y-8090000D02*
X17342500Y-8120000D01*
X17347500Y-9897500D02*
X17377500Y-9927500D01*
X17377500Y-9897500D02*
X17347500Y-9927500D01*
X17400000Y-11145000D02*
X17430000Y-11175000D01*
X17430000Y-11145000D02*
X17400000Y-11175000D01*
X17460000Y-3947500D02*
X17490000Y-3977500D01*
X17490000Y-3947500D02*
X17460000Y-3977500D01*
X17460000Y-5745000D02*
X17490000Y-5775000D01*
X17490000Y-5745000D02*
X17460000Y-5775000D01*
X17460000Y-7545000D02*
X17490000Y-7575000D01*
X17490000Y-7545000D02*
X17460000Y-7575000D01*
X17460000Y-9345000D02*
X17490000Y-9375000D01*
X17490000Y-9345000D02*
X17460000Y-9375000D01*
X17680000Y-12187950D02*
X17710000Y-12217950D01*
X17710000Y-12187950D02*
X17680000Y-12217950D01*
X17740000Y-4987950D02*
X17770000Y-5017950D01*
X17770000Y-4987950D02*
X17740000Y-5017950D01*
X17740000Y-6787950D02*
X17770000Y-6817950D01*
X17770000Y-6787950D02*
X17740000Y-6817950D01*
X17740000Y-8587950D02*
X17770000Y-8617950D01*
X17770000Y-8587950D02*
X17740000Y-8617950D01*
X17740000Y-10387950D02*
X17770000Y-10417950D01*
X17770000Y-10387950D02*
X17740000Y-10417950D01*
X17950000Y-11575450D02*
X17980000Y-11605450D01*
X17980000Y-11575450D02*
X17950000Y-11605450D01*
X18010000Y-4375450D02*
X18040000Y-4405450D01*
X18040000Y-4375450D02*
X18010000Y-4405450D01*
X18010000Y-6175450D02*
X18040000Y-6205450D01*
X18040000Y-6175450D02*
X18010000Y-6205450D01*
X18010000Y-7975450D02*
X18040000Y-8005450D01*
X18040000Y-7975450D02*
X18010000Y-8005450D01*
X18010000Y-9775450D02*
X18040000Y-9805450D01*
X18040000Y-9775450D02*
X18010000Y-9805450D01*
X18090000Y-11282900D02*
X18120000Y-11312900D01*
X18120000Y-11282900D02*
X18090000Y-11312900D01*
X18150000Y-4082900D02*
X18180000Y-4112900D01*
X18180000Y-4082900D02*
X18150000Y-4112900D01*
X18150000Y-5882900D02*
X18180000Y-5912900D01*
X18180000Y-5882900D02*
X18150000Y-5912900D01*
X18150000Y-7682900D02*
X18180000Y-7712900D01*
X18180000Y-7682900D02*
X18150000Y-7712900D01*
X18150000Y-9482900D02*
X18180000Y-9512900D01*
X18180000Y-9482900D02*
X18150000Y-9512900D01*
X18460000Y-11615000D02*
X18490000Y-11645000D01*
X18490000Y-11615000D02*
X18460000Y-11645000D01*
X18540000Y-9032500D02*
X18570000Y-9062500D01*
X18570000Y-9032500D02*
X18540000Y-9062500D01*
X18590000Y-4400000D02*
X18620000Y-4430000D01*
X18620000Y-4400000D02*
X18590000Y-4430000D01*
X18662500Y-12437500D02*
X18692500Y-12467500D01*
X18692500Y-12437500D02*
X18662500Y-12467500D01*
X18802550Y-10077500D02*
X18832550Y-10107500D01*
X18832550Y-10077500D02*
X18802550Y-10107500D01*
X18855000Y-6057950D02*
X18885000Y-6087950D01*
X18885000Y-6057950D02*
X18855000Y-6087950D01*
X18855000Y-7857950D02*
X18885000Y-7887950D01*
X18885000Y-7857950D02*
X18855000Y-7887950D01*
X18855000Y-9657950D02*
X18885000Y-9687950D01*
X18885000Y-9657950D02*
X18855000Y-9687950D01*
X18855000Y-11455450D02*
X18885000Y-11485450D01*
X18885000Y-11455450D02*
X18855000Y-11485450D01*
X18871617Y-4331961D02*
X18901617Y-4361961D01*
X18901617Y-4331961D02*
X18871617Y-4361961D01*
X18945000Y-7520000D02*
X18975000Y-7550000D01*
X18975000Y-7520000D02*
X18945000Y-7550000D01*
X19015000Y-4675000D02*
X19045000Y-4705000D01*
X19045000Y-4675000D02*
X19015000Y-4705000D01*
X19017500Y-10512500D02*
X19047500Y-10542500D01*
X19047500Y-10512500D02*
X19017500Y-10542500D01*
X19045000Y-8790000D02*
X19075000Y-8820000D01*
X19075000Y-8790000D02*
X19045000Y-8820000D01*
X19130000Y-10225000D02*
X19160000Y-10255000D01*
X19160000Y-10225000D02*
X19130000Y-10255000D01*
X19232500Y-5357950D02*
X19262500Y-5387950D01*
X19262500Y-5357950D02*
X19232500Y-5387950D01*
X19232500Y-7157950D02*
X19262500Y-7187950D01*
X19262500Y-7157950D02*
X19232500Y-7187950D01*
X19232500Y-8957950D02*
X19262500Y-8987950D01*
X19262500Y-8957950D02*
X19232500Y-8987950D01*
X19232500Y-10755450D02*
X19262500Y-10785450D01*
X19262500Y-10755450D02*
X19232500Y-10785450D01*
X19282500Y-9360000D02*
X19312500Y-9390000D01*
X19312500Y-9360000D02*
X19282500Y-9390000D01*
X19360000Y-5222500D02*
X19390000Y-5252500D01*
X19390000Y-5222500D02*
X19360000Y-5252500D01*
X19360000Y-7020000D02*
X19390000Y-7050000D01*
X19390000Y-7020000D02*
X19360000Y-7050000D01*
X19360000Y-8820000D02*
X19390000Y-8850000D01*
X19390000Y-8820000D02*
X19360000Y-8850000D01*
X19360000Y-10620000D02*
X19390000Y-10650000D01*
X19390000Y-10620000D02*
X19360000Y-10650000D01*
X19640000Y-6262950D02*
X19670000Y-6292950D01*
X19670000Y-6262950D02*
X19640000Y-6292950D01*
X19640000Y-8062950D02*
X19670000Y-8092950D01*
X19670000Y-8062950D02*
X19640000Y-8092950D01*
X19640000Y-9862950D02*
X19670000Y-9892950D01*
X19670000Y-9862950D02*
X19640000Y-9892950D01*
X19640000Y-11660450D02*
X19670000Y-11690450D01*
X19670000Y-11660450D02*
X19640000Y-11690450D01*
X19907500Y-11122500D02*
X19937500Y-11152500D01*
X19937500Y-11122500D02*
X19907500Y-11152500D01*
X19910000Y-5650450D02*
X19940000Y-5680450D01*
X19940000Y-5650450D02*
X19910000Y-5680450D01*
X19910000Y-7450450D02*
X19940000Y-7480450D01*
X19940000Y-7450450D02*
X19910000Y-7480450D01*
X19910000Y-9250450D02*
X19940000Y-9280450D01*
X19940000Y-9250450D02*
X19910000Y-9280450D01*
X19910000Y-11047950D02*
X19940000Y-11077950D01*
X19940000Y-11047950D02*
X19910000Y-11077950D01*
X20050000Y-5357900D02*
X20080000Y-5387900D01*
X20080000Y-5357900D02*
X20050000Y-5387900D01*
X20050000Y-7157900D02*
X20080000Y-7187900D01*
X20080000Y-7157900D02*
X20050000Y-7187900D01*
X20050000Y-8957900D02*
X20080000Y-8987900D01*
X20080000Y-8957900D02*
X20050000Y-8987900D01*
X20050000Y-10755400D02*
X20080000Y-10785400D01*
X20080000Y-10755400D02*
X20050000Y-10785400D01*
X20467500Y-12060000D02*
X20497500Y-12090000D01*
X20497500Y-12060000D02*
X20467500Y-12090000D01*
X20752500Y-12427500D02*
X20782500Y-12457500D01*
X20782500Y-12427500D02*
X20752500Y-12457500D01*
X20755000Y-5147500D02*
X20785000Y-5177500D01*
X20785000Y-5147500D02*
X20755000Y-5177500D01*
X20755000Y-6057950D02*
X20785000Y-6087950D01*
X20785000Y-6057950D02*
X20755000Y-6087950D01*
X20755000Y-7857950D02*
X20785000Y-7887950D01*
X20785000Y-7857950D02*
X20755000Y-7887950D01*
X20755000Y-9657950D02*
X20785000Y-9687950D01*
X20785000Y-9657950D02*
X20755000Y-9687950D01*
X20755000Y-11455450D02*
X20785000Y-11485450D01*
X20785000Y-11455450D02*
X20755000Y-11485450D01*
X20827500Y-9077500D02*
X20857500Y-9107500D01*
X20857500Y-9077500D02*
X20827500Y-9107500D01*
X20835000Y-7245000D02*
X20865000Y-7275000D01*
X20865000Y-7245000D02*
X20835000Y-7275000D01*
X20847500Y-5425000D02*
X20877500Y-5455000D01*
X20877500Y-5425000D02*
X20847500Y-5455000D01*
X20890000Y-10620000D02*
X20920000Y-10650000D01*
X20920000Y-10620000D02*
X20890000Y-10650000D01*
X20892500Y-5222500D02*
X20922500Y-5252500D01*
X20922500Y-5222500D02*
X20892500Y-5252500D01*
X20895000Y-4675000D02*
X20925000Y-4705000D01*
X20925000Y-4675000D02*
X20895000Y-4705000D01*
X20900000Y-7022500D02*
X20930000Y-7052500D01*
X20930000Y-7022500D02*
X20900000Y-7052500D01*
X20900000Y-8822500D02*
X20930000Y-8852500D01*
X20930000Y-8822500D02*
X20900000Y-8852500D01*
X20902500Y-10237500D02*
X20932500Y-10267500D01*
X20932500Y-10237500D02*
X20902500Y-10267500D01*
X20960000Y-6602500D02*
X20990000Y-6632500D01*
X20990000Y-6602500D02*
X20960000Y-6632500D01*
X20975000Y-8397500D02*
X21005000Y-8427500D01*
X21005000Y-8397500D02*
X20975000Y-8427500D01*
X21130000Y-5367500D02*
X21160000Y-5397500D01*
X21160000Y-5367500D02*
X21130000Y-5397500D01*
X21132500Y-7157950D02*
X21162500Y-7187950D01*
X21162500Y-7157950D02*
X21132500Y-7187950D01*
X21132500Y-8957950D02*
X21162500Y-8987950D01*
X21162500Y-8957950D02*
X21132500Y-8987950D01*
X21132500Y-10755450D02*
X21162500Y-10785450D01*
X21162500Y-10755450D02*
X21132500Y-10785450D01*
X21140000Y-7552500D02*
X21170000Y-7582500D01*
X21170000Y-7552500D02*
X21140000Y-7582500D01*
X21145000Y-9355000D02*
X21175000Y-9385000D01*
X21175000Y-9355000D02*
X21145000Y-9385000D01*
X21150000Y-5757500D02*
X21180000Y-5787500D01*
X21180000Y-5757500D02*
X21150000Y-5787500D01*
X21260000Y-11125000D02*
X21290000Y-11155000D01*
X21290000Y-11125000D02*
X21260000Y-11155000D01*
X21540000Y-6262950D02*
X21570000Y-6292950D01*
X21570000Y-6262950D02*
X21540000Y-6292950D01*
X21540000Y-8062950D02*
X21570000Y-8092950D01*
X21570000Y-8062950D02*
X21540000Y-8092950D01*
X21540000Y-9862950D02*
X21570000Y-9892950D01*
X21570000Y-9862950D02*
X21540000Y-9892950D01*
X21540000Y-11660450D02*
X21570000Y-11690450D01*
X21570000Y-11660450D02*
X21540000Y-11690450D01*
X21810000Y-5650450D02*
X21840000Y-5680450D01*
X21840000Y-5650450D02*
X21810000Y-5680450D01*
X21810000Y-7450450D02*
X21840000Y-7480450D01*
X21840000Y-7450450D02*
X21810000Y-7480450D01*
X21810000Y-9250450D02*
X21840000Y-9280450D01*
X21840000Y-9250450D02*
X21810000Y-9280450D01*
X21810000Y-11047950D02*
X21840000Y-11077950D01*
X21840000Y-11047950D02*
X21810000Y-11077950D01*
X21950000Y-5357900D02*
X21980000Y-5387900D01*
X21980000Y-5357900D02*
X21950000Y-5387900D01*
X21950000Y-7157900D02*
X21980000Y-7187900D01*
X21980000Y-7157900D02*
X21950000Y-7187900D01*
X21950000Y-8957900D02*
X21980000Y-8987900D01*
X21980000Y-8957900D02*
X21950000Y-8987900D01*
X21950000Y-10755400D02*
X21980000Y-10785400D01*
X21980000Y-10755400D02*
X21950000Y-10785400D01*
D13*
X9783800Y-4658000D02*
G75*
G03*
X9783800Y-4658000I-20000J0D01*
G01*
X9783800Y-4912000D02*
G75*
G03*
X9783800Y-4912000I-20000J0D01*
G01*
X9783800Y-5166000D02*
G75*
G03*
X9783800Y-5166000I-20000J0D01*
G01*
X9783800Y-5420000D02*
G75*
G03*
X9783800Y-5420000I-20000J0D01*
G01*
X9783800Y-5674000D02*
G75*
G03*
X9783800Y-5674000I-20000J0D01*
G01*
X9783800Y-5928000D02*
G75*
G03*
X9783800Y-5928000I-20000J0D01*
G01*
X9783800Y-6182000D02*
G75*
G03*
X9783800Y-6182000I-20000J0D01*
G01*
X9783800Y-6436000D02*
G75*
G03*
X9783800Y-6436000I-20000J0D01*
G01*
X9783800Y-6690000D02*
G75*
G03*
X9783800Y-6690000I-20000J0D01*
G01*
X9783800Y-6944000D02*
G75*
G03*
X9783800Y-6944000I-20000J0D01*
G01*
X9783800Y-7198000D02*
G75*
G03*
X9783800Y-7198000I-20000J0D01*
G01*
X9783800Y-7452000D02*
G75*
G03*
X9783800Y-7452000I-20000J0D01*
G01*
X9936200Y-4658000D02*
G75*
G03*
X9936200Y-4658000I-20000J0D01*
G01*
X9936200Y-4912000D02*
G75*
G03*
X9936200Y-4912000I-20000J0D01*
G01*
X9936200Y-5166000D02*
G75*
G03*
X9936200Y-5166000I-20000J0D01*
G01*
X9936200Y-5420000D02*
G75*
G03*
X9936200Y-5420000I-20000J0D01*
G01*
X9936200Y-5674000D02*
G75*
G03*
X9936200Y-5674000I-20000J0D01*
G01*
X9936200Y-5928000D02*
G75*
G03*
X9936200Y-5928000I-20000J0D01*
G01*
X9936200Y-6182000D02*
G75*
G03*
X9936200Y-6182000I-20000J0D01*
G01*
X9936200Y-6436000D02*
G75*
G03*
X9936200Y-6436000I-20000J0D01*
G01*
X9936200Y-6690000D02*
G75*
G03*
X9936200Y-6690000I-20000J0D01*
G01*
X9936200Y-6944000D02*
G75*
G03*
X9936200Y-6944000I-20000J0D01*
G01*
X9936200Y-7198000D02*
G75*
G03*
X9936200Y-7198000I-20000J0D01*
G01*
X9936200Y-7452000D02*
G75*
G03*
X9936200Y-7452000I-20000J0D01*
G01*
D14*
X9333500Y-7844360D02*
X9333500Y-7925640D01*
X9292860Y-7885000D02*
X9374140Y-7885000D01*
X9587500Y-7844360D02*
X9587500Y-7925640D01*
X9546860Y-7885000D02*
X9628140Y-7885000D01*
X9841500Y-7844360D02*
X9841500Y-7925640D01*
X9800860Y-7885000D02*
X9882140Y-7885000D01*
X10095500Y-7844360D02*
X10095500Y-7925640D01*
X10054860Y-7885000D02*
X10136140Y-7885000D01*
X10349500Y-7844360D02*
X10349500Y-7925640D01*
X10308860Y-7885000D02*
X10390140Y-7885000D01*
D15*
X8766523Y-11680023D02*
X8766523Y-11609977D01*
X8696477Y-11609977D01*
X8696477Y-11680023D01*
X8766523Y-11680023D01*
X8766523Y-11925023D02*
X8766523Y-11854977D01*
X8696477Y-11854977D01*
X8696477Y-11925023D01*
X8766523Y-11925023D01*
X8766523Y-12172523D02*
X8766523Y-12102477D01*
X8696477Y-12102477D01*
X8696477Y-12172523D01*
X8766523Y-12172523D01*
X8835023Y-10599023D02*
X8835023Y-10528977D01*
X8764977Y-10528977D01*
X8764977Y-10599023D01*
X8835023Y-10599023D01*
X8835023Y-11361023D02*
X8835023Y-11290977D01*
X8764977Y-11290977D01*
X8764977Y-11361023D01*
X8835023Y-11361023D01*
X9528523Y-11680023D02*
X9528523Y-11609977D01*
X9458477Y-11609977D01*
X9458477Y-11680023D01*
X9528523Y-11680023D01*
X9528523Y-11925023D02*
X9528523Y-11854977D01*
X9458477Y-11854977D01*
X9458477Y-11925023D01*
X9528523Y-11925023D01*
X9528523Y-12172523D02*
X9528523Y-12102477D01*
X9458477Y-12102477D01*
X9458477Y-12172523D01*
X9528523Y-12172523D01*
X11704023Y-7575023D02*
X11704023Y-7504977D01*
X11633977Y-7504977D01*
X11633977Y-7575023D01*
X11704023Y-7575023D01*
X11704023Y-11165023D02*
X11704023Y-11094977D01*
X11633977Y-11094977D01*
X11633977Y-11165023D01*
X11704023Y-11165023D01*
X11709023Y-5767523D02*
X11709023Y-5697477D01*
X11638977Y-5697477D01*
X11638977Y-5767523D01*
X11709023Y-5767523D01*
X11709023Y-9370023D02*
X11709023Y-9299977D01*
X11638977Y-9299977D01*
X11638977Y-9370023D01*
X11709023Y-9370023D01*
X12466023Y-7575023D02*
X12466023Y-7504977D01*
X12395977Y-7504977D01*
X12395977Y-7575023D01*
X12466023Y-7575023D01*
X12466023Y-11165023D02*
X12466023Y-11094977D01*
X12395977Y-11094977D01*
X12395977Y-11165023D01*
X12466023Y-11165023D01*
X12471023Y-5767523D02*
X12471023Y-5697477D01*
X12400977Y-5697477D01*
X12400977Y-5767523D01*
X12471023Y-5767523D01*
X12471023Y-9370023D02*
X12471023Y-9299977D01*
X12400977Y-9299977D01*
X12400977Y-9370023D01*
X12471023Y-9370023D01*
X13604023Y-5545023D02*
X13604023Y-5474977D01*
X13533977Y-5474977D01*
X13533977Y-5545023D01*
X13604023Y-5545023D01*
X13604023Y-9140023D02*
X13604023Y-9069977D01*
X13533977Y-9069977D01*
X13533977Y-9140023D01*
X13604023Y-9140023D01*
X13604023Y-10945023D02*
X13604023Y-10874977D01*
X13533977Y-10874977D01*
X13533977Y-10945023D01*
X13604023Y-10945023D01*
X13609023Y-7340023D02*
X13609023Y-7269977D01*
X13538977Y-7269977D01*
X13538977Y-7340023D01*
X13609023Y-7340023D01*
X14366023Y-5545023D02*
X14366023Y-5474977D01*
X14295977Y-5474977D01*
X14295977Y-5545023D01*
X14366023Y-5545023D01*
X14366023Y-9140023D02*
X14366023Y-9069977D01*
X14295977Y-9069977D01*
X14295977Y-9140023D01*
X14366023Y-9140023D01*
X14366023Y-10945023D02*
X14366023Y-10874977D01*
X14295977Y-10874977D01*
X14295977Y-10945023D01*
X14366023Y-10945023D01*
X14371023Y-7340023D02*
X14371023Y-7269977D01*
X14300977Y-7269977D01*
X14300977Y-7340023D01*
X14371023Y-7340023D01*
X15499023Y-10365023D02*
X15499023Y-10294977D01*
X15428977Y-10294977D01*
X15428977Y-10365023D01*
X15499023Y-10365023D01*
X15501523Y-10635023D02*
X15501523Y-10564977D01*
X15431477Y-10564977D01*
X15431477Y-10635023D01*
X15501523Y-10635023D01*
X15501523Y-10912523D02*
X15501523Y-10842477D01*
X15431477Y-10842477D01*
X15431477Y-10912523D01*
X15501523Y-10912523D01*
X15509023Y-4960023D02*
X15509023Y-4889977D01*
X15438977Y-4889977D01*
X15438977Y-4960023D01*
X15509023Y-4960023D01*
X15509023Y-6760023D02*
X15509023Y-6689977D01*
X15438977Y-6689977D01*
X15438977Y-6760023D01*
X15509023Y-6760023D01*
X15509023Y-8560023D02*
X15509023Y-8489977D01*
X15438977Y-8489977D01*
X15438977Y-8560023D01*
X15509023Y-8560023D01*
X16261023Y-10365023D02*
X16261023Y-10294977D01*
X16190977Y-10294977D01*
X16190977Y-10365023D01*
X16261023Y-10365023D01*
X16263523Y-10635023D02*
X16263523Y-10564977D01*
X16193477Y-10564977D01*
X16193477Y-10635023D01*
X16263523Y-10635023D01*
X16263523Y-10912523D02*
X16263523Y-10842477D01*
X16193477Y-10842477D01*
X16193477Y-10912523D01*
X16263523Y-10912523D01*
X16271023Y-4960023D02*
X16271023Y-4889977D01*
X16200977Y-4889977D01*
X16200977Y-4960023D01*
X16271023Y-4960023D01*
X16271023Y-6760023D02*
X16271023Y-6689977D01*
X16200977Y-6689977D01*
X16200977Y-6760023D01*
X16271023Y-6760023D01*
X16271023Y-8560023D02*
X16271023Y-8489977D01*
X16200977Y-8489977D01*
X16200977Y-8560023D01*
X16271023Y-8560023D01*
X17404023Y-5615023D02*
X17404023Y-5544977D01*
X17333977Y-5544977D01*
X17333977Y-5615023D01*
X17404023Y-5615023D01*
X17404023Y-7410023D02*
X17404023Y-7339977D01*
X17333977Y-7339977D01*
X17333977Y-7410023D01*
X17404023Y-7410023D01*
X17404023Y-9210023D02*
X17404023Y-9139977D01*
X17333977Y-9139977D01*
X17333977Y-9210023D01*
X17404023Y-9210023D01*
X17404023Y-11015023D02*
X17404023Y-10944977D01*
X17333977Y-10944977D01*
X17333977Y-11015023D01*
X17404023Y-11015023D01*
X18166023Y-5615023D02*
X18166023Y-5544977D01*
X18095977Y-5544977D01*
X18095977Y-5615023D01*
X18166023Y-5615023D01*
X18166023Y-7410023D02*
X18166023Y-7339977D01*
X18095977Y-7339977D01*
X18095977Y-7410023D01*
X18166023Y-7410023D01*
X18166023Y-9210023D02*
X18166023Y-9139977D01*
X18095977Y-9139977D01*
X18095977Y-9210023D01*
X18166023Y-9210023D01*
X18166023Y-11015023D02*
X18166023Y-10944977D01*
X18095977Y-10944977D01*
X18095977Y-11015023D01*
X18166023Y-11015023D01*
X19304023Y-6890023D02*
X19304023Y-6819977D01*
X19233977Y-6819977D01*
X19233977Y-6890023D01*
X19304023Y-6890023D01*
X19304023Y-12287523D02*
X19304023Y-12217477D01*
X19233977Y-12217477D01*
X19233977Y-12287523D01*
X19304023Y-12287523D01*
X19304023Y-12535023D02*
X19304023Y-12464977D01*
X19233977Y-12464977D01*
X19233977Y-12535023D01*
X19304023Y-12535023D01*
X19309023Y-8690023D02*
X19309023Y-8619977D01*
X19238977Y-8619977D01*
X19238977Y-8690023D01*
X19309023Y-8690023D01*
X19314023Y-10485023D02*
X19314023Y-10414977D01*
X19243977Y-10414977D01*
X19243977Y-10485023D01*
X19314023Y-10485023D01*
X20066023Y-6890023D02*
X20066023Y-6819977D01*
X19995977Y-6819977D01*
X19995977Y-6890023D01*
X20066023Y-6890023D01*
X20066023Y-12287523D02*
X20066023Y-12217477D01*
X19995977Y-12217477D01*
X19995977Y-12287523D01*
X20066023Y-12287523D01*
X20066023Y-12535023D02*
X20066023Y-12464977D01*
X19995977Y-12464977D01*
X19995977Y-12535023D01*
X20066023Y-12535023D01*
X20071023Y-8690023D02*
X20071023Y-8619977D01*
X20000977Y-8619977D01*
X20000977Y-8690023D01*
X20071023Y-8690023D01*
X20076023Y-10485023D02*
X20076023Y-10414977D01*
X20005977Y-10414977D01*
X20005977Y-10485023D01*
X20076023Y-10485023D01*
X21204023Y-6890023D02*
X21204023Y-6819977D01*
X21133977Y-6819977D01*
X21133977Y-6890023D01*
X21204023Y-6890023D01*
X21204023Y-8685023D02*
X21204023Y-8614977D01*
X21133977Y-8614977D01*
X21133977Y-8685023D01*
X21204023Y-8685023D01*
X21209023Y-10490023D02*
X21209023Y-10419977D01*
X21138977Y-10419977D01*
X21138977Y-10490023D01*
X21209023Y-10490023D01*
X21966023Y-6890023D02*
X21966023Y-6819977D01*
X21895977Y-6819977D01*
X21895977Y-6890023D01*
X21966023Y-6890023D01*
X21966023Y-8685023D02*
X21966023Y-8614977D01*
X21895977Y-8614977D01*
X21895977Y-8685023D01*
X21966023Y-8685023D01*
X21971023Y-10490023D02*
X21971023Y-10419977D01*
X21900977Y-10419977D01*
X21900977Y-10490023D01*
X21971023Y-10490023D01*
D16*
X9105000Y-10605000D02*
X9155000Y-10555000D01*
X9105000Y-10505000D01*
X9055000Y-10555000D01*
X9105000Y-10605000D01*
X9105000Y-10855000D02*
X9155000Y-10805000D01*
X9105000Y-10755000D01*
X9055000Y-10805000D01*
X9105000Y-10855000D01*
X9105000Y-11105000D02*
X9155000Y-11055000D01*
X9105000Y-11005000D01*
X9055000Y-11055000D01*
X9105000Y-11105000D01*
X10555000Y-10605000D02*
X10605000Y-10555000D01*
X10555000Y-10505000D01*
X10505000Y-10555000D01*
X10555000Y-10605000D01*
X10555000Y-11105000D02*
X10605000Y-11055000D01*
X10555000Y-11005000D01*
X10505000Y-11055000D01*
X10555000Y-11105000D01*
D17*
X9023000Y-4603000D02*
X9133000Y-4713000D01*
X9133000Y-4603000D02*
X9023000Y-4713000D01*
X9133000Y-4658000D02*
G75*
G03*
X9133000Y-4658000I-55000J0D01*
G01*
X9023000Y-4603000D02*
X9133000Y-4713000D01*
X9133000Y-4603000D02*
X9023000Y-4713000D01*
X9133000Y-4658000D02*
G75*
G03*
X9133000Y-4658000I-55000J0D01*
G01*
X9023000Y-4857000D02*
X9133000Y-4967000D01*
X9133000Y-4857000D02*
X9023000Y-4967000D01*
X9133000Y-4912000D02*
G75*
G03*
X9133000Y-4912000I-55000J0D01*
G01*
X9023000Y-5111000D02*
X9133000Y-5221000D01*
X9133000Y-5111000D02*
X9023000Y-5221000D01*
X9133000Y-5166000D02*
G75*
G03*
X9133000Y-5166000I-55000J0D01*
G01*
X9023000Y-5365000D02*
X9133000Y-5475000D01*
X9133000Y-5365000D02*
X9023000Y-5475000D01*
X9133000Y-5420000D02*
G75*
G03*
X9133000Y-5420000I-55000J0D01*
G01*
X9023000Y-5619000D02*
X9133000Y-5729000D01*
X9133000Y-5619000D02*
X9023000Y-5729000D01*
X9133000Y-5674000D02*
G75*
G03*
X9133000Y-5674000I-55000J0D01*
G01*
X9023000Y-5873000D02*
X9133000Y-5983000D01*
X9133000Y-5873000D02*
X9023000Y-5983000D01*
X9133000Y-5928000D02*
G75*
G03*
X9133000Y-5928000I-55000J0D01*
G01*
X9023000Y-6127000D02*
X9133000Y-6237000D01*
X9133000Y-6127000D02*
X9023000Y-6237000D01*
X9133000Y-6182000D02*
G75*
G03*
X9133000Y-6182000I-55000J0D01*
G01*
X9023000Y-6381000D02*
X9133000Y-6491000D01*
X9133000Y-6381000D02*
X9023000Y-6491000D01*
X9133000Y-6436000D02*
G75*
G03*
X9133000Y-6436000I-55000J0D01*
G01*
X9023000Y-6635000D02*
X9133000Y-6745000D01*
X9133000Y-6635000D02*
X9023000Y-6745000D01*
X9133000Y-6690000D02*
G75*
G03*
X9133000Y-6690000I-55000J0D01*
G01*
X9023000Y-6889000D02*
X9133000Y-6999000D01*
X9133000Y-6889000D02*
X9023000Y-6999000D01*
X9133000Y-6944000D02*
G75*
G03*
X9133000Y-6944000I-55000J0D01*
G01*
X9023000Y-7143000D02*
X9133000Y-7253000D01*
X9133000Y-7143000D02*
X9023000Y-7253000D01*
X9133000Y-7198000D02*
G75*
G03*
X9133000Y-7198000I-55000J0D01*
G01*
X9023000Y-7397000D02*
X9133000Y-7507000D01*
X9133000Y-7397000D02*
X9023000Y-7507000D01*
X9133000Y-7452000D02*
G75*
G03*
X9133000Y-7452000I-55000J0D01*
G01*
X10547000Y-4603000D02*
X10657000Y-4713000D01*
X10657000Y-4603000D02*
X10547000Y-4713000D01*
X10657000Y-4658000D02*
G75*
G03*
X10657000Y-4658000I-55000J0D01*
G01*
X10547000Y-4603000D02*
X10657000Y-4713000D01*
X10657000Y-4603000D02*
X10547000Y-4713000D01*
X10657000Y-4658000D02*
G75*
G03*
X10657000Y-4658000I-55000J0D01*
G01*
X10547000Y-4857000D02*
X10657000Y-4967000D01*
X10657000Y-4857000D02*
X10547000Y-4967000D01*
X10657000Y-4912000D02*
G75*
G03*
X10657000Y-4912000I-55000J0D01*
G01*
X10547000Y-5111000D02*
X10657000Y-5221000D01*
X10657000Y-5111000D02*
X10547000Y-5221000D01*
X10657000Y-5166000D02*
G75*
G03*
X10657000Y-5166000I-55000J0D01*
G01*
X10547000Y-5365000D02*
X10657000Y-5475000D01*
X10657000Y-5365000D02*
X10547000Y-5475000D01*
X10657000Y-5420000D02*
G75*
G03*
X10657000Y-5420000I-55000J0D01*
G01*
X10547000Y-5619000D02*
X10657000Y-5729000D01*
X10657000Y-5619000D02*
X10547000Y-5729000D01*
X10657000Y-5674000D02*
G75*
G03*
X10657000Y-5674000I-55000J0D01*
G01*
X10547000Y-5873000D02*
X10657000Y-5983000D01*
X10657000Y-5873000D02*
X10547000Y-5983000D01*
X10657000Y-5928000D02*
G75*
G03*
X10657000Y-5928000I-55000J0D01*
G01*
X10547000Y-6127000D02*
X10657000Y-6237000D01*
X10657000Y-6127000D02*
X10547000Y-6237000D01*
X10657000Y-6182000D02*
G75*
G03*
X10657000Y-6182000I-55000J0D01*
G01*
X10547000Y-6381000D02*
X10657000Y-6491000D01*
X10657000Y-6381000D02*
X10547000Y-6491000D01*
X10657000Y-6436000D02*
G75*
G03*
X10657000Y-6436000I-55000J0D01*
G01*
X10547000Y-6635000D02*
X10657000Y-6745000D01*
X10657000Y-6635000D02*
X10547000Y-6745000D01*
X10657000Y-6690000D02*
G75*
G03*
X10657000Y-6690000I-55000J0D01*
G01*
X10547000Y-6889000D02*
X10657000Y-6999000D01*
X10657000Y-6889000D02*
X10547000Y-6999000D01*
X10657000Y-6944000D02*
G75*
G03*
X10657000Y-6944000I-55000J0D01*
G01*
X10547000Y-7143000D02*
X10657000Y-7253000D01*
X10657000Y-7143000D02*
X10547000Y-7253000D01*
X10657000Y-7198000D02*
G75*
G03*
X10657000Y-7198000I-55000J0D01*
G01*
X10547000Y-7397000D02*
X10657000Y-7507000D01*
X10657000Y-7397000D02*
X10547000Y-7507000D01*
X10657000Y-7452000D02*
G75*
G03*
X10657000Y-7452000I-55000J0D01*
G01*
D18*
X19267500Y-4455000D02*
X19397500Y-4585000D01*
X19397500Y-4455000D02*
X19267500Y-4585000D01*
X19332500Y-4455000D02*
X19332500Y-4585000D01*
X19267500Y-4520000D02*
X19397500Y-4520000D01*
X19917500Y-4455000D02*
X20047500Y-4585000D01*
X20047500Y-4455000D02*
X19917500Y-4585000D01*
X19982500Y-4455000D02*
X19982500Y-4585000D01*
X19917500Y-4520000D02*
X20047500Y-4520000D01*
D19*
X9780000Y-10170000D02*
X9930000Y-10320000D01*
X9930000Y-10170000D02*
X9780000Y-10320000D01*
X9908034Y-10298034D02*
X9908034Y-10191967D01*
X9801967Y-10191967D01*
X9801967Y-10298034D01*
X9908034Y-10298034D01*
D11*
X9790000Y-10310000D02*
X9920000Y-10310000D01*
X9790000Y-10180000D02*
X9920000Y-10180000D01*
X9920000Y-10310000D02*
G75*
G03*
X9920000Y-10180000I0J65000D01*
G01*
X9790000Y-10180000D02*
G75*
G03*
X9790000Y-10310000I0J-65000D01*
G01*
D19*
X9780000Y-11290000D02*
X9930000Y-11440000D01*
X9930000Y-11290000D02*
X9780000Y-11440000D01*
X9908034Y-11418033D02*
X9908034Y-11311966D01*
X9801967Y-11311966D01*
X9801967Y-11418033D01*
X9908034Y-11418033D01*
D11*
X9790000Y-11430000D02*
X9920000Y-11430000D01*
X9790000Y-11300000D02*
X9920000Y-11300000D01*
X9920000Y-11430000D02*
G75*
G03*
X9920000Y-11300000I0J65000D01*
G01*
X9790000Y-11300000D02*
G75*
G03*
X9790000Y-11430000I0J-65000D01*
G01*
X8747619Y-14629413D02*
X8747619Y-14429413D01*
X8795238Y-14429413D01*
X8823810Y-14438937D01*
X8842857Y-14457985D01*
X8852381Y-14477032D01*
X8861905Y-14515128D01*
X8861905Y-14543699D01*
X8852381Y-14581794D01*
X8842857Y-14600842D01*
X8823810Y-14619889D01*
X8795238Y-14629413D01*
X8747619Y-14629413D01*
X8947619Y-14629413D02*
X8947619Y-14496080D01*
X8947619Y-14534175D02*
X8957143Y-14515128D01*
X8966667Y-14505604D01*
X8985714Y-14496080D01*
X9004762Y-14496080D01*
X9071429Y-14629413D02*
X9071429Y-14496080D01*
X9071429Y-14429413D02*
X9061905Y-14438937D01*
X9071429Y-14448461D01*
X9080952Y-14438937D01*
X9071429Y-14429413D01*
X9071429Y-14448461D01*
X9195238Y-14629413D02*
X9176190Y-14619889D01*
X9166667Y-14600842D01*
X9166667Y-14429413D01*
X9300000Y-14629413D02*
X9280952Y-14619889D01*
X9271429Y-14600842D01*
X9271429Y-14429413D01*
X9528571Y-14629413D02*
X9528571Y-14429413D01*
X9595238Y-14572270D01*
X9661905Y-14429413D01*
X9661905Y-14629413D01*
X9842857Y-14629413D02*
X9842857Y-14524651D01*
X9833333Y-14505604D01*
X9814286Y-14496080D01*
X9776190Y-14496080D01*
X9757143Y-14505604D01*
X9842857Y-14619889D02*
X9823810Y-14629413D01*
X9776190Y-14629413D01*
X9757143Y-14619889D01*
X9747619Y-14600842D01*
X9747619Y-14581794D01*
X9757143Y-14562747D01*
X9776190Y-14553223D01*
X9823810Y-14553223D01*
X9842857Y-14543699D01*
X9938095Y-14496080D02*
X9938095Y-14696080D01*
X9938095Y-14505604D02*
X9957143Y-14496080D01*
X9995238Y-14496080D01*
X10014286Y-14505604D01*
X10023810Y-14515128D01*
X10033333Y-14534175D01*
X10033333Y-14591318D01*
X10023810Y-14610366D01*
X10014286Y-14619889D01*
X9995238Y-14629413D01*
X9957143Y-14629413D01*
X9938095Y-14619889D01*
X10119048Y-14610366D02*
X10128571Y-14619889D01*
X10119048Y-14629413D01*
X10109524Y-14619889D01*
X10119048Y-14610366D01*
X10119048Y-14629413D01*
X10119048Y-14505604D02*
X10128571Y-14515128D01*
X10119048Y-14524651D01*
X10109524Y-14515128D01*
X10119048Y-14505604D01*
X10119048Y-14524651D01*
D12*
X8460000Y-14943937D02*
X8490000Y-14973937D01*
X8490000Y-14943937D02*
X8460000Y-14973937D01*
D11*
X8785714Y-14849413D02*
X8804762Y-14849413D01*
X8823810Y-14858937D01*
X8833333Y-14868461D01*
X8842857Y-14887509D01*
X8852381Y-14925604D01*
X8852381Y-14973223D01*
X8842857Y-15011318D01*
X8833333Y-15030366D01*
X8823810Y-15039889D01*
X8804762Y-15049413D01*
X8785714Y-15049413D01*
X8766667Y-15039889D01*
X8757143Y-15030366D01*
X8747619Y-15011318D01*
X8738095Y-14973223D01*
X8738095Y-14925604D01*
X8747619Y-14887509D01*
X8757143Y-14868461D01*
X8766667Y-14858937D01*
X8785714Y-14849413D01*
X8938095Y-15030366D02*
X8947619Y-15039889D01*
X8938095Y-15049413D01*
X8928571Y-15039889D01*
X8938095Y-15030366D01*
X8938095Y-15049413D01*
X9014286Y-14849413D02*
X9138095Y-14849413D01*
X9071429Y-14925604D01*
X9100000Y-14925604D01*
X9119048Y-14935128D01*
X9128571Y-14944651D01*
X9138095Y-14963699D01*
X9138095Y-15011318D01*
X9128571Y-15030366D01*
X9119048Y-15039889D01*
X9100000Y-15049413D01*
X9042857Y-15049413D01*
X9023810Y-15039889D01*
X9014286Y-15030366D01*
X9261905Y-14849413D02*
X9280952Y-14849413D01*
X9300000Y-14858937D01*
X9309524Y-14868461D01*
X9319048Y-14887509D01*
X9328571Y-14925604D01*
X9328571Y-14973223D01*
X9319048Y-15011318D01*
X9309524Y-15030366D01*
X9300000Y-15039889D01*
X9280952Y-15049413D01*
X9261905Y-15049413D01*
X9242857Y-15039889D01*
X9233333Y-15030366D01*
X9223810Y-15011318D01*
X9214286Y-14973223D01*
X9214286Y-14925604D01*
X9223810Y-14887509D01*
X9233333Y-14868461D01*
X9242857Y-14858937D01*
X9261905Y-14849413D01*
X9452381Y-14849413D02*
X9471429Y-14849413D01*
X9490476Y-14858937D01*
X9500000Y-14868461D01*
X9509524Y-14887509D01*
X9519048Y-14925604D01*
X9519048Y-14973223D01*
X9509524Y-15011318D01*
X9500000Y-15030366D01*
X9490476Y-15039889D01*
X9471429Y-15049413D01*
X9452381Y-15049413D01*
X9433333Y-15039889D01*
X9423810Y-15030366D01*
X9414286Y-15011318D01*
X9404762Y-14973223D01*
X9404762Y-14925604D01*
X9414286Y-14887509D01*
X9423810Y-14868461D01*
X9433333Y-14858937D01*
X9452381Y-14849413D01*
X9604762Y-15049413D02*
X9604762Y-14916080D01*
X9604762Y-14935128D02*
X9614286Y-14925604D01*
X9633333Y-14916080D01*
X9661905Y-14916080D01*
X9680952Y-14925604D01*
X9690476Y-14944651D01*
X9690476Y-15049413D01*
X9690476Y-14944651D02*
X9700000Y-14925604D01*
X9719048Y-14916080D01*
X9747619Y-14916080D01*
X9766667Y-14925604D01*
X9776190Y-14944651D01*
X9776190Y-15049413D01*
X9871429Y-15049413D02*
X9871429Y-14916080D01*
X9871429Y-14935128D02*
X9880952Y-14925604D01*
X9900000Y-14916080D01*
X9928571Y-14916080D01*
X9947619Y-14925604D01*
X9957143Y-14944651D01*
X9957143Y-15049413D01*
X9957143Y-14944651D02*
X9966667Y-14925604D01*
X9985714Y-14916080D01*
X10014286Y-14916080D01*
X10033333Y-14925604D01*
X10042857Y-14944651D01*
X10042857Y-15049413D01*
X10433333Y-14839889D02*
X10261905Y-15097032D01*
X10690476Y-14849413D02*
X10709524Y-14849413D01*
X10728571Y-14858937D01*
X10738095Y-14868461D01*
X10747619Y-14887509D01*
X10757143Y-14925604D01*
X10757143Y-14973223D01*
X10747619Y-15011318D01*
X10738095Y-15030366D01*
X10728571Y-15039889D01*
X10709524Y-15049413D01*
X10690476Y-15049413D01*
X10671429Y-15039889D01*
X10661905Y-15030366D01*
X10652381Y-15011318D01*
X10642857Y-14973223D01*
X10642857Y-14925604D01*
X10652381Y-14887509D01*
X10661905Y-14868461D01*
X10671429Y-14858937D01*
X10690476Y-14849413D01*
X10842857Y-15030366D02*
X10852381Y-15039889D01*
X10842857Y-15049413D01*
X10833333Y-15039889D01*
X10842857Y-15030366D01*
X10842857Y-15049413D01*
X10976190Y-14849413D02*
X10995238Y-14849413D01*
X11014286Y-14858937D01*
X11023810Y-14868461D01*
X11033333Y-14887509D01*
X11042857Y-14925604D01*
X11042857Y-14973223D01*
X11033333Y-15011318D01*
X11023810Y-15030366D01*
X11014286Y-15039889D01*
X10995238Y-15049413D01*
X10976190Y-15049413D01*
X10957143Y-15039889D01*
X10947619Y-15030366D01*
X10938095Y-15011318D01*
X10928571Y-14973223D01*
X10928571Y-14925604D01*
X10938095Y-14887509D01*
X10947619Y-14868461D01*
X10957143Y-14858937D01*
X10976190Y-14849413D01*
X11233333Y-15049413D02*
X11119048Y-15049413D01*
X11176190Y-15049413D02*
X11176190Y-14849413D01*
X11157143Y-14877985D01*
X11138095Y-14897032D01*
X11119048Y-14906556D01*
X11423809Y-15049413D02*
X11309524Y-15049413D01*
X11366667Y-15049413D02*
X11366667Y-14849413D01*
X11347619Y-14877985D01*
X11328571Y-14897032D01*
X11309524Y-14906556D01*
X11538095Y-14935128D02*
X11519048Y-14925604D01*
X11509524Y-14916080D01*
X11500000Y-14897032D01*
X11500000Y-14887509D01*
X11509524Y-14868461D01*
X11519048Y-14858937D01*
X11538095Y-14849413D01*
X11576190Y-14849413D01*
X11595238Y-14858937D01*
X11604762Y-14868461D01*
X11614286Y-14887509D01*
X11614286Y-14897032D01*
X11604762Y-14916080D01*
X11595238Y-14925604D01*
X11576190Y-14935128D01*
X11538095Y-14935128D01*
X11519048Y-14944651D01*
X11509524Y-14954175D01*
X11500000Y-14973223D01*
X11500000Y-15011318D01*
X11509524Y-15030366D01*
X11519048Y-15039889D01*
X11538095Y-15049413D01*
X11576190Y-15049413D01*
X11595238Y-15039889D01*
X11604762Y-15030366D01*
X11614286Y-15011318D01*
X11614286Y-14973223D01*
X11604762Y-14954175D01*
X11595238Y-14944651D01*
X11576190Y-14935128D01*
X11690476Y-14849413D02*
X11690476Y-14887509D01*
X11766667Y-14849413D02*
X11766667Y-14887509D01*
X12061905Y-15125604D02*
X12052381Y-15116080D01*
X12033333Y-15087509D01*
X12023809Y-15068461D01*
X12014286Y-15039889D01*
X12004762Y-14992270D01*
X12004762Y-14954175D01*
X12014286Y-14906556D01*
X12023809Y-14877985D01*
X12033333Y-14858937D01*
X12052381Y-14830366D01*
X12061905Y-14820842D01*
X12119048Y-14849413D02*
X12242857Y-14849413D01*
X12176190Y-14925604D01*
X12204762Y-14925604D01*
X12223809Y-14935128D01*
X12233333Y-14944651D01*
X12242857Y-14963699D01*
X12242857Y-15011318D01*
X12233333Y-15030366D01*
X12223809Y-15039889D01*
X12204762Y-15049413D01*
X12147619Y-15049413D01*
X12128571Y-15039889D01*
X12119048Y-15030366D01*
X12366667Y-14849413D02*
X12385714Y-14849413D01*
X12404762Y-14858937D01*
X12414286Y-14868461D01*
X12423809Y-14887509D01*
X12433333Y-14925604D01*
X12433333Y-14973223D01*
X12423809Y-15011318D01*
X12414286Y-15030366D01*
X12404762Y-15039889D01*
X12385714Y-15049413D01*
X12366667Y-15049413D01*
X12347619Y-15039889D01*
X12338095Y-15030366D01*
X12328571Y-15011318D01*
X12319048Y-14973223D01*
X12319048Y-14925604D01*
X12328571Y-14887509D01*
X12338095Y-14868461D01*
X12347619Y-14858937D01*
X12366667Y-14849413D01*
X12528571Y-15049413D02*
X12566667Y-15049413D01*
X12585714Y-15039889D01*
X12595238Y-15030366D01*
X12614286Y-15001794D01*
X12623809Y-14963699D01*
X12623809Y-14887509D01*
X12614286Y-14868461D01*
X12604762Y-14858937D01*
X12585714Y-14849413D01*
X12547619Y-14849413D01*
X12528571Y-14858937D01*
X12519048Y-14868461D01*
X12509524Y-14887509D01*
X12509524Y-14935128D01*
X12519048Y-14954175D01*
X12528571Y-14963699D01*
X12547619Y-14973223D01*
X12585714Y-14973223D01*
X12604762Y-14963699D01*
X12614286Y-14954175D01*
X12623809Y-14935128D01*
X12861905Y-15049413D02*
X12861905Y-14849413D01*
X12947619Y-15049413D02*
X12947619Y-14944651D01*
X12938095Y-14925604D01*
X12919048Y-14916080D01*
X12890476Y-14916080D01*
X12871428Y-14925604D01*
X12861905Y-14935128D01*
X13071428Y-15049413D02*
X13052381Y-15039889D01*
X13042857Y-15030366D01*
X13033333Y-15011318D01*
X13033333Y-14954175D01*
X13042857Y-14935128D01*
X13052381Y-14925604D01*
X13071428Y-14916080D01*
X13100000Y-14916080D01*
X13119048Y-14925604D01*
X13128571Y-14935128D01*
X13138095Y-14954175D01*
X13138095Y-15011318D01*
X13128571Y-15030366D01*
X13119048Y-15039889D01*
X13100000Y-15049413D01*
X13071428Y-15049413D01*
X13252381Y-15049413D02*
X13233333Y-15039889D01*
X13223809Y-15020842D01*
X13223809Y-14849413D01*
X13404762Y-15039889D02*
X13385714Y-15049413D01*
X13347619Y-15049413D01*
X13328571Y-15039889D01*
X13319048Y-15020842D01*
X13319048Y-14944651D01*
X13328571Y-14925604D01*
X13347619Y-14916080D01*
X13385714Y-14916080D01*
X13404762Y-14925604D01*
X13414286Y-14944651D01*
X13414286Y-14963699D01*
X13319048Y-14982747D01*
X13490476Y-15039889D02*
X13509524Y-15049413D01*
X13547619Y-15049413D01*
X13566667Y-15039889D01*
X13576190Y-15020842D01*
X13576190Y-15011318D01*
X13566667Y-14992270D01*
X13547619Y-14982747D01*
X13519048Y-14982747D01*
X13500000Y-14973223D01*
X13490476Y-14954175D01*
X13490476Y-14944651D01*
X13500000Y-14925604D01*
X13519048Y-14916080D01*
X13547619Y-14916080D01*
X13566667Y-14925604D01*
X13642857Y-15125604D02*
X13652381Y-15116080D01*
X13671428Y-15087509D01*
X13680952Y-15068461D01*
X13690476Y-15039889D01*
X13700000Y-14992270D01*
X13700000Y-14954175D01*
X13690476Y-14906556D01*
X13680952Y-14877985D01*
X13671428Y-14858937D01*
X13652381Y-14830366D01*
X13642857Y-14820842D01*
D13*
X8490000Y-15222937D02*
G75*
G03*
X8490000Y-15222937I-20000J0D01*
G01*
D11*
X8785714Y-15113413D02*
X8804762Y-15113413D01*
X8823810Y-15122937D01*
X8833333Y-15132461D01*
X8842857Y-15151509D01*
X8852381Y-15189604D01*
X8852381Y-15237223D01*
X8842857Y-15275318D01*
X8833333Y-15294366D01*
X8823810Y-15303889D01*
X8804762Y-15313413D01*
X8785714Y-15313413D01*
X8766667Y-15303889D01*
X8757143Y-15294366D01*
X8747619Y-15275318D01*
X8738095Y-15237223D01*
X8738095Y-15189604D01*
X8747619Y-15151509D01*
X8757143Y-15132461D01*
X8766667Y-15122937D01*
X8785714Y-15113413D01*
X8938095Y-15294366D02*
X8947619Y-15303889D01*
X8938095Y-15313413D01*
X8928571Y-15303889D01*
X8938095Y-15294366D01*
X8938095Y-15313413D01*
X9119048Y-15180080D02*
X9119048Y-15313413D01*
X9071429Y-15103889D02*
X9023810Y-15246747D01*
X9147619Y-15246747D01*
X9261905Y-15113413D02*
X9280952Y-15113413D01*
X9300000Y-15122937D01*
X9309524Y-15132461D01*
X9319048Y-15151509D01*
X9328571Y-15189604D01*
X9328571Y-15237223D01*
X9319048Y-15275318D01*
X9309524Y-15294366D01*
X9300000Y-15303889D01*
X9280952Y-15313413D01*
X9261905Y-15313413D01*
X9242857Y-15303889D01*
X9233333Y-15294366D01*
X9223810Y-15275318D01*
X9214286Y-15237223D01*
X9214286Y-15189604D01*
X9223810Y-15151509D01*
X9233333Y-15132461D01*
X9242857Y-15122937D01*
X9261905Y-15113413D01*
X9452381Y-15113413D02*
X9471429Y-15113413D01*
X9490476Y-15122937D01*
X9500000Y-15132461D01*
X9509524Y-15151509D01*
X9519048Y-15189604D01*
X9519048Y-15237223D01*
X9509524Y-15275318D01*
X9500000Y-15294366D01*
X9490476Y-15303889D01*
X9471429Y-15313413D01*
X9452381Y-15313413D01*
X9433333Y-15303889D01*
X9423810Y-15294366D01*
X9414286Y-15275318D01*
X9404762Y-15237223D01*
X9404762Y-15189604D01*
X9414286Y-15151509D01*
X9423810Y-15132461D01*
X9433333Y-15122937D01*
X9452381Y-15113413D01*
X9604762Y-15313413D02*
X9604762Y-15180080D01*
X9604762Y-15199128D02*
X9614286Y-15189604D01*
X9633333Y-15180080D01*
X9661905Y-15180080D01*
X9680952Y-15189604D01*
X9690476Y-15208651D01*
X9690476Y-15313413D01*
X9690476Y-15208651D02*
X9700000Y-15189604D01*
X9719048Y-15180080D01*
X9747619Y-15180080D01*
X9766667Y-15189604D01*
X9776190Y-15208651D01*
X9776190Y-15313413D01*
X9871429Y-15313413D02*
X9871429Y-15180080D01*
X9871429Y-15199128D02*
X9880952Y-15189604D01*
X9900000Y-15180080D01*
X9928571Y-15180080D01*
X9947619Y-15189604D01*
X9957143Y-15208651D01*
X9957143Y-15313413D01*
X9957143Y-15208651D02*
X9966667Y-15189604D01*
X9985714Y-15180080D01*
X10014286Y-15180080D01*
X10033333Y-15189604D01*
X10042857Y-15208651D01*
X10042857Y-15313413D01*
X10433333Y-15103889D02*
X10261905Y-15361032D01*
X10690476Y-15113413D02*
X10709524Y-15113413D01*
X10728571Y-15122937D01*
X10738095Y-15132461D01*
X10747619Y-15151509D01*
X10757143Y-15189604D01*
X10757143Y-15237223D01*
X10747619Y-15275318D01*
X10738095Y-15294366D01*
X10728571Y-15303889D01*
X10709524Y-15313413D01*
X10690476Y-15313413D01*
X10671429Y-15303889D01*
X10661905Y-15294366D01*
X10652381Y-15275318D01*
X10642857Y-15237223D01*
X10642857Y-15189604D01*
X10652381Y-15151509D01*
X10661905Y-15132461D01*
X10671429Y-15122937D01*
X10690476Y-15113413D01*
X10842857Y-15294366D02*
X10852381Y-15303889D01*
X10842857Y-15313413D01*
X10833333Y-15303889D01*
X10842857Y-15294366D01*
X10842857Y-15313413D01*
X10976190Y-15113413D02*
X10995238Y-15113413D01*
X11014286Y-15122937D01*
X11023810Y-15132461D01*
X11033333Y-15151509D01*
X11042857Y-15189604D01*
X11042857Y-15237223D01*
X11033333Y-15275318D01*
X11023810Y-15294366D01*
X11014286Y-15303889D01*
X10995238Y-15313413D01*
X10976190Y-15313413D01*
X10957143Y-15303889D01*
X10947619Y-15294366D01*
X10938095Y-15275318D01*
X10928571Y-15237223D01*
X10928571Y-15189604D01*
X10938095Y-15151509D01*
X10947619Y-15132461D01*
X10957143Y-15122937D01*
X10976190Y-15113413D01*
X11233333Y-15313413D02*
X11119048Y-15313413D01*
X11176190Y-15313413D02*
X11176190Y-15113413D01*
X11157143Y-15141985D01*
X11138095Y-15161032D01*
X11119048Y-15170556D01*
X11414286Y-15113413D02*
X11319048Y-15113413D01*
X11309524Y-15208651D01*
X11319048Y-15199128D01*
X11338095Y-15189604D01*
X11385714Y-15189604D01*
X11404762Y-15199128D01*
X11414286Y-15208651D01*
X11423809Y-15227699D01*
X11423809Y-15275318D01*
X11414286Y-15294366D01*
X11404762Y-15303889D01*
X11385714Y-15313413D01*
X11338095Y-15313413D01*
X11319048Y-15303889D01*
X11309524Y-15294366D01*
X11490476Y-15113413D02*
X11623809Y-15113413D01*
X11538095Y-15313413D01*
X11690476Y-15113413D02*
X11690476Y-15151509D01*
X11766667Y-15113413D02*
X11766667Y-15151509D01*
X12061905Y-15389604D02*
X12052381Y-15380080D01*
X12033333Y-15351509D01*
X12023809Y-15332461D01*
X12014286Y-15303889D01*
X12004762Y-15256270D01*
X12004762Y-15218175D01*
X12014286Y-15170556D01*
X12023809Y-15141985D01*
X12033333Y-15122937D01*
X12052381Y-15094366D01*
X12061905Y-15084842D01*
X12128571Y-15132461D02*
X12138095Y-15122937D01*
X12157143Y-15113413D01*
X12204762Y-15113413D01*
X12223809Y-15122937D01*
X12233333Y-15132461D01*
X12242857Y-15151509D01*
X12242857Y-15170556D01*
X12233333Y-15199128D01*
X12119048Y-15313413D01*
X12242857Y-15313413D01*
X12414286Y-15180080D02*
X12414286Y-15313413D01*
X12366667Y-15103889D02*
X12319048Y-15246747D01*
X12442857Y-15246747D01*
X12671428Y-15313413D02*
X12671428Y-15113413D01*
X12757143Y-15313413D02*
X12757143Y-15208651D01*
X12747619Y-15189604D01*
X12728571Y-15180080D01*
X12700000Y-15180080D01*
X12680952Y-15189604D01*
X12671428Y-15199128D01*
X12880952Y-15313413D02*
X12861905Y-15303889D01*
X12852381Y-15294366D01*
X12842857Y-15275318D01*
X12842857Y-15218175D01*
X12852381Y-15199128D01*
X12861905Y-15189604D01*
X12880952Y-15180080D01*
X12909524Y-15180080D01*
X12928571Y-15189604D01*
X12938095Y-15199128D01*
X12947619Y-15218175D01*
X12947619Y-15275318D01*
X12938095Y-15294366D01*
X12928571Y-15303889D01*
X12909524Y-15313413D01*
X12880952Y-15313413D01*
X13061905Y-15313413D02*
X13042857Y-15303889D01*
X13033333Y-15284842D01*
X13033333Y-15113413D01*
X13214286Y-15303889D02*
X13195238Y-15313413D01*
X13157143Y-15313413D01*
X13138095Y-15303889D01*
X13128571Y-15284842D01*
X13128571Y-15208651D01*
X13138095Y-15189604D01*
X13157143Y-15180080D01*
X13195238Y-15180080D01*
X13214286Y-15189604D01*
X13223809Y-15208651D01*
X13223809Y-15227699D01*
X13128571Y-15246747D01*
X13300000Y-15303889D02*
X13319048Y-15313413D01*
X13357143Y-15313413D01*
X13376190Y-15303889D01*
X13385714Y-15284842D01*
X13385714Y-15275318D01*
X13376190Y-15256270D01*
X13357143Y-15246747D01*
X13328571Y-15246747D01*
X13309524Y-15237223D01*
X13300000Y-15218175D01*
X13300000Y-15208651D01*
X13309524Y-15189604D01*
X13328571Y-15180080D01*
X13357143Y-15180080D01*
X13376190Y-15189604D01*
X13452381Y-15389604D02*
X13461905Y-15380080D01*
X13480952Y-15351509D01*
X13490476Y-15332461D01*
X13500000Y-15303889D01*
X13509524Y-15256270D01*
X13509524Y-15218175D01*
X13500000Y-15170556D01*
X13490476Y-15141985D01*
X13480952Y-15122937D01*
X13461905Y-15094366D01*
X13452381Y-15084842D01*
D14*
X8449360Y-15446297D02*
X8449360Y-15527577D01*
X8408720Y-15486937D02*
X8490000Y-15486937D01*
D11*
X8785714Y-15377413D02*
X8804762Y-15377413D01*
X8823810Y-15386937D01*
X8833333Y-15396461D01*
X8842857Y-15415509D01*
X8852381Y-15453604D01*
X8852381Y-15501223D01*
X8842857Y-15539318D01*
X8833333Y-15558366D01*
X8823810Y-15567889D01*
X8804762Y-15577413D01*
X8785714Y-15577413D01*
X8766667Y-15567889D01*
X8757143Y-15558366D01*
X8747619Y-15539318D01*
X8738095Y-15501223D01*
X8738095Y-15453604D01*
X8747619Y-15415509D01*
X8757143Y-15396461D01*
X8766667Y-15386937D01*
X8785714Y-15377413D01*
X8938095Y-15558366D02*
X8947619Y-15567889D01*
X8938095Y-15577413D01*
X8928571Y-15567889D01*
X8938095Y-15558366D01*
X8938095Y-15577413D01*
X9061905Y-15463128D02*
X9042857Y-15453604D01*
X9033333Y-15444080D01*
X9023810Y-15425032D01*
X9023810Y-15415509D01*
X9033333Y-15396461D01*
X9042857Y-15386937D01*
X9061905Y-15377413D01*
X9100000Y-15377413D01*
X9119048Y-15386937D01*
X9128571Y-15396461D01*
X9138095Y-15415509D01*
X9138095Y-15425032D01*
X9128571Y-15444080D01*
X9119048Y-15453604D01*
X9100000Y-15463128D01*
X9061905Y-15463128D01*
X9042857Y-15472651D01*
X9033333Y-15482175D01*
X9023810Y-15501223D01*
X9023810Y-15539318D01*
X9033333Y-15558366D01*
X9042857Y-15567889D01*
X9061905Y-15577413D01*
X9100000Y-15577413D01*
X9119048Y-15567889D01*
X9128571Y-15558366D01*
X9138095Y-15539318D01*
X9138095Y-15501223D01*
X9128571Y-15482175D01*
X9119048Y-15472651D01*
X9100000Y-15463128D01*
X9328571Y-15577413D02*
X9214286Y-15577413D01*
X9271429Y-15577413D02*
X9271429Y-15377413D01*
X9252381Y-15405985D01*
X9233333Y-15425032D01*
X9214286Y-15434556D01*
X9395238Y-15377413D02*
X9519048Y-15377413D01*
X9452381Y-15453604D01*
X9480952Y-15453604D01*
X9500000Y-15463128D01*
X9509524Y-15472651D01*
X9519048Y-15491699D01*
X9519048Y-15539318D01*
X9509524Y-15558366D01*
X9500000Y-15567889D01*
X9480952Y-15577413D01*
X9423810Y-15577413D01*
X9404762Y-15567889D01*
X9395238Y-15558366D01*
X9604762Y-15577413D02*
X9604762Y-15444080D01*
X9604762Y-15463128D02*
X9614286Y-15453604D01*
X9633333Y-15444080D01*
X9661905Y-15444080D01*
X9680952Y-15453604D01*
X9690476Y-15472651D01*
X9690476Y-15577413D01*
X9690476Y-15472651D02*
X9700000Y-15453604D01*
X9719048Y-15444080D01*
X9747619Y-15444080D01*
X9766667Y-15453604D01*
X9776190Y-15472651D01*
X9776190Y-15577413D01*
X9871429Y-15577413D02*
X9871429Y-15444080D01*
X9871429Y-15463128D02*
X9880952Y-15453604D01*
X9900000Y-15444080D01*
X9928571Y-15444080D01*
X9947619Y-15453604D01*
X9957143Y-15472651D01*
X9957143Y-15577413D01*
X9957143Y-15472651D02*
X9966667Y-15453604D01*
X9985714Y-15444080D01*
X10014286Y-15444080D01*
X10033333Y-15453604D01*
X10042857Y-15472651D01*
X10042857Y-15577413D01*
X10433333Y-15367889D02*
X10261905Y-15625032D01*
X10690476Y-15377413D02*
X10709524Y-15377413D01*
X10728571Y-15386937D01*
X10738095Y-15396461D01*
X10747619Y-15415509D01*
X10757143Y-15453604D01*
X10757143Y-15501223D01*
X10747619Y-15539318D01*
X10738095Y-15558366D01*
X10728571Y-15567889D01*
X10709524Y-15577413D01*
X10690476Y-15577413D01*
X10671429Y-15567889D01*
X10661905Y-15558366D01*
X10652381Y-15539318D01*
X10642857Y-15501223D01*
X10642857Y-15453604D01*
X10652381Y-15415509D01*
X10661905Y-15396461D01*
X10671429Y-15386937D01*
X10690476Y-15377413D01*
X10842857Y-15558366D02*
X10852381Y-15567889D01*
X10842857Y-15577413D01*
X10833333Y-15567889D01*
X10842857Y-15558366D01*
X10842857Y-15577413D01*
X10976190Y-15377413D02*
X10995238Y-15377413D01*
X11014286Y-15386937D01*
X11023810Y-15396461D01*
X11033333Y-15415509D01*
X11042857Y-15453604D01*
X11042857Y-15501223D01*
X11033333Y-15539318D01*
X11023810Y-15558366D01*
X11014286Y-15567889D01*
X10995238Y-15577413D01*
X10976190Y-15577413D01*
X10957143Y-15567889D01*
X10947619Y-15558366D01*
X10938095Y-15539318D01*
X10928571Y-15501223D01*
X10928571Y-15453604D01*
X10938095Y-15415509D01*
X10947619Y-15396461D01*
X10957143Y-15386937D01*
X10976190Y-15377413D01*
X11109524Y-15377413D02*
X11233333Y-15377413D01*
X11166667Y-15453604D01*
X11195238Y-15453604D01*
X11214286Y-15463128D01*
X11223809Y-15472651D01*
X11233333Y-15491699D01*
X11233333Y-15539318D01*
X11223809Y-15558366D01*
X11214286Y-15567889D01*
X11195238Y-15577413D01*
X11138095Y-15577413D01*
X11119048Y-15567889D01*
X11109524Y-15558366D01*
X11309524Y-15396461D02*
X11319048Y-15386937D01*
X11338095Y-15377413D01*
X11385714Y-15377413D01*
X11404762Y-15386937D01*
X11414286Y-15396461D01*
X11423809Y-15415509D01*
X11423809Y-15434556D01*
X11414286Y-15463128D01*
X11300000Y-15577413D01*
X11423809Y-15577413D01*
X11547619Y-15377413D02*
X11566667Y-15377413D01*
X11585714Y-15386937D01*
X11595238Y-15396461D01*
X11604762Y-15415509D01*
X11614286Y-15453604D01*
X11614286Y-15501223D01*
X11604762Y-15539318D01*
X11595238Y-15558366D01*
X11585714Y-15567889D01*
X11566667Y-15577413D01*
X11547619Y-15577413D01*
X11528571Y-15567889D01*
X11519048Y-15558366D01*
X11509524Y-15539318D01*
X11500000Y-15501223D01*
X11500000Y-15453604D01*
X11509524Y-15415509D01*
X11519048Y-15396461D01*
X11528571Y-15386937D01*
X11547619Y-15377413D01*
X11690476Y-15377413D02*
X11690476Y-15415509D01*
X11766667Y-15377413D02*
X11766667Y-15415509D01*
X12061905Y-15653604D02*
X12052381Y-15644080D01*
X12033333Y-15615509D01*
X12023809Y-15596461D01*
X12014286Y-15567889D01*
X12004762Y-15520270D01*
X12004762Y-15482175D01*
X12014286Y-15434556D01*
X12023809Y-15405985D01*
X12033333Y-15386937D01*
X12052381Y-15358366D01*
X12061905Y-15348842D01*
X12233333Y-15377413D02*
X12138095Y-15377413D01*
X12128571Y-15472651D01*
X12138095Y-15463128D01*
X12157143Y-15453604D01*
X12204762Y-15453604D01*
X12223809Y-15463128D01*
X12233333Y-15472651D01*
X12242857Y-15491699D01*
X12242857Y-15539318D01*
X12233333Y-15558366D01*
X12223809Y-15567889D01*
X12204762Y-15577413D01*
X12157143Y-15577413D01*
X12138095Y-15567889D01*
X12128571Y-15558366D01*
X12480952Y-15577413D02*
X12480952Y-15377413D01*
X12566667Y-15577413D02*
X12566667Y-15472651D01*
X12557143Y-15453604D01*
X12538095Y-15444080D01*
X12509524Y-15444080D01*
X12490476Y-15453604D01*
X12480952Y-15463128D01*
X12690476Y-15577413D02*
X12671428Y-15567889D01*
X12661905Y-15558366D01*
X12652381Y-15539318D01*
X12652381Y-15482175D01*
X12661905Y-15463128D01*
X12671428Y-15453604D01*
X12690476Y-15444080D01*
X12719048Y-15444080D01*
X12738095Y-15453604D01*
X12747619Y-15463128D01*
X12757143Y-15482175D01*
X12757143Y-15539318D01*
X12747619Y-15558366D01*
X12738095Y-15567889D01*
X12719048Y-15577413D01*
X12690476Y-15577413D01*
X12871428Y-15577413D02*
X12852381Y-15567889D01*
X12842857Y-15548842D01*
X12842857Y-15377413D01*
X13023809Y-15567889D02*
X13004762Y-15577413D01*
X12966667Y-15577413D01*
X12947619Y-15567889D01*
X12938095Y-15548842D01*
X12938095Y-15472651D01*
X12947619Y-15453604D01*
X12966667Y-15444080D01*
X13004762Y-15444080D01*
X13023809Y-15453604D01*
X13033333Y-15472651D01*
X13033333Y-15491699D01*
X12938095Y-15510747D01*
X13109524Y-15567889D02*
X13128571Y-15577413D01*
X13166667Y-15577413D01*
X13185714Y-15567889D01*
X13195238Y-15548842D01*
X13195238Y-15539318D01*
X13185714Y-15520270D01*
X13166667Y-15510747D01*
X13138095Y-15510747D01*
X13119048Y-15501223D01*
X13109524Y-15482175D01*
X13109524Y-15472651D01*
X13119048Y-15453604D01*
X13138095Y-15444080D01*
X13166667Y-15444080D01*
X13185714Y-15453604D01*
X13261905Y-15653604D02*
X13271428Y-15644080D01*
X13290476Y-15615509D01*
X13300000Y-15596461D01*
X13309524Y-15567889D01*
X13319048Y-15520270D01*
X13319048Y-15482175D01*
X13309524Y-15434556D01*
X13300000Y-15405985D01*
X13290476Y-15386937D01*
X13271428Y-15358366D01*
X13261905Y-15348842D01*
D15*
X8475493Y-15785960D02*
X8475493Y-15715914D01*
X8405447Y-15715914D01*
X8405447Y-15785960D01*
X8475493Y-15785960D01*
D11*
X8785714Y-15641413D02*
X8804762Y-15641413D01*
X8823810Y-15650937D01*
X8833333Y-15660461D01*
X8842857Y-15679509D01*
X8852381Y-15717604D01*
X8852381Y-15765223D01*
X8842857Y-15803318D01*
X8833333Y-15822366D01*
X8823810Y-15831889D01*
X8804762Y-15841413D01*
X8785714Y-15841413D01*
X8766667Y-15831889D01*
X8757143Y-15822366D01*
X8747619Y-15803318D01*
X8738095Y-15765223D01*
X8738095Y-15717604D01*
X8747619Y-15679509D01*
X8757143Y-15660461D01*
X8766667Y-15650937D01*
X8785714Y-15641413D01*
X8938095Y-15822366D02*
X8947619Y-15831889D01*
X8938095Y-15841413D01*
X8928571Y-15831889D01*
X8938095Y-15822366D01*
X8938095Y-15841413D01*
X9042857Y-15841413D02*
X9080952Y-15841413D01*
X9100000Y-15831889D01*
X9109524Y-15822366D01*
X9128571Y-15793794D01*
X9138095Y-15755699D01*
X9138095Y-15679509D01*
X9128571Y-15660461D01*
X9119048Y-15650937D01*
X9100000Y-15641413D01*
X9061905Y-15641413D01*
X9042857Y-15650937D01*
X9033333Y-15660461D01*
X9023810Y-15679509D01*
X9023810Y-15727128D01*
X9033333Y-15746175D01*
X9042857Y-15755699D01*
X9061905Y-15765223D01*
X9100000Y-15765223D01*
X9119048Y-15755699D01*
X9128571Y-15746175D01*
X9138095Y-15727128D01*
X9233333Y-15841413D02*
X9271429Y-15841413D01*
X9290476Y-15831889D01*
X9300000Y-15822366D01*
X9319048Y-15793794D01*
X9328571Y-15755699D01*
X9328571Y-15679509D01*
X9319048Y-15660461D01*
X9309524Y-15650937D01*
X9290476Y-15641413D01*
X9252381Y-15641413D01*
X9233333Y-15650937D01*
X9223810Y-15660461D01*
X9214286Y-15679509D01*
X9214286Y-15727128D01*
X9223810Y-15746175D01*
X9233333Y-15755699D01*
X9252381Y-15765223D01*
X9290476Y-15765223D01*
X9309524Y-15755699D01*
X9319048Y-15746175D01*
X9328571Y-15727128D01*
X9519048Y-15841413D02*
X9404762Y-15841413D01*
X9461905Y-15841413D02*
X9461905Y-15641413D01*
X9442857Y-15669985D01*
X9423810Y-15689032D01*
X9404762Y-15698556D01*
X9604762Y-15841413D02*
X9604762Y-15708080D01*
X9604762Y-15727128D02*
X9614286Y-15717604D01*
X9633333Y-15708080D01*
X9661905Y-15708080D01*
X9680952Y-15717604D01*
X9690476Y-15736651D01*
X9690476Y-15841413D01*
X9690476Y-15736651D02*
X9700000Y-15717604D01*
X9719048Y-15708080D01*
X9747619Y-15708080D01*
X9766667Y-15717604D01*
X9776190Y-15736651D01*
X9776190Y-15841413D01*
X9871429Y-15841413D02*
X9871429Y-15708080D01*
X9871429Y-15727128D02*
X9880952Y-15717604D01*
X9900000Y-15708080D01*
X9928571Y-15708080D01*
X9947619Y-15717604D01*
X9957143Y-15736651D01*
X9957143Y-15841413D01*
X9957143Y-15736651D02*
X9966667Y-15717604D01*
X9985714Y-15708080D01*
X10014286Y-15708080D01*
X10033333Y-15717604D01*
X10042857Y-15736651D01*
X10042857Y-15841413D01*
X10433333Y-15631889D02*
X10261905Y-15889032D01*
X10690476Y-15641413D02*
X10709524Y-15641413D01*
X10728571Y-15650937D01*
X10738095Y-15660461D01*
X10747619Y-15679509D01*
X10757143Y-15717604D01*
X10757143Y-15765223D01*
X10747619Y-15803318D01*
X10738095Y-15822366D01*
X10728571Y-15831889D01*
X10709524Y-15841413D01*
X10690476Y-15841413D01*
X10671429Y-15831889D01*
X10661905Y-15822366D01*
X10652381Y-15803318D01*
X10642857Y-15765223D01*
X10642857Y-15717604D01*
X10652381Y-15679509D01*
X10661905Y-15660461D01*
X10671429Y-15650937D01*
X10690476Y-15641413D01*
X10842857Y-15822366D02*
X10852381Y-15831889D01*
X10842857Y-15841413D01*
X10833333Y-15831889D01*
X10842857Y-15822366D01*
X10842857Y-15841413D01*
X10976190Y-15641413D02*
X10995238Y-15641413D01*
X11014286Y-15650937D01*
X11023810Y-15660461D01*
X11033333Y-15679509D01*
X11042857Y-15717604D01*
X11042857Y-15765223D01*
X11033333Y-15803318D01*
X11023810Y-15822366D01*
X11014286Y-15831889D01*
X10995238Y-15841413D01*
X10976190Y-15841413D01*
X10957143Y-15831889D01*
X10947619Y-15822366D01*
X10938095Y-15803318D01*
X10928571Y-15765223D01*
X10928571Y-15717604D01*
X10938095Y-15679509D01*
X10947619Y-15660461D01*
X10957143Y-15650937D01*
X10976190Y-15641413D01*
X11109524Y-15641413D02*
X11233333Y-15641413D01*
X11166667Y-15717604D01*
X11195238Y-15717604D01*
X11214286Y-15727128D01*
X11223809Y-15736651D01*
X11233333Y-15755699D01*
X11233333Y-15803318D01*
X11223809Y-15822366D01*
X11214286Y-15831889D01*
X11195238Y-15841413D01*
X11138095Y-15841413D01*
X11119048Y-15831889D01*
X11109524Y-15822366D01*
X11328571Y-15841413D02*
X11366667Y-15841413D01*
X11385714Y-15831889D01*
X11395238Y-15822366D01*
X11414286Y-15793794D01*
X11423809Y-15755699D01*
X11423809Y-15679509D01*
X11414286Y-15660461D01*
X11404762Y-15650937D01*
X11385714Y-15641413D01*
X11347619Y-15641413D01*
X11328571Y-15650937D01*
X11319048Y-15660461D01*
X11309524Y-15679509D01*
X11309524Y-15727128D01*
X11319048Y-15746175D01*
X11328571Y-15755699D01*
X11347619Y-15765223D01*
X11385714Y-15765223D01*
X11404762Y-15755699D01*
X11414286Y-15746175D01*
X11423809Y-15727128D01*
X11547619Y-15641413D02*
X11566667Y-15641413D01*
X11585714Y-15650937D01*
X11595238Y-15660461D01*
X11604762Y-15679509D01*
X11614286Y-15717604D01*
X11614286Y-15765223D01*
X11604762Y-15803318D01*
X11595238Y-15822366D01*
X11585714Y-15831889D01*
X11566667Y-15841413D01*
X11547619Y-15841413D01*
X11528571Y-15831889D01*
X11519048Y-15822366D01*
X11509524Y-15803318D01*
X11500000Y-15765223D01*
X11500000Y-15717604D01*
X11509524Y-15679509D01*
X11519048Y-15660461D01*
X11528571Y-15650937D01*
X11547619Y-15641413D01*
X11690476Y-15641413D02*
X11690476Y-15679509D01*
X11766667Y-15641413D02*
X11766667Y-15679509D01*
X12061905Y-15917604D02*
X12052381Y-15908080D01*
X12033333Y-15879509D01*
X12023809Y-15860461D01*
X12014286Y-15831889D01*
X12004762Y-15784270D01*
X12004762Y-15746175D01*
X12014286Y-15698556D01*
X12023809Y-15669985D01*
X12033333Y-15650937D01*
X12052381Y-15622366D01*
X12061905Y-15612842D01*
X12223809Y-15641413D02*
X12185714Y-15641413D01*
X12166667Y-15650937D01*
X12157143Y-15660461D01*
X12138095Y-15689032D01*
X12128571Y-15727128D01*
X12128571Y-15803318D01*
X12138095Y-15822366D01*
X12147619Y-15831889D01*
X12166667Y-15841413D01*
X12204762Y-15841413D01*
X12223809Y-15831889D01*
X12233333Y-15822366D01*
X12242857Y-15803318D01*
X12242857Y-15755699D01*
X12233333Y-15736651D01*
X12223809Y-15727128D01*
X12204762Y-15717604D01*
X12166667Y-15717604D01*
X12147619Y-15727128D01*
X12138095Y-15736651D01*
X12128571Y-15755699D01*
X12366667Y-15641413D02*
X12385714Y-15641413D01*
X12404762Y-15650937D01*
X12414286Y-15660461D01*
X12423809Y-15679509D01*
X12433333Y-15717604D01*
X12433333Y-15765223D01*
X12423809Y-15803318D01*
X12414286Y-15822366D01*
X12404762Y-15831889D01*
X12385714Y-15841413D01*
X12366667Y-15841413D01*
X12347619Y-15831889D01*
X12338095Y-15822366D01*
X12328571Y-15803318D01*
X12319048Y-15765223D01*
X12319048Y-15717604D01*
X12328571Y-15679509D01*
X12338095Y-15660461D01*
X12347619Y-15650937D01*
X12366667Y-15641413D01*
X12671428Y-15841413D02*
X12671428Y-15641413D01*
X12757143Y-15841413D02*
X12757143Y-15736651D01*
X12747619Y-15717604D01*
X12728571Y-15708080D01*
X12700000Y-15708080D01*
X12680952Y-15717604D01*
X12671428Y-15727128D01*
X12880952Y-15841413D02*
X12861905Y-15831889D01*
X12852381Y-15822366D01*
X12842857Y-15803318D01*
X12842857Y-15746175D01*
X12852381Y-15727128D01*
X12861905Y-15717604D01*
X12880952Y-15708080D01*
X12909524Y-15708080D01*
X12928571Y-15717604D01*
X12938095Y-15727128D01*
X12947619Y-15746175D01*
X12947619Y-15803318D01*
X12938095Y-15822366D01*
X12928571Y-15831889D01*
X12909524Y-15841413D01*
X12880952Y-15841413D01*
X13061905Y-15841413D02*
X13042857Y-15831889D01*
X13033333Y-15812842D01*
X13033333Y-15641413D01*
X13214286Y-15831889D02*
X13195238Y-15841413D01*
X13157143Y-15841413D01*
X13138095Y-15831889D01*
X13128571Y-15812842D01*
X13128571Y-15736651D01*
X13138095Y-15717604D01*
X13157143Y-15708080D01*
X13195238Y-15708080D01*
X13214286Y-15717604D01*
X13223809Y-15736651D01*
X13223809Y-15755699D01*
X13128571Y-15774747D01*
X13300000Y-15831889D02*
X13319048Y-15841413D01*
X13357143Y-15841413D01*
X13376190Y-15831889D01*
X13385714Y-15812842D01*
X13385714Y-15803318D01*
X13376190Y-15784270D01*
X13357143Y-15774747D01*
X13328571Y-15774747D01*
X13309524Y-15765223D01*
X13300000Y-15746175D01*
X13300000Y-15736651D01*
X13309524Y-15717604D01*
X13328571Y-15708080D01*
X13357143Y-15708080D01*
X13376190Y-15717604D01*
X13452381Y-15917604D02*
X13461905Y-15908080D01*
X13480952Y-15879509D01*
X13490476Y-15860461D01*
X13500000Y-15831889D01*
X13509524Y-15784270D01*
X13509524Y-15746175D01*
X13500000Y-15698556D01*
X13490476Y-15669985D01*
X13480952Y-15650937D01*
X13461905Y-15622366D01*
X13452381Y-15612842D01*
D16*
X8440000Y-16064937D02*
X8490000Y-16014937D01*
X8440000Y-15964937D01*
X8390000Y-16014937D01*
X8440000Y-16064937D01*
D11*
X8852381Y-16105413D02*
X8738095Y-16105413D01*
X8795238Y-16105413D02*
X8795238Y-15905413D01*
X8776190Y-15933985D01*
X8757143Y-15953032D01*
X8738095Y-15962556D01*
X8938095Y-16086366D02*
X8947619Y-16095889D01*
X8938095Y-16105413D01*
X8928571Y-16095889D01*
X8938095Y-16086366D01*
X8938095Y-16105413D01*
X9071429Y-15905413D02*
X9090476Y-15905413D01*
X9109524Y-15914937D01*
X9119048Y-15924461D01*
X9128571Y-15943509D01*
X9138095Y-15981604D01*
X9138095Y-16029223D01*
X9128571Y-16067318D01*
X9119048Y-16086366D01*
X9109524Y-16095889D01*
X9090476Y-16105413D01*
X9071429Y-16105413D01*
X9052381Y-16095889D01*
X9042857Y-16086366D01*
X9033333Y-16067318D01*
X9023810Y-16029223D01*
X9023810Y-15981604D01*
X9033333Y-15943509D01*
X9042857Y-15924461D01*
X9052381Y-15914937D01*
X9071429Y-15905413D01*
X9261905Y-15905413D02*
X9280952Y-15905413D01*
X9300000Y-15914937D01*
X9309524Y-15924461D01*
X9319048Y-15943509D01*
X9328571Y-15981604D01*
X9328571Y-16029223D01*
X9319048Y-16067318D01*
X9309524Y-16086366D01*
X9300000Y-16095889D01*
X9280952Y-16105413D01*
X9261905Y-16105413D01*
X9242857Y-16095889D01*
X9233333Y-16086366D01*
X9223810Y-16067318D01*
X9214286Y-16029223D01*
X9214286Y-15981604D01*
X9223810Y-15943509D01*
X9233333Y-15924461D01*
X9242857Y-15914937D01*
X9261905Y-15905413D01*
X9452381Y-15905413D02*
X9471429Y-15905413D01*
X9490476Y-15914937D01*
X9500000Y-15924461D01*
X9509524Y-15943509D01*
X9519048Y-15981604D01*
X9519048Y-16029223D01*
X9509524Y-16067318D01*
X9500000Y-16086366D01*
X9490476Y-16095889D01*
X9471429Y-16105413D01*
X9452381Y-16105413D01*
X9433333Y-16095889D01*
X9423810Y-16086366D01*
X9414286Y-16067318D01*
X9404762Y-16029223D01*
X9404762Y-15981604D01*
X9414286Y-15943509D01*
X9423810Y-15924461D01*
X9433333Y-15914937D01*
X9452381Y-15905413D01*
X9604762Y-16105413D02*
X9604762Y-15972080D01*
X9604762Y-15991128D02*
X9614286Y-15981604D01*
X9633333Y-15972080D01*
X9661905Y-15972080D01*
X9680952Y-15981604D01*
X9690476Y-16000651D01*
X9690476Y-16105413D01*
X9690476Y-16000651D02*
X9700000Y-15981604D01*
X9719048Y-15972080D01*
X9747619Y-15972080D01*
X9766667Y-15981604D01*
X9776190Y-16000651D01*
X9776190Y-16105413D01*
X9871429Y-16105413D02*
X9871429Y-15972080D01*
X9871429Y-15991128D02*
X9880952Y-15981604D01*
X9900000Y-15972080D01*
X9928571Y-15972080D01*
X9947619Y-15981604D01*
X9957143Y-16000651D01*
X9957143Y-16105413D01*
X9957143Y-16000651D02*
X9966667Y-15981604D01*
X9985714Y-15972080D01*
X10014286Y-15972080D01*
X10033333Y-15981604D01*
X10042857Y-16000651D01*
X10042857Y-16105413D01*
X10433333Y-15895889D02*
X10261905Y-16153032D01*
X10690476Y-15905413D02*
X10709524Y-15905413D01*
X10728571Y-15914937D01*
X10738095Y-15924461D01*
X10747619Y-15943509D01*
X10757143Y-15981604D01*
X10757143Y-16029223D01*
X10747619Y-16067318D01*
X10738095Y-16086366D01*
X10728571Y-16095889D01*
X10709524Y-16105413D01*
X10690476Y-16105413D01*
X10671429Y-16095889D01*
X10661905Y-16086366D01*
X10652381Y-16067318D01*
X10642857Y-16029223D01*
X10642857Y-15981604D01*
X10652381Y-15943509D01*
X10661905Y-15924461D01*
X10671429Y-15914937D01*
X10690476Y-15905413D01*
X10842857Y-16086366D02*
X10852381Y-16095889D01*
X10842857Y-16105413D01*
X10833333Y-16095889D01*
X10842857Y-16086366D01*
X10842857Y-16105413D01*
X10976190Y-15905413D02*
X10995238Y-15905413D01*
X11014286Y-15914937D01*
X11023810Y-15924461D01*
X11033333Y-15943509D01*
X11042857Y-15981604D01*
X11042857Y-16029223D01*
X11033333Y-16067318D01*
X11023810Y-16086366D01*
X11014286Y-16095889D01*
X10995238Y-16105413D01*
X10976190Y-16105413D01*
X10957143Y-16095889D01*
X10947619Y-16086366D01*
X10938095Y-16067318D01*
X10928571Y-16029223D01*
X10928571Y-15981604D01*
X10938095Y-15943509D01*
X10947619Y-15924461D01*
X10957143Y-15914937D01*
X10976190Y-15905413D01*
X11109524Y-15905413D02*
X11233333Y-15905413D01*
X11166667Y-15981604D01*
X11195238Y-15981604D01*
X11214286Y-15991128D01*
X11223809Y-16000651D01*
X11233333Y-16019699D01*
X11233333Y-16067318D01*
X11223809Y-16086366D01*
X11214286Y-16095889D01*
X11195238Y-16105413D01*
X11138095Y-16105413D01*
X11119048Y-16095889D01*
X11109524Y-16086366D01*
X11328571Y-16105413D02*
X11366667Y-16105413D01*
X11385714Y-16095889D01*
X11395238Y-16086366D01*
X11414286Y-16057794D01*
X11423809Y-16019699D01*
X11423809Y-15943509D01*
X11414286Y-15924461D01*
X11404762Y-15914937D01*
X11385714Y-15905413D01*
X11347619Y-15905413D01*
X11328571Y-15914937D01*
X11319048Y-15924461D01*
X11309524Y-15943509D01*
X11309524Y-15991128D01*
X11319048Y-16010175D01*
X11328571Y-16019699D01*
X11347619Y-16029223D01*
X11385714Y-16029223D01*
X11404762Y-16019699D01*
X11414286Y-16010175D01*
X11423809Y-15991128D01*
X11595238Y-15972080D02*
X11595238Y-16105413D01*
X11547619Y-15895889D02*
X11500000Y-16038747D01*
X11623809Y-16038747D01*
X11690476Y-15905413D02*
X11690476Y-15943509D01*
X11766667Y-15905413D02*
X11766667Y-15943509D01*
X12061905Y-16181604D02*
X12052381Y-16172080D01*
X12033333Y-16143509D01*
X12023809Y-16124461D01*
X12014286Y-16095889D01*
X12004762Y-16048270D01*
X12004762Y-16010175D01*
X12014286Y-15962556D01*
X12023809Y-15933985D01*
X12033333Y-15914937D01*
X12052381Y-15886366D01*
X12061905Y-15876842D01*
X12233333Y-15905413D02*
X12138095Y-15905413D01*
X12128571Y-16000651D01*
X12138095Y-15991128D01*
X12157143Y-15981604D01*
X12204762Y-15981604D01*
X12223809Y-15991128D01*
X12233333Y-16000651D01*
X12242857Y-16019699D01*
X12242857Y-16067318D01*
X12233333Y-16086366D01*
X12223809Y-16095889D01*
X12204762Y-16105413D01*
X12157143Y-16105413D01*
X12138095Y-16095889D01*
X12128571Y-16086366D01*
X12480952Y-16105413D02*
X12480952Y-15905413D01*
X12566667Y-16105413D02*
X12566667Y-16000651D01*
X12557143Y-15981604D01*
X12538095Y-15972080D01*
X12509524Y-15972080D01*
X12490476Y-15981604D01*
X12480952Y-15991128D01*
X12690476Y-16105413D02*
X12671428Y-16095889D01*
X12661905Y-16086366D01*
X12652381Y-16067318D01*
X12652381Y-16010175D01*
X12661905Y-15991128D01*
X12671428Y-15981604D01*
X12690476Y-15972080D01*
X12719048Y-15972080D01*
X12738095Y-15981604D01*
X12747619Y-15991128D01*
X12757143Y-16010175D01*
X12757143Y-16067318D01*
X12747619Y-16086366D01*
X12738095Y-16095889D01*
X12719048Y-16105413D01*
X12690476Y-16105413D01*
X12871428Y-16105413D02*
X12852381Y-16095889D01*
X12842857Y-16076842D01*
X12842857Y-15905413D01*
X13023809Y-16095889D02*
X13004762Y-16105413D01*
X12966667Y-16105413D01*
X12947619Y-16095889D01*
X12938095Y-16076842D01*
X12938095Y-16000651D01*
X12947619Y-15981604D01*
X12966667Y-15972080D01*
X13004762Y-15972080D01*
X13023809Y-15981604D01*
X13033333Y-16000651D01*
X13033333Y-16019699D01*
X12938095Y-16038747D01*
X13109524Y-16095889D02*
X13128571Y-16105413D01*
X13166667Y-16105413D01*
X13185714Y-16095889D01*
X13195238Y-16076842D01*
X13195238Y-16067318D01*
X13185714Y-16048270D01*
X13166667Y-16038747D01*
X13138095Y-16038747D01*
X13119048Y-16029223D01*
X13109524Y-16010175D01*
X13109524Y-16000651D01*
X13119048Y-15981604D01*
X13138095Y-15972080D01*
X13166667Y-15972080D01*
X13185714Y-15981604D01*
X13261905Y-16181604D02*
X13271428Y-16172080D01*
X13290476Y-16143509D01*
X13300000Y-16124461D01*
X13309524Y-16095889D01*
X13319048Y-16048270D01*
X13319048Y-16010175D01*
X13309524Y-15962556D01*
X13300000Y-15933985D01*
X13290476Y-15914937D01*
X13271428Y-15886366D01*
X13261905Y-15876842D01*
D17*
X8380000Y-16223937D02*
X8490000Y-16333937D01*
X8490000Y-16223937D02*
X8380000Y-16333937D01*
X8490000Y-16278937D02*
G75*
G03*
X8490000Y-16278937I-55000J0D01*
G01*
D11*
X8852381Y-16369413D02*
X8738095Y-16369413D01*
X8795238Y-16369413D02*
X8795238Y-16169413D01*
X8776190Y-16197985D01*
X8757143Y-16217032D01*
X8738095Y-16226556D01*
X8938095Y-16350366D02*
X8947619Y-16359889D01*
X8938095Y-16369413D01*
X8928571Y-16359889D01*
X8938095Y-16350366D01*
X8938095Y-16369413D01*
X9138095Y-16369413D02*
X9023810Y-16369413D01*
X9080952Y-16369413D02*
X9080952Y-16169413D01*
X9061905Y-16197985D01*
X9042857Y-16217032D01*
X9023810Y-16226556D01*
X9261905Y-16169413D02*
X9280952Y-16169413D01*
X9300000Y-16178937D01*
X9309524Y-16188461D01*
X9319048Y-16207509D01*
X9328571Y-16245604D01*
X9328571Y-16293223D01*
X9319048Y-16331318D01*
X9309524Y-16350366D01*
X9300000Y-16359889D01*
X9280952Y-16369413D01*
X9261905Y-16369413D01*
X9242857Y-16359889D01*
X9233333Y-16350366D01*
X9223810Y-16331318D01*
X9214286Y-16293223D01*
X9214286Y-16245604D01*
X9223810Y-16207509D01*
X9233333Y-16188461D01*
X9242857Y-16178937D01*
X9261905Y-16169413D01*
X9452381Y-16169413D02*
X9471429Y-16169413D01*
X9490476Y-16178937D01*
X9500000Y-16188461D01*
X9509524Y-16207509D01*
X9519048Y-16245604D01*
X9519048Y-16293223D01*
X9509524Y-16331318D01*
X9500000Y-16350366D01*
X9490476Y-16359889D01*
X9471429Y-16369413D01*
X9452381Y-16369413D01*
X9433333Y-16359889D01*
X9423810Y-16350366D01*
X9414286Y-16331318D01*
X9404762Y-16293223D01*
X9404762Y-16245604D01*
X9414286Y-16207509D01*
X9423810Y-16188461D01*
X9433333Y-16178937D01*
X9452381Y-16169413D01*
X9604762Y-16369413D02*
X9604762Y-16236080D01*
X9604762Y-16255128D02*
X9614286Y-16245604D01*
X9633333Y-16236080D01*
X9661905Y-16236080D01*
X9680952Y-16245604D01*
X9690476Y-16264651D01*
X9690476Y-16369413D01*
X9690476Y-16264651D02*
X9700000Y-16245604D01*
X9719048Y-16236080D01*
X9747619Y-16236080D01*
X9766667Y-16245604D01*
X9776190Y-16264651D01*
X9776190Y-16369413D01*
X9871429Y-16369413D02*
X9871429Y-16236080D01*
X9871429Y-16255128D02*
X9880952Y-16245604D01*
X9900000Y-16236080D01*
X9928571Y-16236080D01*
X9947619Y-16245604D01*
X9957143Y-16264651D01*
X9957143Y-16369413D01*
X9957143Y-16264651D02*
X9966667Y-16245604D01*
X9985714Y-16236080D01*
X10014286Y-16236080D01*
X10033333Y-16245604D01*
X10042857Y-16264651D01*
X10042857Y-16369413D01*
X10433333Y-16159889D02*
X10261905Y-16417032D01*
X10690476Y-16169413D02*
X10709524Y-16169413D01*
X10728571Y-16178937D01*
X10738095Y-16188461D01*
X10747619Y-16207509D01*
X10757143Y-16245604D01*
X10757143Y-16293223D01*
X10747619Y-16331318D01*
X10738095Y-16350366D01*
X10728571Y-16359889D01*
X10709524Y-16369413D01*
X10690476Y-16369413D01*
X10671429Y-16359889D01*
X10661905Y-16350366D01*
X10652381Y-16331318D01*
X10642857Y-16293223D01*
X10642857Y-16245604D01*
X10652381Y-16207509D01*
X10661905Y-16188461D01*
X10671429Y-16178937D01*
X10690476Y-16169413D01*
X10842857Y-16350366D02*
X10852381Y-16359889D01*
X10842857Y-16369413D01*
X10833333Y-16359889D01*
X10842857Y-16350366D01*
X10842857Y-16369413D01*
X10976190Y-16169413D02*
X10995238Y-16169413D01*
X11014286Y-16178937D01*
X11023810Y-16188461D01*
X11033333Y-16207509D01*
X11042857Y-16245604D01*
X11042857Y-16293223D01*
X11033333Y-16331318D01*
X11023810Y-16350366D01*
X11014286Y-16359889D01*
X10995238Y-16369413D01*
X10976190Y-16369413D01*
X10957143Y-16359889D01*
X10947619Y-16350366D01*
X10938095Y-16331318D01*
X10928571Y-16293223D01*
X10928571Y-16245604D01*
X10938095Y-16207509D01*
X10947619Y-16188461D01*
X10957143Y-16178937D01*
X10976190Y-16169413D01*
X11214286Y-16236080D02*
X11214286Y-16369413D01*
X11166667Y-16159889D02*
X11119048Y-16302747D01*
X11242857Y-16302747D01*
X11300000Y-16169413D02*
X11423809Y-16169413D01*
X11357143Y-16245604D01*
X11385714Y-16245604D01*
X11404762Y-16255128D01*
X11414286Y-16264651D01*
X11423809Y-16283699D01*
X11423809Y-16331318D01*
X11414286Y-16350366D01*
X11404762Y-16359889D01*
X11385714Y-16369413D01*
X11328571Y-16369413D01*
X11309524Y-16359889D01*
X11300000Y-16350366D01*
X11490476Y-16169413D02*
X11614286Y-16169413D01*
X11547619Y-16245604D01*
X11576190Y-16245604D01*
X11595238Y-16255128D01*
X11604762Y-16264651D01*
X11614286Y-16283699D01*
X11614286Y-16331318D01*
X11604762Y-16350366D01*
X11595238Y-16359889D01*
X11576190Y-16369413D01*
X11519048Y-16369413D01*
X11500000Y-16359889D01*
X11490476Y-16350366D01*
X11690476Y-16169413D02*
X11690476Y-16207509D01*
X11766667Y-16169413D02*
X11766667Y-16207509D01*
X12061905Y-16445604D02*
X12052381Y-16436080D01*
X12033333Y-16407509D01*
X12023809Y-16388461D01*
X12014286Y-16359889D01*
X12004762Y-16312270D01*
X12004762Y-16274175D01*
X12014286Y-16226556D01*
X12023809Y-16197985D01*
X12033333Y-16178937D01*
X12052381Y-16150366D01*
X12061905Y-16140842D01*
X12128571Y-16188461D02*
X12138095Y-16178937D01*
X12157143Y-16169413D01*
X12204762Y-16169413D01*
X12223809Y-16178937D01*
X12233333Y-16188461D01*
X12242857Y-16207509D01*
X12242857Y-16226556D01*
X12233333Y-16255128D01*
X12119048Y-16369413D01*
X12242857Y-16369413D01*
X12414286Y-16169413D02*
X12376190Y-16169413D01*
X12357143Y-16178937D01*
X12347619Y-16188461D01*
X12328571Y-16217032D01*
X12319048Y-16255128D01*
X12319048Y-16331318D01*
X12328571Y-16350366D01*
X12338095Y-16359889D01*
X12357143Y-16369413D01*
X12395238Y-16369413D01*
X12414286Y-16359889D01*
X12423809Y-16350366D01*
X12433333Y-16331318D01*
X12433333Y-16283699D01*
X12423809Y-16264651D01*
X12414286Y-16255128D01*
X12395238Y-16245604D01*
X12357143Y-16245604D01*
X12338095Y-16255128D01*
X12328571Y-16264651D01*
X12319048Y-16283699D01*
X12671428Y-16369413D02*
X12671428Y-16169413D01*
X12757143Y-16369413D02*
X12757143Y-16264651D01*
X12747619Y-16245604D01*
X12728571Y-16236080D01*
X12700000Y-16236080D01*
X12680952Y-16245604D01*
X12671428Y-16255128D01*
X12880952Y-16369413D02*
X12861905Y-16359889D01*
X12852381Y-16350366D01*
X12842857Y-16331318D01*
X12842857Y-16274175D01*
X12852381Y-16255128D01*
X12861905Y-16245604D01*
X12880952Y-16236080D01*
X12909524Y-16236080D01*
X12928571Y-16245604D01*
X12938095Y-16255128D01*
X12947619Y-16274175D01*
X12947619Y-16331318D01*
X12938095Y-16350366D01*
X12928571Y-16359889D01*
X12909524Y-16369413D01*
X12880952Y-16369413D01*
X13061905Y-16369413D02*
X13042857Y-16359889D01*
X13033333Y-16340842D01*
X13033333Y-16169413D01*
X13214286Y-16359889D02*
X13195238Y-16369413D01*
X13157143Y-16369413D01*
X13138095Y-16359889D01*
X13128571Y-16340842D01*
X13128571Y-16264651D01*
X13138095Y-16245604D01*
X13157143Y-16236080D01*
X13195238Y-16236080D01*
X13214286Y-16245604D01*
X13223809Y-16264651D01*
X13223809Y-16283699D01*
X13128571Y-16302747D01*
X13300000Y-16359889D02*
X13319048Y-16369413D01*
X13357143Y-16369413D01*
X13376190Y-16359889D01*
X13385714Y-16340842D01*
X13385714Y-16331318D01*
X13376190Y-16312270D01*
X13357143Y-16302747D01*
X13328571Y-16302747D01*
X13309524Y-16293223D01*
X13300000Y-16274175D01*
X13300000Y-16264651D01*
X13309524Y-16245604D01*
X13328571Y-16236080D01*
X13357143Y-16236080D01*
X13376190Y-16245604D01*
X13452381Y-16445604D02*
X13461905Y-16436080D01*
X13480952Y-16407509D01*
X13490476Y-16388461D01*
X13500000Y-16359889D01*
X13509524Y-16312270D01*
X13509524Y-16274175D01*
X13500000Y-16226556D01*
X13490476Y-16197985D01*
X13480952Y-16178937D01*
X13461905Y-16150366D01*
X13452381Y-16140842D01*
D18*
X8360000Y-16477937D02*
X8490000Y-16607937D01*
X8490000Y-16477937D02*
X8360000Y-16607937D01*
X8425000Y-16477937D02*
X8425000Y-16607937D01*
X8360000Y-16542937D02*
X8490000Y-16542937D01*
D11*
X8852381Y-16633413D02*
X8738095Y-16633413D01*
X8795238Y-16633413D02*
X8795238Y-16433413D01*
X8776190Y-16461985D01*
X8757143Y-16481032D01*
X8738095Y-16490556D01*
X8938095Y-16614366D02*
X8947619Y-16623889D01*
X8938095Y-16633413D01*
X8928571Y-16623889D01*
X8938095Y-16614366D01*
X8938095Y-16633413D01*
X9014286Y-16433413D02*
X9138095Y-16433413D01*
X9071429Y-16509604D01*
X9100000Y-16509604D01*
X9119048Y-16519128D01*
X9128571Y-16528651D01*
X9138095Y-16547699D01*
X9138095Y-16595318D01*
X9128571Y-16614366D01*
X9119048Y-16623889D01*
X9100000Y-16633413D01*
X9042857Y-16633413D01*
X9023810Y-16623889D01*
X9014286Y-16614366D01*
X9261905Y-16433413D02*
X9280952Y-16433413D01*
X9300000Y-16442937D01*
X9309524Y-16452461D01*
X9319048Y-16471509D01*
X9328571Y-16509604D01*
X9328571Y-16557223D01*
X9319048Y-16595318D01*
X9309524Y-16614366D01*
X9300000Y-16623889D01*
X9280952Y-16633413D01*
X9261905Y-16633413D01*
X9242857Y-16623889D01*
X9233333Y-16614366D01*
X9223810Y-16595318D01*
X9214286Y-16557223D01*
X9214286Y-16509604D01*
X9223810Y-16471509D01*
X9233333Y-16452461D01*
X9242857Y-16442937D01*
X9261905Y-16433413D01*
X9452381Y-16433413D02*
X9471429Y-16433413D01*
X9490476Y-16442937D01*
X9500000Y-16452461D01*
X9509524Y-16471509D01*
X9519048Y-16509604D01*
X9519048Y-16557223D01*
X9509524Y-16595318D01*
X9500000Y-16614366D01*
X9490476Y-16623889D01*
X9471429Y-16633413D01*
X9452381Y-16633413D01*
X9433333Y-16623889D01*
X9423810Y-16614366D01*
X9414286Y-16595318D01*
X9404762Y-16557223D01*
X9404762Y-16509604D01*
X9414286Y-16471509D01*
X9423810Y-16452461D01*
X9433333Y-16442937D01*
X9452381Y-16433413D01*
X9604762Y-16633413D02*
X9604762Y-16500080D01*
X9604762Y-16519128D02*
X9614286Y-16509604D01*
X9633333Y-16500080D01*
X9661905Y-16500080D01*
X9680952Y-16509604D01*
X9690476Y-16528651D01*
X9690476Y-16633413D01*
X9690476Y-16528651D02*
X9700000Y-16509604D01*
X9719048Y-16500080D01*
X9747619Y-16500080D01*
X9766667Y-16509604D01*
X9776190Y-16528651D01*
X9776190Y-16633413D01*
X9871429Y-16633413D02*
X9871429Y-16500080D01*
X9871429Y-16519128D02*
X9880952Y-16509604D01*
X9900000Y-16500080D01*
X9928571Y-16500080D01*
X9947619Y-16509604D01*
X9957143Y-16528651D01*
X9957143Y-16633413D01*
X9957143Y-16528651D02*
X9966667Y-16509604D01*
X9985714Y-16500080D01*
X10014286Y-16500080D01*
X10033333Y-16509604D01*
X10042857Y-16528651D01*
X10042857Y-16633413D01*
X10433333Y-16423889D02*
X10261905Y-16681032D01*
X10690476Y-16433413D02*
X10709524Y-16433413D01*
X10728571Y-16442937D01*
X10738095Y-16452461D01*
X10747619Y-16471509D01*
X10757143Y-16509604D01*
X10757143Y-16557223D01*
X10747619Y-16595318D01*
X10738095Y-16614366D01*
X10728571Y-16623889D01*
X10709524Y-16633413D01*
X10690476Y-16633413D01*
X10671429Y-16623889D01*
X10661905Y-16614366D01*
X10652381Y-16595318D01*
X10642857Y-16557223D01*
X10642857Y-16509604D01*
X10652381Y-16471509D01*
X10661905Y-16452461D01*
X10671429Y-16442937D01*
X10690476Y-16433413D01*
X10842857Y-16614366D02*
X10852381Y-16623889D01*
X10842857Y-16633413D01*
X10833333Y-16623889D01*
X10842857Y-16614366D01*
X10842857Y-16633413D01*
X10976190Y-16433413D02*
X10995238Y-16433413D01*
X11014286Y-16442937D01*
X11023810Y-16452461D01*
X11033333Y-16471509D01*
X11042857Y-16509604D01*
X11042857Y-16557223D01*
X11033333Y-16595318D01*
X11023810Y-16614366D01*
X11014286Y-16623889D01*
X10995238Y-16633413D01*
X10976190Y-16633413D01*
X10957143Y-16623889D01*
X10947619Y-16614366D01*
X10938095Y-16595318D01*
X10928571Y-16557223D01*
X10928571Y-16509604D01*
X10938095Y-16471509D01*
X10947619Y-16452461D01*
X10957143Y-16442937D01*
X10976190Y-16433413D01*
X11223809Y-16433413D02*
X11128571Y-16433413D01*
X11119048Y-16528651D01*
X11128571Y-16519128D01*
X11147619Y-16509604D01*
X11195238Y-16509604D01*
X11214286Y-16519128D01*
X11223809Y-16528651D01*
X11233333Y-16547699D01*
X11233333Y-16595318D01*
X11223809Y-16614366D01*
X11214286Y-16623889D01*
X11195238Y-16633413D01*
X11147619Y-16633413D01*
X11128571Y-16623889D01*
X11119048Y-16614366D01*
X11423809Y-16633413D02*
X11309524Y-16633413D01*
X11366667Y-16633413D02*
X11366667Y-16433413D01*
X11347619Y-16461985D01*
X11328571Y-16481032D01*
X11309524Y-16490556D01*
X11500000Y-16452461D02*
X11509524Y-16442937D01*
X11528571Y-16433413D01*
X11576190Y-16433413D01*
X11595238Y-16442937D01*
X11604762Y-16452461D01*
X11614286Y-16471509D01*
X11614286Y-16490556D01*
X11604762Y-16519128D01*
X11490476Y-16633413D01*
X11614286Y-16633413D01*
X11690476Y-16433413D02*
X11690476Y-16471509D01*
X11766667Y-16433413D02*
X11766667Y-16471509D01*
X12061905Y-16709604D02*
X12052381Y-16700080D01*
X12033333Y-16671509D01*
X12023809Y-16652461D01*
X12014286Y-16623889D01*
X12004762Y-16576270D01*
X12004762Y-16538175D01*
X12014286Y-16490556D01*
X12023809Y-16461985D01*
X12033333Y-16442937D01*
X12052381Y-16414366D01*
X12061905Y-16404842D01*
X12128571Y-16452461D02*
X12138095Y-16442937D01*
X12157143Y-16433413D01*
X12204762Y-16433413D01*
X12223809Y-16442937D01*
X12233333Y-16452461D01*
X12242857Y-16471509D01*
X12242857Y-16490556D01*
X12233333Y-16519128D01*
X12119048Y-16633413D01*
X12242857Y-16633413D01*
X12480952Y-16633413D02*
X12480952Y-16433413D01*
X12566667Y-16633413D02*
X12566667Y-16528651D01*
X12557143Y-16509604D01*
X12538095Y-16500080D01*
X12509524Y-16500080D01*
X12490476Y-16509604D01*
X12480952Y-16519128D01*
X12690476Y-16633413D02*
X12671428Y-16623889D01*
X12661905Y-16614366D01*
X12652381Y-16595318D01*
X12652381Y-16538175D01*
X12661905Y-16519128D01*
X12671428Y-16509604D01*
X12690476Y-16500080D01*
X12719048Y-16500080D01*
X12738095Y-16509604D01*
X12747619Y-16519128D01*
X12757143Y-16538175D01*
X12757143Y-16595318D01*
X12747619Y-16614366D01*
X12738095Y-16623889D01*
X12719048Y-16633413D01*
X12690476Y-16633413D01*
X12871428Y-16633413D02*
X12852381Y-16623889D01*
X12842857Y-16604842D01*
X12842857Y-16433413D01*
X13023809Y-16623889D02*
X13004762Y-16633413D01*
X12966667Y-16633413D01*
X12947619Y-16623889D01*
X12938095Y-16604842D01*
X12938095Y-16528651D01*
X12947619Y-16509604D01*
X12966667Y-16500080D01*
X13004762Y-16500080D01*
X13023809Y-16509604D01*
X13033333Y-16528651D01*
X13033333Y-16547699D01*
X12938095Y-16566747D01*
X13109524Y-16623889D02*
X13128571Y-16633413D01*
X13166667Y-16633413D01*
X13185714Y-16623889D01*
X13195238Y-16604842D01*
X13195238Y-16595318D01*
X13185714Y-16576270D01*
X13166667Y-16566747D01*
X13138095Y-16566747D01*
X13119048Y-16557223D01*
X13109524Y-16538175D01*
X13109524Y-16528651D01*
X13119048Y-16509604D01*
X13138095Y-16500080D01*
X13166667Y-16500080D01*
X13185714Y-16509604D01*
X13261905Y-16709604D02*
X13271428Y-16700080D01*
X13290476Y-16671509D01*
X13300000Y-16652461D01*
X13309524Y-16623889D01*
X13319048Y-16576270D01*
X13319048Y-16538175D01*
X13309524Y-16490556D01*
X13300000Y-16461985D01*
X13290476Y-16442937D01*
X13271428Y-16414366D01*
X13261905Y-16404842D01*
D19*
X8340000Y-16731937D02*
X8490000Y-16881937D01*
X8490000Y-16731937D02*
X8340000Y-16881937D01*
X8468034Y-16859971D02*
X8468034Y-16753904D01*
X8361966Y-16753904D01*
X8361966Y-16859971D01*
X8468034Y-16859971D01*
D11*
X8852381Y-16897413D02*
X8738095Y-16897413D01*
X8795238Y-16897413D02*
X8795238Y-16697413D01*
X8776190Y-16725985D01*
X8757143Y-16745032D01*
X8738095Y-16754556D01*
X8938095Y-16878366D02*
X8947619Y-16887890D01*
X8938095Y-16897413D01*
X8928571Y-16887890D01*
X8938095Y-16878366D01*
X8938095Y-16897413D01*
X9128571Y-16697413D02*
X9033333Y-16697413D01*
X9023810Y-16792651D01*
X9033333Y-16783128D01*
X9052381Y-16773604D01*
X9100000Y-16773604D01*
X9119048Y-16783128D01*
X9128571Y-16792651D01*
X9138095Y-16811699D01*
X9138095Y-16859318D01*
X9128571Y-16878366D01*
X9119048Y-16887890D01*
X9100000Y-16897413D01*
X9052381Y-16897413D01*
X9033333Y-16887890D01*
X9023810Y-16878366D01*
X9261905Y-16697413D02*
X9280952Y-16697413D01*
X9300000Y-16706937D01*
X9309524Y-16716461D01*
X9319048Y-16735509D01*
X9328571Y-16773604D01*
X9328571Y-16821223D01*
X9319048Y-16859318D01*
X9309524Y-16878366D01*
X9300000Y-16887890D01*
X9280952Y-16897413D01*
X9261905Y-16897413D01*
X9242857Y-16887890D01*
X9233333Y-16878366D01*
X9223810Y-16859318D01*
X9214286Y-16821223D01*
X9214286Y-16773604D01*
X9223810Y-16735509D01*
X9233333Y-16716461D01*
X9242857Y-16706937D01*
X9261905Y-16697413D01*
X9452381Y-16697413D02*
X9471429Y-16697413D01*
X9490476Y-16706937D01*
X9500000Y-16716461D01*
X9509524Y-16735509D01*
X9519048Y-16773604D01*
X9519048Y-16821223D01*
X9509524Y-16859318D01*
X9500000Y-16878366D01*
X9490476Y-16887890D01*
X9471429Y-16897413D01*
X9452381Y-16897413D01*
X9433333Y-16887890D01*
X9423810Y-16878366D01*
X9414286Y-16859318D01*
X9404762Y-16821223D01*
X9404762Y-16773604D01*
X9414286Y-16735509D01*
X9423810Y-16716461D01*
X9433333Y-16706937D01*
X9452381Y-16697413D01*
X9604762Y-16897413D02*
X9604762Y-16764080D01*
X9604762Y-16783128D02*
X9614286Y-16773604D01*
X9633333Y-16764080D01*
X9661905Y-16764080D01*
X9680952Y-16773604D01*
X9690476Y-16792651D01*
X9690476Y-16897413D01*
X9690476Y-16792651D02*
X9700000Y-16773604D01*
X9719048Y-16764080D01*
X9747619Y-16764080D01*
X9766667Y-16773604D01*
X9776190Y-16792651D01*
X9776190Y-16897413D01*
X9871429Y-16897413D02*
X9871429Y-16764080D01*
X9871429Y-16783128D02*
X9880952Y-16773604D01*
X9900000Y-16764080D01*
X9928571Y-16764080D01*
X9947619Y-16773604D01*
X9957143Y-16792651D01*
X9957143Y-16897413D01*
X9957143Y-16792651D02*
X9966667Y-16773604D01*
X9985714Y-16764080D01*
X10014286Y-16764080D01*
X10033333Y-16773604D01*
X10042857Y-16792651D01*
X10042857Y-16897413D01*
X10433333Y-16687889D02*
X10261905Y-16945032D01*
X10690476Y-16697413D02*
X10709524Y-16697413D01*
X10728571Y-16706937D01*
X10738095Y-16716461D01*
X10747619Y-16735509D01*
X10757143Y-16773604D01*
X10757143Y-16821223D01*
X10747619Y-16859318D01*
X10738095Y-16878366D01*
X10728571Y-16887890D01*
X10709524Y-16897413D01*
X10690476Y-16897413D01*
X10671429Y-16887890D01*
X10661905Y-16878366D01*
X10652381Y-16859318D01*
X10642857Y-16821223D01*
X10642857Y-16773604D01*
X10652381Y-16735509D01*
X10661905Y-16716461D01*
X10671429Y-16706937D01*
X10690476Y-16697413D01*
X10842857Y-16878366D02*
X10852381Y-16887890D01*
X10842857Y-16897413D01*
X10833333Y-16887890D01*
X10842857Y-16878366D01*
X10842857Y-16897413D01*
X10976190Y-16697413D02*
X10995238Y-16697413D01*
X11014286Y-16706937D01*
X11023810Y-16716461D01*
X11033333Y-16735509D01*
X11042857Y-16773604D01*
X11042857Y-16821223D01*
X11033333Y-16859318D01*
X11023810Y-16878366D01*
X11014286Y-16887890D01*
X10995238Y-16897413D01*
X10976190Y-16897413D01*
X10957143Y-16887890D01*
X10947619Y-16878366D01*
X10938095Y-16859318D01*
X10928571Y-16821223D01*
X10928571Y-16773604D01*
X10938095Y-16735509D01*
X10947619Y-16716461D01*
X10957143Y-16706937D01*
X10976190Y-16697413D01*
X11223809Y-16697413D02*
X11128571Y-16697413D01*
X11119048Y-16792651D01*
X11128571Y-16783128D01*
X11147619Y-16773604D01*
X11195238Y-16773604D01*
X11214286Y-16783128D01*
X11223809Y-16792651D01*
X11233333Y-16811699D01*
X11233333Y-16859318D01*
X11223809Y-16878366D01*
X11214286Y-16887890D01*
X11195238Y-16897413D01*
X11147619Y-16897413D01*
X11128571Y-16887890D01*
X11119048Y-16878366D01*
X11328571Y-16897413D02*
X11366667Y-16897413D01*
X11385714Y-16887890D01*
X11395238Y-16878366D01*
X11414286Y-16849794D01*
X11423809Y-16811699D01*
X11423809Y-16735509D01*
X11414286Y-16716461D01*
X11404762Y-16706937D01*
X11385714Y-16697413D01*
X11347619Y-16697413D01*
X11328571Y-16706937D01*
X11319048Y-16716461D01*
X11309524Y-16735509D01*
X11309524Y-16783128D01*
X11319048Y-16802175D01*
X11328571Y-16811699D01*
X11347619Y-16821223D01*
X11385714Y-16821223D01*
X11404762Y-16811699D01*
X11414286Y-16802175D01*
X11423809Y-16783128D01*
X11614286Y-16897413D02*
X11500000Y-16897413D01*
X11557143Y-16897413D02*
X11557143Y-16697413D01*
X11538095Y-16725985D01*
X11519048Y-16745032D01*
X11500000Y-16754556D01*
X11690476Y-16697413D02*
X11690476Y-16735509D01*
X11766667Y-16697413D02*
X11766667Y-16735509D01*
X12061905Y-16973604D02*
X12052381Y-16964080D01*
X12033333Y-16935509D01*
X12023809Y-16916461D01*
X12014286Y-16887890D01*
X12004762Y-16840271D01*
X12004762Y-16802175D01*
X12014286Y-16754556D01*
X12023809Y-16725985D01*
X12033333Y-16706937D01*
X12052381Y-16678366D01*
X12061905Y-16668842D01*
X12176190Y-16697413D02*
X12195238Y-16697413D01*
X12214286Y-16706937D01*
X12223809Y-16716461D01*
X12233333Y-16735509D01*
X12242857Y-16773604D01*
X12242857Y-16821223D01*
X12233333Y-16859318D01*
X12223809Y-16878366D01*
X12214286Y-16887890D01*
X12195238Y-16897413D01*
X12176190Y-16897413D01*
X12157143Y-16887890D01*
X12147619Y-16878366D01*
X12138095Y-16859318D01*
X12128571Y-16821223D01*
X12128571Y-16773604D01*
X12138095Y-16735509D01*
X12147619Y-16716461D01*
X12157143Y-16706937D01*
X12176190Y-16697413D01*
X12480952Y-16897413D02*
X12480952Y-16697413D01*
X12566667Y-16897413D02*
X12566667Y-16792651D01*
X12557143Y-16773604D01*
X12538095Y-16764080D01*
X12509524Y-16764080D01*
X12490476Y-16773604D01*
X12480952Y-16783128D01*
X12690476Y-16897413D02*
X12671428Y-16887890D01*
X12661905Y-16878366D01*
X12652381Y-16859318D01*
X12652381Y-16802175D01*
X12661905Y-16783128D01*
X12671428Y-16773604D01*
X12690476Y-16764080D01*
X12719048Y-16764080D01*
X12738095Y-16773604D01*
X12747619Y-16783128D01*
X12757143Y-16802175D01*
X12757143Y-16859318D01*
X12747619Y-16878366D01*
X12738095Y-16887890D01*
X12719048Y-16897413D01*
X12690476Y-16897413D01*
X12871428Y-16897413D02*
X12852381Y-16887890D01*
X12842857Y-16868842D01*
X12842857Y-16697413D01*
X13023809Y-16887890D02*
X13004762Y-16897413D01*
X12966667Y-16897413D01*
X12947619Y-16887890D01*
X12938095Y-16868842D01*
X12938095Y-16792651D01*
X12947619Y-16773604D01*
X12966667Y-16764080D01*
X13004762Y-16764080D01*
X13023809Y-16773604D01*
X13033333Y-16792651D01*
X13033333Y-16811699D01*
X12938095Y-16830747D01*
X13109524Y-16887890D02*
X13128571Y-16897413D01*
X13166667Y-16897413D01*
X13185714Y-16887890D01*
X13195238Y-16868842D01*
X13195238Y-16859318D01*
X13185714Y-16840271D01*
X13166667Y-16830747D01*
X13138095Y-16830747D01*
X13119048Y-16821223D01*
X13109524Y-16802175D01*
X13109524Y-16792651D01*
X13119048Y-16773604D01*
X13138095Y-16764080D01*
X13166667Y-16764080D01*
X13185714Y-16773604D01*
X13433333Y-16821223D02*
X13585714Y-16821223D01*
X13509524Y-16897413D02*
X13509524Y-16745032D01*
X13823809Y-16716461D02*
X13833333Y-16706937D01*
X13852381Y-16697413D01*
X13900000Y-16697413D01*
X13919048Y-16706937D01*
X13928571Y-16716461D01*
X13938095Y-16735509D01*
X13938095Y-16754556D01*
X13928571Y-16783128D01*
X13814286Y-16897413D01*
X13938095Y-16897413D01*
X14166667Y-16887890D02*
X14185714Y-16897413D01*
X14223809Y-16897413D01*
X14242857Y-16887890D01*
X14252381Y-16868842D01*
X14252381Y-16859318D01*
X14242857Y-16840271D01*
X14223809Y-16830747D01*
X14195238Y-16830747D01*
X14176190Y-16821223D01*
X14166667Y-16802175D01*
X14166667Y-16792651D01*
X14176190Y-16773604D01*
X14195238Y-16764080D01*
X14223809Y-16764080D01*
X14242857Y-16773604D01*
X14366667Y-16897413D02*
X14347619Y-16887890D01*
X14338095Y-16868842D01*
X14338095Y-16697413D01*
X14471428Y-16897413D02*
X14452381Y-16887890D01*
X14442857Y-16878366D01*
X14433333Y-16859318D01*
X14433333Y-16802175D01*
X14442857Y-16783128D01*
X14452381Y-16773604D01*
X14471428Y-16764080D01*
X14500000Y-16764080D01*
X14519048Y-16773604D01*
X14528571Y-16783128D01*
X14538095Y-16802175D01*
X14538095Y-16859318D01*
X14528571Y-16878366D01*
X14519048Y-16887890D01*
X14500000Y-16897413D01*
X14471428Y-16897413D01*
X14595238Y-16764080D02*
X14671428Y-16764080D01*
X14623809Y-16697413D02*
X14623809Y-16868842D01*
X14633333Y-16887890D01*
X14652381Y-16897413D01*
X14671428Y-16897413D01*
X14728571Y-16887890D02*
X14747619Y-16897413D01*
X14785714Y-16897413D01*
X14804762Y-16887890D01*
X14814286Y-16868842D01*
X14814286Y-16859318D01*
X14804762Y-16840271D01*
X14785714Y-16830747D01*
X14757143Y-16830747D01*
X14738095Y-16821223D01*
X14728571Y-16802175D01*
X14728571Y-16792651D01*
X14738095Y-16773604D01*
X14757143Y-16764080D01*
X14785714Y-16764080D01*
X14804762Y-16773604D01*
X14880952Y-16973604D02*
X14890476Y-16964080D01*
X14909524Y-16935509D01*
X14919048Y-16916461D01*
X14928571Y-16887890D01*
X14938095Y-16840271D01*
X14938095Y-16802175D01*
X14928571Y-16754556D01*
X14919048Y-16725985D01*
X14909524Y-16706937D01*
X14890476Y-16678366D01*
X14880952Y-16668842D01*
M02*
