%FSLAX45Y45*%
G04 Gerber Fmt 4.5, Leading zero omitted, Abs format (unit mm)*
G04 Created by KiCad (PCBNEW 6.0.2+dfsg-1) date 2022-11-14 21:07:41*
%MOMM*%
%LPD*%
G01*
G04 APERTURE LIST*
%TA.AperFunction,Profile*%
%ADD10C,0.100000*%
%TD*%
%ADD11C,0.200000*%
%ADD12C,0.085000*%
%ADD13C,0.100000*%
%ADD14C,0.180000*%
%ADD15C,0.300000*%
%ADD16C,0.340000*%
G04 APERTURE END LIST*
D10*
X9745000Y-14265000D02*
X10385000Y-13960000D01*
X18055000Y-12910000D02*
G75*
G03*
X22269607Y-12343529I-667818J20930457D01*
G01*
X16800000Y-3095000D02*
G75*
G03*
X15410000Y-3055000I-993491J-10352566D01*
G01*
X9150000Y-14065000D02*
G75*
G03*
X9745000Y-14265000I394174J187604D01*
G01*
X22320000Y-4860000D02*
G75*
G03*
X16800000Y-3095000I-7321029J-13382020D01*
G01*
X15410000Y-3055000D02*
G75*
G03*
X8910000Y-4175000I1452346J-27850401D01*
G01*
X8685000Y-13020000D02*
X9150000Y-14065000D01*
X14845000Y-12935000D02*
X18055000Y-12910000D01*
X22269607Y-12343529D02*
G75*
G03*
X22575000Y-11960000I-66506J366309D01*
G01*
X22573223Y-5265000D02*
G75*
G03*
X22320000Y-4860000I-455442J-3099D01*
G01*
X8495000Y-4750000D02*
X8495000Y-12055000D01*
X8910000Y-4175000D02*
G75*
G03*
X8495000Y-4750000I216806J-593738D01*
G01*
X8495000Y-12055000D02*
G75*
G03*
X8685000Y-13020000I2649531J20465D01*
G01*
X22573223Y-5265000D02*
X22575000Y-11960000D01*
X14845000Y-12935000D02*
G75*
G03*
X10385000Y-13960000I222671J-11184608D01*
G01*
D11*
D12*
X8640000Y-9752500D02*
X8725000Y-9837500D01*
X8725000Y-9752500D02*
X8640000Y-9837500D01*
X8640000Y-9752500D02*
X8725000Y-9837500D01*
X8725000Y-9752500D02*
X8640000Y-9837500D01*
X8640000Y-10052500D02*
X8725000Y-10137500D01*
X8725000Y-10052500D02*
X8640000Y-10137500D01*
X8640000Y-10052500D02*
X8725000Y-10137500D01*
X8725000Y-10052500D02*
X8640000Y-10137500D01*
D13*
X9314331Y-12821854D02*
G75*
G03*
X9314331Y-12821854I-50000J0D01*
G01*
X10260516Y-12380640D02*
G75*
G03*
X10260516Y-12380640I-50000J0D01*
G01*
X11262520Y-12013052D02*
G75*
G03*
X11262520Y-12013052I-50000J0D01*
G01*
X11578000Y-4381950D02*
G75*
G03*
X11578000Y-4381950I-50000J0D01*
G01*
X11578000Y-6181950D02*
G75*
G03*
X11578000Y-6181950I-50000J0D01*
G01*
X11578000Y-7981950D02*
G75*
G03*
X11578000Y-7981950I-50000J0D01*
G01*
X11578000Y-9781950D02*
G75*
G03*
X11578000Y-9781950I-50000J0D01*
G01*
X12270946Y-11742845D02*
G75*
G03*
X12270946Y-11742845I-50000J0D01*
G01*
X12622000Y-4381950D02*
G75*
G03*
X12622000Y-4381950I-50000J0D01*
G01*
X12622000Y-6181950D02*
G75*
G03*
X12622000Y-6181950I-50000J0D01*
G01*
X12622000Y-7981950D02*
G75*
G03*
X12622000Y-7981950I-50000J0D01*
G01*
X12622000Y-9781950D02*
G75*
G03*
X12622000Y-9781950I-50000J0D01*
G01*
X13323185Y-11561510D02*
G75*
G03*
X13323185Y-11561510I-50000J0D01*
G01*
X13478000Y-4156950D02*
G75*
G03*
X13478000Y-4156950I-50000J0D01*
G01*
X13478000Y-5956950D02*
G75*
G03*
X13478000Y-5956950I-50000J0D01*
G01*
X13478000Y-7756950D02*
G75*
G03*
X13478000Y-7756950I-50000J0D01*
G01*
X13478000Y-9556950D02*
G75*
G03*
X13478000Y-9556950I-50000J0D01*
G01*
X14363212Y-11470520D02*
G75*
G03*
X14363212Y-11470520I-50000J0D01*
G01*
X14522000Y-4156950D02*
G75*
G03*
X14522000Y-4156950I-50000J0D01*
G01*
X14522000Y-5956950D02*
G75*
G03*
X14522000Y-5956950I-50000J0D01*
G01*
X14522000Y-7756950D02*
G75*
G03*
X14522000Y-7756950I-50000J0D01*
G01*
X14522000Y-9556950D02*
G75*
G03*
X14522000Y-9556950I-50000J0D01*
G01*
X15318000Y-11425950D02*
G75*
G03*
X15318000Y-11425950I-50000J0D01*
G01*
X15378000Y-3575000D02*
G75*
G03*
X15378000Y-3575000I-50000J0D01*
G01*
X15378000Y-5374000D02*
G75*
G03*
X15378000Y-5374000I-50000J0D01*
G01*
X15378000Y-7174000D02*
G75*
G03*
X15378000Y-7174000I-50000J0D01*
G01*
X15378000Y-8974000D02*
G75*
G03*
X15378000Y-8974000I-50000J0D01*
G01*
X16362000Y-11425950D02*
G75*
G03*
X16362000Y-11425950I-50000J0D01*
G01*
X16422000Y-3575000D02*
G75*
G03*
X16422000Y-3575000I-50000J0D01*
G01*
X16422000Y-5374000D02*
G75*
G03*
X16422000Y-5374000I-50000J0D01*
G01*
X16422000Y-7174000D02*
G75*
G03*
X16422000Y-7174000I-50000J0D01*
G01*
X16422000Y-8974000D02*
G75*
G03*
X16422000Y-8974000I-50000J0D01*
G01*
X17218000Y-11426950D02*
G75*
G03*
X17218000Y-11426950I-50000J0D01*
G01*
X17278000Y-4226950D02*
G75*
G03*
X17278000Y-4226950I-50000J0D01*
G01*
X17278000Y-6026950D02*
G75*
G03*
X17278000Y-6026950I-50000J0D01*
G01*
X17278000Y-7826950D02*
G75*
G03*
X17278000Y-7826950I-50000J0D01*
G01*
X17278000Y-9626950D02*
G75*
G03*
X17278000Y-9626950I-50000J0D01*
G01*
X18262000Y-11426950D02*
G75*
G03*
X18262000Y-11426950I-50000J0D01*
G01*
X18322000Y-4226950D02*
G75*
G03*
X18322000Y-4226950I-50000J0D01*
G01*
X18322000Y-6026950D02*
G75*
G03*
X18322000Y-6026950I-50000J0D01*
G01*
X18322000Y-7826950D02*
G75*
G03*
X18322000Y-7826950I-50000J0D01*
G01*
X18322000Y-9626950D02*
G75*
G03*
X18322000Y-9626950I-50000J0D01*
G01*
X19178000Y-5501950D02*
G75*
G03*
X19178000Y-5501950I-50000J0D01*
G01*
X19178000Y-7301950D02*
G75*
G03*
X19178000Y-7301950I-50000J0D01*
G01*
X19178000Y-9101950D02*
G75*
G03*
X19178000Y-9101950I-50000J0D01*
G01*
X19178000Y-10901950D02*
G75*
G03*
X19178000Y-10901950I-50000J0D01*
G01*
X20222000Y-5501950D02*
G75*
G03*
X20222000Y-5501950I-50000J0D01*
G01*
X20222000Y-7301950D02*
G75*
G03*
X20222000Y-7301950I-50000J0D01*
G01*
X20222000Y-9101950D02*
G75*
G03*
X20222000Y-9101950I-50000J0D01*
G01*
X20222000Y-10901950D02*
G75*
G03*
X20222000Y-10901950I-50000J0D01*
G01*
X21078000Y-5501950D02*
G75*
G03*
X21078000Y-5501950I-50000J0D01*
G01*
X21078000Y-7301950D02*
G75*
G03*
X21078000Y-7301950I-50000J0D01*
G01*
X21078000Y-9101950D02*
G75*
G03*
X21078000Y-9101950I-50000J0D01*
G01*
X21079249Y-10901950D02*
G75*
G03*
X21079249Y-10901950I-50000J0D01*
G01*
X22122000Y-5501950D02*
G75*
G03*
X22122000Y-5501950I-50000J0D01*
G01*
X22122000Y-7301950D02*
G75*
G03*
X22122000Y-7301950I-50000J0D01*
G01*
X22122000Y-9101950D02*
G75*
G03*
X22122000Y-9101950I-50000J0D01*
G01*
X22123249Y-10901950D02*
G75*
G03*
X22123249Y-10901950I-50000J0D01*
G01*
D14*
X9416454Y-13124336D02*
X9416454Y-13304336D01*
X9326454Y-13214336D02*
X9506454Y-13214336D01*
X10413393Y-12659456D02*
X10413393Y-12839456D01*
X10323393Y-12749456D02*
X10503393Y-12749456D01*
X11294178Y-12335988D02*
X11294178Y-12515988D01*
X11204178Y-12425988D02*
X11384178Y-12425988D01*
X11500000Y-4711950D02*
X11500000Y-4891950D01*
X11410000Y-4801950D02*
X11590000Y-4801950D01*
X11500000Y-6511950D02*
X11500000Y-6691950D01*
X11410000Y-6601950D02*
X11590000Y-6601950D01*
X11500000Y-8311950D02*
X11500000Y-8491950D01*
X11410000Y-8401950D02*
X11590000Y-8401950D01*
X11500000Y-10111950D02*
X11500000Y-10291950D01*
X11410000Y-10201950D02*
X11590000Y-10201950D01*
X12356696Y-12051287D02*
X12356696Y-12231287D01*
X12266696Y-12141287D02*
X12446696Y-12141287D01*
X12600000Y-4711950D02*
X12600000Y-4891950D01*
X12510000Y-4801950D02*
X12690000Y-4801950D01*
X12600000Y-6511950D02*
X12600000Y-6691950D01*
X12510000Y-6601950D02*
X12690000Y-6601950D01*
X12600000Y-8311950D02*
X12600000Y-8491950D01*
X12510000Y-8401950D02*
X12690000Y-8401950D01*
X12600000Y-10111950D02*
X12600000Y-10291950D01*
X12510000Y-10201950D02*
X12690000Y-10201950D01*
X13281897Y-11892352D02*
X13281897Y-12072352D01*
X13191897Y-11982352D02*
X13371897Y-11982352D01*
X13400000Y-4486950D02*
X13400000Y-4666950D01*
X13310000Y-4576950D02*
X13490000Y-4576950D01*
X13400000Y-6286950D02*
X13400000Y-6466950D01*
X13310000Y-6376950D02*
X13490000Y-6376950D01*
X13400000Y-8086950D02*
X13400000Y-8266950D01*
X13310000Y-8176950D02*
X13490000Y-8176950D01*
X13400000Y-9886950D02*
X13400000Y-10066950D01*
X13310000Y-9976950D02*
X13490000Y-9976950D01*
X14377711Y-11796481D02*
X14377711Y-11976481D01*
X14287711Y-11886481D02*
X14467711Y-11886481D01*
X14500000Y-4486950D02*
X14500000Y-4666950D01*
X14410000Y-4576950D02*
X14590000Y-4576950D01*
X14500000Y-6286950D02*
X14500000Y-6466950D01*
X14410000Y-6376950D02*
X14590000Y-6376950D01*
X14500000Y-8086950D02*
X14500000Y-8266950D01*
X14410000Y-8176950D02*
X14590000Y-8176950D01*
X14500000Y-9886950D02*
X14500000Y-10066950D01*
X14410000Y-9976950D02*
X14590000Y-9976950D01*
X15240000Y-11755950D02*
X15240000Y-11935950D01*
X15150000Y-11845950D02*
X15330000Y-11845950D01*
X15300000Y-3905000D02*
X15300000Y-4085000D01*
X15210000Y-3995000D02*
X15390000Y-3995000D01*
X15300000Y-5704000D02*
X15300000Y-5884000D01*
X15210000Y-5794000D02*
X15390000Y-5794000D01*
X15300000Y-7504000D02*
X15300000Y-7684000D01*
X15210000Y-7594000D02*
X15390000Y-7594000D01*
X15300000Y-9304000D02*
X15300000Y-9484000D01*
X15210000Y-9394000D02*
X15390000Y-9394000D01*
X16340000Y-11755950D02*
X16340000Y-11935950D01*
X16250000Y-11845950D02*
X16430000Y-11845950D01*
X16400000Y-3905000D02*
X16400000Y-4085000D01*
X16310000Y-3995000D02*
X16490000Y-3995000D01*
X16400000Y-5704000D02*
X16400000Y-5884000D01*
X16310000Y-5794000D02*
X16490000Y-5794000D01*
X16400000Y-7504000D02*
X16400000Y-7684000D01*
X16310000Y-7594000D02*
X16490000Y-7594000D01*
X16400000Y-9304000D02*
X16400000Y-9484000D01*
X16310000Y-9394000D02*
X16490000Y-9394000D01*
X17140000Y-11756950D02*
X17140000Y-11936950D01*
X17050000Y-11846950D02*
X17230000Y-11846950D01*
X17200000Y-4556950D02*
X17200000Y-4736950D01*
X17110000Y-4646950D02*
X17290000Y-4646950D01*
X17200000Y-6356950D02*
X17200000Y-6536950D01*
X17110000Y-6446950D02*
X17290000Y-6446950D01*
X17200000Y-8156950D02*
X17200000Y-8336950D01*
X17110000Y-8246950D02*
X17290000Y-8246950D01*
X17200000Y-9956950D02*
X17200000Y-10136950D01*
X17110000Y-10046950D02*
X17290000Y-10046950D01*
X18240000Y-11756950D02*
X18240000Y-11936950D01*
X18150000Y-11846950D02*
X18330000Y-11846950D01*
X18300000Y-4556950D02*
X18300000Y-4736950D01*
X18210000Y-4646950D02*
X18390000Y-4646950D01*
X18300000Y-6356950D02*
X18300000Y-6536950D01*
X18210000Y-6446950D02*
X18390000Y-6446950D01*
X18300000Y-8156950D02*
X18300000Y-8336950D01*
X18210000Y-8246950D02*
X18390000Y-8246950D01*
X18300000Y-9956950D02*
X18300000Y-10136950D01*
X18210000Y-10046950D02*
X18390000Y-10046950D01*
X19100000Y-5831950D02*
X19100000Y-6011950D01*
X19010000Y-5921950D02*
X19190000Y-5921950D01*
X19100000Y-7631950D02*
X19100000Y-7811950D01*
X19010000Y-7721950D02*
X19190000Y-7721950D01*
X19100000Y-9431950D02*
X19100000Y-9611950D01*
X19010000Y-9521950D02*
X19190000Y-9521950D01*
X19100000Y-11231950D02*
X19100000Y-11411950D01*
X19010000Y-11321950D02*
X19190000Y-11321950D01*
X20200000Y-5831950D02*
X20200000Y-6011950D01*
X20110000Y-5921950D02*
X20290000Y-5921950D01*
X20200000Y-7631950D02*
X20200000Y-7811950D01*
X20110000Y-7721950D02*
X20290000Y-7721950D01*
X20200000Y-9431950D02*
X20200000Y-9611950D01*
X20110000Y-9521950D02*
X20290000Y-9521950D01*
X20200000Y-11231950D02*
X20200000Y-11411950D01*
X20110000Y-11321950D02*
X20290000Y-11321950D01*
X21000000Y-5831950D02*
X21000000Y-6011950D01*
X20910000Y-5921950D02*
X21090000Y-5921950D01*
X21000000Y-7631950D02*
X21000000Y-7811950D01*
X20910000Y-7721950D02*
X21090000Y-7721950D01*
X21000000Y-9431950D02*
X21000000Y-9611950D01*
X20910000Y-9521950D02*
X21090000Y-9521950D01*
X21001249Y-11231950D02*
X21001249Y-11411950D01*
X20911249Y-11321950D02*
X21091249Y-11321950D01*
X22100000Y-5831950D02*
X22100000Y-6011950D01*
X22010000Y-5921950D02*
X22190000Y-5921950D01*
X22100000Y-7631950D02*
X22100000Y-7811950D01*
X22010000Y-7721950D02*
X22190000Y-7721950D01*
X22100000Y-9431950D02*
X22100000Y-9611950D01*
X22010000Y-9521950D02*
X22190000Y-9521950D01*
X22101249Y-11231950D02*
X22101249Y-11411950D01*
X22011249Y-11321950D02*
X22191249Y-11321950D01*
D15*
X9724205Y-13634606D02*
X9724205Y-13422472D01*
X9512071Y-13422472D01*
X9512071Y-13634606D01*
X9724205Y-13634606D01*
X10270335Y-13622685D02*
X10270335Y-13410551D01*
X10058201Y-13410551D01*
X10058201Y-13622685D01*
X10270335Y-13622685D01*
X10630513Y-13211988D02*
X10630513Y-12999854D01*
X10418379Y-12999854D01*
X10418379Y-13211988D01*
X10630513Y-13211988D01*
X11544304Y-12876507D02*
X11544304Y-12664373D01*
X11332170Y-12664373D01*
X11332170Y-12876507D01*
X11544304Y-12876507D01*
X11656067Y-5278017D02*
X11656067Y-5065883D01*
X11443933Y-5065883D01*
X11443933Y-5278017D01*
X11656067Y-5278017D01*
X11656067Y-7078017D02*
X11656067Y-6865883D01*
X11443933Y-6865883D01*
X11443933Y-7078017D01*
X11656067Y-7078017D01*
X11656067Y-8878017D02*
X11656067Y-8665883D01*
X11443933Y-8665883D01*
X11443933Y-8878017D01*
X11656067Y-8878017D01*
X11656067Y-10678017D02*
X11656067Y-10465883D01*
X11443933Y-10465883D01*
X11443933Y-10678017D01*
X11656067Y-10678017D01*
X12084207Y-12959601D02*
X12084207Y-12747467D01*
X11872073Y-12747467D01*
X11872073Y-12959601D01*
X12084207Y-12959601D01*
X12156067Y-5498017D02*
X12156067Y-5285883D01*
X11943933Y-5285883D01*
X11943933Y-5498017D01*
X12156067Y-5498017D01*
X12156067Y-7298017D02*
X12156067Y-7085883D01*
X11943933Y-7085883D01*
X11943933Y-7298017D01*
X12156067Y-7298017D01*
X12156067Y-9098017D02*
X12156067Y-8885883D01*
X11943933Y-8885883D01*
X11943933Y-9098017D01*
X12156067Y-9098017D01*
X12156067Y-10898017D02*
X12156067Y-10685883D01*
X11943933Y-10685883D01*
X11943933Y-10898017D01*
X12156067Y-10898017D01*
X12510230Y-12617687D02*
X12510230Y-12405553D01*
X12298096Y-12405553D01*
X12298096Y-12617687D01*
X12510230Y-12617687D01*
X12656067Y-5278017D02*
X12656067Y-5065883D01*
X12443933Y-5065883D01*
X12443933Y-5278017D01*
X12656067Y-5278017D01*
X12656067Y-7078017D02*
X12656067Y-6865883D01*
X12443933Y-6865883D01*
X12443933Y-7078017D01*
X12656067Y-7078017D01*
X12656067Y-8878017D02*
X12656067Y-8665883D01*
X12443933Y-8665883D01*
X12443933Y-8878017D01*
X12656067Y-8878017D01*
X12656067Y-10678017D02*
X12656067Y-10465883D01*
X12443933Y-10465883D01*
X12443933Y-10678017D01*
X12656067Y-10678017D01*
X13470021Y-12452654D02*
X13470021Y-12240520D01*
X13257887Y-12240520D01*
X13257887Y-12452654D01*
X13470021Y-12452654D01*
X13556067Y-5053017D02*
X13556067Y-4840883D01*
X13343933Y-4840883D01*
X13343933Y-5053017D01*
X13556067Y-5053017D01*
X13556067Y-6853017D02*
X13556067Y-6640883D01*
X13343933Y-6640883D01*
X13343933Y-6853017D01*
X13556067Y-6853017D01*
X13556067Y-8653017D02*
X13556067Y-8440883D01*
X13343933Y-8440883D01*
X13343933Y-8653017D01*
X13556067Y-8653017D01*
X13556067Y-10453017D02*
X13556067Y-10240883D01*
X13343933Y-10240883D01*
X13343933Y-10453017D01*
X13556067Y-10453017D01*
X13987293Y-12628239D02*
X13987293Y-12416105D01*
X13775159Y-12416105D01*
X13775159Y-12628239D01*
X13987293Y-12628239D01*
X14056067Y-5273017D02*
X14056067Y-5060883D01*
X13843933Y-5060883D01*
X13843933Y-5273017D01*
X14056067Y-5273017D01*
X14056067Y-7073017D02*
X14056067Y-6860883D01*
X13843933Y-6860883D01*
X13843933Y-7073017D01*
X14056067Y-7073017D01*
X14056067Y-8873017D02*
X14056067Y-8660883D01*
X13843933Y-8660883D01*
X13843933Y-8873017D01*
X14056067Y-8873017D01*
X14056067Y-10673017D02*
X14056067Y-10460883D01*
X13843933Y-10460883D01*
X13843933Y-10673017D01*
X14056067Y-10673017D01*
X14466216Y-12365498D02*
X14466216Y-12153364D01*
X14254082Y-12153364D01*
X14254082Y-12365498D01*
X14466216Y-12365498D01*
X14556067Y-5053017D02*
X14556067Y-4840883D01*
X14343933Y-4840883D01*
X14343933Y-5053017D01*
X14556067Y-5053017D01*
X14556067Y-6853017D02*
X14556067Y-6640883D01*
X14343933Y-6640883D01*
X14343933Y-6853017D01*
X14556067Y-6853017D01*
X14556067Y-8653017D02*
X14556067Y-8440883D01*
X14343933Y-8440883D01*
X14343933Y-8653017D01*
X14556067Y-8653017D01*
X14556067Y-10453017D02*
X14556067Y-10240883D01*
X14343933Y-10240883D01*
X14343933Y-10453017D01*
X14556067Y-10453017D01*
X15396067Y-12322017D02*
X15396067Y-12109883D01*
X15183933Y-12109883D01*
X15183933Y-12322017D01*
X15396067Y-12322017D01*
X15456067Y-4471067D02*
X15456067Y-4258933D01*
X15243933Y-4258933D01*
X15243933Y-4471067D01*
X15456067Y-4471067D01*
X15456067Y-6270067D02*
X15456067Y-6057933D01*
X15243933Y-6057933D01*
X15243933Y-6270067D01*
X15456067Y-6270067D01*
X15456067Y-8070067D02*
X15456067Y-7857933D01*
X15243933Y-7857933D01*
X15243933Y-8070067D01*
X15456067Y-8070067D01*
X15456067Y-9870067D02*
X15456067Y-9657933D01*
X15243933Y-9657933D01*
X15243933Y-9870067D01*
X15456067Y-9870067D01*
X15896067Y-12542017D02*
X15896067Y-12329883D01*
X15683933Y-12329883D01*
X15683933Y-12542017D01*
X15896067Y-12542017D01*
X15956067Y-4691067D02*
X15956067Y-4478933D01*
X15743933Y-4478933D01*
X15743933Y-4691067D01*
X15956067Y-4691067D01*
X15956067Y-6490067D02*
X15956067Y-6277933D01*
X15743933Y-6277933D01*
X15743933Y-6490067D01*
X15956067Y-6490067D01*
X15956067Y-8290067D02*
X15956067Y-8077933D01*
X15743933Y-8077933D01*
X15743933Y-8290067D01*
X15956067Y-8290067D01*
X15956067Y-10090067D02*
X15956067Y-9877933D01*
X15743933Y-9877933D01*
X15743933Y-10090067D01*
X15956067Y-10090067D01*
X16396067Y-12322017D02*
X16396067Y-12109883D01*
X16183933Y-12109883D01*
X16183933Y-12322017D01*
X16396067Y-12322017D01*
X16456067Y-4471067D02*
X16456067Y-4258933D01*
X16243933Y-4258933D01*
X16243933Y-4471067D01*
X16456067Y-4471067D01*
X16456067Y-6270067D02*
X16456067Y-6057933D01*
X16243933Y-6057933D01*
X16243933Y-6270067D01*
X16456067Y-6270067D01*
X16456067Y-8070067D02*
X16456067Y-7857933D01*
X16243933Y-7857933D01*
X16243933Y-8070067D01*
X16456067Y-8070067D01*
X16456067Y-9870067D02*
X16456067Y-9657933D01*
X16243933Y-9657933D01*
X16243933Y-9870067D01*
X16456067Y-9870067D01*
X17296067Y-12323017D02*
X17296067Y-12110883D01*
X17083933Y-12110883D01*
X17083933Y-12323017D01*
X17296067Y-12323017D01*
X17356067Y-5123017D02*
X17356067Y-4910883D01*
X17143933Y-4910883D01*
X17143933Y-5123017D01*
X17356067Y-5123017D01*
X17356067Y-6923017D02*
X17356067Y-6710883D01*
X17143933Y-6710883D01*
X17143933Y-6923017D01*
X17356067Y-6923017D01*
X17356067Y-8723017D02*
X17356067Y-8510883D01*
X17143933Y-8510883D01*
X17143933Y-8723017D01*
X17356067Y-8723017D01*
X17356067Y-10523017D02*
X17356067Y-10310883D01*
X17143933Y-10310883D01*
X17143933Y-10523017D01*
X17356067Y-10523017D01*
X17796067Y-12543017D02*
X17796067Y-12330883D01*
X17583933Y-12330883D01*
X17583933Y-12543017D01*
X17796067Y-12543017D01*
X17856067Y-5343017D02*
X17856067Y-5130883D01*
X17643933Y-5130883D01*
X17643933Y-5343017D01*
X17856067Y-5343017D01*
X17856067Y-7143017D02*
X17856067Y-6930883D01*
X17643933Y-6930883D01*
X17643933Y-7143017D01*
X17856067Y-7143017D01*
X17856067Y-8943017D02*
X17856067Y-8730883D01*
X17643933Y-8730883D01*
X17643933Y-8943017D01*
X17856067Y-8943017D01*
X17856067Y-10743017D02*
X17856067Y-10530883D01*
X17643933Y-10530883D01*
X17643933Y-10743017D01*
X17856067Y-10743017D01*
X18296067Y-12323017D02*
X18296067Y-12110883D01*
X18083933Y-12110883D01*
X18083933Y-12323017D01*
X18296067Y-12323017D01*
X18356067Y-5123017D02*
X18356067Y-4910883D01*
X18143933Y-4910883D01*
X18143933Y-5123017D01*
X18356067Y-5123017D01*
X18356067Y-6923017D02*
X18356067Y-6710883D01*
X18143933Y-6710883D01*
X18143933Y-6923017D01*
X18356067Y-6923017D01*
X18356067Y-8723017D02*
X18356067Y-8510883D01*
X18143933Y-8510883D01*
X18143933Y-8723017D01*
X18356067Y-8723017D01*
X18356067Y-10523017D02*
X18356067Y-10310883D01*
X18143933Y-10310883D01*
X18143933Y-10523017D01*
X18356067Y-10523017D01*
X19256067Y-6398017D02*
X19256067Y-6185883D01*
X19043933Y-6185883D01*
X19043933Y-6398017D01*
X19256067Y-6398017D01*
X19256067Y-8198017D02*
X19256067Y-7985883D01*
X19043933Y-7985883D01*
X19043933Y-8198017D01*
X19256067Y-8198017D01*
X19256067Y-9998017D02*
X19256067Y-9785883D01*
X19043933Y-9785883D01*
X19043933Y-9998017D01*
X19256067Y-9998017D01*
X19256067Y-11798017D02*
X19256067Y-11585883D01*
X19043933Y-11585883D01*
X19043933Y-11798017D01*
X19256067Y-11798017D01*
X19756067Y-6618017D02*
X19756067Y-6405883D01*
X19543933Y-6405883D01*
X19543933Y-6618017D01*
X19756067Y-6618017D01*
X19756067Y-8418017D02*
X19756067Y-8205883D01*
X19543933Y-8205883D01*
X19543933Y-8418017D01*
X19756067Y-8418017D01*
X19756067Y-10218017D02*
X19756067Y-10005883D01*
X19543933Y-10005883D01*
X19543933Y-10218017D01*
X19756067Y-10218017D01*
X19756067Y-12018017D02*
X19756067Y-11805883D01*
X19543933Y-11805883D01*
X19543933Y-12018017D01*
X19756067Y-12018017D01*
X20256067Y-6398017D02*
X20256067Y-6185883D01*
X20043933Y-6185883D01*
X20043933Y-6398017D01*
X20256067Y-6398017D01*
X20256067Y-8198017D02*
X20256067Y-7985883D01*
X20043933Y-7985883D01*
X20043933Y-8198017D01*
X20256067Y-8198017D01*
X20256067Y-9998017D02*
X20256067Y-9785883D01*
X20043933Y-9785883D01*
X20043933Y-9998017D01*
X20256067Y-9998017D01*
X20256067Y-11798017D02*
X20256067Y-11585883D01*
X20043933Y-11585883D01*
X20043933Y-11798017D01*
X20256067Y-11798017D01*
X21156067Y-6398017D02*
X21156067Y-6185883D01*
X20943933Y-6185883D01*
X20943933Y-6398017D01*
X21156067Y-6398017D01*
X21156067Y-8198017D02*
X21156067Y-7985883D01*
X20943933Y-7985883D01*
X20943933Y-8198017D01*
X21156067Y-8198017D01*
X21156067Y-9998017D02*
X21156067Y-9785883D01*
X20943933Y-9785883D01*
X20943933Y-9998017D01*
X21156067Y-9998017D01*
X21157316Y-11798017D02*
X21157316Y-11585883D01*
X20945182Y-11585883D01*
X20945182Y-11798017D01*
X21157316Y-11798017D01*
X21656067Y-6618017D02*
X21656067Y-6405883D01*
X21443933Y-6405883D01*
X21443933Y-6618017D01*
X21656067Y-6618017D01*
X21656067Y-8418017D02*
X21656067Y-8205883D01*
X21443933Y-8205883D01*
X21443933Y-8418017D01*
X21656067Y-8418017D01*
X21656067Y-10218017D02*
X21656067Y-10005883D01*
X21443933Y-10005883D01*
X21443933Y-10218017D01*
X21656067Y-10218017D01*
X21657316Y-12018017D02*
X21657316Y-11805883D01*
X21445182Y-11805883D01*
X21445182Y-12018017D01*
X21657316Y-12018017D01*
X22156067Y-6398017D02*
X22156067Y-6185883D01*
X21943933Y-6185883D01*
X21943933Y-6398017D01*
X22156067Y-6398017D01*
X22156067Y-8198017D02*
X22156067Y-7985883D01*
X21943933Y-7985883D01*
X21943933Y-8198017D01*
X22156067Y-8198017D01*
X22156067Y-9998017D02*
X22156067Y-9785883D01*
X21943933Y-9785883D01*
X21943933Y-9998017D01*
X22156067Y-9998017D01*
X22157316Y-11798017D02*
X22157316Y-11585883D01*
X21945182Y-11585883D01*
X21945182Y-11798017D01*
X22157316Y-11798017D01*
D16*
X9914923Y-13151896D02*
X10084923Y-12981896D01*
X9914923Y-12811896D01*
X9744923Y-12981896D01*
X9914923Y-13151896D01*
X11825437Y-12453637D02*
X11995437Y-12283637D01*
X11825437Y-12113637D01*
X11655437Y-12283637D01*
X11825437Y-12453637D01*
X12050000Y-4971950D02*
X12220000Y-4801950D01*
X12050000Y-4631950D01*
X11880000Y-4801950D01*
X12050000Y-4971950D01*
X12050000Y-6771950D02*
X12220000Y-6601950D01*
X12050000Y-6431950D01*
X11880000Y-6601950D01*
X12050000Y-6771950D01*
X12050000Y-8571950D02*
X12220000Y-8401950D01*
X12050000Y-8231950D01*
X11880000Y-8401950D01*
X12050000Y-8571950D01*
X12050000Y-10371950D02*
X12220000Y-10201950D01*
X12050000Y-10031950D01*
X11880000Y-10201950D01*
X12050000Y-10371950D01*
X13829804Y-12104417D02*
X13999804Y-11934417D01*
X13829804Y-11764417D01*
X13659804Y-11934417D01*
X13829804Y-12104417D01*
X13950000Y-4746950D02*
X14120000Y-4576950D01*
X13950000Y-4406950D01*
X13780000Y-4576950D01*
X13950000Y-4746950D01*
X13950000Y-6546950D02*
X14120000Y-6376950D01*
X13950000Y-6206950D01*
X13780000Y-6376950D01*
X13950000Y-6546950D01*
X13950000Y-8346950D02*
X14120000Y-8176950D01*
X13950000Y-8006950D01*
X13780000Y-8176950D01*
X13950000Y-8346950D01*
X13950000Y-10146950D02*
X14120000Y-9976950D01*
X13950000Y-9806950D01*
X13780000Y-9976950D01*
X13950000Y-10146950D01*
X15790000Y-12015950D02*
X15960000Y-11845950D01*
X15790000Y-11675950D01*
X15620000Y-11845950D01*
X15790000Y-12015950D01*
X15850000Y-4165000D02*
X16020000Y-3995000D01*
X15850000Y-3825000D01*
X15680000Y-3995000D01*
X15850000Y-4165000D01*
X15850000Y-5964000D02*
X16020000Y-5794000D01*
X15850000Y-5624000D01*
X15680000Y-5794000D01*
X15850000Y-5964000D01*
X15850000Y-7764000D02*
X16020000Y-7594000D01*
X15850000Y-7424000D01*
X15680000Y-7594000D01*
X15850000Y-7764000D01*
X15850000Y-9564000D02*
X16020000Y-9394000D01*
X15850000Y-9224000D01*
X15680000Y-9394000D01*
X15850000Y-9564000D01*
X17690000Y-12016950D02*
X17860000Y-11846950D01*
X17690000Y-11676950D01*
X17520000Y-11846950D01*
X17690000Y-12016950D01*
X17750000Y-4816950D02*
X17920000Y-4646950D01*
X17750000Y-4476950D01*
X17580000Y-4646950D01*
X17750000Y-4816950D01*
X17750000Y-6616950D02*
X17920000Y-6446950D01*
X17750000Y-6276950D01*
X17580000Y-6446950D01*
X17750000Y-6616950D01*
X17750000Y-8416950D02*
X17920000Y-8246950D01*
X17750000Y-8076950D01*
X17580000Y-8246950D01*
X17750000Y-8416950D01*
X17750000Y-10216950D02*
X17920000Y-10046950D01*
X17750000Y-9876950D01*
X17580000Y-10046950D01*
X17750000Y-10216950D01*
X19650000Y-6091950D02*
X19820000Y-5921950D01*
X19650000Y-5751950D01*
X19480000Y-5921950D01*
X19650000Y-6091950D01*
X19650000Y-7891950D02*
X19820000Y-7721950D01*
X19650000Y-7551950D01*
X19480000Y-7721950D01*
X19650000Y-7891950D01*
X19650000Y-9691950D02*
X19820000Y-9521950D01*
X19650000Y-9351950D01*
X19480000Y-9521950D01*
X19650000Y-9691950D01*
X19650000Y-11491950D02*
X19820000Y-11321950D01*
X19650000Y-11151950D01*
X19480000Y-11321950D01*
X19650000Y-11491950D01*
X21550000Y-6091950D02*
X21720000Y-5921950D01*
X21550000Y-5751950D01*
X21380000Y-5921950D01*
X21550000Y-6091950D01*
X21550000Y-7891950D02*
X21720000Y-7721950D01*
X21550000Y-7551950D01*
X21380000Y-7721950D01*
X21550000Y-7891950D01*
X21550000Y-9691950D02*
X21720000Y-9521950D01*
X21550000Y-9351950D01*
X21380000Y-9521950D01*
X21550000Y-9691950D01*
X21551249Y-11491950D02*
X21721249Y-11321950D01*
X21551249Y-11151950D01*
X21381249Y-11321950D01*
X21551249Y-11491950D01*
D11*
X8747619Y-14629413D02*
X8747619Y-14429413D01*
X8795238Y-14429413D01*
X8823810Y-14438937D01*
X8842857Y-14457985D01*
X8852381Y-14477032D01*
X8861905Y-14515128D01*
X8861905Y-14543699D01*
X8852381Y-14581794D01*
X8842857Y-14600842D01*
X8823810Y-14619889D01*
X8795238Y-14629413D01*
X8747619Y-14629413D01*
X8947619Y-14629413D02*
X8947619Y-14496080D01*
X8947619Y-14534175D02*
X8957143Y-14515128D01*
X8966667Y-14505604D01*
X8985714Y-14496080D01*
X9004762Y-14496080D01*
X9071429Y-14629413D02*
X9071429Y-14496080D01*
X9071429Y-14429413D02*
X9061905Y-14438937D01*
X9071429Y-14448461D01*
X9080952Y-14438937D01*
X9071429Y-14429413D01*
X9071429Y-14448461D01*
X9195238Y-14629413D02*
X9176190Y-14619889D01*
X9166667Y-14600842D01*
X9166667Y-14429413D01*
X9300000Y-14629413D02*
X9280952Y-14619889D01*
X9271429Y-14600842D01*
X9271429Y-14429413D01*
X9528571Y-14629413D02*
X9528571Y-14429413D01*
X9595238Y-14572270D01*
X9661905Y-14429413D01*
X9661905Y-14629413D01*
X9842857Y-14629413D02*
X9842857Y-14524651D01*
X9833333Y-14505604D01*
X9814286Y-14496080D01*
X9776190Y-14496080D01*
X9757143Y-14505604D01*
X9842857Y-14619889D02*
X9823810Y-14629413D01*
X9776190Y-14629413D01*
X9757143Y-14619889D01*
X9747619Y-14600842D01*
X9747619Y-14581794D01*
X9757143Y-14562747D01*
X9776190Y-14553223D01*
X9823810Y-14553223D01*
X9842857Y-14543699D01*
X9938095Y-14496080D02*
X9938095Y-14696080D01*
X9938095Y-14505604D02*
X9957143Y-14496080D01*
X9995238Y-14496080D01*
X10014286Y-14505604D01*
X10023810Y-14515128D01*
X10033333Y-14534175D01*
X10033333Y-14591318D01*
X10023810Y-14610366D01*
X10014286Y-14619889D01*
X9995238Y-14629413D01*
X9957143Y-14629413D01*
X9938095Y-14619889D01*
X10119048Y-14610366D02*
X10128571Y-14619889D01*
X10119048Y-14629413D01*
X10109524Y-14619889D01*
X10119048Y-14610366D01*
X10119048Y-14629413D01*
X10119048Y-14505604D02*
X10128571Y-14515128D01*
X10119048Y-14524651D01*
X10109524Y-14515128D01*
X10119048Y-14505604D01*
X10119048Y-14524651D01*
D12*
X8405000Y-14916437D02*
X8490000Y-15001437D01*
X8490000Y-14916437D02*
X8405000Y-15001437D01*
D11*
X8785714Y-14849413D02*
X8804762Y-14849413D01*
X8823810Y-14858937D01*
X8833333Y-14868461D01*
X8842857Y-14887509D01*
X8852381Y-14925604D01*
X8852381Y-14973223D01*
X8842857Y-15011318D01*
X8833333Y-15030366D01*
X8823810Y-15039889D01*
X8804762Y-15049413D01*
X8785714Y-15049413D01*
X8766667Y-15039889D01*
X8757143Y-15030366D01*
X8747619Y-15011318D01*
X8738095Y-14973223D01*
X8738095Y-14925604D01*
X8747619Y-14887509D01*
X8757143Y-14868461D01*
X8766667Y-14858937D01*
X8785714Y-14849413D01*
X8938095Y-15030366D02*
X8947619Y-15039889D01*
X8938095Y-15049413D01*
X8928571Y-15039889D01*
X8938095Y-15030366D01*
X8938095Y-15049413D01*
X9061905Y-14935128D02*
X9042857Y-14925604D01*
X9033333Y-14916080D01*
X9023810Y-14897032D01*
X9023810Y-14887509D01*
X9033333Y-14868461D01*
X9042857Y-14858937D01*
X9061905Y-14849413D01*
X9100000Y-14849413D01*
X9119048Y-14858937D01*
X9128571Y-14868461D01*
X9138095Y-14887509D01*
X9138095Y-14897032D01*
X9128571Y-14916080D01*
X9119048Y-14925604D01*
X9100000Y-14935128D01*
X9061905Y-14935128D01*
X9042857Y-14944651D01*
X9033333Y-14954175D01*
X9023810Y-14973223D01*
X9023810Y-15011318D01*
X9033333Y-15030366D01*
X9042857Y-15039889D01*
X9061905Y-15049413D01*
X9100000Y-15049413D01*
X9119048Y-15039889D01*
X9128571Y-15030366D01*
X9138095Y-15011318D01*
X9138095Y-14973223D01*
X9128571Y-14954175D01*
X9119048Y-14944651D01*
X9100000Y-14935128D01*
X9319048Y-14849413D02*
X9223810Y-14849413D01*
X9214286Y-14944651D01*
X9223810Y-14935128D01*
X9242857Y-14925604D01*
X9290476Y-14925604D01*
X9309524Y-14935128D01*
X9319048Y-14944651D01*
X9328571Y-14963699D01*
X9328571Y-15011318D01*
X9319048Y-15030366D01*
X9309524Y-15039889D01*
X9290476Y-15049413D01*
X9242857Y-15049413D01*
X9223810Y-15039889D01*
X9214286Y-15030366D01*
X9452381Y-14849413D02*
X9471429Y-14849413D01*
X9490476Y-14858937D01*
X9500000Y-14868461D01*
X9509524Y-14887509D01*
X9519048Y-14925604D01*
X9519048Y-14973223D01*
X9509524Y-15011318D01*
X9500000Y-15030366D01*
X9490476Y-15039889D01*
X9471429Y-15049413D01*
X9452381Y-15049413D01*
X9433333Y-15039889D01*
X9423810Y-15030366D01*
X9414286Y-15011318D01*
X9404762Y-14973223D01*
X9404762Y-14925604D01*
X9414286Y-14887509D01*
X9423810Y-14868461D01*
X9433333Y-14858937D01*
X9452381Y-14849413D01*
X9604762Y-15049413D02*
X9604762Y-14916080D01*
X9604762Y-14935128D02*
X9614286Y-14925604D01*
X9633333Y-14916080D01*
X9661905Y-14916080D01*
X9680952Y-14925604D01*
X9690476Y-14944651D01*
X9690476Y-15049413D01*
X9690476Y-14944651D02*
X9700000Y-14925604D01*
X9719048Y-14916080D01*
X9747619Y-14916080D01*
X9766667Y-14925604D01*
X9776190Y-14944651D01*
X9776190Y-15049413D01*
X9871429Y-15049413D02*
X9871429Y-14916080D01*
X9871429Y-14935128D02*
X9880952Y-14925604D01*
X9900000Y-14916080D01*
X9928571Y-14916080D01*
X9947619Y-14925604D01*
X9957143Y-14944651D01*
X9957143Y-15049413D01*
X9957143Y-14944651D02*
X9966667Y-14925604D01*
X9985714Y-14916080D01*
X10014286Y-14916080D01*
X10033333Y-14925604D01*
X10042857Y-14944651D01*
X10042857Y-15049413D01*
X10433333Y-14839889D02*
X10261905Y-15097032D01*
X10690476Y-14849413D02*
X10709524Y-14849413D01*
X10728571Y-14858937D01*
X10738095Y-14868461D01*
X10747619Y-14887509D01*
X10757143Y-14925604D01*
X10757143Y-14973223D01*
X10747619Y-15011318D01*
X10738095Y-15030366D01*
X10728571Y-15039889D01*
X10709524Y-15049413D01*
X10690476Y-15049413D01*
X10671429Y-15039889D01*
X10661905Y-15030366D01*
X10652381Y-15011318D01*
X10642857Y-14973223D01*
X10642857Y-14925604D01*
X10652381Y-14887509D01*
X10661905Y-14868461D01*
X10671429Y-14858937D01*
X10690476Y-14849413D01*
X10842857Y-15030366D02*
X10852381Y-15039889D01*
X10842857Y-15049413D01*
X10833333Y-15039889D01*
X10842857Y-15030366D01*
X10842857Y-15049413D01*
X10976190Y-14849413D02*
X10995238Y-14849413D01*
X11014286Y-14858937D01*
X11023810Y-14868461D01*
X11033333Y-14887509D01*
X11042857Y-14925604D01*
X11042857Y-14973223D01*
X11033333Y-15011318D01*
X11023810Y-15030366D01*
X11014286Y-15039889D01*
X10995238Y-15049413D01*
X10976190Y-15049413D01*
X10957143Y-15039889D01*
X10947619Y-15030366D01*
X10938095Y-15011318D01*
X10928571Y-14973223D01*
X10928571Y-14925604D01*
X10938095Y-14887509D01*
X10947619Y-14868461D01*
X10957143Y-14858937D01*
X10976190Y-14849413D01*
X11109524Y-14849413D02*
X11233333Y-14849413D01*
X11166667Y-14925604D01*
X11195238Y-14925604D01*
X11214286Y-14935128D01*
X11223809Y-14944651D01*
X11233333Y-14963699D01*
X11233333Y-15011318D01*
X11223809Y-15030366D01*
X11214286Y-15039889D01*
X11195238Y-15049413D01*
X11138095Y-15049413D01*
X11119048Y-15039889D01*
X11109524Y-15030366D01*
X11300000Y-14849413D02*
X11423809Y-14849413D01*
X11357143Y-14925604D01*
X11385714Y-14925604D01*
X11404762Y-14935128D01*
X11414286Y-14944651D01*
X11423809Y-14963699D01*
X11423809Y-15011318D01*
X11414286Y-15030366D01*
X11404762Y-15039889D01*
X11385714Y-15049413D01*
X11328571Y-15049413D01*
X11309524Y-15039889D01*
X11300000Y-15030366D01*
X11604762Y-14849413D02*
X11509524Y-14849413D01*
X11500000Y-14944651D01*
X11509524Y-14935128D01*
X11528571Y-14925604D01*
X11576190Y-14925604D01*
X11595238Y-14935128D01*
X11604762Y-14944651D01*
X11614286Y-14963699D01*
X11614286Y-15011318D01*
X11604762Y-15030366D01*
X11595238Y-15039889D01*
X11576190Y-15049413D01*
X11528571Y-15049413D01*
X11509524Y-15039889D01*
X11500000Y-15030366D01*
X11690476Y-14849413D02*
X11690476Y-14887509D01*
X11766667Y-14849413D02*
X11766667Y-14887509D01*
X12061905Y-15125604D02*
X12052381Y-15116080D01*
X12033333Y-15087509D01*
X12023809Y-15068461D01*
X12014286Y-15039889D01*
X12004762Y-14992270D01*
X12004762Y-14954175D01*
X12014286Y-14906556D01*
X12023809Y-14877985D01*
X12033333Y-14858937D01*
X12052381Y-14830366D01*
X12061905Y-14820842D01*
X12223809Y-14916080D02*
X12223809Y-15049413D01*
X12176190Y-14839889D02*
X12128571Y-14982747D01*
X12252381Y-14982747D01*
X12480952Y-15049413D02*
X12480952Y-14849413D01*
X12566667Y-15049413D02*
X12566667Y-14944651D01*
X12557143Y-14925604D01*
X12538095Y-14916080D01*
X12509524Y-14916080D01*
X12490476Y-14925604D01*
X12480952Y-14935128D01*
X12690476Y-15049413D02*
X12671428Y-15039889D01*
X12661905Y-15030366D01*
X12652381Y-15011318D01*
X12652381Y-14954175D01*
X12661905Y-14935128D01*
X12671428Y-14925604D01*
X12690476Y-14916080D01*
X12719048Y-14916080D01*
X12738095Y-14925604D01*
X12747619Y-14935128D01*
X12757143Y-14954175D01*
X12757143Y-15011318D01*
X12747619Y-15030366D01*
X12738095Y-15039889D01*
X12719048Y-15049413D01*
X12690476Y-15049413D01*
X12871428Y-15049413D02*
X12852381Y-15039889D01*
X12842857Y-15020842D01*
X12842857Y-14849413D01*
X13023809Y-15039889D02*
X13004762Y-15049413D01*
X12966667Y-15049413D01*
X12947619Y-15039889D01*
X12938095Y-15020842D01*
X12938095Y-14944651D01*
X12947619Y-14925604D01*
X12966667Y-14916080D01*
X13004762Y-14916080D01*
X13023809Y-14925604D01*
X13033333Y-14944651D01*
X13033333Y-14963699D01*
X12938095Y-14982747D01*
X13109524Y-15039889D02*
X13128571Y-15049413D01*
X13166667Y-15049413D01*
X13185714Y-15039889D01*
X13195238Y-15020842D01*
X13195238Y-15011318D01*
X13185714Y-14992270D01*
X13166667Y-14982747D01*
X13138095Y-14982747D01*
X13119048Y-14973223D01*
X13109524Y-14954175D01*
X13109524Y-14944651D01*
X13119048Y-14925604D01*
X13138095Y-14916080D01*
X13166667Y-14916080D01*
X13185714Y-14925604D01*
X13261905Y-15125604D02*
X13271428Y-15116080D01*
X13290476Y-15087509D01*
X13300000Y-15068461D01*
X13309524Y-15039889D01*
X13319048Y-14992270D01*
X13319048Y-14954175D01*
X13309524Y-14906556D01*
X13300000Y-14877985D01*
X13290476Y-14858937D01*
X13271428Y-14830366D01*
X13261905Y-14820842D01*
X13623809Y-15125604D02*
X13614286Y-15116080D01*
X13595238Y-15087509D01*
X13585714Y-15068461D01*
X13576190Y-15039889D01*
X13566667Y-14992270D01*
X13566667Y-14954175D01*
X13576190Y-14906556D01*
X13585714Y-14877985D01*
X13595238Y-14858937D01*
X13614286Y-14830366D01*
X13623809Y-14820842D01*
X13700000Y-14916080D02*
X13700000Y-15049413D01*
X13700000Y-14935128D02*
X13709524Y-14925604D01*
X13728571Y-14916080D01*
X13757143Y-14916080D01*
X13776190Y-14925604D01*
X13785714Y-14944651D01*
X13785714Y-15049413D01*
X13909524Y-15049413D02*
X13890476Y-15039889D01*
X13880952Y-15030366D01*
X13871428Y-15011318D01*
X13871428Y-14954175D01*
X13880952Y-14935128D01*
X13890476Y-14925604D01*
X13909524Y-14916080D01*
X13938095Y-14916080D01*
X13957143Y-14925604D01*
X13966667Y-14935128D01*
X13976190Y-14954175D01*
X13976190Y-15011318D01*
X13966667Y-15030366D01*
X13957143Y-15039889D01*
X13938095Y-15049413D01*
X13909524Y-15049413D01*
X14033333Y-14916080D02*
X14109524Y-14916080D01*
X14061905Y-14849413D02*
X14061905Y-15020842D01*
X14071428Y-15039889D01*
X14090476Y-15049413D01*
X14109524Y-15049413D01*
X14328571Y-14916080D02*
X14328571Y-15116080D01*
X14328571Y-14925604D02*
X14347619Y-14916080D01*
X14385714Y-14916080D01*
X14404762Y-14925604D01*
X14414286Y-14935128D01*
X14423809Y-14954175D01*
X14423809Y-15011318D01*
X14414286Y-15030366D01*
X14404762Y-15039889D01*
X14385714Y-15049413D01*
X14347619Y-15049413D01*
X14328571Y-15039889D01*
X14538095Y-15049413D02*
X14519048Y-15039889D01*
X14509524Y-15020842D01*
X14509524Y-14849413D01*
X14700000Y-15049413D02*
X14700000Y-14944651D01*
X14690476Y-14925604D01*
X14671428Y-14916080D01*
X14633333Y-14916080D01*
X14614286Y-14925604D01*
X14700000Y-15039889D02*
X14680952Y-15049413D01*
X14633333Y-15049413D01*
X14614286Y-15039889D01*
X14604762Y-15020842D01*
X14604762Y-15001794D01*
X14614286Y-14982747D01*
X14633333Y-14973223D01*
X14680952Y-14973223D01*
X14700000Y-14963699D01*
X14766667Y-14916080D02*
X14842857Y-14916080D01*
X14795238Y-14849413D02*
X14795238Y-15020842D01*
X14804762Y-15039889D01*
X14823809Y-15049413D01*
X14842857Y-15049413D01*
X14985714Y-15039889D02*
X14966667Y-15049413D01*
X14928571Y-15049413D01*
X14909524Y-15039889D01*
X14900000Y-15020842D01*
X14900000Y-14944651D01*
X14909524Y-14925604D01*
X14928571Y-14916080D01*
X14966667Y-14916080D01*
X14985714Y-14925604D01*
X14995238Y-14944651D01*
X14995238Y-14963699D01*
X14900000Y-14982747D01*
X15166667Y-15049413D02*
X15166667Y-14849413D01*
X15166667Y-15039889D02*
X15147619Y-15049413D01*
X15109524Y-15049413D01*
X15090476Y-15039889D01*
X15080952Y-15030366D01*
X15071428Y-15011318D01*
X15071428Y-14954175D01*
X15080952Y-14935128D01*
X15090476Y-14925604D01*
X15109524Y-14916080D01*
X15147619Y-14916080D01*
X15166667Y-14925604D01*
X15242857Y-15125604D02*
X15252381Y-15116080D01*
X15271428Y-15087509D01*
X15280952Y-15068461D01*
X15290476Y-15039889D01*
X15300000Y-14992270D01*
X15300000Y-14954175D01*
X15290476Y-14906556D01*
X15280952Y-14877985D01*
X15271428Y-14858937D01*
X15252381Y-14830366D01*
X15242857Y-14820842D01*
D13*
X8490000Y-15222937D02*
G75*
G03*
X8490000Y-15222937I-50000J0D01*
G01*
D11*
X8852381Y-15313413D02*
X8738095Y-15313413D01*
X8795238Y-15313413D02*
X8795238Y-15113413D01*
X8776190Y-15141985D01*
X8757143Y-15161032D01*
X8738095Y-15170556D01*
X8938095Y-15294366D02*
X8947619Y-15303889D01*
X8938095Y-15313413D01*
X8928571Y-15303889D01*
X8938095Y-15294366D01*
X8938095Y-15313413D01*
X9071429Y-15113413D02*
X9090476Y-15113413D01*
X9109524Y-15122937D01*
X9119048Y-15132461D01*
X9128571Y-15151509D01*
X9138095Y-15189604D01*
X9138095Y-15237223D01*
X9128571Y-15275318D01*
X9119048Y-15294366D01*
X9109524Y-15303889D01*
X9090476Y-15313413D01*
X9071429Y-15313413D01*
X9052381Y-15303889D01*
X9042857Y-15294366D01*
X9033333Y-15275318D01*
X9023810Y-15237223D01*
X9023810Y-15189604D01*
X9033333Y-15151509D01*
X9042857Y-15132461D01*
X9052381Y-15122937D01*
X9071429Y-15113413D01*
X9261905Y-15113413D02*
X9280952Y-15113413D01*
X9300000Y-15122937D01*
X9309524Y-15132461D01*
X9319048Y-15151509D01*
X9328571Y-15189604D01*
X9328571Y-15237223D01*
X9319048Y-15275318D01*
X9309524Y-15294366D01*
X9300000Y-15303889D01*
X9280952Y-15313413D01*
X9261905Y-15313413D01*
X9242857Y-15303889D01*
X9233333Y-15294366D01*
X9223810Y-15275318D01*
X9214286Y-15237223D01*
X9214286Y-15189604D01*
X9223810Y-15151509D01*
X9233333Y-15132461D01*
X9242857Y-15122937D01*
X9261905Y-15113413D01*
X9452381Y-15113413D02*
X9471429Y-15113413D01*
X9490476Y-15122937D01*
X9500000Y-15132461D01*
X9509524Y-15151509D01*
X9519048Y-15189604D01*
X9519048Y-15237223D01*
X9509524Y-15275318D01*
X9500000Y-15294366D01*
X9490476Y-15303889D01*
X9471429Y-15313413D01*
X9452381Y-15313413D01*
X9433333Y-15303889D01*
X9423810Y-15294366D01*
X9414286Y-15275318D01*
X9404762Y-15237223D01*
X9404762Y-15189604D01*
X9414286Y-15151509D01*
X9423810Y-15132461D01*
X9433333Y-15122937D01*
X9452381Y-15113413D01*
X9604762Y-15313413D02*
X9604762Y-15180080D01*
X9604762Y-15199128D02*
X9614286Y-15189604D01*
X9633333Y-15180080D01*
X9661905Y-15180080D01*
X9680952Y-15189604D01*
X9690476Y-15208651D01*
X9690476Y-15313413D01*
X9690476Y-15208651D02*
X9700000Y-15189604D01*
X9719048Y-15180080D01*
X9747619Y-15180080D01*
X9766667Y-15189604D01*
X9776190Y-15208651D01*
X9776190Y-15313413D01*
X9871429Y-15313413D02*
X9871429Y-15180080D01*
X9871429Y-15199128D02*
X9880952Y-15189604D01*
X9900000Y-15180080D01*
X9928571Y-15180080D01*
X9947619Y-15189604D01*
X9957143Y-15208651D01*
X9957143Y-15313413D01*
X9957143Y-15208651D02*
X9966667Y-15189604D01*
X9985714Y-15180080D01*
X10014286Y-15180080D01*
X10033333Y-15189604D01*
X10042857Y-15208651D01*
X10042857Y-15313413D01*
X10433333Y-15103889D02*
X10261905Y-15361032D01*
X10690476Y-15113413D02*
X10709524Y-15113413D01*
X10728571Y-15122937D01*
X10738095Y-15132461D01*
X10747619Y-15151509D01*
X10757143Y-15189604D01*
X10757143Y-15237223D01*
X10747619Y-15275318D01*
X10738095Y-15294366D01*
X10728571Y-15303889D01*
X10709524Y-15313413D01*
X10690476Y-15313413D01*
X10671429Y-15303889D01*
X10661905Y-15294366D01*
X10652381Y-15275318D01*
X10642857Y-15237223D01*
X10642857Y-15189604D01*
X10652381Y-15151509D01*
X10661905Y-15132461D01*
X10671429Y-15122937D01*
X10690476Y-15113413D01*
X10842857Y-15294366D02*
X10852381Y-15303889D01*
X10842857Y-15313413D01*
X10833333Y-15303889D01*
X10842857Y-15294366D01*
X10842857Y-15313413D01*
X10976190Y-15113413D02*
X10995238Y-15113413D01*
X11014286Y-15122937D01*
X11023810Y-15132461D01*
X11033333Y-15151509D01*
X11042857Y-15189604D01*
X11042857Y-15237223D01*
X11033333Y-15275318D01*
X11023810Y-15294366D01*
X11014286Y-15303889D01*
X10995238Y-15313413D01*
X10976190Y-15313413D01*
X10957143Y-15303889D01*
X10947619Y-15294366D01*
X10938095Y-15275318D01*
X10928571Y-15237223D01*
X10928571Y-15189604D01*
X10938095Y-15151509D01*
X10947619Y-15132461D01*
X10957143Y-15122937D01*
X10976190Y-15113413D01*
X11109524Y-15113413D02*
X11233333Y-15113413D01*
X11166667Y-15189604D01*
X11195238Y-15189604D01*
X11214286Y-15199128D01*
X11223809Y-15208651D01*
X11233333Y-15227699D01*
X11233333Y-15275318D01*
X11223809Y-15294366D01*
X11214286Y-15303889D01*
X11195238Y-15313413D01*
X11138095Y-15313413D01*
X11119048Y-15303889D01*
X11109524Y-15294366D01*
X11328571Y-15313413D02*
X11366667Y-15313413D01*
X11385714Y-15303889D01*
X11395238Y-15294366D01*
X11414286Y-15265794D01*
X11423809Y-15227699D01*
X11423809Y-15151509D01*
X11414286Y-15132461D01*
X11404762Y-15122937D01*
X11385714Y-15113413D01*
X11347619Y-15113413D01*
X11328571Y-15122937D01*
X11319048Y-15132461D01*
X11309524Y-15151509D01*
X11309524Y-15199128D01*
X11319048Y-15218175D01*
X11328571Y-15227699D01*
X11347619Y-15237223D01*
X11385714Y-15237223D01*
X11404762Y-15227699D01*
X11414286Y-15218175D01*
X11423809Y-15199128D01*
X11595238Y-15180080D02*
X11595238Y-15313413D01*
X11547619Y-15103889D02*
X11500000Y-15246747D01*
X11623809Y-15246747D01*
X11690476Y-15113413D02*
X11690476Y-15151509D01*
X11766667Y-15113413D02*
X11766667Y-15151509D01*
X12061905Y-15389604D02*
X12052381Y-15380080D01*
X12033333Y-15351509D01*
X12023809Y-15332461D01*
X12014286Y-15303889D01*
X12004762Y-15256270D01*
X12004762Y-15218175D01*
X12014286Y-15170556D01*
X12023809Y-15141985D01*
X12033333Y-15122937D01*
X12052381Y-15094366D01*
X12061905Y-15084842D01*
X12233333Y-15113413D02*
X12138095Y-15113413D01*
X12128571Y-15208651D01*
X12138095Y-15199128D01*
X12157143Y-15189604D01*
X12204762Y-15189604D01*
X12223809Y-15199128D01*
X12233333Y-15208651D01*
X12242857Y-15227699D01*
X12242857Y-15275318D01*
X12233333Y-15294366D01*
X12223809Y-15303889D01*
X12204762Y-15313413D01*
X12157143Y-15313413D01*
X12138095Y-15303889D01*
X12128571Y-15294366D01*
X12357143Y-15199128D02*
X12338095Y-15189604D01*
X12328571Y-15180080D01*
X12319048Y-15161032D01*
X12319048Y-15151509D01*
X12328571Y-15132461D01*
X12338095Y-15122937D01*
X12357143Y-15113413D01*
X12395238Y-15113413D01*
X12414286Y-15122937D01*
X12423809Y-15132461D01*
X12433333Y-15151509D01*
X12433333Y-15161032D01*
X12423809Y-15180080D01*
X12414286Y-15189604D01*
X12395238Y-15199128D01*
X12357143Y-15199128D01*
X12338095Y-15208651D01*
X12328571Y-15218175D01*
X12319048Y-15237223D01*
X12319048Y-15275318D01*
X12328571Y-15294366D01*
X12338095Y-15303889D01*
X12357143Y-15313413D01*
X12395238Y-15313413D01*
X12414286Y-15303889D01*
X12423809Y-15294366D01*
X12433333Y-15275318D01*
X12433333Y-15237223D01*
X12423809Y-15218175D01*
X12414286Y-15208651D01*
X12395238Y-15199128D01*
X12671428Y-15313413D02*
X12671428Y-15113413D01*
X12757143Y-15313413D02*
X12757143Y-15208651D01*
X12747619Y-15189604D01*
X12728571Y-15180080D01*
X12700000Y-15180080D01*
X12680952Y-15189604D01*
X12671428Y-15199128D01*
X12880952Y-15313413D02*
X12861905Y-15303889D01*
X12852381Y-15294366D01*
X12842857Y-15275318D01*
X12842857Y-15218175D01*
X12852381Y-15199128D01*
X12861905Y-15189604D01*
X12880952Y-15180080D01*
X12909524Y-15180080D01*
X12928571Y-15189604D01*
X12938095Y-15199128D01*
X12947619Y-15218175D01*
X12947619Y-15275318D01*
X12938095Y-15294366D01*
X12928571Y-15303889D01*
X12909524Y-15313413D01*
X12880952Y-15313413D01*
X13061905Y-15313413D02*
X13042857Y-15303889D01*
X13033333Y-15284842D01*
X13033333Y-15113413D01*
X13214286Y-15303889D02*
X13195238Y-15313413D01*
X13157143Y-15313413D01*
X13138095Y-15303889D01*
X13128571Y-15284842D01*
X13128571Y-15208651D01*
X13138095Y-15189604D01*
X13157143Y-15180080D01*
X13195238Y-15180080D01*
X13214286Y-15189604D01*
X13223809Y-15208651D01*
X13223809Y-15227699D01*
X13128571Y-15246747D01*
X13300000Y-15303889D02*
X13319048Y-15313413D01*
X13357143Y-15313413D01*
X13376190Y-15303889D01*
X13385714Y-15284842D01*
X13385714Y-15275318D01*
X13376190Y-15256270D01*
X13357143Y-15246747D01*
X13328571Y-15246747D01*
X13309524Y-15237223D01*
X13300000Y-15218175D01*
X13300000Y-15208651D01*
X13309524Y-15189604D01*
X13328571Y-15180080D01*
X13357143Y-15180080D01*
X13376190Y-15189604D01*
X13452381Y-15389604D02*
X13461905Y-15380080D01*
X13480952Y-15351509D01*
X13490476Y-15332461D01*
X13500000Y-15303889D01*
X13509524Y-15256270D01*
X13509524Y-15218175D01*
X13500000Y-15170556D01*
X13490476Y-15141985D01*
X13480952Y-15122937D01*
X13461905Y-15094366D01*
X13452381Y-15084842D01*
X13814286Y-15389604D02*
X13804762Y-15380080D01*
X13785714Y-15351509D01*
X13776190Y-15332461D01*
X13766667Y-15303889D01*
X13757143Y-15256270D01*
X13757143Y-15218175D01*
X13766667Y-15170556D01*
X13776190Y-15141985D01*
X13785714Y-15122937D01*
X13804762Y-15094366D01*
X13814286Y-15084842D01*
X13890476Y-15180080D02*
X13890476Y-15313413D01*
X13890476Y-15199128D02*
X13900000Y-15189604D01*
X13919048Y-15180080D01*
X13947619Y-15180080D01*
X13966667Y-15189604D01*
X13976190Y-15208651D01*
X13976190Y-15313413D01*
X14100000Y-15313413D02*
X14080952Y-15303889D01*
X14071428Y-15294366D01*
X14061905Y-15275318D01*
X14061905Y-15218175D01*
X14071428Y-15199128D01*
X14080952Y-15189604D01*
X14100000Y-15180080D01*
X14128571Y-15180080D01*
X14147619Y-15189604D01*
X14157143Y-15199128D01*
X14166667Y-15218175D01*
X14166667Y-15275318D01*
X14157143Y-15294366D01*
X14147619Y-15303889D01*
X14128571Y-15313413D01*
X14100000Y-15313413D01*
X14223809Y-15180080D02*
X14300000Y-15180080D01*
X14252381Y-15113413D02*
X14252381Y-15284842D01*
X14261905Y-15303889D01*
X14280952Y-15313413D01*
X14300000Y-15313413D01*
X14519048Y-15180080D02*
X14519048Y-15380080D01*
X14519048Y-15189604D02*
X14538095Y-15180080D01*
X14576190Y-15180080D01*
X14595238Y-15189604D01*
X14604762Y-15199128D01*
X14614286Y-15218175D01*
X14614286Y-15275318D01*
X14604762Y-15294366D01*
X14595238Y-15303889D01*
X14576190Y-15313413D01*
X14538095Y-15313413D01*
X14519048Y-15303889D01*
X14728571Y-15313413D02*
X14709524Y-15303889D01*
X14700000Y-15284842D01*
X14700000Y-15113413D01*
X14890476Y-15313413D02*
X14890476Y-15208651D01*
X14880952Y-15189604D01*
X14861905Y-15180080D01*
X14823809Y-15180080D01*
X14804762Y-15189604D01*
X14890476Y-15303889D02*
X14871428Y-15313413D01*
X14823809Y-15313413D01*
X14804762Y-15303889D01*
X14795238Y-15284842D01*
X14795238Y-15265794D01*
X14804762Y-15246747D01*
X14823809Y-15237223D01*
X14871428Y-15237223D01*
X14890476Y-15227699D01*
X14957143Y-15180080D02*
X15033333Y-15180080D01*
X14985714Y-15113413D02*
X14985714Y-15284842D01*
X14995238Y-15303889D01*
X15014286Y-15313413D01*
X15033333Y-15313413D01*
X15176190Y-15303889D02*
X15157143Y-15313413D01*
X15119048Y-15313413D01*
X15100000Y-15303889D01*
X15090476Y-15284842D01*
X15090476Y-15208651D01*
X15100000Y-15189604D01*
X15119048Y-15180080D01*
X15157143Y-15180080D01*
X15176190Y-15189604D01*
X15185714Y-15208651D01*
X15185714Y-15227699D01*
X15090476Y-15246747D01*
X15357143Y-15313413D02*
X15357143Y-15113413D01*
X15357143Y-15303889D02*
X15338095Y-15313413D01*
X15300000Y-15313413D01*
X15280952Y-15303889D01*
X15271428Y-15294366D01*
X15261905Y-15275318D01*
X15261905Y-15218175D01*
X15271428Y-15199128D01*
X15280952Y-15189604D01*
X15300000Y-15180080D01*
X15338095Y-15180080D01*
X15357143Y-15189604D01*
X15433333Y-15389604D02*
X15442857Y-15380080D01*
X15461905Y-15351509D01*
X15471428Y-15332461D01*
X15480952Y-15303889D01*
X15490476Y-15256270D01*
X15490476Y-15218175D01*
X15480952Y-15170556D01*
X15471428Y-15141985D01*
X15461905Y-15122937D01*
X15442857Y-15094366D01*
X15433333Y-15084842D01*
D14*
X8400000Y-15396937D02*
X8400000Y-15576937D01*
X8310000Y-15486937D02*
X8490000Y-15486937D01*
D11*
X8852381Y-15577413D02*
X8738095Y-15577413D01*
X8795238Y-15577413D02*
X8795238Y-15377413D01*
X8776190Y-15405985D01*
X8757143Y-15425032D01*
X8738095Y-15434556D01*
X8938095Y-15558366D02*
X8947619Y-15567889D01*
X8938095Y-15577413D01*
X8928571Y-15567889D01*
X8938095Y-15558366D01*
X8938095Y-15577413D01*
X9061905Y-15463128D02*
X9042857Y-15453604D01*
X9033333Y-15444080D01*
X9023810Y-15425032D01*
X9023810Y-15415509D01*
X9033333Y-15396461D01*
X9042857Y-15386937D01*
X9061905Y-15377413D01*
X9100000Y-15377413D01*
X9119048Y-15386937D01*
X9128571Y-15396461D01*
X9138095Y-15415509D01*
X9138095Y-15425032D01*
X9128571Y-15444080D01*
X9119048Y-15453604D01*
X9100000Y-15463128D01*
X9061905Y-15463128D01*
X9042857Y-15472651D01*
X9033333Y-15482175D01*
X9023810Y-15501223D01*
X9023810Y-15539318D01*
X9033333Y-15558366D01*
X9042857Y-15567889D01*
X9061905Y-15577413D01*
X9100000Y-15577413D01*
X9119048Y-15567889D01*
X9128571Y-15558366D01*
X9138095Y-15539318D01*
X9138095Y-15501223D01*
X9128571Y-15482175D01*
X9119048Y-15472651D01*
X9100000Y-15463128D01*
X9261905Y-15377413D02*
X9280952Y-15377413D01*
X9300000Y-15386937D01*
X9309524Y-15396461D01*
X9319048Y-15415509D01*
X9328571Y-15453604D01*
X9328571Y-15501223D01*
X9319048Y-15539318D01*
X9309524Y-15558366D01*
X9300000Y-15567889D01*
X9280952Y-15577413D01*
X9261905Y-15577413D01*
X9242857Y-15567889D01*
X9233333Y-15558366D01*
X9223810Y-15539318D01*
X9214286Y-15501223D01*
X9214286Y-15453604D01*
X9223810Y-15415509D01*
X9233333Y-15396461D01*
X9242857Y-15386937D01*
X9261905Y-15377413D01*
X9452381Y-15377413D02*
X9471429Y-15377413D01*
X9490476Y-15386937D01*
X9500000Y-15396461D01*
X9509524Y-15415509D01*
X9519048Y-15453604D01*
X9519048Y-15501223D01*
X9509524Y-15539318D01*
X9500000Y-15558366D01*
X9490476Y-15567889D01*
X9471429Y-15577413D01*
X9452381Y-15577413D01*
X9433333Y-15567889D01*
X9423810Y-15558366D01*
X9414286Y-15539318D01*
X9404762Y-15501223D01*
X9404762Y-15453604D01*
X9414286Y-15415509D01*
X9423810Y-15396461D01*
X9433333Y-15386937D01*
X9452381Y-15377413D01*
X9604762Y-15577413D02*
X9604762Y-15444080D01*
X9604762Y-15463128D02*
X9614286Y-15453604D01*
X9633333Y-15444080D01*
X9661905Y-15444080D01*
X9680952Y-15453604D01*
X9690476Y-15472651D01*
X9690476Y-15577413D01*
X9690476Y-15472651D02*
X9700000Y-15453604D01*
X9719048Y-15444080D01*
X9747619Y-15444080D01*
X9766667Y-15453604D01*
X9776190Y-15472651D01*
X9776190Y-15577413D01*
X9871429Y-15577413D02*
X9871429Y-15444080D01*
X9871429Y-15463128D02*
X9880952Y-15453604D01*
X9900000Y-15444080D01*
X9928571Y-15444080D01*
X9947619Y-15453604D01*
X9957143Y-15472651D01*
X9957143Y-15577413D01*
X9957143Y-15472651D02*
X9966667Y-15453604D01*
X9985714Y-15444080D01*
X10014286Y-15444080D01*
X10033333Y-15453604D01*
X10042857Y-15472651D01*
X10042857Y-15577413D01*
X10433333Y-15367889D02*
X10261905Y-15625032D01*
X10690476Y-15377413D02*
X10709524Y-15377413D01*
X10728571Y-15386937D01*
X10738095Y-15396461D01*
X10747619Y-15415509D01*
X10757143Y-15453604D01*
X10757143Y-15501223D01*
X10747619Y-15539318D01*
X10738095Y-15558366D01*
X10728571Y-15567889D01*
X10709524Y-15577413D01*
X10690476Y-15577413D01*
X10671429Y-15567889D01*
X10661905Y-15558366D01*
X10652381Y-15539318D01*
X10642857Y-15501223D01*
X10642857Y-15453604D01*
X10652381Y-15415509D01*
X10661905Y-15396461D01*
X10671429Y-15386937D01*
X10690476Y-15377413D01*
X10842857Y-15558366D02*
X10852381Y-15567889D01*
X10842857Y-15577413D01*
X10833333Y-15567889D01*
X10842857Y-15558366D01*
X10842857Y-15577413D01*
X10976190Y-15377413D02*
X10995238Y-15377413D01*
X11014286Y-15386937D01*
X11023810Y-15396461D01*
X11033333Y-15415509D01*
X11042857Y-15453604D01*
X11042857Y-15501223D01*
X11033333Y-15539318D01*
X11023810Y-15558366D01*
X11014286Y-15567889D01*
X10995238Y-15577413D01*
X10976190Y-15577413D01*
X10957143Y-15567889D01*
X10947619Y-15558366D01*
X10938095Y-15539318D01*
X10928571Y-15501223D01*
X10928571Y-15453604D01*
X10938095Y-15415509D01*
X10947619Y-15396461D01*
X10957143Y-15386937D01*
X10976190Y-15377413D01*
X11109524Y-15377413D02*
X11242857Y-15377413D01*
X11157143Y-15577413D01*
X11357143Y-15377413D02*
X11376190Y-15377413D01*
X11395238Y-15386937D01*
X11404762Y-15396461D01*
X11414286Y-15415509D01*
X11423809Y-15453604D01*
X11423809Y-15501223D01*
X11414286Y-15539318D01*
X11404762Y-15558366D01*
X11395238Y-15567889D01*
X11376190Y-15577413D01*
X11357143Y-15577413D01*
X11338095Y-15567889D01*
X11328571Y-15558366D01*
X11319048Y-15539318D01*
X11309524Y-15501223D01*
X11309524Y-15453604D01*
X11319048Y-15415509D01*
X11328571Y-15396461D01*
X11338095Y-15386937D01*
X11357143Y-15377413D01*
X11519048Y-15577413D02*
X11557143Y-15577413D01*
X11576190Y-15567889D01*
X11585714Y-15558366D01*
X11604762Y-15529794D01*
X11614286Y-15491699D01*
X11614286Y-15415509D01*
X11604762Y-15396461D01*
X11595238Y-15386937D01*
X11576190Y-15377413D01*
X11538095Y-15377413D01*
X11519048Y-15386937D01*
X11509524Y-15396461D01*
X11500000Y-15415509D01*
X11500000Y-15463128D01*
X11509524Y-15482175D01*
X11519048Y-15491699D01*
X11538095Y-15501223D01*
X11576190Y-15501223D01*
X11595238Y-15491699D01*
X11604762Y-15482175D01*
X11614286Y-15463128D01*
X11690476Y-15377413D02*
X11690476Y-15415509D01*
X11766667Y-15377413D02*
X11766667Y-15415509D01*
X12061905Y-15653604D02*
X12052381Y-15644080D01*
X12033333Y-15615509D01*
X12023809Y-15596461D01*
X12014286Y-15567889D01*
X12004762Y-15520270D01*
X12004762Y-15482175D01*
X12014286Y-15434556D01*
X12023809Y-15405985D01*
X12033333Y-15386937D01*
X12052381Y-15358366D01*
X12061905Y-15348842D01*
X12233333Y-15377413D02*
X12138095Y-15377413D01*
X12128571Y-15472651D01*
X12138095Y-15463128D01*
X12157143Y-15453604D01*
X12204762Y-15453604D01*
X12223809Y-15463128D01*
X12233333Y-15472651D01*
X12242857Y-15491699D01*
X12242857Y-15539318D01*
X12233333Y-15558366D01*
X12223809Y-15567889D01*
X12204762Y-15577413D01*
X12157143Y-15577413D01*
X12138095Y-15567889D01*
X12128571Y-15558366D01*
X12357143Y-15463128D02*
X12338095Y-15453604D01*
X12328571Y-15444080D01*
X12319048Y-15425032D01*
X12319048Y-15415509D01*
X12328571Y-15396461D01*
X12338095Y-15386937D01*
X12357143Y-15377413D01*
X12395238Y-15377413D01*
X12414286Y-15386937D01*
X12423809Y-15396461D01*
X12433333Y-15415509D01*
X12433333Y-15425032D01*
X12423809Y-15444080D01*
X12414286Y-15453604D01*
X12395238Y-15463128D01*
X12357143Y-15463128D01*
X12338095Y-15472651D01*
X12328571Y-15482175D01*
X12319048Y-15501223D01*
X12319048Y-15539318D01*
X12328571Y-15558366D01*
X12338095Y-15567889D01*
X12357143Y-15577413D01*
X12395238Y-15577413D01*
X12414286Y-15567889D01*
X12423809Y-15558366D01*
X12433333Y-15539318D01*
X12433333Y-15501223D01*
X12423809Y-15482175D01*
X12414286Y-15472651D01*
X12395238Y-15463128D01*
X12671428Y-15577413D02*
X12671428Y-15377413D01*
X12757143Y-15577413D02*
X12757143Y-15472651D01*
X12747619Y-15453604D01*
X12728571Y-15444080D01*
X12700000Y-15444080D01*
X12680952Y-15453604D01*
X12671428Y-15463128D01*
X12880952Y-15577413D02*
X12861905Y-15567889D01*
X12852381Y-15558366D01*
X12842857Y-15539318D01*
X12842857Y-15482175D01*
X12852381Y-15463128D01*
X12861905Y-15453604D01*
X12880952Y-15444080D01*
X12909524Y-15444080D01*
X12928571Y-15453604D01*
X12938095Y-15463128D01*
X12947619Y-15482175D01*
X12947619Y-15539318D01*
X12938095Y-15558366D01*
X12928571Y-15567889D01*
X12909524Y-15577413D01*
X12880952Y-15577413D01*
X13061905Y-15577413D02*
X13042857Y-15567889D01*
X13033333Y-15548842D01*
X13033333Y-15377413D01*
X13214286Y-15567889D02*
X13195238Y-15577413D01*
X13157143Y-15577413D01*
X13138095Y-15567889D01*
X13128571Y-15548842D01*
X13128571Y-15472651D01*
X13138095Y-15453604D01*
X13157143Y-15444080D01*
X13195238Y-15444080D01*
X13214286Y-15453604D01*
X13223809Y-15472651D01*
X13223809Y-15491699D01*
X13128571Y-15510747D01*
X13300000Y-15567889D02*
X13319048Y-15577413D01*
X13357143Y-15577413D01*
X13376190Y-15567889D01*
X13385714Y-15548842D01*
X13385714Y-15539318D01*
X13376190Y-15520270D01*
X13357143Y-15510747D01*
X13328571Y-15510747D01*
X13309524Y-15501223D01*
X13300000Y-15482175D01*
X13300000Y-15472651D01*
X13309524Y-15453604D01*
X13328571Y-15444080D01*
X13357143Y-15444080D01*
X13376190Y-15453604D01*
X13452381Y-15653604D02*
X13461905Y-15644080D01*
X13480952Y-15615509D01*
X13490476Y-15596461D01*
X13500000Y-15567889D01*
X13509524Y-15520270D01*
X13509524Y-15482175D01*
X13500000Y-15434556D01*
X13490476Y-15405985D01*
X13480952Y-15386937D01*
X13461905Y-15358366D01*
X13452381Y-15348842D01*
X13814286Y-15653604D02*
X13804762Y-15644080D01*
X13785714Y-15615509D01*
X13776190Y-15596461D01*
X13766667Y-15567889D01*
X13757143Y-15520270D01*
X13757143Y-15482175D01*
X13766667Y-15434556D01*
X13776190Y-15405985D01*
X13785714Y-15386937D01*
X13804762Y-15358366D01*
X13814286Y-15348842D01*
X13890476Y-15444080D02*
X13890476Y-15577413D01*
X13890476Y-15463128D02*
X13900000Y-15453604D01*
X13919048Y-15444080D01*
X13947619Y-15444080D01*
X13966667Y-15453604D01*
X13976190Y-15472651D01*
X13976190Y-15577413D01*
X14100000Y-15577413D02*
X14080952Y-15567889D01*
X14071428Y-15558366D01*
X14061905Y-15539318D01*
X14061905Y-15482175D01*
X14071428Y-15463128D01*
X14080952Y-15453604D01*
X14100000Y-15444080D01*
X14128571Y-15444080D01*
X14147619Y-15453604D01*
X14157143Y-15463128D01*
X14166667Y-15482175D01*
X14166667Y-15539318D01*
X14157143Y-15558366D01*
X14147619Y-15567889D01*
X14128571Y-15577413D01*
X14100000Y-15577413D01*
X14223809Y-15444080D02*
X14300000Y-15444080D01*
X14252381Y-15377413D02*
X14252381Y-15548842D01*
X14261905Y-15567889D01*
X14280952Y-15577413D01*
X14300000Y-15577413D01*
X14519048Y-15444080D02*
X14519048Y-15644080D01*
X14519048Y-15453604D02*
X14538095Y-15444080D01*
X14576190Y-15444080D01*
X14595238Y-15453604D01*
X14604762Y-15463128D01*
X14614286Y-15482175D01*
X14614286Y-15539318D01*
X14604762Y-15558366D01*
X14595238Y-15567889D01*
X14576190Y-15577413D01*
X14538095Y-15577413D01*
X14519048Y-15567889D01*
X14728571Y-15577413D02*
X14709524Y-15567889D01*
X14700000Y-15548842D01*
X14700000Y-15377413D01*
X14890476Y-15577413D02*
X14890476Y-15472651D01*
X14880952Y-15453604D01*
X14861905Y-15444080D01*
X14823809Y-15444080D01*
X14804762Y-15453604D01*
X14890476Y-15567889D02*
X14871428Y-15577413D01*
X14823809Y-15577413D01*
X14804762Y-15567889D01*
X14795238Y-15548842D01*
X14795238Y-15529794D01*
X14804762Y-15510747D01*
X14823809Y-15501223D01*
X14871428Y-15501223D01*
X14890476Y-15491699D01*
X14957143Y-15444080D02*
X15033333Y-15444080D01*
X14985714Y-15377413D02*
X14985714Y-15548842D01*
X14995238Y-15567889D01*
X15014286Y-15577413D01*
X15033333Y-15577413D01*
X15176190Y-15567889D02*
X15157143Y-15577413D01*
X15119048Y-15577413D01*
X15100000Y-15567889D01*
X15090476Y-15548842D01*
X15090476Y-15472651D01*
X15100000Y-15453604D01*
X15119048Y-15444080D01*
X15157143Y-15444080D01*
X15176190Y-15453604D01*
X15185714Y-15472651D01*
X15185714Y-15491699D01*
X15090476Y-15510747D01*
X15357143Y-15577413D02*
X15357143Y-15377413D01*
X15357143Y-15567889D02*
X15338095Y-15577413D01*
X15300000Y-15577413D01*
X15280952Y-15567889D01*
X15271428Y-15558366D01*
X15261905Y-15539318D01*
X15261905Y-15482175D01*
X15271428Y-15463128D01*
X15280952Y-15453604D01*
X15300000Y-15444080D01*
X15338095Y-15444080D01*
X15357143Y-15453604D01*
X15433333Y-15653604D02*
X15442857Y-15644080D01*
X15461905Y-15615509D01*
X15471428Y-15596461D01*
X15480952Y-15567889D01*
X15490476Y-15520270D01*
X15490476Y-15482175D01*
X15480952Y-15434556D01*
X15471428Y-15405985D01*
X15461905Y-15386937D01*
X15442857Y-15358366D01*
X15433333Y-15348842D01*
X8460711Y-15857649D02*
X8460711Y-15716226D01*
X8319289Y-15716226D01*
X8319289Y-15857649D01*
X8460711Y-15857649D01*
X8728571Y-15677413D02*
X8852381Y-15677413D01*
X8785714Y-15753604D01*
X8814286Y-15753604D01*
X8833333Y-15763128D01*
X8842857Y-15772651D01*
X8852381Y-15791699D01*
X8852381Y-15839318D01*
X8842857Y-15858366D01*
X8833333Y-15867889D01*
X8814286Y-15877413D01*
X8757143Y-15877413D01*
X8738095Y-15867889D01*
X8728571Y-15858366D01*
X8938095Y-15858366D02*
X8947619Y-15867889D01*
X8938095Y-15877413D01*
X8928571Y-15867889D01*
X8938095Y-15858366D01*
X8938095Y-15877413D01*
X9071429Y-15677413D02*
X9090476Y-15677413D01*
X9109524Y-15686937D01*
X9119048Y-15696461D01*
X9128571Y-15715509D01*
X9138095Y-15753604D01*
X9138095Y-15801223D01*
X9128571Y-15839318D01*
X9119048Y-15858366D01*
X9109524Y-15867889D01*
X9090476Y-15877413D01*
X9071429Y-15877413D01*
X9052381Y-15867889D01*
X9042857Y-15858366D01*
X9033333Y-15839318D01*
X9023810Y-15801223D01*
X9023810Y-15753604D01*
X9033333Y-15715509D01*
X9042857Y-15696461D01*
X9052381Y-15686937D01*
X9071429Y-15677413D01*
X9261905Y-15677413D02*
X9280952Y-15677413D01*
X9300000Y-15686937D01*
X9309524Y-15696461D01*
X9319048Y-15715509D01*
X9328571Y-15753604D01*
X9328571Y-15801223D01*
X9319048Y-15839318D01*
X9309524Y-15858366D01*
X9300000Y-15867889D01*
X9280952Y-15877413D01*
X9261905Y-15877413D01*
X9242857Y-15867889D01*
X9233333Y-15858366D01*
X9223810Y-15839318D01*
X9214286Y-15801223D01*
X9214286Y-15753604D01*
X9223810Y-15715509D01*
X9233333Y-15696461D01*
X9242857Y-15686937D01*
X9261905Y-15677413D01*
X9452381Y-15677413D02*
X9471429Y-15677413D01*
X9490476Y-15686937D01*
X9500000Y-15696461D01*
X9509524Y-15715509D01*
X9519048Y-15753604D01*
X9519048Y-15801223D01*
X9509524Y-15839318D01*
X9500000Y-15858366D01*
X9490476Y-15867889D01*
X9471429Y-15877413D01*
X9452381Y-15877413D01*
X9433333Y-15867889D01*
X9423810Y-15858366D01*
X9414286Y-15839318D01*
X9404762Y-15801223D01*
X9404762Y-15753604D01*
X9414286Y-15715509D01*
X9423810Y-15696461D01*
X9433333Y-15686937D01*
X9452381Y-15677413D01*
X9604762Y-15877413D02*
X9604762Y-15744080D01*
X9604762Y-15763128D02*
X9614286Y-15753604D01*
X9633333Y-15744080D01*
X9661905Y-15744080D01*
X9680952Y-15753604D01*
X9690476Y-15772651D01*
X9690476Y-15877413D01*
X9690476Y-15772651D02*
X9700000Y-15753604D01*
X9719048Y-15744080D01*
X9747619Y-15744080D01*
X9766667Y-15753604D01*
X9776190Y-15772651D01*
X9776190Y-15877413D01*
X9871429Y-15877413D02*
X9871429Y-15744080D01*
X9871429Y-15763128D02*
X9880952Y-15753604D01*
X9900000Y-15744080D01*
X9928571Y-15744080D01*
X9947619Y-15753604D01*
X9957143Y-15772651D01*
X9957143Y-15877413D01*
X9957143Y-15772651D02*
X9966667Y-15753604D01*
X9985714Y-15744080D01*
X10014286Y-15744080D01*
X10033333Y-15753604D01*
X10042857Y-15772651D01*
X10042857Y-15877413D01*
X10433333Y-15667889D02*
X10261905Y-15925032D01*
X10690476Y-15677413D02*
X10709524Y-15677413D01*
X10728571Y-15686937D01*
X10738095Y-15696461D01*
X10747619Y-15715509D01*
X10757143Y-15753604D01*
X10757143Y-15801223D01*
X10747619Y-15839318D01*
X10738095Y-15858366D01*
X10728571Y-15867889D01*
X10709524Y-15877413D01*
X10690476Y-15877413D01*
X10671429Y-15867889D01*
X10661905Y-15858366D01*
X10652381Y-15839318D01*
X10642857Y-15801223D01*
X10642857Y-15753604D01*
X10652381Y-15715509D01*
X10661905Y-15696461D01*
X10671429Y-15686937D01*
X10690476Y-15677413D01*
X10842857Y-15858366D02*
X10852381Y-15867889D01*
X10842857Y-15877413D01*
X10833333Y-15867889D01*
X10842857Y-15858366D01*
X10842857Y-15877413D01*
X11042857Y-15877413D02*
X10928571Y-15877413D01*
X10985714Y-15877413D02*
X10985714Y-15677413D01*
X10966667Y-15705985D01*
X10947619Y-15725032D01*
X10928571Y-15734556D01*
X11233333Y-15877413D02*
X11119048Y-15877413D01*
X11176190Y-15877413D02*
X11176190Y-15677413D01*
X11157143Y-15705985D01*
X11138095Y-15725032D01*
X11119048Y-15734556D01*
X11347619Y-15763128D02*
X11328571Y-15753604D01*
X11319048Y-15744080D01*
X11309524Y-15725032D01*
X11309524Y-15715509D01*
X11319048Y-15696461D01*
X11328571Y-15686937D01*
X11347619Y-15677413D01*
X11385714Y-15677413D01*
X11404762Y-15686937D01*
X11414286Y-15696461D01*
X11423809Y-15715509D01*
X11423809Y-15725032D01*
X11414286Y-15744080D01*
X11404762Y-15753604D01*
X11385714Y-15763128D01*
X11347619Y-15763128D01*
X11328571Y-15772651D01*
X11319048Y-15782175D01*
X11309524Y-15801223D01*
X11309524Y-15839318D01*
X11319048Y-15858366D01*
X11328571Y-15867889D01*
X11347619Y-15877413D01*
X11385714Y-15877413D01*
X11404762Y-15867889D01*
X11414286Y-15858366D01*
X11423809Y-15839318D01*
X11423809Y-15801223D01*
X11414286Y-15782175D01*
X11404762Y-15772651D01*
X11385714Y-15763128D01*
X11614286Y-15877413D02*
X11500000Y-15877413D01*
X11557143Y-15877413D02*
X11557143Y-15677413D01*
X11538095Y-15705985D01*
X11519048Y-15725032D01*
X11500000Y-15734556D01*
X11690476Y-15677413D02*
X11690476Y-15715509D01*
X11766667Y-15677413D02*
X11766667Y-15715509D01*
X12061905Y-15953604D02*
X12052381Y-15944080D01*
X12033333Y-15915509D01*
X12023809Y-15896461D01*
X12014286Y-15867889D01*
X12004762Y-15820270D01*
X12004762Y-15782175D01*
X12014286Y-15734556D01*
X12023809Y-15705985D01*
X12033333Y-15686937D01*
X12052381Y-15658366D01*
X12061905Y-15648842D01*
X12166667Y-15763128D02*
X12147619Y-15753604D01*
X12138095Y-15744080D01*
X12128571Y-15725032D01*
X12128571Y-15715509D01*
X12138095Y-15696461D01*
X12147619Y-15686937D01*
X12166667Y-15677413D01*
X12204762Y-15677413D01*
X12223809Y-15686937D01*
X12233333Y-15696461D01*
X12242857Y-15715509D01*
X12242857Y-15725032D01*
X12233333Y-15744080D01*
X12223809Y-15753604D01*
X12204762Y-15763128D01*
X12166667Y-15763128D01*
X12147619Y-15772651D01*
X12138095Y-15782175D01*
X12128571Y-15801223D01*
X12128571Y-15839318D01*
X12138095Y-15858366D01*
X12147619Y-15867889D01*
X12166667Y-15877413D01*
X12204762Y-15877413D01*
X12223809Y-15867889D01*
X12233333Y-15858366D01*
X12242857Y-15839318D01*
X12242857Y-15801223D01*
X12233333Y-15782175D01*
X12223809Y-15772651D01*
X12204762Y-15763128D01*
X12309524Y-15677413D02*
X12442857Y-15677413D01*
X12357143Y-15877413D01*
X12671428Y-15877413D02*
X12671428Y-15677413D01*
X12757143Y-15877413D02*
X12757143Y-15772651D01*
X12747619Y-15753604D01*
X12728571Y-15744080D01*
X12700000Y-15744080D01*
X12680952Y-15753604D01*
X12671428Y-15763128D01*
X12880952Y-15877413D02*
X12861905Y-15867889D01*
X12852381Y-15858366D01*
X12842857Y-15839318D01*
X12842857Y-15782175D01*
X12852381Y-15763128D01*
X12861905Y-15753604D01*
X12880952Y-15744080D01*
X12909524Y-15744080D01*
X12928571Y-15753604D01*
X12938095Y-15763128D01*
X12947619Y-15782175D01*
X12947619Y-15839318D01*
X12938095Y-15858366D01*
X12928571Y-15867889D01*
X12909524Y-15877413D01*
X12880952Y-15877413D01*
X13061905Y-15877413D02*
X13042857Y-15867889D01*
X13033333Y-15848842D01*
X13033333Y-15677413D01*
X13214286Y-15867889D02*
X13195238Y-15877413D01*
X13157143Y-15877413D01*
X13138095Y-15867889D01*
X13128571Y-15848842D01*
X13128571Y-15772651D01*
X13138095Y-15753604D01*
X13157143Y-15744080D01*
X13195238Y-15744080D01*
X13214286Y-15753604D01*
X13223809Y-15772651D01*
X13223809Y-15791699D01*
X13128571Y-15810747D01*
X13300000Y-15867889D02*
X13319048Y-15877413D01*
X13357143Y-15877413D01*
X13376190Y-15867889D01*
X13385714Y-15848842D01*
X13385714Y-15839318D01*
X13376190Y-15820270D01*
X13357143Y-15810747D01*
X13328571Y-15810747D01*
X13309524Y-15801223D01*
X13300000Y-15782175D01*
X13300000Y-15772651D01*
X13309524Y-15753604D01*
X13328571Y-15744080D01*
X13357143Y-15744080D01*
X13376190Y-15753604D01*
X13452381Y-15953604D02*
X13461905Y-15944080D01*
X13480952Y-15915509D01*
X13490476Y-15896461D01*
X13500000Y-15867889D01*
X13509524Y-15820270D01*
X13509524Y-15782175D01*
X13500000Y-15734556D01*
X13490476Y-15705985D01*
X13480952Y-15686937D01*
X13461905Y-15658366D01*
X13452381Y-15648842D01*
X13814286Y-15953604D02*
X13804762Y-15944080D01*
X13785714Y-15915509D01*
X13776190Y-15896461D01*
X13766667Y-15867889D01*
X13757143Y-15820270D01*
X13757143Y-15782175D01*
X13766667Y-15734556D01*
X13776190Y-15705985D01*
X13785714Y-15686937D01*
X13804762Y-15658366D01*
X13814286Y-15648842D01*
X13890476Y-15744080D02*
X13890476Y-15877413D01*
X13890476Y-15763128D02*
X13900000Y-15753604D01*
X13919048Y-15744080D01*
X13947619Y-15744080D01*
X13966667Y-15753604D01*
X13976190Y-15772651D01*
X13976190Y-15877413D01*
X14100000Y-15877413D02*
X14080952Y-15867889D01*
X14071428Y-15858366D01*
X14061905Y-15839318D01*
X14061905Y-15782175D01*
X14071428Y-15763128D01*
X14080952Y-15753604D01*
X14100000Y-15744080D01*
X14128571Y-15744080D01*
X14147619Y-15753604D01*
X14157143Y-15763128D01*
X14166667Y-15782175D01*
X14166667Y-15839318D01*
X14157143Y-15858366D01*
X14147619Y-15867889D01*
X14128571Y-15877413D01*
X14100000Y-15877413D01*
X14223809Y-15744080D02*
X14300000Y-15744080D01*
X14252381Y-15677413D02*
X14252381Y-15848842D01*
X14261905Y-15867889D01*
X14280952Y-15877413D01*
X14300000Y-15877413D01*
X14519048Y-15744080D02*
X14519048Y-15944080D01*
X14519048Y-15753604D02*
X14538095Y-15744080D01*
X14576190Y-15744080D01*
X14595238Y-15753604D01*
X14604762Y-15763128D01*
X14614286Y-15782175D01*
X14614286Y-15839318D01*
X14604762Y-15858366D01*
X14595238Y-15867889D01*
X14576190Y-15877413D01*
X14538095Y-15877413D01*
X14519048Y-15867889D01*
X14728571Y-15877413D02*
X14709524Y-15867889D01*
X14700000Y-15848842D01*
X14700000Y-15677413D01*
X14890476Y-15877413D02*
X14890476Y-15772651D01*
X14880952Y-15753604D01*
X14861905Y-15744080D01*
X14823809Y-15744080D01*
X14804762Y-15753604D01*
X14890476Y-15867889D02*
X14871428Y-15877413D01*
X14823809Y-15877413D01*
X14804762Y-15867889D01*
X14795238Y-15848842D01*
X14795238Y-15829794D01*
X14804762Y-15810747D01*
X14823809Y-15801223D01*
X14871428Y-15801223D01*
X14890476Y-15791699D01*
X14957143Y-15744080D02*
X15033333Y-15744080D01*
X14985714Y-15677413D02*
X14985714Y-15848842D01*
X14995238Y-15867889D01*
X15014286Y-15877413D01*
X15033333Y-15877413D01*
X15176190Y-15867889D02*
X15157143Y-15877413D01*
X15119048Y-15877413D01*
X15100000Y-15867889D01*
X15090476Y-15848842D01*
X15090476Y-15772651D01*
X15100000Y-15753604D01*
X15119048Y-15744080D01*
X15157143Y-15744080D01*
X15176190Y-15753604D01*
X15185714Y-15772651D01*
X15185714Y-15791699D01*
X15090476Y-15810747D01*
X15357143Y-15877413D02*
X15357143Y-15677413D01*
X15357143Y-15867889D02*
X15338095Y-15877413D01*
X15300000Y-15877413D01*
X15280952Y-15867889D01*
X15271428Y-15858366D01*
X15261905Y-15839318D01*
X15261905Y-15782175D01*
X15271428Y-15763128D01*
X15280952Y-15753604D01*
X15300000Y-15744080D01*
X15338095Y-15744080D01*
X15357143Y-15753604D01*
X15433333Y-15953604D02*
X15442857Y-15944080D01*
X15461905Y-15915509D01*
X15471428Y-15896461D01*
X15480952Y-15867889D01*
X15490476Y-15820270D01*
X15490476Y-15782175D01*
X15480952Y-15734556D01*
X15471428Y-15705985D01*
X15461905Y-15686937D01*
X15442857Y-15658366D01*
X15433333Y-15648842D01*
X8390000Y-16206937D02*
X8490000Y-16106937D01*
X8390000Y-16006937D01*
X8290000Y-16106937D01*
X8390000Y-16206937D01*
X8728571Y-15997413D02*
X8852381Y-15997413D01*
X8785714Y-16073604D01*
X8814286Y-16073604D01*
X8833333Y-16083128D01*
X8842857Y-16092651D01*
X8852381Y-16111699D01*
X8852381Y-16159318D01*
X8842857Y-16178366D01*
X8833333Y-16187889D01*
X8814286Y-16197413D01*
X8757143Y-16197413D01*
X8738095Y-16187889D01*
X8728571Y-16178366D01*
X8938095Y-16178366D02*
X8947619Y-16187889D01*
X8938095Y-16197413D01*
X8928571Y-16187889D01*
X8938095Y-16178366D01*
X8938095Y-16197413D01*
X9119048Y-16064080D02*
X9119048Y-16197413D01*
X9071429Y-15987889D02*
X9023810Y-16130747D01*
X9147619Y-16130747D01*
X9261905Y-15997413D02*
X9280952Y-15997413D01*
X9300000Y-16006937D01*
X9309524Y-16016461D01*
X9319048Y-16035509D01*
X9328571Y-16073604D01*
X9328571Y-16121223D01*
X9319048Y-16159318D01*
X9309524Y-16178366D01*
X9300000Y-16187889D01*
X9280952Y-16197413D01*
X9261905Y-16197413D01*
X9242857Y-16187889D01*
X9233333Y-16178366D01*
X9223810Y-16159318D01*
X9214286Y-16121223D01*
X9214286Y-16073604D01*
X9223810Y-16035509D01*
X9233333Y-16016461D01*
X9242857Y-16006937D01*
X9261905Y-15997413D01*
X9452381Y-15997413D02*
X9471429Y-15997413D01*
X9490476Y-16006937D01*
X9500000Y-16016461D01*
X9509524Y-16035509D01*
X9519048Y-16073604D01*
X9519048Y-16121223D01*
X9509524Y-16159318D01*
X9500000Y-16178366D01*
X9490476Y-16187889D01*
X9471429Y-16197413D01*
X9452381Y-16197413D01*
X9433333Y-16187889D01*
X9423810Y-16178366D01*
X9414286Y-16159318D01*
X9404762Y-16121223D01*
X9404762Y-16073604D01*
X9414286Y-16035509D01*
X9423810Y-16016461D01*
X9433333Y-16006937D01*
X9452381Y-15997413D01*
X9604762Y-16197413D02*
X9604762Y-16064080D01*
X9604762Y-16083128D02*
X9614286Y-16073604D01*
X9633333Y-16064080D01*
X9661905Y-16064080D01*
X9680952Y-16073604D01*
X9690476Y-16092651D01*
X9690476Y-16197413D01*
X9690476Y-16092651D02*
X9700000Y-16073604D01*
X9719048Y-16064080D01*
X9747619Y-16064080D01*
X9766667Y-16073604D01*
X9776190Y-16092651D01*
X9776190Y-16197413D01*
X9871429Y-16197413D02*
X9871429Y-16064080D01*
X9871429Y-16083128D02*
X9880952Y-16073604D01*
X9900000Y-16064080D01*
X9928571Y-16064080D01*
X9947619Y-16073604D01*
X9957143Y-16092651D01*
X9957143Y-16197413D01*
X9957143Y-16092651D02*
X9966667Y-16073604D01*
X9985714Y-16064080D01*
X10014286Y-16064080D01*
X10033333Y-16073604D01*
X10042857Y-16092651D01*
X10042857Y-16197413D01*
X10433333Y-15987889D02*
X10261905Y-16245032D01*
X10690476Y-15997413D02*
X10709524Y-15997413D01*
X10728571Y-16006937D01*
X10738095Y-16016461D01*
X10747619Y-16035509D01*
X10757143Y-16073604D01*
X10757143Y-16121223D01*
X10747619Y-16159318D01*
X10738095Y-16178366D01*
X10728571Y-16187889D01*
X10709524Y-16197413D01*
X10690476Y-16197413D01*
X10671429Y-16187889D01*
X10661905Y-16178366D01*
X10652381Y-16159318D01*
X10642857Y-16121223D01*
X10642857Y-16073604D01*
X10652381Y-16035509D01*
X10661905Y-16016461D01*
X10671429Y-16006937D01*
X10690476Y-15997413D01*
X10842857Y-16178366D02*
X10852381Y-16187889D01*
X10842857Y-16197413D01*
X10833333Y-16187889D01*
X10842857Y-16178366D01*
X10842857Y-16197413D01*
X11042857Y-16197413D02*
X10928571Y-16197413D01*
X10985714Y-16197413D02*
X10985714Y-15997413D01*
X10966667Y-16025985D01*
X10947619Y-16045032D01*
X10928571Y-16054556D01*
X11109524Y-15997413D02*
X11233333Y-15997413D01*
X11166667Y-16073604D01*
X11195238Y-16073604D01*
X11214286Y-16083128D01*
X11223809Y-16092651D01*
X11233333Y-16111699D01*
X11233333Y-16159318D01*
X11223809Y-16178366D01*
X11214286Y-16187889D01*
X11195238Y-16197413D01*
X11138095Y-16197413D01*
X11119048Y-16187889D01*
X11109524Y-16178366D01*
X11300000Y-15997413D02*
X11423809Y-15997413D01*
X11357143Y-16073604D01*
X11385714Y-16073604D01*
X11404762Y-16083128D01*
X11414286Y-16092651D01*
X11423809Y-16111699D01*
X11423809Y-16159318D01*
X11414286Y-16178366D01*
X11404762Y-16187889D01*
X11385714Y-16197413D01*
X11328571Y-16197413D01*
X11309524Y-16187889D01*
X11300000Y-16178366D01*
X11519048Y-16197413D02*
X11557143Y-16197413D01*
X11576190Y-16187889D01*
X11585714Y-16178366D01*
X11604762Y-16149794D01*
X11614286Y-16111699D01*
X11614286Y-16035509D01*
X11604762Y-16016461D01*
X11595238Y-16006937D01*
X11576190Y-15997413D01*
X11538095Y-15997413D01*
X11519048Y-16006937D01*
X11509524Y-16016461D01*
X11500000Y-16035509D01*
X11500000Y-16083128D01*
X11509524Y-16102175D01*
X11519048Y-16111699D01*
X11538095Y-16121223D01*
X11576190Y-16121223D01*
X11595238Y-16111699D01*
X11604762Y-16102175D01*
X11614286Y-16083128D01*
X11690476Y-15997413D02*
X11690476Y-16035509D01*
X11766667Y-15997413D02*
X11766667Y-16035509D01*
X12061905Y-16273604D02*
X12052381Y-16264080D01*
X12033333Y-16235509D01*
X12023809Y-16216461D01*
X12014286Y-16187889D01*
X12004762Y-16140270D01*
X12004762Y-16102175D01*
X12014286Y-16054556D01*
X12023809Y-16025985D01*
X12033333Y-16006937D01*
X12052381Y-15978366D01*
X12061905Y-15968842D01*
X12128571Y-16016461D02*
X12138095Y-16006937D01*
X12157143Y-15997413D01*
X12204762Y-15997413D01*
X12223809Y-16006937D01*
X12233333Y-16016461D01*
X12242857Y-16035509D01*
X12242857Y-16054556D01*
X12233333Y-16083128D01*
X12119048Y-16197413D01*
X12242857Y-16197413D01*
X12338095Y-16197413D02*
X12376190Y-16197413D01*
X12395238Y-16187889D01*
X12404762Y-16178366D01*
X12423809Y-16149794D01*
X12433333Y-16111699D01*
X12433333Y-16035509D01*
X12423809Y-16016461D01*
X12414286Y-16006937D01*
X12395238Y-15997413D01*
X12357143Y-15997413D01*
X12338095Y-16006937D01*
X12328571Y-16016461D01*
X12319048Y-16035509D01*
X12319048Y-16083128D01*
X12328571Y-16102175D01*
X12338095Y-16111699D01*
X12357143Y-16121223D01*
X12395238Y-16121223D01*
X12414286Y-16111699D01*
X12423809Y-16102175D01*
X12433333Y-16083128D01*
X12671428Y-16197413D02*
X12671428Y-15997413D01*
X12757143Y-16197413D02*
X12757143Y-16092651D01*
X12747619Y-16073604D01*
X12728571Y-16064080D01*
X12700000Y-16064080D01*
X12680952Y-16073604D01*
X12671428Y-16083128D01*
X12880952Y-16197413D02*
X12861905Y-16187889D01*
X12852381Y-16178366D01*
X12842857Y-16159318D01*
X12842857Y-16102175D01*
X12852381Y-16083128D01*
X12861905Y-16073604D01*
X12880952Y-16064080D01*
X12909524Y-16064080D01*
X12928571Y-16073604D01*
X12938095Y-16083128D01*
X12947619Y-16102175D01*
X12947619Y-16159318D01*
X12938095Y-16178366D01*
X12928571Y-16187889D01*
X12909524Y-16197413D01*
X12880952Y-16197413D01*
X13061905Y-16197413D02*
X13042857Y-16187889D01*
X13033333Y-16168842D01*
X13033333Y-15997413D01*
X13214286Y-16187889D02*
X13195238Y-16197413D01*
X13157143Y-16197413D01*
X13138095Y-16187889D01*
X13128571Y-16168842D01*
X13128571Y-16092651D01*
X13138095Y-16073604D01*
X13157143Y-16064080D01*
X13195238Y-16064080D01*
X13214286Y-16073604D01*
X13223809Y-16092651D01*
X13223809Y-16111699D01*
X13128571Y-16130747D01*
X13300000Y-16187889D02*
X13319048Y-16197413D01*
X13357143Y-16197413D01*
X13376190Y-16187889D01*
X13385714Y-16168842D01*
X13385714Y-16159318D01*
X13376190Y-16140270D01*
X13357143Y-16130747D01*
X13328571Y-16130747D01*
X13309524Y-16121223D01*
X13300000Y-16102175D01*
X13300000Y-16092651D01*
X13309524Y-16073604D01*
X13328571Y-16064080D01*
X13357143Y-16064080D01*
X13376190Y-16073604D01*
X13452381Y-16273604D02*
X13461905Y-16264080D01*
X13480952Y-16235509D01*
X13490476Y-16216461D01*
X13500000Y-16187889D01*
X13509524Y-16140270D01*
X13509524Y-16102175D01*
X13500000Y-16054556D01*
X13490476Y-16025985D01*
X13480952Y-16006937D01*
X13461905Y-15978366D01*
X13452381Y-15968842D01*
X13814286Y-16273604D02*
X13804762Y-16264080D01*
X13785714Y-16235509D01*
X13776190Y-16216461D01*
X13766667Y-16187889D01*
X13757143Y-16140270D01*
X13757143Y-16102175D01*
X13766667Y-16054556D01*
X13776190Y-16025985D01*
X13785714Y-16006937D01*
X13804762Y-15978366D01*
X13814286Y-15968842D01*
X13890476Y-16064080D02*
X13890476Y-16197413D01*
X13890476Y-16083128D02*
X13900000Y-16073604D01*
X13919048Y-16064080D01*
X13947619Y-16064080D01*
X13966667Y-16073604D01*
X13976190Y-16092651D01*
X13976190Y-16197413D01*
X14100000Y-16197413D02*
X14080952Y-16187889D01*
X14071428Y-16178366D01*
X14061905Y-16159318D01*
X14061905Y-16102175D01*
X14071428Y-16083128D01*
X14080952Y-16073604D01*
X14100000Y-16064080D01*
X14128571Y-16064080D01*
X14147619Y-16073604D01*
X14157143Y-16083128D01*
X14166667Y-16102175D01*
X14166667Y-16159318D01*
X14157143Y-16178366D01*
X14147619Y-16187889D01*
X14128571Y-16197413D01*
X14100000Y-16197413D01*
X14223809Y-16064080D02*
X14300000Y-16064080D01*
X14252381Y-15997413D02*
X14252381Y-16168842D01*
X14261905Y-16187889D01*
X14280952Y-16197413D01*
X14300000Y-16197413D01*
X14519048Y-16064080D02*
X14519048Y-16264080D01*
X14519048Y-16073604D02*
X14538095Y-16064080D01*
X14576190Y-16064080D01*
X14595238Y-16073604D01*
X14604762Y-16083128D01*
X14614286Y-16102175D01*
X14614286Y-16159318D01*
X14604762Y-16178366D01*
X14595238Y-16187889D01*
X14576190Y-16197413D01*
X14538095Y-16197413D01*
X14519048Y-16187889D01*
X14728571Y-16197413D02*
X14709524Y-16187889D01*
X14700000Y-16168842D01*
X14700000Y-15997413D01*
X14890476Y-16197413D02*
X14890476Y-16092651D01*
X14880952Y-16073604D01*
X14861905Y-16064080D01*
X14823809Y-16064080D01*
X14804762Y-16073604D01*
X14890476Y-16187889D02*
X14871428Y-16197413D01*
X14823809Y-16197413D01*
X14804762Y-16187889D01*
X14795238Y-16168842D01*
X14795238Y-16149794D01*
X14804762Y-16130747D01*
X14823809Y-16121223D01*
X14871428Y-16121223D01*
X14890476Y-16111699D01*
X14957143Y-16064080D02*
X15033333Y-16064080D01*
X14985714Y-15997413D02*
X14985714Y-16168842D01*
X14995238Y-16187889D01*
X15014286Y-16197413D01*
X15033333Y-16197413D01*
X15176190Y-16187889D02*
X15157143Y-16197413D01*
X15119048Y-16197413D01*
X15100000Y-16187889D01*
X15090476Y-16168842D01*
X15090476Y-16092651D01*
X15100000Y-16073604D01*
X15119048Y-16064080D01*
X15157143Y-16064080D01*
X15176190Y-16073604D01*
X15185714Y-16092651D01*
X15185714Y-16111699D01*
X15090476Y-16130747D01*
X15357143Y-16197413D02*
X15357143Y-15997413D01*
X15357143Y-16187889D02*
X15338095Y-16197413D01*
X15300000Y-16197413D01*
X15280952Y-16187889D01*
X15271428Y-16178366D01*
X15261905Y-16159318D01*
X15261905Y-16102175D01*
X15271428Y-16083128D01*
X15280952Y-16073604D01*
X15300000Y-16064080D01*
X15338095Y-16064080D01*
X15357143Y-16073604D01*
X15433333Y-16273604D02*
X15442857Y-16264080D01*
X15461905Y-16235509D01*
X15471428Y-16216461D01*
X15480952Y-16187889D01*
X15490476Y-16140270D01*
X15490476Y-16102175D01*
X15480952Y-16054556D01*
X15471428Y-16025985D01*
X15461905Y-16006937D01*
X15442857Y-15978366D01*
X15433333Y-15968842D01*
M02*
