M48
; DRILL file {KiCad 6.0.2+dfsg-1} date Sat 27 Aug 2022 01:38:34 PM WEST
; FORMAT={-:-/ absolute / metric / decimal}
; #@! TF.CreationDate,2022-08-27T13:38:34+01:00
; #@! TF.GenerationSoftware,Kicad,Pcbnew,6.0.2+dfsg-1
; #@! TF.FileFunction,Plated,1,2,PTH
FMAT,2
METRIC
; #@! TA.AperFunction,Plated,PTH,ViaDrill
T1C0.300
; #@! TA.AperFunction,Plated,PTH,ComponentDrill
T2C0.400
; #@! TA.AperFunction,Plated,PTH,ComponentDrill
T3C0.813
; #@! TA.AperFunction,Plated,PTH,ComponentDrill
T4C0.991
; #@! TA.AperFunction,Plated,PTH,ComponentDrill
T5C1.000
; #@! TA.AperFunction,Plated,PTH,ComponentDrill
T6C1.100
; #@! TA.AperFunction,Plated,PTH,ComponentDrill
T7C1.300
; #@! TA.AperFunction,Plated,PTH,ComponentDrill
T8C1.500
%
G90
G05
T1
X85.775Y-96.0
X85.775Y-102.9
X85.83Y-47.43
X85.875Y-99.4
X86.949Y-71.35
X87.5Y-72.65
X87.775Y-99.4
X87.875Y-96.0
X87.875Y-102.9
X88.675Y-99.4
X90.0Y-127.75
X91.0Y-79.9
X92.718Y-134.482
X93.175Y-126.591
X93.3Y-125.0
X94.8Y-140.6
X95.83Y-128.498
X96.4Y-77.6
X98.35Y-82.5
X100.404Y-120.904
X100.517Y-123.168
X100.65Y-83.5
X100.65Y-85.45
X100.804Y-133.13
X100.855Y-122.238
X101.8Y-127.8
X103.7Y-82.5
X105.65Y-81.55
X107.873Y-127.323
X108.15Y-51.65
X108.15Y-55.4
X108.15Y-79.45
X108.725Y-75.75
X108.75Y-111.65
X109.276Y-70.85
X109.5Y-54.9
X109.5Y-63.9
X109.8Y-92.6
X109.8Y-110.55
X109.801Y-68.2
X110.45Y-59.15
X110.45Y-77.15
X110.45Y-83.5
X110.45Y-95.15
X110.45Y-112.85
X110.45Y-46.55
X111.106Y-126.294
X111.15Y-46.55
X111.15Y-50.4
X111.15Y-63.2
X111.15Y-82.5
X111.15Y-99.15
X111.15Y-108.05
X111.15Y-112.9
X111.15Y-132.9
X111.92Y-118.203
X112.7Y-67.5
X112.7Y-73.25
X112.7Y-85.55
X112.7Y-103.75
X112.923Y-118.66
X113.2Y-49.9
X113.7Y-78.75
X113.7Y-96.6
X113.75Y-91.0
X113.9Y-57.0
X114.3Y-112.55
X115.0Y-122.95
X115.7Y-59.85
X115.75Y-41.9
X115.75Y-77.85
X115.75Y-95.829
X116.35Y-100.4
X116.45Y-42.6
X116.45Y-60.55
X116.45Y-78.55
X116.45Y-96.529
X116.6Y-82.45
X116.8Y-64.65
X119.273Y-126.327
X120.5Y-69.7
X120.5Y-87.75
X120.5Y-105.7
X120.55Y-39.4
X120.55Y-51.7
X120.782Y-116.502
X121.277Y-115.645
X121.35Y-121.3
X123.763Y-118.669
X124.45Y-118.15
X124.55Y-40.501
X124.55Y-42.55
X124.55Y-78.55
X124.55Y-96.529
X124.6Y-60.55
X125.25Y-77.85
X125.25Y-95.829
X125.3Y-59.85
X125.35Y-41.85
X129.1Y-125.975
X130.717Y-121.84
X131.7Y-36.35
X131.7Y-47.25
X131.7Y-65.3
X131.7Y-83.3
X131.7Y-101.25
X132.3Y-112.25
X132.65Y-90.8
X132.7Y-55.65
X132.85Y-80.0
X133.051Y-113.613
X133.15Y-110.35
X133.809Y-114.249
X134.75Y-39.6
X134.75Y-57.65
X134.75Y-75.65
X134.75Y-93.629
X135.15Y-118.55
X135.45Y-40.3
X135.45Y-58.35
X135.45Y-76.35
X135.45Y-94.329
X135.6Y-98.1
X135.8Y-44.1
X135.9Y-62.2
X138.637Y-122.961
X139.45Y-49.4
X139.5Y-67.45
X139.5Y-103.4
X139.55Y-85.4
X141.35Y-118.2
X141.829Y-113.547
X142.465Y-112.789
X142.914Y-116.765
X143.55Y-40.3
X143.55Y-58.3
X143.55Y-76.35
X143.55Y-94.329
X143.85Y-36.8
X144.25Y-39.6
X144.25Y-57.6
X144.25Y-75.55
X144.25Y-93.529
X149.0Y-44.75
X149.0Y-61.8
X149.0Y-79.3
X149.0Y-98.35
X150.45Y-120.25
X150.7Y-41.5
X150.7Y-59.5
X150.7Y-77.5
X150.7Y-95.45
X150.95Y-35.35
X151.7Y-48.9
X151.7Y-66.95
X151.7Y-85.0
X153.2Y-112.3
X153.23Y-111.352
X153.75Y-33.8
X153.75Y-51.8
X153.75Y-69.8
X153.75Y-87.779
X153.9Y-113.0
X153.95Y-56.05
X154.2Y-74.25
X154.45Y-34.5
X154.45Y-52.5
X154.45Y-70.5
X154.45Y-88.48
X154.55Y-92.45
X157.95Y-122.1
X158.45Y-43.65
X158.5Y-61.65
X158.5Y-79.65
X158.5Y-97.65
X161.9Y-113.05
X162.55Y-34.5
X162.55Y-52.5
X162.55Y-70.5
X162.55Y-88.48
X162.6Y-112.35
X163.25Y-33.8
X163.25Y-51.8
X163.25Y-69.75
X163.25Y-87.73
X169.55Y-120.3
X169.7Y-48.0
X169.7Y-66.0
X169.7Y-84.0
X169.7Y-101.95
X169.7Y-110.4
X170.2Y-37.9
X170.95Y-55.4
X170.95Y-73.45
X170.95Y-91.45
X171.2Y-43.75
X172.15Y-112.35
X172.65Y-34.85
X172.75Y-40.35
X172.75Y-58.3
X172.75Y-76.35
X172.75Y-94.329
X172.85Y-113.05
X173.45Y-41.05
X173.45Y-59.0
X173.45Y-77.05
X173.45Y-95.029
X173.5Y-99.0
X173.7Y-80.9
X173.8Y-63.15
X176.95Y-122.15
X177.45Y-68.1
X177.45Y-104.15
X177.5Y-86.15
X177.55Y-50.15
X180.85Y-45.6
X180.95Y-113.0
X181.55Y-41.05
X181.55Y-59.0
X181.55Y-77.05
X181.55Y-95.029
X181.65Y-112.3
X182.25Y-40.35
X182.25Y-58.3
X182.25Y-76.25
X182.25Y-94.23
X187.0Y-55.45
X188.15Y-45.3
X188.7Y-60.75
X188.7Y-78.75
X188.7Y-96.8
X188.7Y-114.75
X189.65Y-68.25
X189.85Y-86.2
X190.4Y-111.029
X190.45Y-123.3
X191.1Y-50.25
X191.7Y-89.1
X191.7Y-107.079
X191.75Y-53.05
X191.75Y-71.05
X192.45Y-53.75
X192.45Y-71.75
X192.45Y-89.8
X192.45Y-107.779
X192.6Y-57.9
X192.65Y-93.6
X192.7Y-75.6
X193.4Y-112.55
X196.5Y-80.85
X196.5Y-98.9
X196.525Y-39.525
X196.525Y-43.95
X196.525Y-46.525
X196.525Y-47.9
X196.55Y-62.9
X196.55Y-116.9
X199.65Y-58.1
X199.75Y-112.65
X200.55Y-53.8
X200.55Y-71.75
X200.55Y-89.8
X200.55Y-107.779
X201.25Y-53.0
X201.25Y-71.05
X201.25Y-89.1
X201.25Y-107.079
X202.75Y-57.1
X203.5Y-123.25
X206.0Y-113.4
X206.7Y-123.15
X207.25Y-51.65
X207.7Y-60.7
X207.7Y-78.75
X207.7Y-96.7
X207.7Y-114.75
X208.8Y-86.25
X208.85Y-68.25
X210.75Y-53.05
X210.75Y-71.05
X210.75Y-89.1
X210.75Y-107.079
X211.45Y-53.8
X211.45Y-71.75
X211.45Y-75.45
X211.45Y-89.8
X211.45Y-107.779
X211.5Y-93.5
X212.6Y-112.6
X215.5Y-62.85
X215.5Y-80.9
X215.5Y-98.9
X215.55Y-116.9
X218.75Y-112.7
X219.5Y-89.8
X219.543Y-107.749
X219.55Y-53.8
X219.55Y-71.8
X220.2Y-89.1
X220.2Y-107.079
X220.25Y-53.05
X220.25Y-71.1
X221.75Y-110.95
T2
X97.638Y-46.58
X97.638Y-49.12
X97.638Y-51.66
X97.638Y-54.2
X97.638Y-56.74
X97.638Y-59.28
X97.638Y-61.82
X97.638Y-64.36
X97.638Y-66.9
X97.638Y-69.44
X97.638Y-71.98
X97.638Y-74.52
X99.162Y-46.58
X99.162Y-49.12
X99.162Y-51.66
X99.162Y-54.2
X99.162Y-56.74
X99.162Y-59.28
X99.162Y-61.82
X99.162Y-64.36
X99.162Y-66.9
X99.162Y-69.44
X99.162Y-71.98
X99.162Y-74.52
T3
X94.59Y-78.85
X97.13Y-78.85
X99.67Y-78.85
X102.21Y-78.85
X102.6Y-87.8
X102.6Y-92.88
X102.638Y-85.679
X104.838Y-85.679
X104.85Y-87.8
X104.85Y-92.88
T4
X94.729Y-115.974
X99.397Y-139.079
X102.349Y-115.974
X106.303Y-135.859
X116.69Y-74.65
X116.69Y-110.55
X116.74Y-56.55
X116.74Y-92.6
X116.874Y-132.022
X124.235Y-130.05
X124.31Y-74.65
X124.31Y-110.55
X124.36Y-56.55
X124.36Y-92.6
X135.253Y-128.176
X135.69Y-54.35
X135.69Y-90.3
X135.69Y-108.35
X135.74Y-72.3
X142.844Y-127.512
X143.31Y-54.35
X143.31Y-90.3
X143.31Y-108.35
X143.36Y-72.3
X154.14Y-127.0
X154.64Y-102.55
X154.74Y-48.5
X154.74Y-66.5
X154.74Y-84.5
X161.76Y-127.0
X162.26Y-102.55
X162.36Y-48.5
X162.36Y-66.5
X162.36Y-84.5
X173.04Y-127.0
X173.69Y-55.05
X173.69Y-73.0
X173.69Y-91.0
X173.69Y-109.05
X180.66Y-127.0
X181.31Y-55.05
X181.31Y-73.0
X181.31Y-91.0
X181.31Y-109.05
X192.69Y-67.8
X192.69Y-121.75
X192.74Y-85.8
X192.79Y-103.75
X200.31Y-67.8
X200.31Y-121.75
X200.36Y-85.8
X200.41Y-103.75
X211.69Y-67.8
X211.69Y-85.75
X211.69Y-121.75
X211.74Y-103.8
X219.31Y-67.8
X219.31Y-85.75
X219.31Y-121.75
X219.36Y-103.8
T5
X91.05Y-105.55
X91.05Y-108.05
X91.05Y-110.55
X105.55Y-105.55
X105.55Y-110.55
T6
X90.78Y-46.58
X90.78Y-46.58
X90.78Y-49.12
X90.78Y-51.66
X90.78Y-54.2
X90.78Y-56.74
X90.78Y-59.28
X90.78Y-61.82
X90.78Y-64.36
X90.78Y-66.9
X90.78Y-69.44
X90.78Y-71.98
X90.78Y-74.52
X106.02Y-46.58
X106.02Y-46.58
X106.02Y-49.12
X106.02Y-51.66
X106.02Y-54.2
X106.02Y-56.74
X106.02Y-59.28
X106.02Y-61.82
X106.02Y-64.36
X106.02Y-66.9
X106.02Y-69.44
X106.02Y-71.98
X106.02Y-74.52
T7
X95.15Y-95.175
X101.65Y-95.175
T5
X88.05Y-85.425G85X88.55Y-85.425
G05
X88.05Y-91.375G85X88.55Y-91.375
G05
X91.05Y-85.425G85X91.55Y-85.425
G05
X91.05Y-91.375G85X91.55Y-91.375
G05
X95.05Y-85.425G85X95.55Y-85.425
G05
X95.05Y-91.375G85X95.55Y-91.375
G05
X96.55Y-87.175G85X97.05Y-87.175
G05
X96.55Y-89.625G85X97.05Y-89.625
G05
T8
X97.9Y-102.45G85X99.2Y-102.45
G05
X97.9Y-113.65G85X99.2Y-113.65
G05
T0
M30
