M48
; DRILL file {KiCad 6.0.2+dfsg-1} date Mon 14 Nov 2022 09:07:37 PM WET
; FORMAT={-:-/ absolute / metric / decimal}
; #@! TF.CreationDate,2022-11-14T21:07:37+00:00
; #@! TF.GenerationSoftware,Kicad,Pcbnew,6.0.2+dfsg-1
; #@! TF.FileFunction,NonPlated,1,2,NPTH
FMAT,2
METRIC
; #@! TA.AperFunction,NonPlated,NPTH,ComponentDrill
T1C0.850
; #@! TA.AperFunction,NonPlated,NPTH,ComponentDrill
T2C1.000
; #@! TA.AperFunction,NonPlated,NPTH,ComponentDrill
T3C1.800
; #@! TA.AperFunction,NonPlated,NPTH,ComponentDrill
T4C3.000
; #@! TA.AperFunction,NonPlated,NPTH,ComponentDrill
T5C3.400
%
G90
G05
T1
X86.825Y-97.95
X86.825Y-97.95
X86.825Y-100.95
X86.825Y-100.95
T2
X92.643Y-128.219
X102.105Y-123.806
X112.125Y-120.131
X115.28Y-43.819
X115.28Y-61.819
X115.28Y-79.819
X115.28Y-97.819
X122.209Y-117.428
X125.72Y-43.819
X125.72Y-61.819
X125.72Y-79.819
X125.72Y-97.819
X132.732Y-115.615
X134.28Y-41.569
X134.28Y-59.569
X134.28Y-77.569
X134.28Y-95.569
X143.132Y-114.705
X144.72Y-41.569
X144.72Y-59.569
X144.72Y-77.569
X144.72Y-95.569
X152.68Y-114.259
X153.28Y-35.75
X153.28Y-53.74
X153.28Y-71.74
X153.28Y-89.74
X163.12Y-114.259
X163.72Y-35.75
X163.72Y-53.74
X163.72Y-71.74
X163.72Y-89.74
X171.68Y-114.269
X172.28Y-42.27
X172.28Y-60.27
X172.28Y-78.269
X172.28Y-96.269
X182.12Y-114.269
X182.72Y-42.27
X182.72Y-60.27
X182.72Y-78.269
X182.72Y-96.269
X191.28Y-55.02
X191.28Y-73.019
X191.28Y-91.019
X191.28Y-109.019
X201.72Y-55.02
X201.72Y-73.019
X201.72Y-91.019
X201.72Y-109.019
X210.28Y-55.02
X210.28Y-73.019
X210.28Y-91.019
X210.292Y-109.019
X220.72Y-55.02
X220.72Y-73.019
X220.72Y-91.019
X220.732Y-109.019
T3
X94.165Y-132.143
X104.134Y-127.495
X112.942Y-124.26
X115.0Y-48.02
X115.0Y-66.019
X115.0Y-84.019
X115.0Y-102.019
X123.567Y-121.413
X126.0Y-48.02
X126.0Y-66.019
X126.0Y-84.019
X126.0Y-102.019
X132.819Y-119.824
X134.0Y-45.77
X134.0Y-63.769
X134.0Y-81.769
X134.0Y-99.769
X143.777Y-118.865
X145.0Y-45.77
X145.0Y-63.769
X145.0Y-81.769
X145.0Y-99.769
X152.4Y-118.459
X153.0Y-39.95
X153.0Y-57.94
X153.0Y-75.94
X153.0Y-93.94
X163.4Y-118.459
X164.0Y-39.95
X164.0Y-57.94
X164.0Y-75.94
X164.0Y-93.94
X171.4Y-118.469
X172.0Y-46.469
X172.0Y-64.469
X172.0Y-82.469
X172.0Y-100.469
X182.4Y-118.469
X183.0Y-46.469
X183.0Y-64.469
X183.0Y-82.469
X183.0Y-100.469
X191.0Y-59.219
X191.0Y-77.219
X191.0Y-95.219
X191.0Y-113.219
X202.0Y-59.219
X202.0Y-77.219
X202.0Y-95.219
X202.0Y-113.219
X210.0Y-59.219
X210.0Y-77.219
X210.0Y-95.219
X210.012Y-113.219
X221.0Y-59.219
X221.0Y-77.219
X221.0Y-95.219
X221.012Y-113.219
T4
X96.181Y-135.285
X101.643Y-135.166
X105.244Y-131.059
X114.382Y-127.704
X115.5Y-51.719
X115.5Y-69.719
X115.5Y-87.719
X115.5Y-105.719
X119.781Y-128.535
X120.5Y-53.919
X120.5Y-71.919
X120.5Y-89.919
X120.5Y-107.919
X124.042Y-125.116
X125.5Y-51.719
X125.5Y-69.719
X125.5Y-87.719
X125.5Y-105.719
X133.64Y-123.466
X134.5Y-49.469
X134.5Y-67.469
X134.5Y-85.469
X134.5Y-103.469
X138.812Y-125.222
X139.5Y-51.669
X139.5Y-69.669
X139.5Y-87.669
X139.5Y-105.669
X143.601Y-122.594
X144.5Y-49.469
X144.5Y-67.469
X144.5Y-85.469
X144.5Y-103.469
X152.9Y-122.159
X153.5Y-43.65
X153.5Y-61.64
X153.5Y-79.64
X153.5Y-97.64
X157.9Y-124.359
X158.5Y-45.85
X158.5Y-63.84
X158.5Y-81.84
X158.5Y-99.84
X162.9Y-122.159
X163.5Y-43.65
X163.5Y-61.64
X163.5Y-79.64
X163.5Y-97.64
X171.9Y-122.169
X172.5Y-50.169
X172.5Y-68.169
X172.5Y-86.169
X172.5Y-104.169
X176.9Y-124.369
X177.5Y-52.369
X177.5Y-70.37
X177.5Y-88.37
X177.5Y-106.37
X181.9Y-122.169
X182.5Y-50.169
X182.5Y-68.169
X182.5Y-86.169
X182.5Y-104.169
X191.5Y-62.919
X191.5Y-80.919
X191.5Y-98.919
X191.5Y-116.919
X196.5Y-65.12
X196.5Y-83.12
X196.5Y-101.12
X196.5Y-119.119
X201.5Y-62.919
X201.5Y-80.919
X201.5Y-98.919
X201.5Y-116.919
X210.5Y-62.919
X210.5Y-80.919
X210.5Y-98.919
X210.512Y-116.919
X215.5Y-65.12
X215.5Y-83.12
X215.5Y-101.12
X215.512Y-119.119
X220.5Y-62.919
X220.5Y-80.919
X220.5Y-98.919
X220.512Y-116.919
T5
X99.149Y-129.819
X118.254Y-122.836
X120.5Y-48.02
X120.5Y-66.019
X120.5Y-84.019
X120.5Y-102.019
X138.298Y-119.344
X139.5Y-45.77
X139.5Y-63.769
X139.5Y-81.769
X139.5Y-99.769
X157.9Y-118.459
X158.5Y-39.95
X158.5Y-57.94
X158.5Y-75.94
X158.5Y-93.94
X176.9Y-118.469
X177.5Y-46.469
X177.5Y-64.469
X177.5Y-82.469
X177.5Y-100.469
X196.5Y-59.219
X196.5Y-77.219
X196.5Y-95.219
X196.5Y-113.219
X215.5Y-59.219
X215.5Y-77.219
X215.5Y-95.219
X215.512Y-113.219
T0
M30
